G04*
G04 #@! TF.GenerationSoftware,Altium Limited,Altium Designer,21.6.1 (37)*
G04*
G04 Layer_Color=8388736*
%FSAX44Y44*%
%MOMM*%
G71*
G04*
G04 #@! TF.SameCoordinates,618BDD94-0BF2-4233-98CF-319708F98917*
G04*
G04*
G04 #@! TF.FilePolarity,Positive*
G04*
G01*
G75*
%ADD13C,0.1778*%
%ADD15C,0.2032*%
%ADD17C,0.2540*%
%ADD43C,0.1524*%
%ADD44R,3.1750X3.1750*%
%ADD45R,9.5250X3.1750*%
G54D13*
X00175768Y00351536D02*
X00429768D01*
X00175768Y00288036D02*
X00429768D01*
X00175768Y00319786D02*
X00429768D01*
X00175768Y00288036D02*
Y00351536D01*
X00207518Y00288036D02*
Y00351536D01*
X00239268Y00288036D02*
Y00351536D01*
X00302768Y00288036D02*
Y00351536D01*
X00366268Y00288036D02*
Y00351536D01*
X00429768Y00288036D02*
Y00351536D01*
G54D15*
X00322326Y00171579D02*
Y00186814D01*
X00327404Y00181735D01*
X00332483Y00186814D01*
Y00171579D01*
X00347718D02*
X00337561D01*
X00347718Y00181735D01*
Y00184275D01*
X00345179Y00186814D01*
X00340100D01*
X00337561Y00184275D01*
X00368031Y00186814D02*
Y00171579D01*
X00375649D01*
X00378188Y00174118D01*
Y00176657D01*
X00375649Y00179196D01*
X00368031D01*
X00375649D01*
X00378188Y00181735D01*
Y00184275D01*
X00375649Y00186814D01*
X00368031D01*
X00385806Y00171579D02*
X00390884D01*
X00393423Y00174118D01*
Y00179196D01*
X00390884Y00181735D01*
X00385806D01*
X00383266Y00179196D01*
Y00174118D01*
X00385806Y00171579D01*
X00401040Y00181735D02*
X00406119D01*
X00408658Y00179196D01*
Y00171579D01*
X00401040D01*
X00398501Y00174118D01*
X00401040Y00176657D01*
X00408658D01*
X00413736Y00181735D02*
Y00171579D01*
Y00176657D01*
X00416276Y00179196D01*
X00418815Y00181735D01*
X00421354D01*
X00439128Y00186814D02*
Y00171579D01*
X00431511D01*
X00428971Y00174118D01*
Y00179196D01*
X00431511Y00181735D01*
X00439128D01*
X00459442Y00186814D02*
Y00171579D01*
X00467059D01*
X00469598Y00174118D01*
Y00184275D01*
X00467059Y00186814D01*
X00459442D01*
X00474677Y00171579D02*
X00479755D01*
X00477216D01*
Y00181735D01*
X00474677D01*
X00487373Y00171579D02*
Y00181735D01*
X00489912D01*
X00492451Y00179196D01*
Y00171579D01*
Y00179196D01*
X00494990Y00181735D01*
X00497529Y00179196D01*
Y00171579D01*
X00510225D02*
X00505147D01*
X00502608Y00174118D01*
Y00179196D01*
X00505147Y00181735D01*
X00510225D01*
X00512764Y00179196D01*
Y00176657D01*
X00502608D01*
X00517843Y00171579D02*
Y00181735D01*
X00525460D01*
X00527999Y00179196D01*
Y00171579D01*
X00533078D02*
X00540695D01*
X00543234Y00174118D01*
X00540695Y00176657D01*
X00535617D01*
X00533078Y00179196D01*
X00535617Y00181735D01*
X00543234D01*
X00548313Y00171579D02*
X00553391D01*
X00550852D01*
Y00181735D01*
X00548313D01*
X00563548Y00171579D02*
X00568626D01*
X00571166Y00174118D01*
Y00179196D01*
X00568626Y00181735D01*
X00563548D01*
X00561009Y00179196D01*
Y00174118D01*
X00563548Y00171579D01*
X00576244D02*
Y00181735D01*
X00583861D01*
X00586401Y00179196D01*
Y00171579D01*
X00591479D02*
X00599096D01*
X00601636Y00174118D01*
X00599096Y00176657D01*
X00594018D01*
X00591479Y00179196D01*
X00594018Y00181735D01*
X00601636D01*
X01441196Y00223097D02*
Y00238332D01*
X01451353Y00223097D01*
Y00238332D01*
X01458970Y00223097D02*
X01464049D01*
X01466588Y00225636D01*
Y00230714D01*
X01464049Y00233253D01*
X01458970D01*
X01456431Y00230714D01*
Y00225636D01*
X01458970Y00223097D01*
X01474205Y00235793D02*
Y00233253D01*
X01471666D01*
X01476745D01*
X01474205D01*
Y00225636D01*
X01476745Y00223097D01*
X01499597D02*
X01504675D01*
X01502136D01*
Y00233253D01*
X01499597D01*
X01512293Y00223097D02*
Y00233253D01*
X01519910D01*
X01522450Y00230714D01*
Y00223097D01*
X01542763Y00233253D02*
X01547841Y00223097D01*
X01552920Y00233253D01*
X01565616Y00223097D02*
X01560537D01*
X01557998Y00225636D01*
Y00230714D01*
X01560537Y00233253D01*
X01565616D01*
X01568155Y00230714D01*
Y00228175D01*
X01557998D01*
X01573233Y00233253D02*
Y00223097D01*
Y00228175D01*
X01575773Y00230714D01*
X01578312Y00233253D01*
X01580851D01*
X01588468Y00223097D02*
X01596086D01*
X01598625Y00225636D01*
X01596086Y00228175D01*
X01591008D01*
X01588468Y00230714D01*
X01591008Y00233253D01*
X01598625D01*
X01603703Y00223097D02*
X01608782D01*
X01606243D01*
Y00233253D01*
X01603703D01*
X01618938Y00223097D02*
X01624017D01*
X01626556Y00225636D01*
Y00230714D01*
X01624017Y00233253D01*
X01618938D01*
X01616399Y00230714D01*
Y00225636D01*
X01618938Y00223097D01*
X01631634D02*
Y00233253D01*
X01639252D01*
X01641791Y00230714D01*
Y00223097D01*
X01672261Y00233253D02*
X01664644D01*
X01662104Y00230714D01*
Y00225636D01*
X01664644Y00223097D01*
X01672261D01*
X01679879D02*
X01684957D01*
X01687496Y00225636D01*
Y00230714D01*
X01684957Y00233253D01*
X01679879D01*
X01677340Y00230714D01*
Y00225636D01*
X01679879Y00223097D01*
X01692575D02*
Y00233253D01*
X01700192D01*
X01702731Y00230714D01*
Y00223097D01*
X01710349Y00235793D02*
Y00233253D01*
X01707810D01*
X01712888D01*
X01710349D01*
Y00225636D01*
X01712888Y00223097D01*
X01720506Y00233253D02*
Y00223097D01*
Y00228175D01*
X01723045Y00230714D01*
X01725584Y00233253D01*
X01728123D01*
X01738280Y00223097D02*
X01743358D01*
X01745897Y00225636D01*
Y00230714D01*
X01743358Y00233253D01*
X01738280D01*
X01735741Y00230714D01*
Y00225636D01*
X01738280Y00223097D01*
X01750976D02*
X01756054D01*
X01753515D01*
Y00238332D01*
X01750976D01*
X01322829Y00235793D02*
X01320289Y00238332D01*
X01315211D01*
X01312672Y00235793D01*
Y00233253D01*
X01315211Y00230714D01*
X01320289D01*
X01322829Y00228175D01*
Y00225636D01*
X01320289Y00223097D01*
X01315211D01*
X01312672Y00225636D01*
X01327907Y00238332D02*
Y00228175D01*
X01332985Y00223097D01*
X01338064Y00228175D01*
Y00238332D01*
X01343142Y00223097D02*
Y00238332D01*
X01353299Y00223097D01*
Y00238332D01*
X01373612Y00223097D02*
Y00238332D01*
X01381230D01*
X01383769Y00235793D01*
Y00230714D01*
X01381230Y00228175D01*
X01373612D01*
X01378691D02*
X01383769Y00223097D01*
X01399004Y00238332D02*
X01388847D01*
Y00223097D01*
X01399004D01*
X01388847Y00230714D02*
X01393926D01*
X01404082Y00238332D02*
Y00228175D01*
X01409161Y00223097D01*
X01414239Y00228175D01*
Y00238332D01*
X01419317Y00233253D02*
X01421857D01*
Y00230714D01*
X01419317D01*
Y00233253D01*
Y00225636D02*
X01421857D01*
Y00223097D01*
X01419317D01*
Y00225636D01*
X01099820Y00223097D02*
Y00238332D01*
X01107438D01*
X01109977Y00235793D01*
Y00230714D01*
X01107438Y00228175D01*
X01099820D01*
X01104898D02*
X01109977Y00223097D01*
X01125212Y00238332D02*
X01115055D01*
Y00223097D01*
X01125212D01*
X01115055Y00230714D02*
X01120133D01*
X01130290Y00238332D02*
Y00228175D01*
X01135368Y00223097D01*
X01140447Y00228175D01*
Y00238332D01*
X01145525Y00233253D02*
X01148064D01*
Y00230714D01*
X01145525D01*
Y00233253D01*
Y00225636D02*
X01148064D01*
Y00223097D01*
X01145525D01*
Y00225636D01*
X00322326Y00119295D02*
Y00134530D01*
X00329944D01*
X00332483Y00131991D01*
Y00126912D01*
X00329944Y00124373D01*
X00322326D01*
X00337561Y00119295D02*
Y00134530D01*
X00342639Y00129452D01*
X00347718Y00134530D01*
Y00119295D01*
X00352796D02*
Y00134530D01*
X00360414D01*
X00362953Y00131991D01*
Y00126912D01*
X00360414Y00124373D01*
X00352796D01*
X00378188Y00119295D02*
X00368031D01*
X00378188Y00129452D01*
Y00131991D01*
X00375649Y00134530D01*
X00370570D01*
X00368031Y00131991D01*
X00393423Y00119295D02*
X00383266D01*
X00393423Y00129452D01*
Y00131991D01*
X00390884Y00134530D01*
X00385806D01*
X00383266Y00131991D01*
X00398501Y00134530D02*
X00408658D01*
Y00131991D01*
X00398501Y00121834D01*
Y00119295D01*
X00413736D02*
X00418815D01*
X00416276D01*
Y00134530D01*
X00413736Y00131991D01*
X00436589Y00119295D02*
X00426432D01*
X00436589Y00129452D01*
Y00131991D01*
X00434050Y00134530D01*
X00428971D01*
X00426432Y00131991D01*
X00451824Y00134530D02*
X00441667D01*
Y00119295D01*
X00451824D01*
X00441667Y00126912D02*
X00446746D01*
X00467059Y00119295D02*
X00456903D01*
X00467059Y00129452D01*
Y00131991D01*
X00464520Y00134530D01*
X00459442D01*
X00456903Y00131991D01*
X00472137Y00119295D02*
Y00121834D01*
X00474677D01*
Y00119295D01*
X00472137D01*
X00494990Y00131991D02*
X00492451Y00134530D01*
X00487373D01*
X00484833Y00131991D01*
Y00121834D01*
X00487373Y00119295D01*
X00492451D01*
X00494990Y00121834D01*
Y00126912D01*
X00489912D01*
X00500069Y00119295D02*
Y00134530D01*
X00505147Y00129452D01*
X00510225Y00134530D01*
Y00119295D01*
X00525460D02*
X00515304D01*
X00525460Y00129452D01*
Y00131991D01*
X00522921Y00134530D01*
X00517843D01*
X00515304Y00131991D01*
X00968121D02*
X00970660Y00134530D01*
X00975739D01*
X00978278Y00131991D01*
Y00129452D01*
X00975739Y00126912D01*
X00978278Y00124373D01*
Y00121834D01*
X00975739Y00119295D01*
X00970660D01*
X00968121Y00121834D01*
Y00124373D01*
X00970660Y00126912D01*
X00968121Y00129452D01*
Y00131991D01*
X00970660Y00126912D02*
X00975739D01*
X00983356Y00119295D02*
X00993513Y00129452D01*
X01008748Y00119295D02*
X00998591D01*
X01008748Y00129452D01*
Y00131991D01*
X01006209Y00134530D01*
X01001130D01*
X00998591Y00131991D01*
X01013826D02*
X01016365Y00134530D01*
X01021444D01*
X01023983Y00131991D01*
Y00121834D01*
X01021444Y00119295D01*
X01016365D01*
X01013826Y00121834D01*
Y00131991D01*
X01029061Y00119295D02*
X01039218Y00129452D01*
X01054453Y00119295D02*
X01044296D01*
X01054453Y00129452D01*
Y00131991D01*
X01051914Y00134530D01*
X01046835D01*
X01044296Y00131991D01*
X01059531D02*
X01062071Y00134530D01*
X01067149D01*
X01069688Y00131991D01*
Y00121834D01*
X01067149Y00119295D01*
X01062071D01*
X01059531Y00121834D01*
Y00131991D01*
X01084923Y00119295D02*
X01074766D01*
X01084923Y00129452D01*
Y00131991D01*
X01082384Y00134530D01*
X01077306D01*
X01074766Y00131991D01*
X01090002Y00119295D02*
X01095080D01*
X01092541D01*
Y00134530D01*
X01090002Y00131991D01*
X00757425D02*
X00754885Y00134530D01*
X00749807D01*
X00747268Y00131991D01*
Y00121834D01*
X00749807Y00119295D01*
X00754885D01*
X00757425Y00121834D01*
Y00126912D01*
X00752346D01*
X00772660Y00134530D02*
X00762503D01*
Y00119295D01*
X00772660D01*
X00762503Y00126912D02*
X00767581D01*
X00777738Y00119295D02*
Y00134530D01*
X00787895Y00119295D01*
Y00134530D01*
X00803130D02*
X00792973D01*
Y00119295D01*
X00803130D01*
X00792973Y00126912D02*
X00798052D01*
X00808208Y00119295D02*
Y00134530D01*
X00815826D01*
X00818365Y00131991D01*
Y00126912D01*
X00815826Y00124373D01*
X00808208D01*
X00813287D02*
X00818365Y00119295D01*
X00823443D02*
Y00129452D01*
X00828522Y00134530D01*
X00833600Y00129452D01*
Y00119295D01*
Y00126912D01*
X00823443D01*
X00838678Y00134530D02*
X00848835D01*
X00843757D01*
Y00119295D01*
X00864070Y00134530D02*
X00853913D01*
Y00119295D01*
X00864070D01*
X00853913Y00126912D02*
X00858992D01*
X00869149Y00134530D02*
Y00119295D01*
X00876766D01*
X00879305Y00121834D01*
Y00131991D01*
X00876766Y00134530D01*
X00869149D01*
X00945324Y00129452D02*
X00947863D01*
Y00126912D01*
X00945324D01*
Y00129452D01*
Y00121834D02*
X00947863D01*
Y00119295D01*
X00945324D01*
Y00121834D01*
X00117729Y00223097D02*
Y00233253D01*
X00122807Y00238332D01*
X00127886Y00233253D01*
Y00223097D01*
Y00230714D01*
X00117729D01*
X00132964Y00238332D02*
Y00223097D01*
X00143121D01*
X00148199Y00238332D02*
Y00223097D01*
X00158356D01*
X00178669D02*
Y00233253D01*
X00183748Y00238332D01*
X00188826Y00233253D01*
Y00223097D01*
Y00230714D01*
X00178669D01*
X00193904Y00223097D02*
Y00238332D01*
X00201522D01*
X00204061Y00235793D01*
Y00230714D01*
X00201522Y00228175D01*
X00193904D01*
X00198983D02*
X00204061Y00223097D01*
X00209139Y00238332D02*
X00219296D01*
X00214218D01*
Y00223097D01*
X00224375Y00238332D02*
Y00223097D01*
X00229453Y00228175D01*
X00234531Y00223097D01*
Y00238332D01*
X00247227D02*
X00242149D01*
X00239610Y00235793D01*
Y00225636D01*
X00242149Y00223097D01*
X00247227D01*
X00249766Y00225636D01*
Y00235793D01*
X00247227Y00238332D01*
X00254845Y00223097D02*
Y00238332D01*
X00262462D01*
X00265001Y00235793D01*
Y00230714D01*
X00262462Y00228175D01*
X00254845D01*
X00259923D02*
X00265001Y00223097D01*
X00270080Y00238332D02*
Y00223097D01*
Y00228175D01*
X00280236Y00238332D01*
X00272619Y00230714D01*
X00280236Y00223097D01*
X00300550Y00238332D02*
Y00228175D01*
X00305628Y00223097D01*
X00310707Y00228175D01*
Y00238332D01*
X00315785D02*
X00320863D01*
X00318324D01*
Y00223097D01*
X00315785D01*
X00320863D01*
X00338638Y00238332D02*
X00328481D01*
Y00223097D01*
X00338638D01*
X00328481Y00230714D02*
X00333559D01*
X00343716Y00238332D02*
Y00223097D01*
X00348794Y00228175D01*
X00353873Y00223097D01*
Y00238332D01*
X00369108D02*
X00358951D01*
Y00223097D01*
X00369108D01*
X00358951Y00230714D02*
X00364029D01*
X00374186Y00238332D02*
Y00223097D01*
X00381804D01*
X00384343Y00225636D01*
Y00235793D01*
X00381804Y00238332D01*
X00374186D01*
X00414813D02*
X00404656D01*
Y00230714D01*
X00409734D01*
X00404656D01*
Y00223097D01*
X00419891D02*
Y00238332D01*
X00427509D01*
X00430048Y00235793D01*
Y00230714D01*
X00427509Y00228175D01*
X00419891D01*
X00424970D02*
X00430048Y00223097D01*
X00442744Y00238332D02*
X00437665D01*
X00435126Y00235793D01*
Y00225636D01*
X00437665Y00223097D01*
X00442744D01*
X00445283Y00225636D01*
Y00235793D01*
X00442744Y00238332D01*
X00450361Y00223097D02*
Y00238332D01*
X00455440Y00233253D01*
X00460518Y00238332D01*
Y00223097D01*
X00480832Y00238332D02*
X00490988D01*
X00485910D01*
Y00223097D01*
X00503684Y00238332D02*
X00498606D01*
X00496067Y00235793D01*
Y00225636D01*
X00498606Y00223097D01*
X00503684D01*
X00506223Y00225636D01*
Y00235793D01*
X00503684Y00238332D01*
X00511302Y00223097D02*
Y00238332D01*
X00518919D01*
X00521458Y00235793D01*
Y00230714D01*
X00518919Y00228175D01*
X00511302D01*
X00551929Y00235793D02*
X00549389Y00238332D01*
X00544311D01*
X00541772Y00235793D01*
Y00233253D01*
X00544311Y00230714D01*
X00549389D01*
X00551929Y00228175D01*
Y00225636D01*
X00549389Y00223097D01*
X00544311D01*
X00541772Y00225636D01*
X00557007Y00238332D02*
X00562085D01*
X00559546D01*
Y00223097D01*
X00557007D01*
X00562085D01*
X00569703Y00238332D02*
Y00223097D01*
X00577320D01*
X00579860Y00225636D01*
Y00235793D01*
X00577320Y00238332D01*
X00569703D01*
X00595095D02*
X00584938D01*
Y00223097D01*
X00595095D01*
X00584938Y00230714D02*
X00590016D01*
X01184018Y00238332D02*
X01173861D01*
Y00223097D01*
X01184018D01*
X01173861Y00230714D02*
X01178939D01*
X01199253Y00223097D02*
X01189096D01*
X01199253Y00233253D01*
Y00235793D01*
X01196714Y00238332D01*
X01191635D01*
X01189096Y00235793D01*
X00885317Y00223097D02*
Y00238332D01*
X00892934D01*
X00895474Y00235793D01*
Y00230714D01*
X00892934Y00228175D01*
X00885317D01*
X00900552Y00223097D02*
Y00238332D01*
X00905630Y00233253D01*
X00910709Y00238332D01*
Y00223097D01*
X00915787D02*
Y00238332D01*
X00923405D01*
X00925944Y00235793D01*
Y00230714D01*
X00923405Y00228175D01*
X00915787D01*
X00941179Y00223097D02*
X00931022D01*
X00941179Y00233253D01*
Y00235793D01*
X00938640Y00238332D01*
X00933561D01*
X00931022Y00235793D01*
X00956414Y00223097D02*
X00946257D01*
X00956414Y00233253D01*
Y00235793D01*
X00953875Y00238332D01*
X00948796D01*
X00946257Y00235793D01*
X00961492Y00238332D02*
X00971649D01*
Y00235793D01*
X00961492Y00225636D01*
Y00223097D01*
X00976727D02*
X00981806D01*
X00979267D01*
Y00238332D01*
X00976727Y00235793D01*
X00999580Y00223097D02*
X00989423D01*
X00999580Y00233253D01*
Y00235793D01*
X00997041Y00238332D01*
X00991963D01*
X00989423Y00235793D01*
X00746760Y00238332D02*
Y00223097D01*
X00754378D01*
X00756917Y00225636D01*
Y00228175D01*
X00754378Y00230714D01*
X00746760D01*
X00754378D01*
X00756917Y00233253D01*
Y00235793D01*
X00754378Y00238332D01*
X00746760D01*
X00769613D02*
X00764534D01*
X00761995Y00235793D01*
Y00225636D01*
X00764534Y00223097D01*
X00769613D01*
X00772152Y00225636D01*
Y00235793D01*
X00769613Y00238332D01*
X00777230Y00223097D02*
Y00233253D01*
X00782309Y00238332D01*
X00787387Y00233253D01*
Y00223097D01*
Y00230714D01*
X00777230D01*
X00792465Y00223097D02*
Y00238332D01*
X00800083D01*
X00802622Y00235793D01*
Y00230714D01*
X00800083Y00228175D01*
X00792465D01*
X00797544D02*
X00802622Y00223097D01*
X00807700Y00238332D02*
Y00223097D01*
X00815318D01*
X00817857Y00225636D01*
Y00235793D01*
X00815318Y00238332D01*
X00807700D01*
X00840710Y00223097D02*
Y00238332D01*
X00845788D02*
Y00223097D01*
X00838170Y00233253D02*
X00845788D01*
X00848327D01*
X00838170Y00228175D02*
X00848327D01*
X00853406Y00233253D02*
X00855945D01*
Y00230714D01*
X00853406D01*
Y00233253D01*
Y00225636D02*
X00855945D01*
Y00223097D01*
X00853406D01*
Y00225636D01*
X00117729Y00186814D02*
Y00171579D01*
X00127886D01*
X00132964D02*
Y00181735D01*
X00138042Y00186814D01*
X00143121Y00181735D01*
Y00171579D01*
Y00179196D01*
X00132964D01*
X00148199Y00186814D02*
Y00184275D01*
X00153278Y00179196D01*
X00158356Y00184275D01*
Y00186814D01*
X00153278Y00179196D02*
Y00171579D01*
X00173591Y00186814D02*
X00163434D01*
Y00171579D01*
X00173591D01*
X00163434Y00179196D02*
X00168513D01*
X00178669Y00171579D02*
Y00186814D01*
X00186287D01*
X00188826Y00184275D01*
Y00179196D01*
X00186287Y00176657D01*
X00178669D01*
X00183748D02*
X00188826Y00171579D01*
X00209139D02*
Y00186814D01*
X00219296Y00171579D01*
Y00186814D01*
X00224375Y00171579D02*
Y00181735D01*
X00229453Y00186814D01*
X00234531Y00181735D01*
Y00171579D01*
Y00179196D01*
X00224375D01*
X00239610Y00171579D02*
Y00186814D01*
X00244688Y00181735D01*
X00249766Y00186814D01*
Y00171579D01*
X00265001Y00186814D02*
X00254845D01*
Y00171579D01*
X00265001D01*
X00254845Y00179196D02*
X00259923D01*
X00285315Y00176657D02*
X00295471D01*
X00285315Y00181735D02*
X00295471D01*
X00117729Y00119295D02*
Y00134530D01*
X00125346D01*
X00127886Y00131991D01*
Y00126912D01*
X00125346Y00124373D01*
X00117729D01*
X00132964Y00134530D02*
Y00119295D01*
X00143121D01*
X00155817Y00134530D02*
X00150738D01*
X00148199Y00131991D01*
Y00121834D01*
X00150738Y00119295D01*
X00155817D01*
X00158356Y00121834D01*
Y00131991D01*
X00155817Y00134530D01*
X00163434D02*
X00173591D01*
X00168513D01*
Y00119295D01*
X00193904D02*
Y00134530D01*
X00204061Y00119295D01*
Y00134530D01*
X00209139Y00119295D02*
Y00129452D01*
X00214218Y00134530D01*
X00219296Y00129452D01*
Y00119295D01*
Y00126912D01*
X00209139D01*
X00224375Y00119295D02*
Y00134530D01*
X00229453Y00129452D01*
X00234531Y00134530D01*
Y00119295D01*
X00249766Y00134530D02*
X00239610D01*
Y00119295D01*
X00249766D01*
X00239610Y00126912D02*
X00244688D01*
X00270080Y00124373D02*
X00280236D01*
X00270080Y00129452D02*
X00280236D01*
X01153287Y00119295D02*
X01158365D01*
X01155826D01*
Y00134530D01*
X01153287Y00131991D01*
X01176140Y00119295D02*
X01165983D01*
X01176140Y00129452D01*
Y00131991D01*
X01173600Y00134530D01*
X01168522D01*
X01165983Y00131991D01*
X01181218Y00129452D02*
X01183757D01*
Y00126912D01*
X01181218D01*
Y00129452D01*
Y00121834D02*
X01183757D01*
Y00119295D01*
X01181218D01*
Y00121834D01*
X01204071Y00119295D02*
X01193914D01*
X01204071Y00129452D01*
Y00131991D01*
X01201531Y00134530D01*
X01196453D01*
X01193914Y00131991D01*
X01209149Y00121834D02*
X01211688Y00119295D01*
X01216767D01*
X01219306Y00121834D01*
Y00131991D01*
X01216767Y00134530D01*
X01211688D01*
X01209149Y00131991D01*
Y00129452D01*
X01211688Y00126912D01*
X01219306D01*
X01224384Y00129452D02*
X01226923D01*
Y00126912D01*
X01224384D01*
Y00129452D01*
Y00121834D02*
X01226923D01*
Y00119295D01*
X01224384D01*
Y00121834D01*
X01244697Y00119295D02*
Y00134530D01*
X01237080Y00126912D01*
X01247237D01*
X01262472Y00119295D02*
X01252315D01*
X01262472Y00129452D01*
Y00131991D01*
X01259932Y00134530D01*
X01254854D01*
X01252315Y00131991D01*
X01282785Y00119295D02*
Y00134530D01*
X01290403D01*
X01292942Y00131991D01*
Y00126912D01*
X01290403Y00124373D01*
X01282785D01*
X01298020Y00119295D02*
Y00134530D01*
X01303098Y00129452D01*
X01308177Y00134530D01*
Y00119295D01*
X01474470Y00134530D02*
X01484627D01*
X01479548D01*
Y00119295D01*
X01499862Y00134530D02*
X01489705D01*
Y00119295D01*
X01499862D01*
X01489705Y00126912D02*
X01494783D01*
X01504940Y00134530D02*
X01515097Y00119295D01*
Y00134530D02*
X01504940Y00119295D01*
X01520175D02*
Y00129452D01*
X01525254Y00134530D01*
X01530332Y00129452D01*
Y00119295D01*
Y00126912D01*
X01520175D01*
X01545567Y00131991D02*
X01543028Y00134530D01*
X01537950D01*
X01535410Y00131991D01*
Y00129452D01*
X01537950Y00126912D01*
X01543028D01*
X01545567Y00124373D01*
Y00121834D01*
X01543028Y00119295D01*
X01537950D01*
X01535410Y00121834D01*
X01565880Y00134530D02*
X01570959D01*
X01568420D01*
Y00119295D01*
X01565880D01*
X01570959D01*
X01578576D02*
Y00134530D01*
X01588733Y00119295D01*
Y00134530D01*
X01603968Y00131991D02*
X01601429Y00134530D01*
X01596351D01*
X01593811Y00131991D01*
Y00129452D01*
X01596351Y00126912D01*
X01601429D01*
X01603968Y00124373D01*
Y00121834D01*
X01601429Y00119295D01*
X01596351D01*
X01593811Y00121834D01*
X01609046Y00134530D02*
X01619203D01*
X01614125D01*
Y00119295D01*
X01624281D02*
Y00134530D01*
X01631899D01*
X01634438Y00131991D01*
Y00126912D01*
X01631899Y00124373D01*
X01624281D01*
X01629360D02*
X01634438Y00119295D01*
X01639517Y00134530D02*
Y00121834D01*
X01642056Y00119295D01*
X01647134D01*
X01649673Y00121834D01*
Y00134530D01*
X01654752Y00119295D02*
Y00134530D01*
X01659830Y00129452D01*
X01664908Y00134530D01*
Y00119295D01*
X01680143Y00134530D02*
X01669987D01*
Y00119295D01*
X01680143D01*
X01669987Y00126912D02*
X01675065D01*
X01685222Y00119295D02*
Y00134530D01*
X01695379Y00119295D01*
Y00134530D01*
X01700457D02*
X01710614D01*
X01705535D01*
Y00119295D01*
X01725849Y00131991D02*
X01723309Y00134530D01*
X01718231D01*
X01715692Y00131991D01*
Y00129452D01*
X01718231Y00126912D01*
X01723309D01*
X01725849Y00124373D01*
Y00121834D01*
X01723309Y00119295D01*
X01718231D01*
X01715692Y00121834D01*
X00746760Y00186685D02*
X00756917D01*
X00751838D01*
Y00171450D01*
X00761995Y00186685D02*
X00767073D01*
X00764534D01*
Y00171450D01*
X00761995D01*
X00767073D01*
X00774691Y00186685D02*
Y00171450D01*
X00782309D01*
X00784848Y00173989D01*
Y00184146D01*
X00782309Y00186685D01*
X00774691D01*
X00807700Y00171450D02*
Y00186685D01*
X00812779D02*
Y00171450D01*
X00805161Y00181607D02*
X00812779D01*
X00815318D01*
X00805161Y00176528D02*
X00815318D01*
X00820396Y00181607D02*
X00822935D01*
Y00179067D01*
X00820396D01*
Y00181607D01*
Y00173989D02*
X00822935D01*
Y00171450D01*
X00820396D01*
Y00173989D01*
X00885317Y00171450D02*
Y00186685D01*
X00895474Y00171450D01*
Y00186685D01*
X00900552Y00171450D02*
X00910709Y00181607D01*
X00915787Y00171450D02*
Y00181607D01*
X00920865Y00186685D01*
X00925944Y00181607D01*
Y00171450D01*
Y00179067D01*
X00915787D01*
G54D17*
X00175768Y00272796D02*
X00191008Y00277876D01*
X00175768Y00272796D02*
X00191008Y00267716D01*
X00414528D02*
X00429768Y00272796D01*
X00414528Y00277876D02*
X00429768Y00272796D01*
X00175768D02*
X00227352D01*
X00370056D02*
X00429768D01*
X00175768Y00270256D02*
Y00284607D01*
X00429768Y00270256D02*
Y00284607D01*
X00145288Y00404876D02*
X00150368Y00389636D01*
X00155448Y00404876D01*
X00150368Y00649636D02*
X00155448Y00634396D01*
X00145288D02*
X00150368Y00649636D01*
Y00389636D02*
Y00461994D01*
Y00569150D02*
Y00649636D01*
X00147828Y00389636D02*
X00175768D01*
X00147828Y00649636D02*
X00173228D01*
X00175768Y00363982D02*
X00191008Y00369062D01*
X00175768Y00363982D02*
X00191008Y00358902D01*
X00493028D02*
X00508268Y00363982D01*
X00493028Y00369062D02*
X00508268Y00363982D01*
X00175768D02*
X00284376D01*
X00391532D02*
X00508268D01*
X00175768Y00361442D02*
Y00389636D01*
X00508268Y00361442D02*
Y00374596D01*
X01262888Y00205020D02*
Y00256667D01*
X01049528Y00205020D02*
Y00256667D01*
X00101600Y00205020D02*
X01778508D01*
X00101600Y00153374D02*
X01778000D01*
X00101600Y00101727D02*
X01118870D01*
X00101727Y00256667D02*
X01778508D01*
X00101727Y00101727D02*
Y00256667D01*
Y00101727D02*
X00501904D01*
X00101600D02*
Y00256667D01*
X00727710Y00101727D02*
Y00256667D01*
X01778508Y00101727D02*
Y00256667D01*
X01118870Y00101727D02*
X01778508D01*
X01420876Y00100076D02*
Y00151596D01*
G54D43*
X00231416Y00263654D02*
X00236494D01*
X00233955D01*
Y00278890D01*
X00231416Y00276350D01*
X00244112D02*
X00246651Y00278890D01*
X00251729D01*
X00254268Y00276350D01*
Y00266194D01*
X00251729Y00263654D01*
X00246651D01*
X00244112Y00266194D01*
Y00276350D01*
X00259347D02*
X00261886Y00278890D01*
X00266964D01*
X00269503Y00276350D01*
Y00266194D01*
X00266964Y00263654D01*
X00261886D01*
X00259347Y00266194D01*
Y00276350D01*
X00274582D02*
X00277121Y00278890D01*
X00282199D01*
X00284739Y00276350D01*
Y00266194D01*
X00282199Y00263654D01*
X00277121D01*
X00274582Y00266194D01*
Y00276350D01*
X00289817Y00263654D02*
Y00266194D01*
X00292356D01*
Y00263654D01*
X00289817D01*
X00302513Y00276350D02*
X00305052Y00278890D01*
X00310130D01*
X00312670Y00276350D01*
Y00266194D01*
X00310130Y00263654D01*
X00305052D01*
X00302513Y00266194D01*
Y00276350D01*
X00317748D02*
X00320287Y00278890D01*
X00325365D01*
X00327905Y00276350D01*
Y00266194D01*
X00325365Y00263654D01*
X00320287D01*
X00317748Y00266194D01*
Y00276350D01*
X00332983Y00263654D02*
Y00273811D01*
X00335522D01*
X00338061Y00271272D01*
Y00263654D01*
Y00271272D01*
X00340600Y00273811D01*
X00343140Y00271272D01*
Y00263654D01*
X00348218D02*
X00353296D01*
X00350757D01*
Y00273811D01*
X00348218D01*
X00360914Y00263654D02*
X00365992D01*
X00363453D01*
Y00278890D01*
X00360914D01*
X00159509Y00476215D02*
Y00466058D01*
X00149353Y00476215D01*
X00146814D01*
X00144275Y00473676D01*
Y00468597D01*
X00146814Y00466058D01*
X00144275Y00491450D02*
X00146814Y00486371D01*
X00151892Y00481293D01*
X00156970D01*
X00159509Y00483832D01*
Y00488911D01*
X00156970Y00491450D01*
X00154431D01*
X00151892Y00488911D01*
Y00481293D01*
X00159509Y00496528D02*
X00156970D01*
Y00499067D01*
X00159509D01*
Y00496528D01*
X00146814Y00509224D02*
X00144275Y00511763D01*
Y00516842D01*
X00146814Y00519381D01*
X00156970D01*
X00159509Y00516842D01*
Y00511763D01*
X00156970Y00509224D01*
X00146814D01*
Y00524459D02*
X00144275Y00526998D01*
Y00532077D01*
X00146814Y00534616D01*
X00156970D01*
X00159509Y00532077D01*
Y00526998D01*
X00156970Y00524459D01*
X00146814D01*
X00159509Y00539694D02*
X00149353D01*
Y00542233D01*
X00151892Y00544773D01*
X00159509D01*
X00151892D01*
X00149353Y00547312D01*
X00151892Y00549851D01*
X00159509D01*
Y00554929D02*
X00149353D01*
Y00557468D01*
X00151892Y00560008D01*
X00159509D01*
X00151892D01*
X00149353Y00562547D01*
X00151892Y00565086D01*
X00159509D01*
X00288440Y00367536D02*
X00290979Y00370075D01*
X00296057D01*
X00298597Y00367536D01*
Y00364997D01*
X00296057Y00362458D01*
X00293518D01*
X00296057D01*
X00298597Y00359919D01*
Y00357380D01*
X00296057Y00354841D01*
X00290979D01*
X00288440Y00357380D01*
X00303675Y00367536D02*
X00306214Y00370075D01*
X00311293D01*
X00313832Y00367536D01*
Y00364997D01*
X00311293Y00362458D01*
X00308753D01*
X00311293D01*
X00313832Y00359919D01*
Y00357380D01*
X00311293Y00354841D01*
X00306214D01*
X00303675Y00357380D01*
X00318910Y00354841D02*
Y00357380D01*
X00321449D01*
Y00354841D01*
X00318910D01*
X00341763D02*
X00331606D01*
X00341763Y00364997D01*
Y00367536D01*
X00339224Y00370075D01*
X00334145D01*
X00331606Y00367536D01*
X00356998Y00370075D02*
X00346841D01*
Y00362458D01*
X00351920Y00364997D01*
X00354459D01*
X00356998Y00362458D01*
Y00357380D01*
X00354459Y00354841D01*
X00349380D01*
X00346841Y00357380D01*
X00362076Y00354841D02*
Y00364997D01*
X00364615D01*
X00367155Y00362458D01*
Y00354841D01*
Y00362458D01*
X00369694Y00364997D01*
X00372233Y00362458D01*
Y00354841D01*
X00377311D02*
Y00364997D01*
X00379850D01*
X00382390Y00362458D01*
Y00354841D01*
Y00362458D01*
X00384929Y00364997D01*
X00387468Y00362458D01*
Y00354841D01*
G54D44*
X00191643Y00335661D02*
D03*
G54D45*
X00255143Y00303911D02*
D03*
M02*
