G04*
G04 #@! TF.GenerationSoftware,Altium Limited,Altium Designer,21.6.1 (37)*
G04*
G04 Layer_Physical_Order=4*
G04 Layer_Color=10066329*
%FSAX44Y44*%
%MOMM*%
G71*
G04*
G04 #@! TF.SameCoordinates,618BDD94-0BF2-4233-98CF-319708F98917*
G04*
G04*
G04 #@! TF.FilePolarity,Positive*
G04*
G01*
G75*
%ADD15C,0.2032*%
%ADD17C,0.2540*%
G04:AMPARAMS|DCode=18|XSize=0.75mm|YSize=0.4mm|CornerRadius=0.05mm|HoleSize=0mm|Usage=FLASHONLY|Rotation=270.000|XOffset=0mm|YOffset=0mm|HoleType=Round|Shape=RoundedRectangle|*
%AMROUNDEDRECTD18*
21,1,0.7500,0.3000,0,0,270.0*
21,1,0.6500,0.4000,0,0,270.0*
1,1,0.1000,-0.1500,-0.3250*
1,1,0.1000,-0.1500,0.3250*
1,1,0.1000,0.1500,0.3250*
1,1,0.1000,0.1500,-0.3250*
%
%ADD18ROUNDEDRECTD18*%
%ADD19R,1.2700X1.6002*%
%ADD20R,1.6002X1.2700*%
G04:AMPARAMS|DCode=21|XSize=0.9144mm|YSize=1.2192mm|CornerRadius=0.0503mm|HoleSize=0mm|Usage=FLASHONLY|Rotation=180.000|XOffset=0mm|YOffset=0mm|HoleType=Round|Shape=RoundedRectangle|*
%AMROUNDEDRECTD21*
21,1,0.9144,1.1186,0,0,180.0*
21,1,0.8138,1.2192,0,0,180.0*
1,1,0.1006,-0.4069,0.5593*
1,1,0.1006,0.4069,0.5593*
1,1,0.1006,0.4069,-0.5593*
1,1,0.1006,-0.4069,-0.5593*
%
%ADD21ROUNDEDRECTD21*%
G04:AMPARAMS|DCode=22|XSize=0.9144mm|YSize=1.2192mm|CornerRadius=0.0503mm|HoleSize=0mm|Usage=FLASHONLY|Rotation=270.000|XOffset=0mm|YOffset=0mm|HoleType=Round|Shape=RoundedRectangle|*
%AMROUNDEDRECTD22*
21,1,0.9144,1.1186,0,0,270.0*
21,1,0.8138,1.2192,0,0,270.0*
1,1,0.1006,-0.5593,-0.4069*
1,1,0.1006,-0.5593,0.4069*
1,1,0.1006,0.5593,0.4069*
1,1,0.1006,0.5593,-0.4069*
%
%ADD22ROUNDEDRECTD22*%
G04:AMPARAMS|DCode=23|XSize=1.82mm|YSize=1.12mm|CornerRadius=0.0504mm|HoleSize=0mm|Usage=FLASHONLY|Rotation=0.000|XOffset=0mm|YOffset=0mm|HoleType=Round|Shape=RoundedRectangle|*
%AMROUNDEDRECTD23*
21,1,1.8200,1.0192,0,0,0.0*
21,1,1.7192,1.1200,0,0,0.0*
1,1,0.1008,0.8596,-0.5096*
1,1,0.1008,-0.8596,-0.5096*
1,1,0.1008,-0.8596,0.5096*
1,1,0.1008,0.8596,0.5096*
%
%ADD23ROUNDEDRECTD23*%
G04:AMPARAMS|DCode=24|XSize=0.55mm|YSize=0.8mm|CornerRadius=0.0495mm|HoleSize=0mm|Usage=FLASHONLY|Rotation=270.000|XOffset=0mm|YOffset=0mm|HoleType=Round|Shape=RoundedRectangle|*
%AMROUNDEDRECTD24*
21,1,0.5500,0.7010,0,0,270.0*
21,1,0.4510,0.8000,0,0,270.0*
1,1,0.0990,-0.3505,-0.2255*
1,1,0.0990,-0.3505,0.2255*
1,1,0.0990,0.3505,0.2255*
1,1,0.0990,0.3505,-0.2255*
%
%ADD24ROUNDEDRECTD24*%
G04:AMPARAMS|DCode=25|XSize=0.6mm|YSize=1mm|CornerRadius=0.15mm|HoleSize=0mm|Usage=FLASHONLY|Rotation=90.000|XOffset=0mm|YOffset=0mm|HoleType=Round|Shape=RoundedRectangle|*
%AMROUNDEDRECTD25*
21,1,0.6000,0.7000,0,0,90.0*
21,1,0.3000,1.0000,0,0,90.0*
1,1,0.3000,0.3500,0.1500*
1,1,0.3000,0.3500,-0.1500*
1,1,0.3000,-0.3500,-0.1500*
1,1,0.3000,-0.3500,0.1500*
%
%ADD25ROUNDEDRECTD25*%
%ADD26R,1.0000X0.9500*%
%ADD35C,1.5700*%
G04:AMPARAMS|DCode=36|XSize=1.57mm|YSize=1.57mm|CornerRadius=0.0471mm|HoleSize=0mm|Usage=FLASHONLY|Rotation=0.000|XOffset=0mm|YOffset=0mm|HoleType=Round|Shape=RoundedRectangle|*
%AMROUNDEDRECTD36*
21,1,1.5700,1.4758,0,0,0.0*
21,1,1.4758,1.5700,0,0,0.0*
1,1,0.0942,0.7379,-0.7379*
1,1,0.0942,-0.7379,-0.7379*
1,1,0.0942,-0.7379,0.7379*
1,1,0.0942,0.7379,0.7379*
%
%ADD36ROUNDEDRECTD36*%
%ADD38C,0.6350*%
%ADD39C,0.5080*%
%ADD40C,1.2700*%
%ADD41C,0.8636*%
G36*
X00418518Y00549992D02*
X00378268D01*
Y00565633D01*
X00418518D01*
Y00549992D01*
D02*
G37*
G36*
X00284918Y00545076D02*
X00255268Y00545076D01*
Y00553243D01*
X00267233Y00562761D01*
X00284918D01*
Y00545076D01*
D02*
G37*
G36*
X00488268Y00518203D02*
X00472744D01*
Y00520743D01*
X00459225D01*
X00458393Y00520853D01*
X00428518D01*
Y00565633D01*
X00488268D01*
Y00518203D01*
D02*
G37*
G36*
X00420300Y00516880D02*
Y00498430D01*
X00382052D01*
Y00537113D01*
X00400068D01*
X00420300Y00516880D01*
D02*
G37*
G36*
X00284918Y00498399D02*
X00268794D01*
X00267977Y00499025D01*
X00266067Y00499816D01*
X00264018Y00500086D01*
X00262614D01*
X00253868Y00508832D01*
Y00522340D01*
X00255336Y00524254D01*
X00256130Y00526171D01*
X00266639Y00536679D01*
X00284918D01*
Y00498399D01*
D02*
G37*
G36*
X00264852Y00493262D02*
X00265612Y00492888D01*
X00266316Y00492417D01*
X00266735Y00492334D01*
X00267118Y00492145D01*
X00267963Y00492090D01*
X00268794Y00491924D01*
X00284918D01*
Y00475100D01*
X00266748Y00475100D01*
X00255268Y00486581D01*
Y00493298D01*
X00264806D01*
X00264852Y00493262D01*
D02*
G37*
G36*
X00227018Y00563936D02*
X00226161Y00562820D01*
X00225370Y00560910D01*
X00225100Y00558861D01*
Y00558624D01*
X00223496Y00557020D01*
X00222513D01*
X00220726Y00556784D01*
X00219061Y00556095D01*
X00217631Y00554997D01*
X00216534Y00553568D01*
X00215844Y00551903D01*
X00215609Y00550116D01*
Y00545606D01*
X00215844Y00543819D01*
X00216534Y00542154D01*
X00217631Y00540724D01*
X00218877Y00539768D01*
X00219057Y00538361D01*
X00218877Y00536954D01*
X00217631Y00535998D01*
X00216534Y00534568D01*
X00215844Y00532902D01*
X00215609Y00531116D01*
Y00526606D01*
X00215844Y00524819D01*
X00216411Y00523451D01*
Y00521382D01*
X00216738Y00518895D01*
X00217698Y00516578D01*
X00219225Y00514589D01*
X00221698Y00512115D01*
Y00505806D01*
X00225186Y00502318D01*
X00225100Y00501668D01*
Y00498668D01*
X00225370Y00496619D01*
X00226161Y00494710D01*
X00227419Y00493070D01*
X00229059Y00491811D01*
X00230969Y00491021D01*
X00233018Y00490751D01*
X00235079D01*
X00236518Y00490561D01*
X00236893Y00490611D01*
X00243956Y00483548D01*
Y00460320D01*
X00237268Y00451073D01*
Y00436254D01*
X00235310Y00434645D01*
X00225711D01*
X00210768Y00449587D01*
Y00498955D01*
X00211618D01*
Y00521155D01*
X00210768D01*
Y00525397D01*
X00210901Y00526405D01*
X00211084Y00526849D01*
X00211451Y00529634D01*
X00211084Y00532419D01*
X00210768Y00533183D01*
Y00544398D01*
X00210832Y00544884D01*
X00210911Y00545076D01*
X00211278Y00547861D01*
X00210911Y00550646D01*
X00210832Y00550837D01*
X00210768Y00551324D01*
Y00567136D01*
X00227018D01*
Y00563936D01*
D02*
G37*
G36*
X00204294Y00551324D02*
X00204374Y00550919D01*
X00204358Y00550837D01*
X00204369Y00550781D01*
X00204349Y00550479D01*
X00204413Y00549992D01*
X00204501Y00549732D01*
X00204748Y00547861D01*
X00204501Y00545990D01*
X00204413Y00545729D01*
X00204349Y00545242D01*
X00204369Y00544940D01*
X00204358Y00544884D01*
X00204374Y00544802D01*
X00204294Y00544398D01*
Y00533183D01*
X00204588Y00531704D01*
X00204767Y00530804D01*
X00204921Y00529634D01*
X00204686Y00527854D01*
X00204482Y00527251D01*
X00204349Y00526243D01*
X00204377Y00525816D01*
X00204294Y00525397D01*
Y00521155D01*
X00204786Y00518678D01*
X00204918Y00518481D01*
Y00501630D01*
X00204786Y00501433D01*
X00204294Y00498955D01*
Y00449587D01*
X00204786Y00447110D01*
X00206190Y00445009D01*
X00221132Y00430067D01*
X00223233Y00428663D01*
X00225711Y00428170D01*
X00235310D01*
X00236244Y00428356D01*
X00237192Y00428450D01*
X00237474Y00428601D01*
X00237787Y00428663D01*
X00238579Y00429193D01*
X00239408Y00429636D01*
X00288268Y00429636D01*
Y00387136D01*
X00183268D01*
Y00553568D01*
X00184561Y00554861D01*
X00204294D01*
Y00551324D01*
D02*
G37*
G54D15*
X00322326Y00186814D02*
Y00171579D01*
X00329944D01*
X00332483Y00174118D01*
Y00176657D01*
X00329944Y00179196D01*
X00322326D01*
X00329944D01*
X00332483Y00181735D01*
Y00184275D01*
X00329944Y00186814D01*
X00322326D01*
X00340100Y00171579D02*
X00345179D01*
X00347718Y00174118D01*
Y00179196D01*
X00345179Y00181735D01*
X00340100D01*
X00337561Y00179196D01*
Y00174118D01*
X00340100Y00171579D01*
X00355335Y00184275D02*
Y00181735D01*
X00352796D01*
X00357874D01*
X00355335D01*
Y00174118D01*
X00357874Y00171579D01*
X00368031Y00184275D02*
Y00181735D01*
X00365492D01*
X00370570D01*
X00368031D01*
Y00174118D01*
X00370570Y00171579D01*
X00380727D02*
X00385806D01*
X00388345Y00174118D01*
Y00179196D01*
X00385806Y00181735D01*
X00380727D01*
X00378188Y00179196D01*
Y00174118D01*
X00380727Y00171579D01*
X00393423D02*
Y00181735D01*
X00395962D01*
X00398501Y00179196D01*
Y00171579D01*
Y00179196D01*
X00401040Y00181735D01*
X00403580Y00179196D01*
Y00171579D01*
X00423893Y00186814D02*
Y00171579D01*
X00434050D01*
X00441667Y00181735D02*
X00446746D01*
X00449285Y00179196D01*
Y00171579D01*
X00441667D01*
X00439128Y00174118D01*
X00441667Y00176657D01*
X00449285D01*
X00454363Y00181735D02*
Y00174118D01*
X00456903Y00171579D01*
X00464520D01*
Y00169039D01*
X00461981Y00166500D01*
X00459442D01*
X00464520Y00171579D02*
Y00181735D01*
X00477216Y00171579D02*
X00472137D01*
X00469598Y00174118D01*
Y00179196D01*
X00472137Y00181735D01*
X00477216D01*
X00479755Y00179196D01*
Y00176657D01*
X00469598D01*
X00484833Y00181735D02*
Y00171579D01*
Y00176657D01*
X00487373Y00179196D01*
X00489912Y00181735D01*
X00492451D01*
X01441196Y00223097D02*
Y00238332D01*
X01451353Y00223097D01*
Y00238332D01*
X01458970Y00223097D02*
X01464049D01*
X01466588Y00225636D01*
Y00230714D01*
X01464049Y00233253D01*
X01458970D01*
X01456431Y00230714D01*
Y00225636D01*
X01458970Y00223097D01*
X01474205Y00235793D02*
Y00233253D01*
X01471666D01*
X01476745D01*
X01474205D01*
Y00225636D01*
X01476745Y00223097D01*
X01499597D02*
X01504675D01*
X01502136D01*
Y00233253D01*
X01499597D01*
X01512293Y00223097D02*
Y00233253D01*
X01519910D01*
X01522450Y00230714D01*
Y00223097D01*
X01542763Y00233253D02*
X01547841Y00223097D01*
X01552920Y00233253D01*
X01565616Y00223097D02*
X01560537D01*
X01557998Y00225636D01*
Y00230714D01*
X01560537Y00233253D01*
X01565616D01*
X01568155Y00230714D01*
Y00228175D01*
X01557998D01*
X01573233Y00233253D02*
Y00223097D01*
Y00228175D01*
X01575773Y00230714D01*
X01578312Y00233253D01*
X01580851D01*
X01588468Y00223097D02*
X01596086D01*
X01598625Y00225636D01*
X01596086Y00228175D01*
X01591008D01*
X01588468Y00230714D01*
X01591008Y00233253D01*
X01598625D01*
X01603703Y00223097D02*
X01608782D01*
X01606243D01*
Y00233253D01*
X01603703D01*
X01618938Y00223097D02*
X01624017D01*
X01626556Y00225636D01*
Y00230714D01*
X01624017Y00233253D01*
X01618938D01*
X01616399Y00230714D01*
Y00225636D01*
X01618938Y00223097D01*
X01631634D02*
Y00233253D01*
X01639252D01*
X01641791Y00230714D01*
Y00223097D01*
X01672261Y00233253D02*
X01664644D01*
X01662104Y00230714D01*
Y00225636D01*
X01664644Y00223097D01*
X01672261D01*
X01679879D02*
X01684957D01*
X01687496Y00225636D01*
Y00230714D01*
X01684957Y00233253D01*
X01679879D01*
X01677340Y00230714D01*
Y00225636D01*
X01679879Y00223097D01*
X01692575D02*
Y00233253D01*
X01700192D01*
X01702731Y00230714D01*
Y00223097D01*
X01710349Y00235793D02*
Y00233253D01*
X01707810D01*
X01712888D01*
X01710349D01*
Y00225636D01*
X01712888Y00223097D01*
X01720506Y00233253D02*
Y00223097D01*
Y00228175D01*
X01723045Y00230714D01*
X01725584Y00233253D01*
X01728123D01*
X01738280Y00223097D02*
X01743358D01*
X01745897Y00225636D01*
Y00230714D01*
X01743358Y00233253D01*
X01738280D01*
X01735741Y00230714D01*
Y00225636D01*
X01738280Y00223097D01*
X01750976D02*
X01756054D01*
X01753515D01*
Y00238332D01*
X01750976D01*
X01322829Y00235793D02*
X01320289Y00238332D01*
X01315211D01*
X01312672Y00235793D01*
Y00233253D01*
X01315211Y00230714D01*
X01320289D01*
X01322829Y00228175D01*
Y00225636D01*
X01320289Y00223097D01*
X01315211D01*
X01312672Y00225636D01*
X01327907Y00238332D02*
Y00228175D01*
X01332985Y00223097D01*
X01338064Y00228175D01*
Y00238332D01*
X01343142Y00223097D02*
Y00238332D01*
X01353299Y00223097D01*
Y00238332D01*
X01373612Y00223097D02*
Y00238332D01*
X01381230D01*
X01383769Y00235793D01*
Y00230714D01*
X01381230Y00228175D01*
X01373612D01*
X01378691D02*
X01383769Y00223097D01*
X01399004Y00238332D02*
X01388847D01*
Y00223097D01*
X01399004D01*
X01388847Y00230714D02*
X01393926D01*
X01404082Y00238332D02*
Y00228175D01*
X01409161Y00223097D01*
X01414239Y00228175D01*
Y00238332D01*
X01419317Y00233253D02*
X01421857D01*
Y00230714D01*
X01419317D01*
Y00233253D01*
Y00225636D02*
X01421857D01*
Y00223097D01*
X01419317D01*
Y00225636D01*
X01099820Y00223097D02*
Y00238332D01*
X01107438D01*
X01109977Y00235793D01*
Y00230714D01*
X01107438Y00228175D01*
X01099820D01*
X01104898D02*
X01109977Y00223097D01*
X01125212Y00238332D02*
X01115055D01*
Y00223097D01*
X01125212D01*
X01115055Y00230714D02*
X01120133D01*
X01130290Y00238332D02*
Y00228175D01*
X01135368Y00223097D01*
X01140447Y00228175D01*
Y00238332D01*
X01145525Y00233253D02*
X01148064D01*
Y00230714D01*
X01145525D01*
Y00233253D01*
Y00225636D02*
X01148064D01*
Y00223097D01*
X01145525D01*
Y00225636D01*
X00322326Y00119295D02*
Y00134530D01*
X00329944D01*
X00332483Y00131991D01*
Y00126912D01*
X00329944Y00124373D01*
X00322326D01*
X00337561Y00119295D02*
Y00134530D01*
X00342639Y00129452D01*
X00347718Y00134530D01*
Y00119295D01*
X00352796D02*
Y00134530D01*
X00360414D01*
X00362953Y00131991D01*
Y00126912D01*
X00360414Y00124373D01*
X00352796D01*
X00378188Y00119295D02*
X00368031D01*
X00378188Y00129452D01*
Y00131991D01*
X00375649Y00134530D01*
X00370570D01*
X00368031Y00131991D01*
X00393423Y00119295D02*
X00383266D01*
X00393423Y00129452D01*
Y00131991D01*
X00390884Y00134530D01*
X00385806D01*
X00383266Y00131991D01*
X00398501Y00134530D02*
X00408658D01*
Y00131991D01*
X00398501Y00121834D01*
Y00119295D01*
X00413736D02*
X00418815D01*
X00416276D01*
Y00134530D01*
X00413736Y00131991D01*
X00436589Y00119295D02*
X00426432D01*
X00436589Y00129452D01*
Y00131991D01*
X00434050Y00134530D01*
X00428971D01*
X00426432Y00131991D01*
X00451824Y00134530D02*
X00441667D01*
Y00119295D01*
X00451824D01*
X00441667Y00126912D02*
X00446746D01*
X00467059Y00119295D02*
X00456903D01*
X00467059Y00129452D01*
Y00131991D01*
X00464520Y00134530D01*
X00459442D01*
X00456903Y00131991D01*
X00472137Y00119295D02*
Y00121834D01*
X00474677D01*
Y00119295D01*
X00472137D01*
X00494990Y00131991D02*
X00492451Y00134530D01*
X00487373D01*
X00484833Y00131991D01*
Y00121834D01*
X00487373Y00119295D01*
X00492451D01*
X00494990Y00121834D01*
Y00126912D01*
X00489912D01*
X00500069Y00134530D02*
Y00119295D01*
X00507686D01*
X00510225Y00121834D01*
Y00124373D01*
X00507686Y00126912D01*
X00500069D01*
X00507686D01*
X00510225Y00129452D01*
Y00131991D01*
X00507686Y00134530D01*
X00500069D01*
X00515304D02*
Y00119295D01*
X00525460D01*
X00968121Y00131991D02*
X00970660Y00134530D01*
X00975739D01*
X00978278Y00131991D01*
Y00129452D01*
X00975739Y00126912D01*
X00978278Y00124373D01*
Y00121834D01*
X00975739Y00119295D01*
X00970660D01*
X00968121Y00121834D01*
Y00124373D01*
X00970660Y00126912D01*
X00968121Y00129452D01*
Y00131991D01*
X00970660Y00126912D02*
X00975739D01*
X00983356Y00119295D02*
X00993513Y00129452D01*
X01008748Y00119295D02*
X00998591D01*
X01008748Y00129452D01*
Y00131991D01*
X01006209Y00134530D01*
X01001130D01*
X00998591Y00131991D01*
X01013826D02*
X01016365Y00134530D01*
X01021444D01*
X01023983Y00131991D01*
Y00121834D01*
X01021444Y00119295D01*
X01016365D01*
X01013826Y00121834D01*
Y00131991D01*
X01029061Y00119295D02*
X01039218Y00129452D01*
X01054453Y00119295D02*
X01044296D01*
X01054453Y00129452D01*
Y00131991D01*
X01051914Y00134530D01*
X01046835D01*
X01044296Y00131991D01*
X01059531D02*
X01062071Y00134530D01*
X01067149D01*
X01069688Y00131991D01*
Y00121834D01*
X01067149Y00119295D01*
X01062071D01*
X01059531Y00121834D01*
Y00131991D01*
X01084923Y00119295D02*
X01074766D01*
X01084923Y00129452D01*
Y00131991D01*
X01082384Y00134530D01*
X01077306D01*
X01074766Y00131991D01*
X01090002Y00119295D02*
X01095080D01*
X01092541D01*
Y00134530D01*
X01090002Y00131991D01*
X00757425D02*
X00754885Y00134530D01*
X00749807D01*
X00747268Y00131991D01*
Y00121834D01*
X00749807Y00119295D01*
X00754885D01*
X00757425Y00121834D01*
Y00126912D01*
X00752346D01*
X00772660Y00134530D02*
X00762503D01*
Y00119295D01*
X00772660D01*
X00762503Y00126912D02*
X00767581D01*
X00777738Y00119295D02*
Y00134530D01*
X00787895Y00119295D01*
Y00134530D01*
X00803130D02*
X00792973D01*
Y00119295D01*
X00803130D01*
X00792973Y00126912D02*
X00798052D01*
X00808208Y00119295D02*
Y00134530D01*
X00815826D01*
X00818365Y00131991D01*
Y00126912D01*
X00815826Y00124373D01*
X00808208D01*
X00813287D02*
X00818365Y00119295D01*
X00823443D02*
Y00129452D01*
X00828522Y00134530D01*
X00833600Y00129452D01*
Y00119295D01*
Y00126912D01*
X00823443D01*
X00838678Y00134530D02*
X00848835D01*
X00843757D01*
Y00119295D01*
X00864070Y00134530D02*
X00853913D01*
Y00119295D01*
X00864070D01*
X00853913Y00126912D02*
X00858992D01*
X00869149Y00134530D02*
Y00119295D01*
X00876766D01*
X00879305Y00121834D01*
Y00131991D01*
X00876766Y00134530D01*
X00869149D01*
X00945324Y00129452D02*
X00947863D01*
Y00126912D01*
X00945324D01*
Y00129452D01*
Y00121834D02*
X00947863D01*
Y00119295D01*
X00945324D01*
Y00121834D01*
X00117729Y00223097D02*
Y00233253D01*
X00122807Y00238332D01*
X00127886Y00233253D01*
Y00223097D01*
Y00230714D01*
X00117729D01*
X00132964Y00238332D02*
Y00223097D01*
X00143121D01*
X00148199Y00238332D02*
Y00223097D01*
X00158356D01*
X00178669D02*
Y00233253D01*
X00183748Y00238332D01*
X00188826Y00233253D01*
Y00223097D01*
Y00230714D01*
X00178669D01*
X00193904Y00223097D02*
Y00238332D01*
X00201522D01*
X00204061Y00235793D01*
Y00230714D01*
X00201522Y00228175D01*
X00193904D01*
X00198983D02*
X00204061Y00223097D01*
X00209139Y00238332D02*
X00219296D01*
X00214218D01*
Y00223097D01*
X00224375Y00238332D02*
Y00223097D01*
X00229453Y00228175D01*
X00234531Y00223097D01*
Y00238332D01*
X00247227D02*
X00242149D01*
X00239610Y00235793D01*
Y00225636D01*
X00242149Y00223097D01*
X00247227D01*
X00249766Y00225636D01*
Y00235793D01*
X00247227Y00238332D01*
X00254845Y00223097D02*
Y00238332D01*
X00262462D01*
X00265001Y00235793D01*
Y00230714D01*
X00262462Y00228175D01*
X00254845D01*
X00259923D02*
X00265001Y00223097D01*
X00270080Y00238332D02*
Y00223097D01*
Y00228175D01*
X00280236Y00238332D01*
X00272619Y00230714D01*
X00280236Y00223097D01*
X00300550Y00238332D02*
Y00228175D01*
X00305628Y00223097D01*
X00310707Y00228175D01*
Y00238332D01*
X00315785D02*
X00320863D01*
X00318324D01*
Y00223097D01*
X00315785D01*
X00320863D01*
X00338638Y00238332D02*
X00328481D01*
Y00223097D01*
X00338638D01*
X00328481Y00230714D02*
X00333559D01*
X00343716Y00238332D02*
Y00223097D01*
X00348794Y00228175D01*
X00353873Y00223097D01*
Y00238332D01*
X00369108D02*
X00358951D01*
Y00223097D01*
X00369108D01*
X00358951Y00230714D02*
X00364029D01*
X00374186Y00238332D02*
Y00223097D01*
X00381804D01*
X00384343Y00225636D01*
Y00235793D01*
X00381804Y00238332D01*
X00374186D01*
X00414813D02*
X00404656D01*
Y00230714D01*
X00409734D01*
X00404656D01*
Y00223097D01*
X00419891D02*
Y00238332D01*
X00427509D01*
X00430048Y00235793D01*
Y00230714D01*
X00427509Y00228175D01*
X00419891D01*
X00424970D02*
X00430048Y00223097D01*
X00442744Y00238332D02*
X00437665D01*
X00435126Y00235793D01*
Y00225636D01*
X00437665Y00223097D01*
X00442744D01*
X00445283Y00225636D01*
Y00235793D01*
X00442744Y00238332D01*
X00450361Y00223097D02*
Y00238332D01*
X00455440Y00233253D01*
X00460518Y00238332D01*
Y00223097D01*
X00480832Y00238332D02*
X00490988D01*
X00485910D01*
Y00223097D01*
X00503684Y00238332D02*
X00498606D01*
X00496067Y00235793D01*
Y00225636D01*
X00498606Y00223097D01*
X00503684D01*
X00506223Y00225636D01*
Y00235793D01*
X00503684Y00238332D01*
X00511302Y00223097D02*
Y00238332D01*
X00518919D01*
X00521458Y00235793D01*
Y00230714D01*
X00518919Y00228175D01*
X00511302D01*
X00551929Y00235793D02*
X00549389Y00238332D01*
X00544311D01*
X00541772Y00235793D01*
Y00233253D01*
X00544311Y00230714D01*
X00549389D01*
X00551929Y00228175D01*
Y00225636D01*
X00549389Y00223097D01*
X00544311D01*
X00541772Y00225636D01*
X00557007Y00238332D02*
X00562085D01*
X00559546D01*
Y00223097D01*
X00557007D01*
X00562085D01*
X00569703Y00238332D02*
Y00223097D01*
X00577320D01*
X00579860Y00225636D01*
Y00235793D01*
X00577320Y00238332D01*
X00569703D01*
X00595095D02*
X00584938D01*
Y00223097D01*
X00595095D01*
X00584938Y00230714D02*
X00590016D01*
X01184018Y00238332D02*
X01173861D01*
Y00223097D01*
X01184018D01*
X01173861Y00230714D02*
X01178939D01*
X01199253Y00223097D02*
X01189096D01*
X01199253Y00233253D01*
Y00235793D01*
X01196714Y00238332D01*
X01191635D01*
X01189096Y00235793D01*
X00885317Y00223097D02*
Y00238332D01*
X00892934D01*
X00895474Y00235793D01*
Y00230714D01*
X00892934Y00228175D01*
X00885317D01*
X00900552Y00223097D02*
Y00238332D01*
X00905630Y00233253D01*
X00910709Y00238332D01*
Y00223097D01*
X00915787D02*
Y00238332D01*
X00923405D01*
X00925944Y00235793D01*
Y00230714D01*
X00923405Y00228175D01*
X00915787D01*
X00941179Y00223097D02*
X00931022D01*
X00941179Y00233253D01*
Y00235793D01*
X00938640Y00238332D01*
X00933561D01*
X00931022Y00235793D01*
X00956414Y00223097D02*
X00946257D01*
X00956414Y00233253D01*
Y00235793D01*
X00953875Y00238332D01*
X00948796D01*
X00946257Y00235793D01*
X00961492Y00238332D02*
X00971649D01*
Y00235793D01*
X00961492Y00225636D01*
Y00223097D01*
X00976727D02*
X00981806D01*
X00979267D01*
Y00238332D01*
X00976727Y00235793D01*
X00999580Y00223097D02*
X00989423D01*
X00999580Y00233253D01*
Y00235793D01*
X00997041Y00238332D01*
X00991963D01*
X00989423Y00235793D01*
X00746760Y00238332D02*
Y00223097D01*
X00754378D01*
X00756917Y00225636D01*
Y00228175D01*
X00754378Y00230714D01*
X00746760D01*
X00754378D01*
X00756917Y00233253D01*
Y00235793D01*
X00754378Y00238332D01*
X00746760D01*
X00769613D02*
X00764534D01*
X00761995Y00235793D01*
Y00225636D01*
X00764534Y00223097D01*
X00769613D01*
X00772152Y00225636D01*
Y00235793D01*
X00769613Y00238332D01*
X00777230Y00223097D02*
Y00233253D01*
X00782309Y00238332D01*
X00787387Y00233253D01*
Y00223097D01*
Y00230714D01*
X00777230D01*
X00792465Y00223097D02*
Y00238332D01*
X00800083D01*
X00802622Y00235793D01*
Y00230714D01*
X00800083Y00228175D01*
X00792465D01*
X00797544D02*
X00802622Y00223097D01*
X00807700Y00238332D02*
Y00223097D01*
X00815318D01*
X00817857Y00225636D01*
Y00235793D01*
X00815318Y00238332D01*
X00807700D01*
X00840710Y00223097D02*
Y00238332D01*
X00845788D02*
Y00223097D01*
X00838170Y00233253D02*
X00845788D01*
X00848327D01*
X00838170Y00228175D02*
X00848327D01*
X00853406Y00233253D02*
X00855945D01*
Y00230714D01*
X00853406D01*
Y00233253D01*
Y00225636D02*
X00855945D01*
Y00223097D01*
X00853406D01*
Y00225636D01*
X00117729Y00186814D02*
Y00171579D01*
X00127886D01*
X00132964D02*
Y00181735D01*
X00138042Y00186814D01*
X00143121Y00181735D01*
Y00171579D01*
Y00179196D01*
X00132964D01*
X00148199Y00186814D02*
Y00184275D01*
X00153278Y00179196D01*
X00158356Y00184275D01*
Y00186814D01*
X00153278Y00179196D02*
Y00171579D01*
X00173591Y00186814D02*
X00163434D01*
Y00171579D01*
X00173591D01*
X00163434Y00179196D02*
X00168513D01*
X00178669Y00171579D02*
Y00186814D01*
X00186287D01*
X00188826Y00184275D01*
Y00179196D01*
X00186287Y00176657D01*
X00178669D01*
X00183748D02*
X00188826Y00171579D01*
X00209139D02*
Y00186814D01*
X00219296Y00171579D01*
Y00186814D01*
X00224375Y00171579D02*
Y00181735D01*
X00229453Y00186814D01*
X00234531Y00181735D01*
Y00171579D01*
Y00179196D01*
X00224375D01*
X00239610Y00171579D02*
Y00186814D01*
X00244688Y00181735D01*
X00249766Y00186814D01*
Y00171579D01*
X00265001Y00186814D02*
X00254845D01*
Y00171579D01*
X00265001D01*
X00254845Y00179196D02*
X00259923D01*
X00285315Y00176657D02*
X00295471D01*
X00285315Y00181735D02*
X00295471D01*
X00117729Y00119295D02*
Y00134530D01*
X00125346D01*
X00127886Y00131991D01*
Y00126912D01*
X00125346Y00124373D01*
X00117729D01*
X00132964Y00134530D02*
Y00119295D01*
X00143121D01*
X00155817Y00134530D02*
X00150738D01*
X00148199Y00131991D01*
Y00121834D01*
X00150738Y00119295D01*
X00155817D01*
X00158356Y00121834D01*
Y00131991D01*
X00155817Y00134530D01*
X00163434D02*
X00173591D01*
X00168513D01*
Y00119295D01*
X00193904D02*
Y00134530D01*
X00204061Y00119295D01*
Y00134530D01*
X00209139Y00119295D02*
Y00129452D01*
X00214218Y00134530D01*
X00219296Y00129452D01*
Y00119295D01*
Y00126912D01*
X00209139D01*
X00224375Y00119295D02*
Y00134530D01*
X00229453Y00129452D01*
X00234531Y00134530D01*
Y00119295D01*
X00249766Y00134530D02*
X00239610D01*
Y00119295D01*
X00249766D01*
X00239610Y00126912D02*
X00244688D01*
X00270080Y00124373D02*
X00280236D01*
X00270080Y00129452D02*
X00280236D01*
X01153287Y00119295D02*
X01158365D01*
X01155826D01*
Y00134530D01*
X01153287Y00131991D01*
X01176140Y00119295D02*
X01165983D01*
X01176140Y00129452D01*
Y00131991D01*
X01173600Y00134530D01*
X01168522D01*
X01165983Y00131991D01*
X01181218Y00129452D02*
X01183757D01*
Y00126912D01*
X01181218D01*
Y00129452D01*
Y00121834D02*
X01183757D01*
Y00119295D01*
X01181218D01*
Y00121834D01*
X01204071Y00119295D02*
X01193914D01*
X01204071Y00129452D01*
Y00131991D01*
X01201531Y00134530D01*
X01196453D01*
X01193914Y00131991D01*
X01209149Y00121834D02*
X01211688Y00119295D01*
X01216767D01*
X01219306Y00121834D01*
Y00131991D01*
X01216767Y00134530D01*
X01211688D01*
X01209149Y00131991D01*
Y00129452D01*
X01211688Y00126912D01*
X01219306D01*
X01224384Y00129452D02*
X01226923D01*
Y00126912D01*
X01224384D01*
Y00129452D01*
Y00121834D02*
X01226923D01*
Y00119295D01*
X01224384D01*
Y00121834D01*
X01244697Y00119295D02*
Y00134530D01*
X01237080Y00126912D01*
X01247237D01*
X01262472Y00119295D02*
X01252315D01*
X01262472Y00129452D01*
Y00131991D01*
X01259932Y00134530D01*
X01254854D01*
X01252315Y00131991D01*
X01282785Y00119295D02*
Y00134530D01*
X01290403D01*
X01292942Y00131991D01*
Y00126912D01*
X01290403Y00124373D01*
X01282785D01*
X01298020Y00119295D02*
Y00134530D01*
X01303098Y00129452D01*
X01308177Y00134530D01*
Y00119295D01*
X01474470Y00134530D02*
X01484627D01*
X01479548D01*
Y00119295D01*
X01499862Y00134530D02*
X01489705D01*
Y00119295D01*
X01499862D01*
X01489705Y00126912D02*
X01494783D01*
X01504940Y00134530D02*
X01515097Y00119295D01*
Y00134530D02*
X01504940Y00119295D01*
X01520175D02*
Y00129452D01*
X01525254Y00134530D01*
X01530332Y00129452D01*
Y00119295D01*
Y00126912D01*
X01520175D01*
X01545567Y00131991D02*
X01543028Y00134530D01*
X01537950D01*
X01535410Y00131991D01*
Y00129452D01*
X01537950Y00126912D01*
X01543028D01*
X01545567Y00124373D01*
Y00121834D01*
X01543028Y00119295D01*
X01537950D01*
X01535410Y00121834D01*
X01565880Y00134530D02*
X01570959D01*
X01568420D01*
Y00119295D01*
X01565880D01*
X01570959D01*
X01578576D02*
Y00134530D01*
X01588733Y00119295D01*
Y00134530D01*
X01603968Y00131991D02*
X01601429Y00134530D01*
X01596351D01*
X01593811Y00131991D01*
Y00129452D01*
X01596351Y00126912D01*
X01601429D01*
X01603968Y00124373D01*
Y00121834D01*
X01601429Y00119295D01*
X01596351D01*
X01593811Y00121834D01*
X01609046Y00134530D02*
X01619203D01*
X01614125D01*
Y00119295D01*
X01624281D02*
Y00134530D01*
X01631899D01*
X01634438Y00131991D01*
Y00126912D01*
X01631899Y00124373D01*
X01624281D01*
X01629360D02*
X01634438Y00119295D01*
X01639517Y00134530D02*
Y00121834D01*
X01642056Y00119295D01*
X01647134D01*
X01649673Y00121834D01*
Y00134530D01*
X01654752Y00119295D02*
Y00134530D01*
X01659830Y00129452D01*
X01664908Y00134530D01*
Y00119295D01*
X01680143Y00134530D02*
X01669987D01*
Y00119295D01*
X01680143D01*
X01669987Y00126912D02*
X01675065D01*
X01685222Y00119295D02*
Y00134530D01*
X01695379Y00119295D01*
Y00134530D01*
X01700457D02*
X01710614D01*
X01705535D01*
Y00119295D01*
X01725849Y00131991D02*
X01723309Y00134530D01*
X01718231D01*
X01715692Y00131991D01*
Y00129452D01*
X01718231Y00126912D01*
X01723309D01*
X01725849Y00124373D01*
Y00121834D01*
X01723309Y00119295D01*
X01718231D01*
X01715692Y00121834D01*
X00746760Y00186685D02*
X00756917D01*
X00751838D01*
Y00171450D01*
X00761995Y00186685D02*
X00767073D01*
X00764534D01*
Y00171450D01*
X00761995D01*
X00767073D01*
X00774691Y00186685D02*
Y00171450D01*
X00782309D01*
X00784848Y00173989D01*
Y00184146D01*
X00782309Y00186685D01*
X00774691D01*
X00807700Y00171450D02*
Y00186685D01*
X00812779D02*
Y00171450D01*
X00805161Y00181607D02*
X00812779D01*
X00815318D01*
X00805161Y00176528D02*
X00815318D01*
X00820396Y00181607D02*
X00822935D01*
Y00179067D01*
X00820396D01*
Y00181607D01*
Y00173989D02*
X00822935D01*
Y00171450D01*
X00820396D01*
Y00173989D01*
X00885317Y00171450D02*
Y00186685D01*
X00895474Y00171450D01*
Y00186685D01*
X00900552Y00171450D02*
X00910709Y00181607D01*
X00915787Y00171450D02*
Y00181607D01*
X00920865Y00186685D01*
X00925944Y00181607D01*
Y00171450D01*
Y00179067D01*
X00915787D01*
G54D17*
X01262888Y00205020D02*
Y00256667D01*
X01049528Y00205020D02*
Y00256667D01*
X00101600Y00205020D02*
X01778508D01*
X00101600Y00153374D02*
X01778000D01*
X00101600Y00101727D02*
X01118870D01*
X00101727Y00256667D02*
X01778508D01*
X00101727Y00101727D02*
Y00256667D01*
Y00101727D02*
X00501904D01*
X00101600D02*
Y00256667D01*
X00727710Y00101727D02*
Y00256667D01*
X01778508Y00101727D02*
Y00256667D01*
X01118870Y00101727D02*
X01778508D01*
X01420876Y00100076D02*
Y00151596D01*
G54D18*
X00477268Y00507681D02*
D03*
Y00489180D02*
D03*
X00485268Y00507681D02*
D03*
Y00489180D02*
D03*
G54D19*
X00482862Y00470378D02*
D03*
X00462542D02*
D03*
G54D20*
X00458393Y00508043D02*
D03*
Y00528363D02*
D03*
G54D21*
X00411054Y00558825D02*
D03*
X00443820D02*
D03*
G54D22*
X00433938Y00492551D02*
D03*
Y00525317D02*
D03*
G54D23*
X00391468Y00480103D02*
D03*
Y00505503D02*
D03*
Y00530903D02*
D03*
Y00556303D02*
D03*
X00275068D02*
D03*
Y00530903D02*
D03*
Y00505503D02*
D03*
Y00480103D02*
D03*
G54D24*
X00226018Y00547861D02*
D03*
Y00538361D02*
D03*
Y00528861D02*
D03*
X00200518D02*
D03*
Y00547861D02*
D03*
G54D25*
X00260518Y00490668D02*
D03*
X00236518Y00500168D02*
D03*
Y00481169D02*
D03*
X00260518Y00547861D02*
D03*
X00236518Y00557361D02*
D03*
Y00538361D02*
D03*
G54D26*
X00216268Y00510055D02*
D03*
X00200268D02*
D03*
X00258518Y00518563D02*
D03*
X00242518D02*
D03*
G54D35*
X00278731Y00445786D02*
D03*
X00253331D02*
D03*
X00227931D02*
D03*
X00278731Y00420386D02*
D03*
X00253331D02*
D03*
X00456405Y00445786D02*
D03*
X00431005D02*
D03*
X00456405Y00420386D02*
D03*
G54D36*
X00227931Y00420386D02*
D03*
X00431005Y00420386D02*
D03*
G54D38*
X00477236Y00523308D02*
X00477268Y00523276D01*
Y00507681D02*
Y00523276D01*
X00242518Y00518563D02*
Y00526134D01*
X00246018Y00529634D01*
X00481268Y00455500D02*
Y00474600D01*
X00485268Y00478600D01*
Y00489180D01*
X00455768Y00474600D02*
X00465268D01*
X00258518Y00518896D02*
X00260163Y00517252D01*
X00258518Y00518896D02*
X00259561D01*
X00269143Y00482528D02*
X00271568Y00480103D01*
X00275068D01*
X00260163Y00516908D02*
Y00517252D01*
X00271568Y00505503D02*
X00275068D01*
X00271568Y00530903D02*
X00275068D01*
X00271568Y00556303D02*
X00275068D01*
X00430768Y00445000D02*
Y00449600D01*
X00455768Y00474600D01*
X00456168Y00445000D02*
X00470768D01*
X00481268Y00455500D01*
X00226018Y00521382D02*
Y00528861D01*
Y00521382D02*
X00232343Y00515057D01*
Y00511670D02*
Y00515057D01*
Y00511670D02*
X00236518Y00507495D01*
Y00500168D02*
Y00507495D01*
G54D39*
X00458393Y00508043D02*
X00468006Y00498430D01*
X00481124D01*
X00485268Y00502574D01*
Y00507681D01*
X00219018Y00493867D02*
Y00511314D01*
X00218303Y00512029D02*
X00219018Y00511314D01*
X00218303Y00512029D02*
Y00523695D01*
X00462584Y00477284D02*
X00465268Y00474600D01*
X00462584Y00477284D02*
Y00483770D01*
X00467963Y00489149D01*
X00477236D01*
X00477268Y00489180D01*
X00215719Y00456936D02*
X00227694Y00444961D01*
X00215719Y00456936D02*
Y00479170D01*
X00200691Y00491044D02*
X00200941Y00491294D01*
X00220768Y00538111D02*
X00221018Y00538361D01*
X00217478Y00538111D02*
X00220768D01*
X00217478Y00534821D02*
X00220768Y00538111D01*
X00217478D02*
Y00552201D01*
X00220768Y00555491D01*
Y00559636D01*
X00224717Y00488168D02*
X00231717Y00481169D01*
X00219018Y00493867D02*
X00224717Y00488168D01*
X00215719Y00479170D02*
X00224717Y00488168D01*
X00221018Y00538361D02*
X00226018D01*
X00217478Y00524520D02*
Y00534821D01*
Y00524520D02*
X00218303Y00523695D01*
X00231717Y00481169D02*
X00236518D01*
X00227018Y00547861D02*
X00236518Y00557361D01*
X00226018Y00547861D02*
X00227018D01*
X00226018Y00538361D02*
X00236518D01*
G54D40*
X00409738Y00506253D02*
X00411527Y00508043D01*
X00458393D01*
X00421491Y00480103D02*
X00433938Y00492551D01*
X00391468Y00480103D02*
X00421491D01*
X00391468Y00505503D02*
X00392218Y00506253D01*
X00409738D01*
G54D41*
X00246018Y00529634D02*
D03*
X00270093Y00518714D02*
D03*
X00188214Y00529634D02*
D03*
Y00491294D02*
D03*
Y00510294D02*
D03*
X00200518Y00547861D02*
D03*
X00220768Y00559636D02*
D03*
X00200691Y00529634D02*
D03*
M02*
