G04*
G04 #@! TF.GenerationSoftware,Altium Limited,Altium Designer,21.6.1 (37)*
G04*
G04 Layer_Color=32896*
%FSAX44Y44*%
%MOMM*%
G71*
G04*
G04 #@! TF.SameCoordinates,618BDD94-0BF2-4233-98CF-319708F98917*
G04*
G04*
G04 #@! TF.FilePolarity,Positive*
G04*
G01*
G75*
%ADD15C,0.2032*%
%ADD17C,0.2540*%
%ADD46C,0.3810*%
%ADD47C,0.0254*%
G54D15*
X00322326Y00171579D02*
Y00186814D01*
X00327404Y00181735D01*
X00332483Y00186814D01*
Y00171579D01*
X00337561D02*
X00342639D01*
X00340100D01*
Y00186814D01*
X00337561Y00184275D01*
X00360414Y00171579D02*
X00350257D01*
X00360414Y00181735D01*
Y00184275D01*
X00357874Y00186814D01*
X00352796D01*
X00350257Y00184275D01*
X00390884D02*
X00388345Y00186814D01*
X00383266D01*
X00380727Y00184275D01*
Y00181735D01*
X00383266Y00179196D01*
X00388345D01*
X00390884Y00176657D01*
Y00174118D01*
X00388345Y00171579D01*
X00383266D01*
X00380727Y00174118D01*
X00398501Y00184275D02*
Y00181735D01*
X00395962D01*
X00401040D01*
X00398501D01*
Y00174118D01*
X00401040Y00171579D01*
X00411197Y00181735D02*
X00416276D01*
X00418815Y00179196D01*
Y00171579D01*
X00411197D01*
X00408658Y00174118D01*
X00411197Y00176657D01*
X00418815D01*
X00434050Y00181735D02*
X00426432D01*
X00423893Y00179196D01*
Y00174118D01*
X00426432Y00171579D01*
X00434050D01*
X00439128D02*
Y00186814D01*
Y00176657D02*
X00446746Y00181735D01*
X00439128Y00176657D02*
X00446746Y00171579D01*
X00454363Y00181735D02*
Y00174118D01*
X00456903Y00171579D01*
X00464520D01*
Y00181735D01*
X00469598Y00166500D02*
Y00181735D01*
X00477216D01*
X00479755Y00179196D01*
Y00174118D01*
X00477216Y00171579D01*
X00469598D01*
X01441196Y00223097D02*
Y00238332D01*
X01451353Y00223097D01*
Y00238332D01*
X01458970Y00223097D02*
X01464049D01*
X01466588Y00225636D01*
Y00230714D01*
X01464049Y00233253D01*
X01458970D01*
X01456431Y00230714D01*
Y00225636D01*
X01458970Y00223097D01*
X01474205Y00235793D02*
Y00233253D01*
X01471666D01*
X01476745D01*
X01474205D01*
Y00225636D01*
X01476745Y00223097D01*
X01499597D02*
X01504675D01*
X01502136D01*
Y00233253D01*
X01499597D01*
X01512293Y00223097D02*
Y00233253D01*
X01519910D01*
X01522450Y00230714D01*
Y00223097D01*
X01542763Y00233253D02*
X01547841Y00223097D01*
X01552920Y00233253D01*
X01565616Y00223097D02*
X01560537D01*
X01557998Y00225636D01*
Y00230714D01*
X01560537Y00233253D01*
X01565616D01*
X01568155Y00230714D01*
Y00228175D01*
X01557998D01*
X01573233Y00233253D02*
Y00223097D01*
Y00228175D01*
X01575773Y00230714D01*
X01578312Y00233253D01*
X01580851D01*
X01588468Y00223097D02*
X01596086D01*
X01598625Y00225636D01*
X01596086Y00228175D01*
X01591008D01*
X01588468Y00230714D01*
X01591008Y00233253D01*
X01598625D01*
X01603703Y00223097D02*
X01608782D01*
X01606243D01*
Y00233253D01*
X01603703D01*
X01618938Y00223097D02*
X01624017D01*
X01626556Y00225636D01*
Y00230714D01*
X01624017Y00233253D01*
X01618938D01*
X01616399Y00230714D01*
Y00225636D01*
X01618938Y00223097D01*
X01631634D02*
Y00233253D01*
X01639252D01*
X01641791Y00230714D01*
Y00223097D01*
X01672261Y00233253D02*
X01664644D01*
X01662104Y00230714D01*
Y00225636D01*
X01664644Y00223097D01*
X01672261D01*
X01679879D02*
X01684957D01*
X01687496Y00225636D01*
Y00230714D01*
X01684957Y00233253D01*
X01679879D01*
X01677340Y00230714D01*
Y00225636D01*
X01679879Y00223097D01*
X01692575D02*
Y00233253D01*
X01700192D01*
X01702731Y00230714D01*
Y00223097D01*
X01710349Y00235793D02*
Y00233253D01*
X01707810D01*
X01712888D01*
X01710349D01*
Y00225636D01*
X01712888Y00223097D01*
X01720506Y00233253D02*
Y00223097D01*
Y00228175D01*
X01723045Y00230714D01*
X01725584Y00233253D01*
X01728123D01*
X01738280Y00223097D02*
X01743358D01*
X01745897Y00225636D01*
Y00230714D01*
X01743358Y00233253D01*
X01738280D01*
X01735741Y00230714D01*
Y00225636D01*
X01738280Y00223097D01*
X01750976D02*
X01756054D01*
X01753515D01*
Y00238332D01*
X01750976D01*
X01322829Y00235793D02*
X01320289Y00238332D01*
X01315211D01*
X01312672Y00235793D01*
Y00233253D01*
X01315211Y00230714D01*
X01320289D01*
X01322829Y00228175D01*
Y00225636D01*
X01320289Y00223097D01*
X01315211D01*
X01312672Y00225636D01*
X01327907Y00238332D02*
Y00228175D01*
X01332985Y00223097D01*
X01338064Y00228175D01*
Y00238332D01*
X01343142Y00223097D02*
Y00238332D01*
X01353299Y00223097D01*
Y00238332D01*
X01373612Y00223097D02*
Y00238332D01*
X01381230D01*
X01383769Y00235793D01*
Y00230714D01*
X01381230Y00228175D01*
X01373612D01*
X01378691D02*
X01383769Y00223097D01*
X01399004Y00238332D02*
X01388847D01*
Y00223097D01*
X01399004D01*
X01388847Y00230714D02*
X01393926D01*
X01404082Y00238332D02*
Y00228175D01*
X01409161Y00223097D01*
X01414239Y00228175D01*
Y00238332D01*
X01419317Y00233253D02*
X01421857D01*
Y00230714D01*
X01419317D01*
Y00233253D01*
Y00225636D02*
X01421857D01*
Y00223097D01*
X01419317D01*
Y00225636D01*
X01099820Y00223097D02*
Y00238332D01*
X01107438D01*
X01109977Y00235793D01*
Y00230714D01*
X01107438Y00228175D01*
X01099820D01*
X01104898D02*
X01109977Y00223097D01*
X01125212Y00238332D02*
X01115055D01*
Y00223097D01*
X01125212D01*
X01115055Y00230714D02*
X01120133D01*
X01130290Y00238332D02*
Y00228175D01*
X01135368Y00223097D01*
X01140447Y00228175D01*
Y00238332D01*
X01145525Y00233253D02*
X01148064D01*
Y00230714D01*
X01145525D01*
Y00233253D01*
Y00225636D02*
X01148064D01*
Y00223097D01*
X01145525D01*
Y00225636D01*
X00322326Y00119295D02*
Y00134530D01*
X00329944D01*
X00332483Y00131991D01*
Y00126912D01*
X00329944Y00124373D01*
X00322326D01*
X00337561Y00119295D02*
Y00134530D01*
X00342639Y00129452D01*
X00347718Y00134530D01*
Y00119295D01*
X00352796D02*
Y00134530D01*
X00360414D01*
X00362953Y00131991D01*
Y00126912D01*
X00360414Y00124373D01*
X00352796D01*
X00378188Y00119295D02*
X00368031D01*
X00378188Y00129452D01*
Y00131991D01*
X00375649Y00134530D01*
X00370570D01*
X00368031Y00131991D01*
X00393423Y00119295D02*
X00383266D01*
X00393423Y00129452D01*
Y00131991D01*
X00390884Y00134530D01*
X00385806D01*
X00383266Y00131991D01*
X00398501Y00134530D02*
X00408658D01*
Y00131991D01*
X00398501Y00121834D01*
Y00119295D01*
X00413736D02*
X00418815D01*
X00416276D01*
Y00134530D01*
X00413736Y00131991D01*
X00436589Y00119295D02*
X00426432D01*
X00436589Y00129452D01*
Y00131991D01*
X00434050Y00134530D01*
X00428971D01*
X00426432Y00131991D01*
X00451824Y00134530D02*
X00441667D01*
Y00119295D01*
X00451824D01*
X00441667Y00126912D02*
X00446746D01*
X00467059Y00119295D02*
X00456903D01*
X00467059Y00129452D01*
Y00131991D01*
X00464520Y00134530D01*
X00459442D01*
X00456903Y00131991D01*
X00472137Y00119295D02*
Y00121834D01*
X00474677D01*
Y00119295D01*
X00472137D01*
X00494990Y00131991D02*
X00492451Y00134530D01*
X00487373D01*
X00484833Y00131991D01*
Y00121834D01*
X00487373Y00119295D01*
X00492451D01*
X00494990Y00121834D01*
Y00126912D01*
X00489912D01*
X00500069Y00119295D02*
Y00134530D01*
X00505147Y00129452D01*
X00510225Y00134530D01*
Y00119295D01*
X00515304D02*
X00520382D01*
X00517843D01*
Y00134530D01*
X00515304Y00131991D01*
X00538156Y00119295D02*
X00527999D01*
X00538156Y00129452D01*
Y00131991D01*
X00535617Y00134530D01*
X00530539D01*
X00527999Y00131991D01*
X00968121D02*
X00970660Y00134530D01*
X00975739D01*
X00978278Y00131991D01*
Y00129452D01*
X00975739Y00126912D01*
X00978278Y00124373D01*
Y00121834D01*
X00975739Y00119295D01*
X00970660D01*
X00968121Y00121834D01*
Y00124373D01*
X00970660Y00126912D01*
X00968121Y00129452D01*
Y00131991D01*
X00970660Y00126912D02*
X00975739D01*
X00983356Y00119295D02*
X00993513Y00129452D01*
X01008748Y00119295D02*
X00998591D01*
X01008748Y00129452D01*
Y00131991D01*
X01006209Y00134530D01*
X01001130D01*
X00998591Y00131991D01*
X01013826D02*
X01016365Y00134530D01*
X01021444D01*
X01023983Y00131991D01*
Y00121834D01*
X01021444Y00119295D01*
X01016365D01*
X01013826Y00121834D01*
Y00131991D01*
X01029061Y00119295D02*
X01039218Y00129452D01*
X01054453Y00119295D02*
X01044296D01*
X01054453Y00129452D01*
Y00131991D01*
X01051914Y00134530D01*
X01046835D01*
X01044296Y00131991D01*
X01059531D02*
X01062071Y00134530D01*
X01067149D01*
X01069688Y00131991D01*
Y00121834D01*
X01067149Y00119295D01*
X01062071D01*
X01059531Y00121834D01*
Y00131991D01*
X01084923Y00119295D02*
X01074766D01*
X01084923Y00129452D01*
Y00131991D01*
X01082384Y00134530D01*
X01077306D01*
X01074766Y00131991D01*
X01090002Y00119295D02*
X01095080D01*
X01092541D01*
Y00134530D01*
X01090002Y00131991D01*
X00757425D02*
X00754885Y00134530D01*
X00749807D01*
X00747268Y00131991D01*
Y00121834D01*
X00749807Y00119295D01*
X00754885D01*
X00757425Y00121834D01*
Y00126912D01*
X00752346D01*
X00772660Y00134530D02*
X00762503D01*
Y00119295D01*
X00772660D01*
X00762503Y00126912D02*
X00767581D01*
X00777738Y00119295D02*
Y00134530D01*
X00787895Y00119295D01*
Y00134530D01*
X00803130D02*
X00792973D01*
Y00119295D01*
X00803130D01*
X00792973Y00126912D02*
X00798052D01*
X00808208Y00119295D02*
Y00134530D01*
X00815826D01*
X00818365Y00131991D01*
Y00126912D01*
X00815826Y00124373D01*
X00808208D01*
X00813287D02*
X00818365Y00119295D01*
X00823443D02*
Y00129452D01*
X00828522Y00134530D01*
X00833600Y00129452D01*
Y00119295D01*
Y00126912D01*
X00823443D01*
X00838678Y00134530D02*
X00848835D01*
X00843757D01*
Y00119295D01*
X00864070Y00134530D02*
X00853913D01*
Y00119295D01*
X00864070D01*
X00853913Y00126912D02*
X00858992D01*
X00869149Y00134530D02*
Y00119295D01*
X00876766D01*
X00879305Y00121834D01*
Y00131991D01*
X00876766Y00134530D01*
X00869149D01*
X00945324Y00129452D02*
X00947863D01*
Y00126912D01*
X00945324D01*
Y00129452D01*
Y00121834D02*
X00947863D01*
Y00119295D01*
X00945324D01*
Y00121834D01*
X00117729Y00223097D02*
Y00233253D01*
X00122807Y00238332D01*
X00127886Y00233253D01*
Y00223097D01*
Y00230714D01*
X00117729D01*
X00132964Y00238332D02*
Y00223097D01*
X00143121D01*
X00148199Y00238332D02*
Y00223097D01*
X00158356D01*
X00178669D02*
Y00233253D01*
X00183748Y00238332D01*
X00188826Y00233253D01*
Y00223097D01*
Y00230714D01*
X00178669D01*
X00193904Y00223097D02*
Y00238332D01*
X00201522D01*
X00204061Y00235793D01*
Y00230714D01*
X00201522Y00228175D01*
X00193904D01*
X00198983D02*
X00204061Y00223097D01*
X00209139Y00238332D02*
X00219296D01*
X00214218D01*
Y00223097D01*
X00224375Y00238332D02*
Y00223097D01*
X00229453Y00228175D01*
X00234531Y00223097D01*
Y00238332D01*
X00247227D02*
X00242149D01*
X00239610Y00235793D01*
Y00225636D01*
X00242149Y00223097D01*
X00247227D01*
X00249766Y00225636D01*
Y00235793D01*
X00247227Y00238332D01*
X00254845Y00223097D02*
Y00238332D01*
X00262462D01*
X00265001Y00235793D01*
Y00230714D01*
X00262462Y00228175D01*
X00254845D01*
X00259923D02*
X00265001Y00223097D01*
X00270080Y00238332D02*
Y00223097D01*
Y00228175D01*
X00280236Y00238332D01*
X00272619Y00230714D01*
X00280236Y00223097D01*
X00300550Y00238332D02*
Y00228175D01*
X00305628Y00223097D01*
X00310707Y00228175D01*
Y00238332D01*
X00315785D02*
X00320863D01*
X00318324D01*
Y00223097D01*
X00315785D01*
X00320863D01*
X00338638Y00238332D02*
X00328481D01*
Y00223097D01*
X00338638D01*
X00328481Y00230714D02*
X00333559D01*
X00343716Y00238332D02*
Y00223097D01*
X00348794Y00228175D01*
X00353873Y00223097D01*
Y00238332D01*
X00369108D02*
X00358951D01*
Y00223097D01*
X00369108D01*
X00358951Y00230714D02*
X00364029D01*
X00374186Y00238332D02*
Y00223097D01*
X00381804D01*
X00384343Y00225636D01*
Y00235793D01*
X00381804Y00238332D01*
X00374186D01*
X00414813D02*
X00404656D01*
Y00230714D01*
X00409734D01*
X00404656D01*
Y00223097D01*
X00419891D02*
Y00238332D01*
X00427509D01*
X00430048Y00235793D01*
Y00230714D01*
X00427509Y00228175D01*
X00419891D01*
X00424970D02*
X00430048Y00223097D01*
X00442744Y00238332D02*
X00437665D01*
X00435126Y00235793D01*
Y00225636D01*
X00437665Y00223097D01*
X00442744D01*
X00445283Y00225636D01*
Y00235793D01*
X00442744Y00238332D01*
X00450361Y00223097D02*
Y00238332D01*
X00455440Y00233253D01*
X00460518Y00238332D01*
Y00223097D01*
X00480832Y00238332D02*
X00490988D01*
X00485910D01*
Y00223097D01*
X00503684Y00238332D02*
X00498606D01*
X00496067Y00235793D01*
Y00225636D01*
X00498606Y00223097D01*
X00503684D01*
X00506223Y00225636D01*
Y00235793D01*
X00503684Y00238332D01*
X00511302Y00223097D02*
Y00238332D01*
X00518919D01*
X00521458Y00235793D01*
Y00230714D01*
X00518919Y00228175D01*
X00511302D01*
X00551929Y00235793D02*
X00549389Y00238332D01*
X00544311D01*
X00541772Y00235793D01*
Y00233253D01*
X00544311Y00230714D01*
X00549389D01*
X00551929Y00228175D01*
Y00225636D01*
X00549389Y00223097D01*
X00544311D01*
X00541772Y00225636D01*
X00557007Y00238332D02*
X00562085D01*
X00559546D01*
Y00223097D01*
X00557007D01*
X00562085D01*
X00569703Y00238332D02*
Y00223097D01*
X00577320D01*
X00579860Y00225636D01*
Y00235793D01*
X00577320Y00238332D01*
X00569703D01*
X00595095D02*
X00584938D01*
Y00223097D01*
X00595095D01*
X00584938Y00230714D02*
X00590016D01*
X01184018Y00238332D02*
X01173861D01*
Y00223097D01*
X01184018D01*
X01173861Y00230714D02*
X01178939D01*
X01199253Y00223097D02*
X01189096D01*
X01199253Y00233253D01*
Y00235793D01*
X01196714Y00238332D01*
X01191635D01*
X01189096Y00235793D01*
X00885317Y00223097D02*
Y00238332D01*
X00892934D01*
X00895474Y00235793D01*
Y00230714D01*
X00892934Y00228175D01*
X00885317D01*
X00900552Y00223097D02*
Y00238332D01*
X00905630Y00233253D01*
X00910709Y00238332D01*
Y00223097D01*
X00915787D02*
Y00238332D01*
X00923405D01*
X00925944Y00235793D01*
Y00230714D01*
X00923405Y00228175D01*
X00915787D01*
X00941179Y00223097D02*
X00931022D01*
X00941179Y00233253D01*
Y00235793D01*
X00938640Y00238332D01*
X00933561D01*
X00931022Y00235793D01*
X00956414Y00223097D02*
X00946257D01*
X00956414Y00233253D01*
Y00235793D01*
X00953875Y00238332D01*
X00948796D01*
X00946257Y00235793D01*
X00961492Y00238332D02*
X00971649D01*
Y00235793D01*
X00961492Y00225636D01*
Y00223097D01*
X00976727D02*
X00981806D01*
X00979267D01*
Y00238332D01*
X00976727Y00235793D01*
X00999580Y00223097D02*
X00989423D01*
X00999580Y00233253D01*
Y00235793D01*
X00997041Y00238332D01*
X00991963D01*
X00989423Y00235793D01*
X00746760Y00238332D02*
Y00223097D01*
X00754378D01*
X00756917Y00225636D01*
Y00228175D01*
X00754378Y00230714D01*
X00746760D01*
X00754378D01*
X00756917Y00233253D01*
Y00235793D01*
X00754378Y00238332D01*
X00746760D01*
X00769613D02*
X00764534D01*
X00761995Y00235793D01*
Y00225636D01*
X00764534Y00223097D01*
X00769613D01*
X00772152Y00225636D01*
Y00235793D01*
X00769613Y00238332D01*
X00777230Y00223097D02*
Y00233253D01*
X00782309Y00238332D01*
X00787387Y00233253D01*
Y00223097D01*
Y00230714D01*
X00777230D01*
X00792465Y00223097D02*
Y00238332D01*
X00800083D01*
X00802622Y00235793D01*
Y00230714D01*
X00800083Y00228175D01*
X00792465D01*
X00797544D02*
X00802622Y00223097D01*
X00807700Y00238332D02*
Y00223097D01*
X00815318D01*
X00817857Y00225636D01*
Y00235793D01*
X00815318Y00238332D01*
X00807700D01*
X00840710Y00223097D02*
Y00238332D01*
X00845788D02*
Y00223097D01*
X00838170Y00233253D02*
X00845788D01*
X00848327D01*
X00838170Y00228175D02*
X00848327D01*
X00853406Y00233253D02*
X00855945D01*
Y00230714D01*
X00853406D01*
Y00233253D01*
Y00225636D02*
X00855945D01*
Y00223097D01*
X00853406D01*
Y00225636D01*
X00117729Y00186814D02*
Y00171579D01*
X00127886D01*
X00132964D02*
Y00181735D01*
X00138042Y00186814D01*
X00143121Y00181735D01*
Y00171579D01*
Y00179196D01*
X00132964D01*
X00148199Y00186814D02*
Y00184275D01*
X00153278Y00179196D01*
X00158356Y00184275D01*
Y00186814D01*
X00153278Y00179196D02*
Y00171579D01*
X00173591Y00186814D02*
X00163434D01*
Y00171579D01*
X00173591D01*
X00163434Y00179196D02*
X00168513D01*
X00178669Y00171579D02*
Y00186814D01*
X00186287D01*
X00188826Y00184275D01*
Y00179196D01*
X00186287Y00176657D01*
X00178669D01*
X00183748D02*
X00188826Y00171579D01*
X00209139D02*
Y00186814D01*
X00219296Y00171579D01*
Y00186814D01*
X00224375Y00171579D02*
Y00181735D01*
X00229453Y00186814D01*
X00234531Y00181735D01*
Y00171579D01*
Y00179196D01*
X00224375D01*
X00239610Y00171579D02*
Y00186814D01*
X00244688Y00181735D01*
X00249766Y00186814D01*
Y00171579D01*
X00265001Y00186814D02*
X00254845D01*
Y00171579D01*
X00265001D01*
X00254845Y00179196D02*
X00259923D01*
X00285315Y00176657D02*
X00295471D01*
X00285315Y00181735D02*
X00295471D01*
X00117729Y00119295D02*
Y00134530D01*
X00125346D01*
X00127886Y00131991D01*
Y00126912D01*
X00125346Y00124373D01*
X00117729D01*
X00132964Y00134530D02*
Y00119295D01*
X00143121D01*
X00155817Y00134530D02*
X00150738D01*
X00148199Y00131991D01*
Y00121834D01*
X00150738Y00119295D01*
X00155817D01*
X00158356Y00121834D01*
Y00131991D01*
X00155817Y00134530D01*
X00163434D02*
X00173591D01*
X00168513D01*
Y00119295D01*
X00193904D02*
Y00134530D01*
X00204061Y00119295D01*
Y00134530D01*
X00209139Y00119295D02*
Y00129452D01*
X00214218Y00134530D01*
X00219296Y00129452D01*
Y00119295D01*
Y00126912D01*
X00209139D01*
X00224375Y00119295D02*
Y00134530D01*
X00229453Y00129452D01*
X00234531Y00134530D01*
Y00119295D01*
X00249766Y00134530D02*
X00239610D01*
Y00119295D01*
X00249766D01*
X00239610Y00126912D02*
X00244688D01*
X00270080Y00124373D02*
X00280236D01*
X00270080Y00129452D02*
X00280236D01*
X01153287Y00119295D02*
X01158365D01*
X01155826D01*
Y00134530D01*
X01153287Y00131991D01*
X01176140Y00119295D02*
X01165983D01*
X01176140Y00129452D01*
Y00131991D01*
X01173600Y00134530D01*
X01168522D01*
X01165983Y00131991D01*
X01181218Y00129452D02*
X01183757D01*
Y00126912D01*
X01181218D01*
Y00129452D01*
Y00121834D02*
X01183757D01*
Y00119295D01*
X01181218D01*
Y00121834D01*
X01204071Y00119295D02*
X01193914D01*
X01204071Y00129452D01*
Y00131991D01*
X01201531Y00134530D01*
X01196453D01*
X01193914Y00131991D01*
X01209149Y00121834D02*
X01211688Y00119295D01*
X01216767D01*
X01219306Y00121834D01*
Y00131991D01*
X01216767Y00134530D01*
X01211688D01*
X01209149Y00131991D01*
Y00129452D01*
X01211688Y00126912D01*
X01219306D01*
X01224384Y00129452D02*
X01226923D01*
Y00126912D01*
X01224384D01*
Y00129452D01*
Y00121834D02*
X01226923D01*
Y00119295D01*
X01224384D01*
Y00121834D01*
X01244697Y00119295D02*
Y00134530D01*
X01237080Y00126912D01*
X01247237D01*
X01262472Y00119295D02*
X01252315D01*
X01262472Y00129452D01*
Y00131991D01*
X01259932Y00134530D01*
X01254854D01*
X01252315Y00131991D01*
X01282785Y00119295D02*
Y00134530D01*
X01290403D01*
X01292942Y00131991D01*
Y00126912D01*
X01290403Y00124373D01*
X01282785D01*
X01298020Y00119295D02*
Y00134530D01*
X01303098Y00129452D01*
X01308177Y00134530D01*
Y00119295D01*
X01474470Y00134530D02*
X01484627D01*
X01479548D01*
Y00119295D01*
X01499862Y00134530D02*
X01489705D01*
Y00119295D01*
X01499862D01*
X01489705Y00126912D02*
X01494783D01*
X01504940Y00134530D02*
X01515097Y00119295D01*
Y00134530D02*
X01504940Y00119295D01*
X01520175D02*
Y00129452D01*
X01525254Y00134530D01*
X01530332Y00129452D01*
Y00119295D01*
Y00126912D01*
X01520175D01*
X01545567Y00131991D02*
X01543028Y00134530D01*
X01537950D01*
X01535410Y00131991D01*
Y00129452D01*
X01537950Y00126912D01*
X01543028D01*
X01545567Y00124373D01*
Y00121834D01*
X01543028Y00119295D01*
X01537950D01*
X01535410Y00121834D01*
X01565880Y00134530D02*
X01570959D01*
X01568420D01*
Y00119295D01*
X01565880D01*
X01570959D01*
X01578576D02*
Y00134530D01*
X01588733Y00119295D01*
Y00134530D01*
X01603968Y00131991D02*
X01601429Y00134530D01*
X01596351D01*
X01593811Y00131991D01*
Y00129452D01*
X01596351Y00126912D01*
X01601429D01*
X01603968Y00124373D01*
Y00121834D01*
X01601429Y00119295D01*
X01596351D01*
X01593811Y00121834D01*
X01609046Y00134530D02*
X01619203D01*
X01614125D01*
Y00119295D01*
X01624281D02*
Y00134530D01*
X01631899D01*
X01634438Y00131991D01*
Y00126912D01*
X01631899Y00124373D01*
X01624281D01*
X01629360D02*
X01634438Y00119295D01*
X01639517Y00134530D02*
Y00121834D01*
X01642056Y00119295D01*
X01647134D01*
X01649673Y00121834D01*
Y00134530D01*
X01654752Y00119295D02*
Y00134530D01*
X01659830Y00129452D01*
X01664908Y00134530D01*
Y00119295D01*
X01680143Y00134530D02*
X01669987D01*
Y00119295D01*
X01680143D01*
X01669987Y00126912D02*
X01675065D01*
X01685222Y00119295D02*
Y00134530D01*
X01695379Y00119295D01*
Y00134530D01*
X01700457D02*
X01710614D01*
X01705535D01*
Y00119295D01*
X01725849Y00131991D02*
X01723309Y00134530D01*
X01718231D01*
X01715692Y00131991D01*
Y00129452D01*
X01718231Y00126912D01*
X01723309D01*
X01725849Y00124373D01*
Y00121834D01*
X01723309Y00119295D01*
X01718231D01*
X01715692Y00121834D01*
X00746760Y00186685D02*
X00756917D01*
X00751838D01*
Y00171450D01*
X00761995Y00186685D02*
X00767073D01*
X00764534D01*
Y00171450D01*
X00761995D01*
X00767073D01*
X00774691Y00186685D02*
Y00171450D01*
X00782309D01*
X00784848Y00173989D01*
Y00184146D01*
X00782309Y00186685D01*
X00774691D01*
X00807700Y00171450D02*
Y00186685D01*
X00812779D02*
Y00171450D01*
X00805161Y00181607D02*
X00812779D01*
X00815318D01*
X00805161Y00176528D02*
X00815318D01*
X00820396Y00181607D02*
X00822935D01*
Y00179067D01*
X00820396D01*
Y00181607D01*
Y00173989D02*
X00822935D01*
Y00171450D01*
X00820396D01*
Y00173989D01*
X00885317Y00171450D02*
Y00186685D01*
X00895474Y00171450D01*
Y00186685D01*
X00900552Y00171450D02*
X00910709Y00181607D01*
X00915787Y00171450D02*
Y00181607D01*
X00920865Y00186685D01*
X00925944Y00181607D01*
Y00171450D01*
Y00179067D01*
X00915787D01*
G54D17*
X02670453Y02336526D02*
Y02321291D01*
X02680610D01*
X02688227Y02331448D02*
X02693306D01*
X02695845Y02328909D01*
Y02321291D01*
X02688227D01*
X02685688Y02323830D01*
X02688227Y02326369D01*
X02695845D01*
X02700923Y02331448D02*
Y02323830D01*
X02703462Y02321291D01*
X02711080D01*
Y02318752D01*
X02708541Y02316213D01*
X02706002D01*
X02711080Y02321291D02*
Y02331448D01*
X02723776Y02321291D02*
X02718698D01*
X02716158Y02323830D01*
Y02328909D01*
X02718698Y02331448D01*
X02723776D01*
X02726315Y02328909D01*
Y02326369D01*
X02716158D01*
X02731393Y02331448D02*
Y02321291D01*
Y02326369D01*
X02733932Y02328909D01*
X02736472Y02331448D01*
X02739011D01*
X02678070Y02046971D02*
Y02062206D01*
X02670453Y02054588D01*
X02680610D01*
X02670453Y02120627D02*
X02672992Y02123166D01*
X02678070D01*
X02680610Y02120627D01*
Y02118088D01*
X02678070Y02115549D01*
X02675531D01*
X02678070D01*
X02680610Y02113009D01*
Y02110470D01*
X02678070Y02107931D01*
X02672992D01*
X02670453Y02110470D01*
X02680610Y02168891D02*
X02670453D01*
X02680610Y02179048D01*
Y02181587D01*
X02678070Y02184126D01*
X02672992D01*
X02670453Y02181587D01*
Y02229851D02*
X02675531D01*
X02672992D01*
Y02245086D01*
X02670453Y02242547D01*
X02774571Y02321291D02*
Y02336526D01*
X02784727Y02321291D01*
Y02336526D01*
X02792345Y02331448D02*
X02797423D01*
X02799962Y02328909D01*
Y02321291D01*
X02792345D01*
X02789806Y02323830D01*
X02792345Y02326369D01*
X02799962D01*
X02805041Y02321291D02*
Y02331448D01*
X02807580D01*
X02810119Y02328909D01*
Y02321291D01*
Y02328909D01*
X02812658Y02331448D01*
X02815198Y02328909D01*
Y02321291D01*
X02827894D02*
X02822815D01*
X02820276Y02323830D01*
Y02328909D01*
X02822815Y02331448D01*
X02827894D01*
X02830433Y02328909D01*
Y02326369D01*
X02820276D01*
X02774571Y02001246D02*
Y01986011D01*
X02782188D01*
X02784727Y01988550D01*
Y01991089D01*
X02782188Y01993629D01*
X02774571D01*
X02782188D01*
X02784727Y01996168D01*
Y01998707D01*
X02782188Y02001246D01*
X02774571D01*
X02792345Y01986011D02*
X02797423D01*
X02799962Y01988550D01*
Y01993629D01*
X02797423Y01996168D01*
X02792345D01*
X02789806Y01993629D01*
Y01988550D01*
X02792345Y01986011D01*
X02807580Y01998707D02*
Y01996168D01*
X02805041D01*
X02810119D01*
X02807580D01*
Y01988550D01*
X02810119Y01986011D01*
X02820276Y01998707D02*
Y01996168D01*
X02817737D01*
X02822815D01*
X02820276D01*
Y01988550D01*
X02822815Y01986011D01*
X02832972D02*
X02838050D01*
X02840590Y01988550D01*
Y01993629D01*
X02838050Y01996168D01*
X02832972D01*
X02830433Y01993629D01*
Y01988550D01*
X02832972Y01986011D01*
X02845668D02*
Y01996168D01*
X02848207D01*
X02850746Y01993629D01*
Y01986011D01*
Y01993629D01*
X02853286Y01996168D01*
X02855825Y01993629D01*
Y01986011D01*
X02883755Y02001246D02*
X02878677D01*
X02876138Y01998707D01*
Y01988550D01*
X02878677Y01986011D01*
X02883755D01*
X02886295Y01988550D01*
Y01998707D01*
X02883755Y02001246D01*
X02891373Y01996168D02*
X02896451Y01986011D01*
X02901530Y01996168D01*
X02914225Y01986011D02*
X02909147D01*
X02906608Y01988550D01*
Y01993629D01*
X02909147Y01996168D01*
X02914225D01*
X02916765Y01993629D01*
Y01991089D01*
X02906608D01*
X02921843Y01996168D02*
Y01986011D01*
Y01991089D01*
X02924382Y01993629D01*
X02926921Y01996168D01*
X02929461D01*
X02937078Y01986011D02*
X02942157D01*
X02939617D01*
Y02001246D01*
X02937078D01*
X02952313Y01996168D02*
X02957392D01*
X02959931Y01993629D01*
Y01986011D01*
X02952313D01*
X02949774Y01988550D01*
X02952313Y01991089D01*
X02959931D01*
X02965009Y01996168D02*
Y01988550D01*
X02967549Y01986011D01*
X02975166D01*
Y01983472D01*
X02972627Y01980933D01*
X02970088D01*
X02975166Y01986011D02*
Y01996168D01*
X02774571Y02031726D02*
Y02016491D01*
X02782188D01*
X02784727Y02019030D01*
Y02021569D01*
X02782188Y02024108D01*
X02774571D01*
X02782188D01*
X02784727Y02026648D01*
Y02029187D01*
X02782188Y02031726D01*
X02774571D01*
X02792345Y02016491D02*
X02797423D01*
X02799962Y02019030D01*
Y02024108D01*
X02797423Y02026648D01*
X02792345D01*
X02789806Y02024108D01*
Y02019030D01*
X02792345Y02016491D01*
X02807580Y02029187D02*
Y02026648D01*
X02805041D01*
X02810119D01*
X02807580D01*
Y02019030D01*
X02810119Y02016491D01*
X02820276Y02029187D02*
Y02026648D01*
X02817737D01*
X02822815D01*
X02820276D01*
Y02019030D01*
X02822815Y02016491D01*
X02832972D02*
X02838050D01*
X02840590Y02019030D01*
Y02024108D01*
X02838050Y02026648D01*
X02832972D01*
X02830433Y02024108D01*
Y02019030D01*
X02832972Y02016491D01*
X02845668D02*
Y02026648D01*
X02848207D01*
X02850746Y02024108D01*
Y02016491D01*
Y02024108D01*
X02853286Y02026648D01*
X02855825Y02024108D01*
Y02016491D01*
X02886295Y02029187D02*
X02883755Y02031726D01*
X02878677D01*
X02876138Y02029187D01*
Y02026648D01*
X02878677Y02024108D01*
X02883755D01*
X02886295Y02021569D01*
Y02019030D01*
X02883755Y02016491D01*
X02878677D01*
X02876138Y02019030D01*
X02893912Y02016491D02*
X02898990D01*
X02901530Y02019030D01*
Y02024108D01*
X02898990Y02026648D01*
X02893912D01*
X02891373Y02024108D01*
Y02019030D01*
X02893912Y02016491D01*
X02906608D02*
X02911686D01*
X02909147D01*
Y02031726D01*
X02906608D01*
X02929461D02*
Y02016491D01*
X02921843D01*
X02919304Y02019030D01*
Y02024108D01*
X02921843Y02026648D01*
X02929461D01*
X02942157Y02016491D02*
X02937078D01*
X02934539Y02019030D01*
Y02024108D01*
X02937078Y02026648D01*
X02942157D01*
X02944696Y02024108D01*
Y02021569D01*
X02934539D01*
X02949774Y02026648D02*
Y02016491D01*
Y02021569D01*
X02952313Y02024108D01*
X02954853Y02026648D01*
X02957392D01*
X02774571Y02062206D02*
Y02046971D01*
X02782188D01*
X02784727Y02049510D01*
Y02052049D01*
X02782188Y02054588D01*
X02774571D01*
X02782188D01*
X02784727Y02057128D01*
Y02059667D01*
X02782188Y02062206D01*
X02774571D01*
X02792345Y02046971D02*
X02797423D01*
X02799962Y02049510D01*
Y02054588D01*
X02797423Y02057128D01*
X02792345D01*
X02789806Y02054588D01*
Y02049510D01*
X02792345Y02046971D01*
X02807580Y02059667D02*
Y02057128D01*
X02805041D01*
X02810119D01*
X02807580D01*
Y02049510D01*
X02810119Y02046971D01*
X02820276Y02059667D02*
Y02057128D01*
X02817737D01*
X02822815D01*
X02820276D01*
Y02049510D01*
X02822815Y02046971D01*
X02832972D02*
X02838050D01*
X02840590Y02049510D01*
Y02054588D01*
X02838050Y02057128D01*
X02832972D01*
X02830433Y02054588D01*
Y02049510D01*
X02832972Y02046971D01*
X02845668D02*
Y02057128D01*
X02848207D01*
X02850746Y02054588D01*
Y02046971D01*
Y02054588D01*
X02853286Y02057128D01*
X02855825Y02054588D01*
Y02046971D01*
X02876138Y02062206D02*
Y02046971D01*
X02886295D01*
X02893912Y02057128D02*
X02898990D01*
X02901530Y02054588D01*
Y02046971D01*
X02893912D01*
X02891373Y02049510D01*
X02893912Y02052049D01*
X02901530D01*
X02906608Y02057128D02*
Y02049510D01*
X02909147Y02046971D01*
X02916765D01*
Y02044432D01*
X02914225Y02041893D01*
X02911686D01*
X02916765Y02046971D02*
Y02057128D01*
X02929461Y02046971D02*
X02924382D01*
X02921843Y02049510D01*
Y02054588D01*
X02924382Y02057128D01*
X02929461D01*
X02932000Y02054588D01*
Y02052049D01*
X02921843D01*
X02937078Y02057128D02*
Y02046971D01*
Y02052049D01*
X02939617Y02054588D01*
X02942157Y02057128D01*
X02944696D01*
X02774571Y02092686D02*
Y02077451D01*
X02782188D01*
X02784727Y02079990D01*
Y02090147D01*
X02782188Y02092686D01*
X02774571D01*
X02789806Y02077451D02*
X02794884D01*
X02792345D01*
Y02087608D01*
X02789806D01*
X02810119Y02077451D02*
X02805041D01*
X02802502Y02079990D01*
Y02085069D01*
X02805041Y02087608D01*
X02810119D01*
X02812658Y02085069D01*
Y02082529D01*
X02802502D01*
X02817737Y02077451D02*
X02822815D01*
X02820276D01*
Y02092686D01*
X02817737D01*
X02838050Y02077451D02*
X02832972D01*
X02830433Y02079990D01*
Y02085069D01*
X02832972Y02087608D01*
X02838050D01*
X02840590Y02085069D01*
Y02082529D01*
X02830433D01*
X02855825Y02087608D02*
X02848207D01*
X02845668Y02085069D01*
Y02079990D01*
X02848207Y02077451D01*
X02855825D01*
X02863442Y02090147D02*
Y02087608D01*
X02860903D01*
X02865981D01*
X02863442D01*
Y02079990D01*
X02865981Y02077451D01*
X02873599Y02087608D02*
Y02077451D01*
Y02082529D01*
X02876138Y02085069D01*
X02878677Y02087608D01*
X02881216D01*
X02888834Y02077451D02*
X02893912D01*
X02891373D01*
Y02087608D01*
X02888834D01*
X02911686D02*
X02904069D01*
X02901530Y02085069D01*
Y02079990D01*
X02904069Y02077451D01*
X02911686D01*
X02932000Y02090147D02*
X02934539Y02092686D01*
X02939617D01*
X02942157Y02090147D01*
Y02087608D01*
X02939617Y02085069D01*
X02937078D01*
X02939617D01*
X02942157Y02082529D01*
Y02079990D01*
X02939617Y02077451D01*
X02934539D01*
X02932000Y02079990D01*
X02784727Y02120627D02*
X02782188Y02123166D01*
X02777110D01*
X02774571Y02120627D01*
Y02118088D01*
X02777110Y02115549D01*
X02782188D01*
X02784727Y02113009D01*
Y02110470D01*
X02782188Y02107931D01*
X02777110D01*
X02774571Y02110470D01*
X02789806Y02107931D02*
X02794884D01*
X02792345D01*
Y02118088D01*
X02789806D01*
X02807580Y02102853D02*
X02810119D01*
X02812658Y02105392D01*
Y02118088D01*
X02805041D01*
X02802502Y02115549D01*
Y02110470D01*
X02805041Y02107931D01*
X02812658D01*
X02817737D02*
Y02118088D01*
X02825354D01*
X02827894Y02115549D01*
Y02107931D01*
X02835511Y02118088D02*
X02840590D01*
X02843129Y02115549D01*
Y02107931D01*
X02835511D01*
X02832972Y02110470D01*
X02835511Y02113009D01*
X02843129D01*
X02848207Y02107931D02*
X02853286D01*
X02850746D01*
Y02123166D01*
X02848207D01*
X02876138D02*
Y02107931D01*
X02886295D01*
X02893912Y02118088D02*
X02898990D01*
X02901530Y02115549D01*
Y02107931D01*
X02893912D01*
X02891373Y02110470D01*
X02893912Y02113009D01*
X02901530D01*
X02906608Y02118088D02*
Y02110470D01*
X02909147Y02107931D01*
X02916765D01*
Y02105392D01*
X02914225Y02102853D01*
X02911686D01*
X02916765Y02107931D02*
Y02118088D01*
X02929461Y02107931D02*
X02924382D01*
X02921843Y02110470D01*
Y02115549D01*
X02924382Y02118088D01*
X02929461D01*
X02932000Y02115549D01*
Y02113009D01*
X02921843D01*
X02937078Y02118088D02*
Y02107931D01*
Y02113009D01*
X02939617Y02115549D01*
X02942157Y02118088D01*
X02944696D01*
X02977705Y02107931D02*
X02967549D01*
X02977705Y02118088D01*
Y02120627D01*
X02975166Y02123166D01*
X02970088D01*
X02967549Y02120627D01*
X02774571Y02153646D02*
Y02138411D01*
X02782188D01*
X02784727Y02140950D01*
Y02151107D01*
X02782188Y02153646D01*
X02774571D01*
X02789806Y02138411D02*
X02794884D01*
X02792345D01*
Y02148568D01*
X02789806D01*
X02810119Y02138411D02*
X02805041D01*
X02802502Y02140950D01*
Y02146028D01*
X02805041Y02148568D01*
X02810119D01*
X02812658Y02146028D01*
Y02143489D01*
X02802502D01*
X02817737Y02138411D02*
X02822815D01*
X02820276D01*
Y02153646D01*
X02817737D01*
X02838050Y02138411D02*
X02832972D01*
X02830433Y02140950D01*
Y02146028D01*
X02832972Y02148568D01*
X02838050D01*
X02840590Y02146028D01*
Y02143489D01*
X02830433D01*
X02855825Y02148568D02*
X02848207D01*
X02845668Y02146028D01*
Y02140950D01*
X02848207Y02138411D01*
X02855825D01*
X02863442Y02151107D02*
Y02148568D01*
X02860903D01*
X02865981D01*
X02863442D01*
Y02140950D01*
X02865981Y02138411D01*
X02873599Y02148568D02*
Y02138411D01*
Y02143489D01*
X02876138Y02146028D01*
X02878677Y02148568D01*
X02881216D01*
X02888834Y02138411D02*
X02893912D01*
X02891373D01*
Y02148568D01*
X02888834D01*
X02911686D02*
X02904069D01*
X02901530Y02146028D01*
Y02140950D01*
X02904069Y02138411D01*
X02911686D01*
X02916765D02*
X02921843D01*
X02919304D01*
Y02153646D01*
X02916765Y02151107D01*
X02784727Y02181587D02*
X02782188Y02184126D01*
X02777110D01*
X02774571Y02181587D01*
Y02179048D01*
X02777110Y02176508D01*
X02782188D01*
X02784727Y02173969D01*
Y02171430D01*
X02782188Y02168891D01*
X02777110D01*
X02774571Y02171430D01*
X02789806Y02168891D02*
X02794884D01*
X02792345D01*
Y02179048D01*
X02789806D01*
X02807580Y02163813D02*
X02810119D01*
X02812658Y02166352D01*
Y02179048D01*
X02805041D01*
X02802502Y02176508D01*
Y02171430D01*
X02805041Y02168891D01*
X02812658D01*
X02817737D02*
Y02179048D01*
X02825354D01*
X02827894Y02176508D01*
Y02168891D01*
X02835511Y02179048D02*
X02840590D01*
X02843129Y02176508D01*
Y02168891D01*
X02835511D01*
X02832972Y02171430D01*
X02835511Y02173969D01*
X02843129D01*
X02848207Y02168891D02*
X02853286D01*
X02850746D01*
Y02184126D01*
X02848207D01*
X02876138D02*
Y02168891D01*
X02886295D01*
X02893912Y02179048D02*
X02898990D01*
X02901530Y02176508D01*
Y02168891D01*
X02893912D01*
X02891373Y02171430D01*
X02893912Y02173969D01*
X02901530D01*
X02906608Y02179048D02*
Y02171430D01*
X02909147Y02168891D01*
X02916765D01*
Y02166352D01*
X02914225Y02163813D01*
X02911686D01*
X02916765Y02168891D02*
Y02179048D01*
X02929461Y02168891D02*
X02924382D01*
X02921843Y02171430D01*
Y02176508D01*
X02924382Y02179048D01*
X02929461D01*
X02932000Y02176508D01*
Y02173969D01*
X02921843D01*
X02937078Y02179048D02*
Y02168891D01*
Y02173969D01*
X02939617Y02176508D01*
X02942157Y02179048D01*
X02944696D01*
X02967549Y02168891D02*
X02972627D01*
X02970088D01*
Y02184126D01*
X02967549Y02181587D01*
X02774571Y02214606D02*
Y02199371D01*
X02782188D01*
X02784727Y02201910D01*
Y02212067D01*
X02782188Y02214606D01*
X02774571D01*
X02789806Y02199371D02*
X02794884D01*
X02792345D01*
Y02209528D01*
X02789806D01*
X02810119Y02199371D02*
X02805041D01*
X02802502Y02201910D01*
Y02206989D01*
X02805041Y02209528D01*
X02810119D01*
X02812658Y02206989D01*
Y02204449D01*
X02802502D01*
X02817737Y02199371D02*
X02822815D01*
X02820276D01*
Y02214606D01*
X02817737D01*
X02838050Y02199371D02*
X02832972D01*
X02830433Y02201910D01*
Y02206989D01*
X02832972Y02209528D01*
X02838050D01*
X02840590Y02206989D01*
Y02204449D01*
X02830433D01*
X02855825Y02209528D02*
X02848207D01*
X02845668Y02206989D01*
Y02201910D01*
X02848207Y02199371D01*
X02855825D01*
X02863442Y02212067D02*
Y02209528D01*
X02860903D01*
X02865981D01*
X02863442D01*
Y02201910D01*
X02865981Y02199371D01*
X02873599Y02209528D02*
Y02199371D01*
Y02204449D01*
X02876138Y02206989D01*
X02878677Y02209528D01*
X02881216D01*
X02888834Y02199371D02*
X02893912D01*
X02891373D01*
Y02209528D01*
X02888834D01*
X02911686D02*
X02904069D01*
X02901530Y02206989D01*
Y02201910D01*
X02904069Y02199371D01*
X02911686D01*
X02942157D02*
X02932000D01*
X02942157Y02209528D01*
Y02212067D01*
X02939617Y02214606D01*
X02934539D01*
X02932000Y02212067D01*
X02774571Y02245086D02*
X02784727D01*
X02779649D01*
Y02229851D01*
X02792345D02*
X02797423D01*
X02799962Y02232390D01*
Y02237469D01*
X02797423Y02240008D01*
X02792345D01*
X02789806Y02237469D01*
Y02232390D01*
X02792345Y02229851D01*
X02805041Y02224773D02*
Y02240008D01*
X02812658D01*
X02815198Y02237469D01*
Y02232390D01*
X02812658Y02229851D01*
X02805041D01*
X02835511Y02245086D02*
Y02229851D01*
X02845668D01*
X02853286Y02240008D02*
X02858364D01*
X02860903Y02237469D01*
Y02229851D01*
X02853286D01*
X02850746Y02232390D01*
X02853286Y02234929D01*
X02860903D01*
X02865981Y02240008D02*
Y02232390D01*
X02868521Y02229851D01*
X02876138D01*
Y02227312D01*
X02873599Y02224773D01*
X02871060D01*
X02876138Y02229851D02*
Y02240008D01*
X02888834Y02229851D02*
X02883755D01*
X02881216Y02232390D01*
Y02237469D01*
X02883755Y02240008D01*
X02888834D01*
X02891373Y02237469D01*
Y02234929D01*
X02881216D01*
X02896451Y02240008D02*
Y02229851D01*
Y02234929D01*
X02898990Y02237469D01*
X02901530Y02240008D01*
X02904069D01*
X02774571Y02275566D02*
X02784727D01*
X02779649D01*
Y02260331D01*
X02792345D02*
X02797423D01*
X02799962Y02262870D01*
Y02267948D01*
X02797423Y02270488D01*
X02792345D01*
X02789806Y02267948D01*
Y02262870D01*
X02792345Y02260331D01*
X02805041Y02255253D02*
Y02270488D01*
X02812658D01*
X02815198Y02267948D01*
Y02262870D01*
X02812658Y02260331D01*
X02805041D01*
X02845668Y02273027D02*
X02843129Y02275566D01*
X02838050D01*
X02835511Y02273027D01*
Y02270488D01*
X02838050Y02267948D01*
X02843129D01*
X02845668Y02265409D01*
Y02262870D01*
X02843129Y02260331D01*
X02838050D01*
X02835511Y02262870D01*
X02853286Y02260331D02*
X02858364D01*
X02860903Y02262870D01*
Y02267948D01*
X02858364Y02270488D01*
X02853286D01*
X02850746Y02267948D01*
Y02262870D01*
X02853286Y02260331D01*
X02865981D02*
X02871060D01*
X02868521D01*
Y02275566D01*
X02865981D01*
X02888834D02*
Y02260331D01*
X02881216D01*
X02878677Y02262870D01*
Y02267948D01*
X02881216Y02270488D01*
X02888834D01*
X02901530Y02260331D02*
X02896451D01*
X02893912Y02262870D01*
Y02267948D01*
X02896451Y02270488D01*
X02901530D01*
X02904069Y02267948D01*
Y02265409D01*
X02893912D01*
X02909147Y02270488D02*
Y02260331D01*
Y02265409D01*
X02911686Y02267948D01*
X02914225Y02270488D01*
X02916765D01*
X02774571Y02306046D02*
X02784727D01*
X02779649D01*
Y02290811D01*
X02792345D02*
X02797423D01*
X02799962Y02293350D01*
Y02298428D01*
X02797423Y02300968D01*
X02792345D01*
X02789806Y02298428D01*
Y02293350D01*
X02792345Y02290811D01*
X02805041Y02285733D02*
Y02300968D01*
X02812658D01*
X02815198Y02298428D01*
Y02293350D01*
X02812658Y02290811D01*
X02805041D01*
X02843129Y02306046D02*
X02838050D01*
X02835511Y02303507D01*
Y02293350D01*
X02838050Y02290811D01*
X02843129D01*
X02845668Y02293350D01*
Y02303507D01*
X02843129Y02306046D01*
X02850746Y02300968D02*
X02855825Y02290811D01*
X02860903Y02300968D01*
X02873599Y02290811D02*
X02868521D01*
X02865981Y02293350D01*
Y02298428D01*
X02868521Y02300968D01*
X02873599D01*
X02876138Y02298428D01*
Y02295889D01*
X02865981D01*
X02881216Y02300968D02*
Y02290811D01*
Y02295889D01*
X02883755Y02298428D01*
X02886295Y02300968D01*
X02888834D01*
X02896451Y02290811D02*
X02901530D01*
X02898990D01*
Y02306046D01*
X02896451D01*
X02911686Y02300968D02*
X02916765D01*
X02919304Y02298428D01*
Y02290811D01*
X02911686D01*
X02909147Y02293350D01*
X02911686Y02295889D01*
X02919304D01*
X02924382Y02300968D02*
Y02293350D01*
X02926922Y02290811D01*
X02934539D01*
Y02288272D01*
X02932000Y02285733D01*
X02929461D01*
X02934539Y02290811D02*
Y02300968D01*
X03013265Y02321291D02*
Y02336526D01*
X03018344Y02331448D01*
X03023422Y02336526D01*
Y02321291D01*
X03031039Y02331448D02*
X03036118D01*
X03038657Y02328909D01*
Y02321291D01*
X03031039D01*
X03028500Y02323830D01*
X03031039Y02326369D01*
X03038657D01*
X03046274Y02333987D02*
Y02331448D01*
X03043735D01*
X03048813D01*
X03046274D01*
Y02323830D01*
X03048813Y02321291D01*
X03064049D02*
X03058970D01*
X03056431Y02323830D01*
Y02328909D01*
X03058970Y02331448D01*
X03064049D01*
X03066588Y02328909D01*
Y02326369D01*
X03056431D01*
X03071666Y02331448D02*
Y02321291D01*
Y02326369D01*
X03074205Y02328909D01*
X03076745Y02331448D01*
X03079284D01*
X03086901Y02321291D02*
X03091980D01*
X03089441D01*
Y02331448D01*
X03086901D01*
X03102137D02*
X03107215D01*
X03109754Y02328909D01*
Y02321291D01*
X03102137D01*
X03099597Y02323830D01*
X03102137Y02326369D01*
X03109754D01*
X03114832Y02321291D02*
X03119911D01*
X03117372D01*
Y02336526D01*
X03114832D01*
X03023422Y02029187D02*
X03020883Y02031726D01*
X03015804D01*
X03013265Y02029187D01*
Y02026648D01*
X03015804Y02024108D01*
X03020883D01*
X03023422Y02021569D01*
Y02019030D01*
X03020883Y02016491D01*
X03015804D01*
X03013265Y02019030D01*
X03031039Y02016491D02*
X03036118D01*
X03038657Y02019030D01*
Y02024108D01*
X03036118Y02026648D01*
X03031039D01*
X03028500Y02024108D01*
Y02019030D01*
X03031039Y02016491D01*
X03043735D02*
X03048813D01*
X03046274D01*
Y02031726D01*
X03043735D01*
X03066588D02*
Y02016491D01*
X03058970D01*
X03056431Y02019030D01*
Y02024108D01*
X03058970Y02026648D01*
X03066588D01*
X03079284Y02016491D02*
X03074205D01*
X03071666Y02019030D01*
Y02024108D01*
X03074205Y02026648D01*
X03079284D01*
X03081823Y02024108D01*
Y02021569D01*
X03071666D01*
X03086901Y02026648D02*
Y02016491D01*
Y02021569D01*
X03089441Y02024108D01*
X03091980Y02026648D01*
X03094519D01*
X03117372Y02016491D02*
Y02031726D01*
X03124989D01*
X03127528Y02029187D01*
Y02024108D01*
X03124989Y02021569D01*
X03117372D01*
X03122450D02*
X03127528Y02016491D01*
X03140224D02*
X03135146D01*
X03132607Y02019030D01*
Y02024108D01*
X03135146Y02026648D01*
X03140224D01*
X03142763Y02024108D01*
Y02021569D01*
X03132607D01*
X03147841Y02016491D02*
X03155459D01*
X03157998Y02019030D01*
X03155459Y02021569D01*
X03150381D01*
X03147841Y02024108D01*
X03150381Y02026648D01*
X03157998D01*
X03163077Y02016491D02*
X03168155D01*
X03165616D01*
Y02026648D01*
X03163077D01*
X03175772Y02016491D02*
X03183390D01*
X03185929Y02019030D01*
X03183390Y02021569D01*
X03178312D01*
X03175772Y02024108D01*
X03178312Y02026648D01*
X03185929D01*
X03193547Y02029187D02*
Y02026648D01*
X03191008D01*
X03196086D01*
X03193547D01*
Y02019030D01*
X03196086Y02016491D01*
X03023422Y02092686D02*
X03013265D01*
Y02085069D01*
X03018344D01*
X03013265D01*
Y02077451D01*
X03028500D02*
Y02092686D01*
X03036118D01*
X03038657Y02090147D01*
Y02085069D01*
X03036118Y02082529D01*
X03028500D01*
X03033578D02*
X03038657Y02077451D01*
X03043735Y02085069D02*
X03053892D01*
X03066588Y02077451D02*
Y02092686D01*
X03058970Y02085069D01*
X03069127D01*
X03023422Y02153646D02*
X03013265D01*
Y02146028D01*
X03018344D01*
X03013265D01*
Y02138411D01*
X03028500D02*
Y02153646D01*
X03036118D01*
X03038657Y02151107D01*
Y02146028D01*
X03036118Y02143489D01*
X03028500D01*
X03033578D02*
X03038657Y02138411D01*
X03043735Y02146028D02*
X03053892D01*
X03066588Y02138411D02*
Y02153646D01*
X03058970Y02146028D01*
X03069127D01*
X03023422Y02214606D02*
X03013265D01*
Y02206989D01*
X03018344D01*
X03013265D01*
Y02199371D01*
X03028500D02*
Y02214606D01*
X03036118D01*
X03038657Y02212067D01*
Y02206989D01*
X03036118Y02204449D01*
X03028500D01*
X03033578D02*
X03038657Y02199371D01*
X03043735Y02206989D02*
X03053892D01*
X03066588Y02199371D02*
Y02214606D01*
X03058970Y02206989D01*
X03069127D01*
X03023422Y02273027D02*
X03020883Y02275566D01*
X03015804D01*
X03013265Y02273027D01*
Y02270488D01*
X03015804Y02267948D01*
X03020883D01*
X03023422Y02265409D01*
Y02262870D01*
X03020883Y02260331D01*
X03015804D01*
X03013265Y02262870D01*
X03031039Y02260331D02*
X03036118D01*
X03038657Y02262870D01*
Y02267948D01*
X03036118Y02270488D01*
X03031039D01*
X03028500Y02267948D01*
Y02262870D01*
X03031039Y02260331D01*
X03043735D02*
X03048813D01*
X03046274D01*
Y02275566D01*
X03043735D01*
X03066588D02*
Y02260331D01*
X03058970D01*
X03056431Y02262870D01*
Y02267948D01*
X03058970Y02270488D01*
X03066588D01*
X03079284Y02260331D02*
X03074205D01*
X03071666Y02262870D01*
Y02267948D01*
X03074205Y02270488D01*
X03079284D01*
X03081823Y02267948D01*
Y02265409D01*
X03071666D01*
X03086901Y02270488D02*
Y02260331D01*
Y02265409D01*
X03089441Y02267948D01*
X03091980Y02270488D01*
X03094519D01*
X03117372Y02260331D02*
Y02275566D01*
X03124989D01*
X03127528Y02273027D01*
Y02267948D01*
X03124989Y02265409D01*
X03117372D01*
X03122450D02*
X03127528Y02260331D01*
X03140224D02*
X03135146D01*
X03132607Y02262870D01*
Y02267948D01*
X03135146Y02270488D01*
X03140224D01*
X03142763Y02267948D01*
Y02265409D01*
X03132607D01*
X03147841Y02260331D02*
X03155459D01*
X03157998Y02262870D01*
X03155459Y02265409D01*
X03150381D01*
X03147841Y02267948D01*
X03150381Y02270488D01*
X03157998D01*
X03163077Y02260331D02*
X03168155D01*
X03165616D01*
Y02270488D01*
X03163077D01*
X03175772Y02260331D02*
X03183390D01*
X03185929Y02262870D01*
X03183390Y02265409D01*
X03178312D01*
X03175772Y02267948D01*
X03178312Y02270488D01*
X03185929D01*
X03193547Y02273027D02*
Y02270488D01*
X03191008D01*
X03196086D01*
X03193547D01*
Y02262870D01*
X03196086Y02260331D01*
X03231646Y02336526D02*
X03241803D01*
X03236724D01*
Y02321291D01*
X03246881Y02336526D02*
Y02321291D01*
Y02328909D01*
X03249420Y02331448D01*
X03254499D01*
X03257038Y02328909D01*
Y02321291D01*
X03262116D02*
X03267195D01*
X03264655D01*
Y02331448D01*
X03262116D01*
X03284969D02*
X03277351D01*
X03274812Y02328909D01*
Y02323830D01*
X03277351Y02321291D01*
X03284969D01*
X03290047D02*
Y02336526D01*
Y02326369D02*
X03297664Y02331448D01*
X03290047Y02326369D02*
X03297664Y02321291D01*
X03305282D02*
Y02331448D01*
X03312900D01*
X03315439Y02328909D01*
Y02321291D01*
X03328135D02*
X03323056D01*
X03320517Y02323830D01*
Y02328909D01*
X03323056Y02331448D01*
X03328135D01*
X03330674Y02328909D01*
Y02326369D01*
X03320517D01*
X03335752Y02321291D02*
X03343370D01*
X03345909Y02323830D01*
X03343370Y02326369D01*
X03338292D01*
X03335752Y02328909D01*
X03338292Y02331448D01*
X03345909D01*
X03350988Y02321291D02*
X03358605D01*
X03361144Y02323830D01*
X03358605Y02326369D01*
X03353527D01*
X03350988Y02328909D01*
X03353527Y02331448D01*
X03361144D01*
X03231646Y02029187D02*
X03234185Y02031726D01*
X03239264D01*
X03241803Y02029187D01*
Y02019030D01*
X03239264Y02016491D01*
X03234185D01*
X03231646Y02019030D01*
Y02029187D01*
X03246881Y02016491D02*
Y02019030D01*
X03249420D01*
Y02016491D01*
X03246881D01*
X03267195D02*
Y02031726D01*
X03259577Y02024108D01*
X03269734D01*
X03274812Y02029187D02*
X03277351Y02031726D01*
X03282430D01*
X03284969Y02029187D01*
Y02019030D01*
X03282430Y02016491D01*
X03277351D01*
X03274812Y02019030D01*
Y02029187D01*
X03290047Y02016491D02*
Y02026648D01*
X03292586D01*
X03295125Y02024108D01*
Y02016491D01*
Y02024108D01*
X03297664Y02026648D01*
X03300204Y02024108D01*
Y02016491D01*
X03305282D02*
X03310360D01*
X03307821D01*
Y02026648D01*
X03305282D01*
X03317978Y02016491D02*
X03323056D01*
X03320517D01*
Y02031726D01*
X03317978D01*
X03241803Y02046971D02*
X03231646D01*
X03241803Y02057128D01*
Y02059667D01*
X03239264Y02062206D01*
X03234185D01*
X03231646Y02059667D01*
X03246881Y02046971D02*
Y02049510D01*
X03249420D01*
Y02046971D01*
X03246881D01*
X03259577Y02062206D02*
X03269734D01*
Y02059667D01*
X03259577Y02049510D01*
Y02046971D01*
X03284969Y02062206D02*
X03279890Y02059667D01*
X03274812Y02054588D01*
Y02049510D01*
X03277351Y02046971D01*
X03282430D01*
X03284969Y02049510D01*
Y02052049D01*
X03282430Y02054588D01*
X03274812D01*
X03290047Y02046971D02*
Y02057128D01*
X03292586D01*
X03295125Y02054588D01*
Y02046971D01*
Y02054588D01*
X03297664Y02057128D01*
X03300204Y02054588D01*
Y02046971D01*
X03305282D02*
X03310360D01*
X03307821D01*
Y02057128D01*
X03305282D01*
X03317978Y02046971D02*
X03323056D01*
X03320517D01*
Y02062206D01*
X03317978D01*
X03231646Y02077451D02*
X03236724D01*
X03234185D01*
Y02092686D01*
X03231646Y02090147D01*
X03244342D02*
X03246881Y02092686D01*
X03251960D01*
X03254499Y02090147D01*
Y02079990D01*
X03251960Y02077451D01*
X03246881D01*
X03244342Y02079990D01*
Y02090147D01*
X03259577Y02077451D02*
Y02079990D01*
X03262116D01*
Y02077451D01*
X03259577D01*
X03272273Y02090147D02*
X03274812Y02092686D01*
X03279890D01*
X03282430Y02090147D01*
Y02079990D01*
X03279890Y02077451D01*
X03274812D01*
X03272273Y02079990D01*
Y02090147D01*
X03287508D02*
X03290047Y02092686D01*
X03295125D01*
X03297664Y02090147D01*
Y02079990D01*
X03295125Y02077451D01*
X03290047D01*
X03287508Y02079990D01*
Y02090147D01*
X03302743Y02077451D02*
Y02087608D01*
X03305282D01*
X03307821Y02085069D01*
Y02077451D01*
Y02085069D01*
X03310360Y02087608D01*
X03312900Y02085069D01*
Y02077451D01*
X03317978D02*
X03323056D01*
X03320517D01*
Y02087608D01*
X03317978D01*
X03330674Y02077451D02*
X03335752D01*
X03333213D01*
Y02092686D01*
X03330674D01*
X03241803Y02107931D02*
X03231646D01*
X03241803Y02118088D01*
Y02120627D01*
X03239264Y02123166D01*
X03234185D01*
X03231646Y02120627D01*
X03246881Y02107931D02*
Y02110470D01*
X03249420D01*
Y02107931D01*
X03246881D01*
X03259577Y02123166D02*
X03269734D01*
Y02120627D01*
X03259577Y02110470D01*
Y02107931D01*
X03284969Y02123166D02*
X03279890Y02120627D01*
X03274812Y02115549D01*
Y02110470D01*
X03277351Y02107931D01*
X03282430D01*
X03284969Y02110470D01*
Y02113009D01*
X03282430Y02115549D01*
X03274812D01*
X03290047Y02107931D02*
Y02118088D01*
X03292586D01*
X03295125Y02115549D01*
Y02107931D01*
Y02115549D01*
X03297664Y02118088D01*
X03300204Y02115549D01*
Y02107931D01*
X03305282D02*
X03310360D01*
X03307821D01*
Y02118088D01*
X03305282D01*
X03317978Y02107931D02*
X03323056D01*
X03320517D01*
Y02123166D01*
X03317978D01*
X03241803Y02153646D02*
X03231646D01*
Y02146028D01*
X03236724Y02148568D01*
X03239264D01*
X03241803Y02146028D01*
Y02140950D01*
X03239264Y02138411D01*
X03234185D01*
X03231646Y02140950D01*
X03246881Y02138411D02*
Y02140950D01*
X03249420D01*
Y02138411D01*
X03246881D01*
X03259577Y02151107D02*
X03262116Y02153646D01*
X03267195D01*
X03269734Y02151107D01*
Y02140950D01*
X03267195Y02138411D01*
X03262116D01*
X03259577Y02140950D01*
Y02151107D01*
X03274812D02*
X03277351Y02153646D01*
X03282430D01*
X03284969Y02151107D01*
Y02140950D01*
X03282430Y02138411D01*
X03277351D01*
X03274812Y02140950D01*
Y02151107D01*
X03290047Y02138411D02*
Y02148568D01*
X03292586D01*
X03295125Y02146028D01*
Y02138411D01*
Y02146028D01*
X03297664Y02148568D01*
X03300204Y02146028D01*
Y02138411D01*
X03305282D02*
X03310360D01*
X03307821D01*
Y02148568D01*
X03305282D01*
X03317978Y02138411D02*
X03323056D01*
X03320517D01*
Y02153646D01*
X03317978D01*
X03241803Y02168891D02*
X03231646D01*
X03241803Y02179048D01*
Y02181587D01*
X03239264Y02184126D01*
X03234185D01*
X03231646Y02181587D01*
X03246881Y02168891D02*
Y02171430D01*
X03249420D01*
Y02168891D01*
X03246881D01*
X03259577Y02184126D02*
X03269734D01*
Y02181587D01*
X03259577Y02171430D01*
Y02168891D01*
X03284969Y02184126D02*
X03279890Y02181587D01*
X03274812Y02176508D01*
Y02171430D01*
X03277351Y02168891D01*
X03282430D01*
X03284969Y02171430D01*
Y02173969D01*
X03282430Y02176508D01*
X03274812D01*
X03290047Y02168891D02*
Y02179048D01*
X03292586D01*
X03295125Y02176508D01*
Y02168891D01*
Y02176508D01*
X03297664Y02179048D01*
X03300204Y02176508D01*
Y02168891D01*
X03305282D02*
X03310360D01*
X03307821D01*
Y02179048D01*
X03305282D01*
X03317978Y02168891D02*
X03323056D01*
X03320517D01*
Y02184126D01*
X03317978D01*
X03231646Y02199371D02*
X03236724D01*
X03234185D01*
Y02214606D01*
X03231646Y02212067D01*
X03244342D02*
X03246881Y02214606D01*
X03251960D01*
X03254499Y02212067D01*
Y02201910D01*
X03251960Y02199371D01*
X03246881D01*
X03244342Y02201910D01*
Y02212067D01*
X03259577Y02199371D02*
Y02201910D01*
X03262116D01*
Y02199371D01*
X03259577D01*
X03272273Y02212067D02*
X03274812Y02214606D01*
X03279890D01*
X03282430Y02212067D01*
Y02201910D01*
X03279890Y02199371D01*
X03274812D01*
X03272273Y02201910D01*
Y02212067D01*
X03287508D02*
X03290047Y02214606D01*
X03295125D01*
X03297664Y02212067D01*
Y02201910D01*
X03295125Y02199371D01*
X03290047D01*
X03287508Y02201910D01*
Y02212067D01*
X03302743Y02199371D02*
Y02209528D01*
X03305282D01*
X03307821Y02206989D01*
Y02199371D01*
Y02206989D01*
X03310360Y02209528D01*
X03312900Y02206989D01*
Y02199371D01*
X03317978D02*
X03323056D01*
X03320517D01*
Y02209528D01*
X03317978D01*
X03330674Y02199371D02*
X03335752D01*
X03333213D01*
Y02214606D01*
X03330674D01*
X03241803Y02229851D02*
X03231646D01*
X03241803Y02240008D01*
Y02242547D01*
X03239264Y02245086D01*
X03234185D01*
X03231646Y02242547D01*
X03246881Y02229851D02*
Y02232390D01*
X03249420D01*
Y02229851D01*
X03246881D01*
X03259577Y02245086D02*
X03269734D01*
Y02242547D01*
X03259577Y02232390D01*
Y02229851D01*
X03284969Y02245086D02*
X03279890Y02242547D01*
X03274812Y02237469D01*
Y02232390D01*
X03277351Y02229851D01*
X03282430D01*
X03284969Y02232390D01*
Y02234929D01*
X03282430Y02237469D01*
X03274812D01*
X03290047Y02229851D02*
Y02240008D01*
X03292586D01*
X03295125Y02237469D01*
Y02229851D01*
Y02237469D01*
X03297664Y02240008D01*
X03300204Y02237469D01*
Y02229851D01*
X03305282D02*
X03310360D01*
X03307821D01*
Y02240008D01*
X03305282D01*
X03317978Y02229851D02*
X03323056D01*
X03320517D01*
Y02245086D01*
X03317978D01*
X03231646Y02273027D02*
X03234185Y02275566D01*
X03239264D01*
X03241803Y02273027D01*
Y02262870D01*
X03239264Y02260331D01*
X03234185D01*
X03231646Y02262870D01*
Y02273027D01*
X03246881Y02260331D02*
Y02262870D01*
X03249420D01*
Y02260331D01*
X03246881D01*
X03267195D02*
Y02275566D01*
X03259577Y02267948D01*
X03269734D01*
X03274812Y02273027D02*
X03277351Y02275566D01*
X03282430D01*
X03284969Y02273027D01*
Y02262870D01*
X03282430Y02260331D01*
X03277351D01*
X03274812Y02262870D01*
Y02273027D01*
X03290047Y02260331D02*
Y02270488D01*
X03292586D01*
X03295125Y02267948D01*
Y02260331D01*
Y02267948D01*
X03297664Y02270488D01*
X03300204Y02267948D01*
Y02260331D01*
X03305282D02*
X03310360D01*
X03307821D01*
Y02270488D01*
X03305282D01*
X03317978Y02260331D02*
X03323056D01*
X03320517D01*
Y02275566D01*
X03317978D01*
X03406861Y02333987D02*
X03404322Y02336526D01*
X03399243D01*
X03396704Y02333987D01*
Y02323830D01*
X03399243Y02321291D01*
X03404322D01*
X03406861Y02323830D01*
X03414478Y02321291D02*
X03419557D01*
X03422096Y02323830D01*
Y02328909D01*
X03419557Y02331448D01*
X03414478D01*
X03411939Y02328909D01*
Y02323830D01*
X03414478Y02321291D01*
X03427174D02*
Y02331448D01*
X03434792D01*
X03437331Y02328909D01*
Y02321291D01*
X03442409D02*
X03450027D01*
X03452566Y02323830D01*
X03450027Y02326369D01*
X03444948D01*
X03442409Y02328909D01*
X03444948Y02331448D01*
X03452566D01*
X03460184Y02333987D02*
Y02331448D01*
X03457644D01*
X03462723D01*
X03460184D01*
Y02323830D01*
X03462723Y02321291D01*
X03472879Y02331448D02*
X03477958D01*
X03480497Y02328909D01*
Y02321291D01*
X03472879D01*
X03470340Y02323830D01*
X03472879Y02326369D01*
X03480497D01*
X03485575Y02321291D02*
Y02331448D01*
X03493193D01*
X03495732Y02328909D01*
Y02321291D01*
X03503350Y02333987D02*
Y02331448D01*
X03500811D01*
X03505889D01*
X03503350D01*
Y02323830D01*
X03505889Y02321291D01*
X03396704Y02029187D02*
X03399243Y02031726D01*
X03404322D01*
X03406861Y02029187D01*
Y02026648D01*
X03404322Y02024108D01*
X03401783D01*
X03404322D01*
X03406861Y02021569D01*
Y02019030D01*
X03404322Y02016491D01*
X03399243D01*
X03396704Y02019030D01*
X03411939Y02016491D02*
Y02019030D01*
X03414478D01*
Y02016491D01*
X03411939D01*
X03434792Y02031726D02*
X03424635D01*
Y02024108D01*
X03429713Y02026648D01*
X03432253D01*
X03434792Y02024108D01*
Y02019030D01*
X03432253Y02016491D01*
X03427174D01*
X03424635Y02019030D01*
X03404322Y02077451D02*
Y02092686D01*
X03396704Y02085069D01*
X03406861D01*
X03411939Y02077451D02*
Y02079990D01*
X03414478D01*
Y02077451D01*
X03411939D01*
X03434792D02*
X03424635D01*
X03434792Y02087608D01*
Y02090147D01*
X03432253Y02092686D01*
X03427174D01*
X03424635Y02090147D01*
X03404322Y02138411D02*
Y02153646D01*
X03396704Y02146028D01*
X03406861D01*
X03411939Y02138411D02*
Y02140950D01*
X03414478D01*
Y02138411D01*
X03411939D01*
X03434792D02*
X03424635D01*
X03434792Y02148568D01*
Y02151107D01*
X03432253Y02153646D01*
X03427174D01*
X03424635Y02151107D01*
X03404322Y02199371D02*
Y02214606D01*
X03396704Y02206989D01*
X03406861D01*
X03411939Y02199371D02*
Y02201910D01*
X03414478D01*
Y02199371D01*
X03411939D01*
X03434792D02*
X03424635D01*
X03434792Y02209528D01*
Y02212067D01*
X03432253Y02214606D01*
X03427174D01*
X03424635Y02212067D01*
X03396704Y02273027D02*
X03399243Y02275566D01*
X03404322D01*
X03406861Y02273027D01*
Y02270488D01*
X03404322Y02267948D01*
X03401783D01*
X03404322D01*
X03406861Y02265409D01*
Y02262870D01*
X03404322Y02260331D01*
X03399243D01*
X03396704Y02262870D01*
X03411939Y02260331D02*
Y02262870D01*
X03414478D01*
Y02260331D01*
X03411939D01*
X03434792Y02275566D02*
X03424635D01*
Y02267948D01*
X03429713Y02270488D01*
X03432253D01*
X03434792Y02267948D01*
Y02262870D01*
X03432253Y02260331D01*
X03427174D01*
X03424635Y02262870D01*
X03541449Y02336526D02*
Y02321291D01*
X03549066D01*
X03551606Y02323830D01*
Y02326369D01*
X03549066Y02328909D01*
X03541449D01*
X03549066D01*
X03551606Y02331448D01*
Y02333987D01*
X03549066Y02336526D01*
X03541449D01*
X03559223Y02321291D02*
X03564301D01*
X03566841Y02323830D01*
Y02328909D01*
X03564301Y02331448D01*
X03559223D01*
X03556684Y02328909D01*
Y02323830D01*
X03559223Y02321291D01*
X03574458Y02331448D02*
X03579536D01*
X03582076Y02328909D01*
Y02321291D01*
X03574458D01*
X03571919Y02323830D01*
X03574458Y02326369D01*
X03582076D01*
X03587154Y02331448D02*
Y02321291D01*
Y02326369D01*
X03589693Y02328909D01*
X03592232Y02331448D01*
X03594771D01*
X03612546Y02336526D02*
Y02321291D01*
X03604928D01*
X03602389Y02323830D01*
Y02328909D01*
X03604928Y02331448D01*
X03612546D01*
X03632859Y02336526D02*
Y02321291D01*
X03643016D01*
X03650634Y02331448D02*
X03655712D01*
X03658251Y02328909D01*
Y02321291D01*
X03650634D01*
X03648094Y02323830D01*
X03650634Y02326369D01*
X03658251D01*
X03663329Y02331448D02*
Y02323830D01*
X03665869Y02321291D01*
X03673486D01*
Y02318752D01*
X03670947Y02316213D01*
X03668408D01*
X03673486Y02321291D02*
Y02331448D01*
X03686182Y02321291D02*
X03681104D01*
X03678564Y02323830D01*
Y02328909D01*
X03681104Y02331448D01*
X03686182D01*
X03688721Y02328909D01*
Y02326369D01*
X03678564D01*
X03693799Y02331448D02*
Y02321291D01*
Y02326369D01*
X03696339Y02328909D01*
X03698878Y02331448D01*
X03701417D01*
X03734426Y02333987D02*
X03731887Y02336526D01*
X03726809D01*
X03724270Y02333987D01*
Y02331448D01*
X03726809Y02328909D01*
X03731887D01*
X03734426Y02326369D01*
Y02323830D01*
X03731887Y02321291D01*
X03726809D01*
X03724270Y02323830D01*
X03742044Y02333987D02*
Y02331448D01*
X03739505D01*
X03744583D01*
X03742044D01*
Y02323830D01*
X03744583Y02321291D01*
X03754740Y02331448D02*
X03759818D01*
X03762357Y02328909D01*
Y02321291D01*
X03754740D01*
X03752201Y02323830D01*
X03754740Y02326369D01*
X03762357D01*
X03777592Y02331448D02*
X03769975D01*
X03767436Y02328909D01*
Y02323830D01*
X03769975Y02321291D01*
X03777592D01*
X03782671D02*
Y02336526D01*
Y02326369D02*
X03790288Y02331448D01*
X03782671Y02326369D02*
X03790288Y02321291D01*
X01262888Y00205020D02*
Y00256667D01*
X01049528Y00205020D02*
Y00256667D01*
X00101600Y00205020D02*
X01778508D01*
X00101600Y00153374D02*
X01778000D01*
X00101600Y00101727D02*
X01118870D01*
X00101727Y00256667D02*
X01778508D01*
X00101727Y00101727D02*
Y00256667D01*
Y00101727D02*
X00501904D01*
X00101600D02*
Y00256667D01*
X00727710Y00101727D02*
Y00256667D01*
X01778508Y00101727D02*
Y00256667D01*
X01118870Y00101727D02*
X01778508D01*
X01420876Y00100076D02*
Y00151596D01*
G54D46*
X02652673Y02313671D02*
X03808068D01*
X02652673Y02344151D02*
X03808068D01*
X02652673Y01978391D02*
Y02344151D01*
Y01978391D02*
X02756791D01*
X02652673Y02008871D02*
X02756791D01*
X02652673Y02039351D02*
X02756791D01*
X02652673Y02069831D02*
X02756791D01*
X02652673Y02100311D02*
X02756791D01*
X02652673Y02130791D02*
X02756791D01*
X02652673Y02161271D02*
X02756791D01*
X02652673Y02191751D02*
X02756791D01*
X02652673Y02222231D02*
X02756791D01*
X02652673Y02252711D02*
X02756791D01*
X02652673Y02283191D02*
X02756791D01*
Y01978391D02*
Y02344151D01*
Y01978391D02*
X02995485D01*
X02756791Y02008871D02*
X02995485D01*
X02756791Y02039351D02*
X02995485D01*
X02756791Y02069831D02*
X02995485D01*
X02756791Y02100311D02*
X02995485D01*
X02756791Y02130791D02*
X02995485D01*
X02756791Y02161271D02*
X02995485D01*
X02756791Y02191751D02*
X02995485D01*
X02756791Y02222231D02*
X02995485D01*
X02756791Y02252711D02*
X02995485D01*
X02756791Y02283191D02*
X02995485D01*
Y01978391D02*
Y02344151D01*
Y01978391D02*
X03213866D01*
X02995485Y02008871D02*
X03213866D01*
X02995485Y02039351D02*
X03213866D01*
X02995485Y02069831D02*
X03213866D01*
X02995485Y02100311D02*
X03213866D01*
X02995485Y02130791D02*
X03213866D01*
X02995485Y02161271D02*
X03213866D01*
X02995485Y02191751D02*
X03213866D01*
X02995485Y02222231D02*
X03213866D01*
X02995485Y02252711D02*
X03213866D01*
X02995485Y02283191D02*
X03213866D01*
Y01978391D02*
Y02344151D01*
Y01978391D02*
X03378924D01*
X03213866Y02008871D02*
X03378924D01*
X03213866Y02039351D02*
X03378924D01*
X03213866Y02069831D02*
X03378924D01*
X03213866Y02100311D02*
X03378924D01*
X03213866Y02130791D02*
X03378924D01*
X03213866Y02161271D02*
X03378924D01*
X03213866Y02191751D02*
X03378924D01*
X03213866Y02222231D02*
X03378924D01*
X03213866Y02252711D02*
X03378924D01*
X03213866Y02283191D02*
X03378924D01*
Y01978391D02*
Y02344151D01*
Y01978391D02*
X03523669D01*
X03378924Y02008871D02*
X03523669D01*
X03378924Y02039351D02*
X03523669D01*
X03378924Y02069831D02*
X03523669D01*
X03378924Y02100311D02*
X03523669D01*
X03378924Y02130791D02*
X03523669D01*
X03378924Y02161271D02*
X03523669D01*
X03378924Y02191751D02*
X03523669D01*
X03378924Y02222231D02*
X03523669D01*
X03378924Y02252711D02*
X03523669D01*
X03378924Y02283191D02*
X03523669D01*
Y01978391D02*
Y02344151D01*
Y01978391D02*
X03808068D01*
X03523669Y02008871D02*
X03808068D01*
X03523669Y02039351D02*
X03808068D01*
X03523669Y02069831D02*
X03808068D01*
X03523669Y02100311D02*
X03808068D01*
X03523669Y02130791D02*
X03808068D01*
X03523669Y02161271D02*
X03808068D01*
X03523669Y02191751D02*
X03808068D01*
X03523669Y02222231D02*
X03808068D01*
X03523669Y02252711D02*
X03808068D01*
X03523669Y02283191D02*
X03808068D01*
Y01978391D02*
Y02344151D01*
G54D47*
X03792828Y01978391D02*
X03808068Y01993631D01*
X03777588Y01978391D02*
X03808068Y02008871D01*
X03762348Y01978391D02*
X03792828Y02008871D01*
X03747108Y01978391D02*
X03777588Y02008871D01*
X03731868Y01978391D02*
X03762348Y02008871D01*
X03716628Y01978391D02*
X03747108Y02008871D01*
X03701388Y01978391D02*
X03731868Y02008871D01*
X03686148Y01978391D02*
X03716628Y02008871D01*
X03670908Y01978391D02*
X03701388Y02008871D01*
X03655668Y01978391D02*
X03686148Y02008871D01*
X03640428Y01978391D02*
X03670908Y02008871D01*
X03625188Y01978391D02*
X03655668Y02008871D01*
X03609948Y01978391D02*
X03640428Y02008871D01*
X03594708Y01978391D02*
X03625188Y02008871D01*
X03579468Y01978391D02*
X03609948Y02008871D01*
X03564228Y01978391D02*
X03594708Y02008871D01*
X03548988Y01978391D02*
X03579468Y02008871D01*
X03533748Y01978391D02*
X03564228Y02008871D01*
X03523669Y01983551D02*
X03548988Y02008871D01*
X03523669Y01998792D02*
X03533748Y02008871D01*
X03792828D02*
X03808068Y02024111D01*
X03777588Y02008871D02*
X03808068Y02039351D01*
X03762348Y02008871D02*
X03792828Y02039351D01*
X03747108Y02008871D02*
X03777588Y02039351D01*
X03731868Y02008871D02*
X03762348Y02039351D01*
X03716628Y02008871D02*
X03747108Y02039351D01*
X03701388Y02008871D02*
X03731868Y02039351D01*
X03686148Y02008871D02*
X03716628Y02039351D01*
X03670908Y02008871D02*
X03701388Y02039351D01*
X03655668Y02008871D02*
X03686148Y02039351D01*
X03640428Y02008871D02*
X03670908Y02039351D01*
X03625188Y02008871D02*
X03655668Y02039351D01*
X03609948Y02008871D02*
X03640428Y02039351D01*
X03594708Y02008871D02*
X03625188Y02039351D01*
X03579468Y02008871D02*
X03609948Y02039351D01*
X03564228Y02008871D02*
X03594708Y02039351D01*
X03548988Y02008871D02*
X03579468Y02039351D01*
X03533748Y02008871D02*
X03564228Y02039351D01*
X03523669Y02014032D02*
X03548988Y02039351D01*
X03523669Y02029272D02*
X03533748Y02039351D01*
X03792828D02*
X03808068Y02054591D01*
X03777588Y02039351D02*
X03808068Y02069831D01*
X03762348Y02039351D02*
X03792828Y02069831D01*
X03747108Y02039351D02*
X03777588Y02069831D01*
X03731868Y02039351D02*
X03762348Y02069831D01*
X03716628Y02039351D02*
X03747108Y02069831D01*
X03701388Y02039351D02*
X03731868Y02069831D01*
X03686148Y02039351D02*
X03716628Y02069831D01*
X03670908Y02039351D02*
X03701388Y02069831D01*
X03655668Y02039351D02*
X03686148Y02069831D01*
X03640428Y02039351D02*
X03670908Y02069831D01*
X03625188Y02039351D02*
X03655668Y02069831D01*
X03609948Y02039351D02*
X03640428Y02069831D01*
X03594708Y02039351D02*
X03625188Y02069831D01*
X03579468Y02039351D02*
X03609948Y02069831D01*
X03564228Y02039351D02*
X03594708Y02069831D01*
X03548988Y02039351D02*
X03579468Y02069831D01*
X03533748Y02039351D02*
X03564228Y02069831D01*
X03523669Y02044512D02*
X03548988Y02069831D01*
X03523669Y02059751D02*
X03533748Y02069831D01*
X03792828D02*
X03808068Y02085071D01*
X03777588Y02069831D02*
X03808068Y02100311D01*
X03762348Y02069831D02*
X03792828Y02100311D01*
X03747108Y02069831D02*
X03777588Y02100311D01*
X03731868Y02069831D02*
X03762348Y02100311D01*
X03716628Y02069831D02*
X03747108Y02100311D01*
X03701388Y02069831D02*
X03731868Y02100311D01*
X03686148Y02069831D02*
X03716628Y02100311D01*
X03670908Y02069831D02*
X03701388Y02100311D01*
X03655668Y02069831D02*
X03686148Y02100311D01*
X03640428Y02069831D02*
X03670908Y02100311D01*
X03625188Y02069831D02*
X03655668Y02100311D01*
X03609948Y02069831D02*
X03640428Y02100311D01*
X03594708Y02069831D02*
X03625188Y02100311D01*
X03579468Y02069831D02*
X03609948Y02100311D01*
X03564228Y02069831D02*
X03594708Y02100311D01*
X03548988Y02069831D02*
X03579468Y02100311D01*
X03533748Y02069831D02*
X03564228Y02100311D01*
X03523669Y02074991D02*
X03548988Y02100311D01*
X03523669Y02090231D02*
X03533748Y02100311D01*
X03792828D02*
X03808068Y02115551D01*
X03777588Y02100311D02*
X03808068Y02130791D01*
X03762348Y02100311D02*
X03792828Y02130791D01*
X03747108Y02100311D02*
X03777588Y02130791D01*
X03731868Y02100311D02*
X03762348Y02130791D01*
X03716628Y02100311D02*
X03747108Y02130791D01*
X03701388Y02100311D02*
X03731868Y02130791D01*
X03686148Y02100311D02*
X03716628Y02130791D01*
X03670908Y02100311D02*
X03701388Y02130791D01*
X03655668Y02100311D02*
X03686148Y02130791D01*
X03640428Y02100311D02*
X03670908Y02130791D01*
X03625188Y02100311D02*
X03655668Y02130791D01*
X03609948Y02100311D02*
X03640428Y02130791D01*
X03594708Y02100311D02*
X03625188Y02130791D01*
X03579468Y02100311D02*
X03609948Y02130791D01*
X03564228Y02100311D02*
X03594708Y02130791D01*
X03548988Y02100311D02*
X03579468Y02130791D01*
X03533748Y02100311D02*
X03564228Y02130791D01*
X03523669Y02105471D02*
X03548988Y02130791D01*
X03523669Y02120712D02*
X03533748Y02130791D01*
X03792828D02*
X03808068Y02146031D01*
X03777588Y02130791D02*
X03808068Y02161271D01*
X03762348Y02130791D02*
X03792828Y02161271D01*
X03747108Y02130791D02*
X03777588Y02161271D01*
X03731868Y02130791D02*
X03762348Y02161271D01*
X03716628Y02130791D02*
X03747108Y02161271D01*
X03701388Y02130791D02*
X03731868Y02161271D01*
X03686148Y02130791D02*
X03716628Y02161271D01*
X03670908Y02130791D02*
X03701388Y02161271D01*
X03655668Y02130791D02*
X03686148Y02161271D01*
X03640428Y02130791D02*
X03670908Y02161271D01*
X03625188Y02130791D02*
X03655668Y02161271D01*
X03609948Y02130791D02*
X03640428Y02161271D01*
X03594708Y02130791D02*
X03625188Y02161271D01*
X03579468Y02130791D02*
X03609948Y02161271D01*
X03564228Y02130791D02*
X03594708Y02161271D01*
X03548988Y02130791D02*
X03579468Y02161271D01*
X03533748Y02130791D02*
X03564228Y02161271D01*
X03523669Y02135952D02*
X03548988Y02161271D01*
X03523669Y02151192D02*
X03533748Y02161271D01*
X03792828D02*
X03808068Y02176511D01*
X03777588Y02161271D02*
X03808068Y02191751D01*
X03762348Y02161271D02*
X03792828Y02191751D01*
X03747108Y02161271D02*
X03777588Y02191751D01*
X03731868Y02161271D02*
X03762348Y02191751D01*
X03716628Y02161271D02*
X03747108Y02191751D01*
X03701388Y02161271D02*
X03731868Y02191751D01*
X03686148Y02161271D02*
X03716628Y02191751D01*
X03670908Y02161271D02*
X03701388Y02191751D01*
X03655668Y02161271D02*
X03686148Y02191751D01*
X03640428Y02161271D02*
X03670908Y02191751D01*
X03625188Y02161271D02*
X03655668Y02191751D01*
X03609948Y02161271D02*
X03640428Y02191751D01*
X03594708Y02161271D02*
X03625188Y02191751D01*
X03579468Y02161271D02*
X03609948Y02191751D01*
X03564228Y02161271D02*
X03594708Y02191751D01*
X03548988Y02161271D02*
X03579468Y02191751D01*
X03533748Y02161271D02*
X03564228Y02191751D01*
X03523669Y02166431D02*
X03548988Y02191751D01*
X03523669Y02181671D02*
X03533748Y02191751D01*
X03792828D02*
X03808068Y02206991D01*
X03777588Y02191751D02*
X03808068Y02222231D01*
X03762348Y02191751D02*
X03792828Y02222231D01*
X03747108Y02191751D02*
X03777588Y02222231D01*
X03731868Y02191751D02*
X03762348Y02222231D01*
X03716628Y02191751D02*
X03747108Y02222231D01*
X03701388Y02191751D02*
X03731868Y02222231D01*
X03686148Y02191751D02*
X03716628Y02222231D01*
X03670908Y02191751D02*
X03701388Y02222231D01*
X03655668Y02191751D02*
X03686148Y02222231D01*
X03640428Y02191751D02*
X03670908Y02222231D01*
X03625188Y02191751D02*
X03655668Y02222231D01*
X03609948Y02191751D02*
X03640428Y02222231D01*
X03594708Y02191751D02*
X03625188Y02222231D01*
X03579468Y02191751D02*
X03609948Y02222231D01*
X03564228Y02191751D02*
X03594708Y02222231D01*
X03548988Y02191751D02*
X03579468Y02222231D01*
X03533748Y02191751D02*
X03564228Y02222231D01*
X03523669Y02196911D02*
X03548988Y02222231D01*
X03523669Y02212151D02*
X03533748Y02222231D01*
X03792828D02*
X03808068Y02237471D01*
X03777588Y02222231D02*
X03808068Y02252711D01*
X03762348Y02222231D02*
X03792828Y02252711D01*
X03747108Y02222231D02*
X03777588Y02252711D01*
X03731868Y02222231D02*
X03762348Y02252711D01*
X03716628Y02222231D02*
X03747108Y02252711D01*
X03701388Y02222231D02*
X03731868Y02252711D01*
X03686148Y02222231D02*
X03716628Y02252711D01*
X03670908Y02222231D02*
X03701388Y02252711D01*
X03655668Y02222231D02*
X03686148Y02252711D01*
X03640428Y02222231D02*
X03670908Y02252711D01*
X03625188Y02222231D02*
X03655668Y02252711D01*
X03609948Y02222231D02*
X03640428Y02252711D01*
X03594708Y02222231D02*
X03625188Y02252711D01*
X03579468Y02222231D02*
X03609948Y02252711D01*
X03564228Y02222231D02*
X03594708Y02252711D01*
X03548988Y02222231D02*
X03579468Y02252711D01*
X03533748Y02222231D02*
X03564228Y02252711D01*
X03523669Y02227392D02*
X03548988Y02252711D01*
X03523669Y02242632D02*
X03533748Y02252711D01*
X03792828D02*
X03808068Y02267951D01*
X03777588Y02252711D02*
X03808068Y02283191D01*
X03762348Y02252711D02*
X03792828Y02283191D01*
X03747108Y02252711D02*
X03777588Y02283191D01*
X03731868Y02252711D02*
X03762348Y02283191D01*
X03716628Y02252711D02*
X03747108Y02283191D01*
X03701388Y02252711D02*
X03731868Y02283191D01*
X03686148Y02252711D02*
X03716628Y02283191D01*
X03670908Y02252711D02*
X03701388Y02283191D01*
X03655668Y02252711D02*
X03686148Y02283191D01*
X03640428Y02252711D02*
X03670908Y02283191D01*
X03625188Y02252711D02*
X03655668Y02283191D01*
X03609948Y02252711D02*
X03640428Y02283191D01*
X03594708Y02252711D02*
X03625188Y02283191D01*
X03579468Y02252711D02*
X03609948Y02283191D01*
X03564228Y02252711D02*
X03594708Y02283191D01*
X03548988Y02252711D02*
X03579468Y02283191D01*
X03533748Y02252711D02*
X03564228Y02283191D01*
X03523669Y02257872D02*
X03548988Y02283191D01*
X03523669Y02273112D02*
X03533748Y02283191D01*
X03792828D02*
X03808068Y02298431D01*
X03777588Y02283191D02*
X03808068Y02313671D01*
X03762348Y02283191D02*
X03792828Y02313671D01*
X03747108Y02283191D02*
X03777588Y02313671D01*
X03731868Y02283191D02*
X03762348Y02313671D01*
X03716628Y02283191D02*
X03747108Y02313671D01*
X03701388Y02283191D02*
X03731868Y02313671D01*
X03686148Y02283191D02*
X03716628Y02313671D01*
X03670908Y02283191D02*
X03701388Y02313671D01*
X03655668Y02283191D02*
X03686148Y02313671D01*
X03640428Y02283191D02*
X03670908Y02313671D01*
X03625188Y02283191D02*
X03655668Y02313671D01*
X03609948Y02283191D02*
X03640428Y02313671D01*
X03594708Y02283191D02*
X03625188Y02313671D01*
X03579468Y02283191D02*
X03609948Y02313671D01*
X03564228Y02283191D02*
X03594708Y02313671D01*
X03548988Y02283191D02*
X03579468Y02313671D01*
X03533748Y02283191D02*
X03564228Y02313671D01*
X03523669Y02288351D02*
X03548988Y02313671D01*
X03523669Y02303591D02*
X03533748Y02313671D01*
M02*
