G04*
G04 #@! TF.GenerationSoftware,Altium Limited,Altium Designer,21.6.1 (37)*
G04*
G04 Layer_Color=65535*
%FSAX44Y44*%
%MOMM*%
G71*
G04*
G04 #@! TF.SameCoordinates,618BDD94-0BF2-4233-98CF-319708F98917*
G04*
G04*
G04 #@! TF.FilePolarity,Positive*
G04*
G01*
G75*
%ADD10C,0.2500*%
%ADD11C,0.5000*%
%ADD12C,0.1500*%
%ADD13C,0.1778*%
%ADD14C,0.2000*%
%ADD15C,0.2032*%
%ADD16R,0.8250X0.2000*%
%ADD17C,0.2540*%
G36*
X00440246Y00604622D02*
X00440443Y00604608D01*
X00440682Y00604580D01*
X00440950Y00604537D01*
X00441232Y00604481D01*
X00441528Y00604396D01*
X00441275Y00603085D01*
X00441260D01*
X00441204Y00603100D01*
X00441105Y00603128D01*
X00440993Y00603142D01*
X00440866Y00603170D01*
X00440725Y00603184D01*
X00440415Y00603198D01*
X00440344D01*
X00440274Y00603184D01*
X00440189Y00603170D01*
X00439992Y00603114D01*
X00439907Y00603071D01*
X00439823Y00603001D01*
Y00602987D01*
X00439794Y00602958D01*
X00439766Y00602916D01*
X00439738Y00602832D01*
X00439710Y00602733D01*
X00439682Y00602606D01*
X00439668Y00602451D01*
X00439654Y00602268D01*
Y00601774D01*
X00441049D01*
Y00600308D01*
X00439654D01*
Y00594698D01*
X00437779D01*
Y00600308D01*
X00436735D01*
Y00601774D01*
X00437779D01*
Y00602296D01*
Y00602310D01*
Y00602338D01*
Y00602380D01*
Y00602451D01*
X00437793Y00602606D01*
X00437807Y00602803D01*
X00437821Y00603015D01*
X00437863Y00603240D01*
X00437905Y00603452D01*
X00437962Y00603635D01*
X00437976Y00603649D01*
X00438004Y00603706D01*
X00438046Y00603790D01*
X00438117Y00603889D01*
X00438216Y00604002D01*
X00438328Y00604129D01*
X00438483Y00604241D01*
X00438653Y00604354D01*
X00438681Y00604368D01*
X00438751Y00604396D01*
X00438864Y00604439D01*
X00439005Y00604495D01*
X00439202Y00604552D01*
X00439414Y00604594D01*
X00439668Y00604622D01*
X00439949Y00604636D01*
X00440090D01*
X00440246Y00604622D01*
D02*
G37*
G36*
X00256844Y00602719D02*
X00254969D01*
Y00604453D01*
X00256844D01*
Y00602719D01*
D02*
G37*
G36*
X00363276Y00604622D02*
X00363431Y00604608D01*
X00363600Y00604580D01*
X00363797Y00604551D01*
X00364009Y00604509D01*
X00364235Y00604453D01*
X00364474Y00604382D01*
X00364714Y00604298D01*
X00364967Y00604185D01*
X00365207Y00604072D01*
X00365433Y00603931D01*
X00365672Y00603762D01*
X00365884Y00603579D01*
X00365898D01*
X00365912Y00603551D01*
X00365954Y00603508D01*
X00365997Y00603466D01*
X00366053Y00603396D01*
X00366109Y00603311D01*
X00366264Y00603114D01*
X00366419Y00602860D01*
X00366589Y00602550D01*
X00366744Y00602197D01*
X00366885Y00601788D01*
X00364939Y00601323D01*
Y00601337D01*
X00364925Y00601351D01*
Y00601394D01*
X00364897Y00601450D01*
X00364855Y00601577D01*
X00364784Y00601746D01*
X00364686Y00601944D01*
X00364559Y00602141D01*
X00364390Y00602338D01*
X00364206Y00602507D01*
X00364178Y00602522D01*
X00364108Y00602578D01*
X00363995Y00602648D01*
X00363840Y00602733D01*
X00363642Y00602817D01*
X00363417Y00602888D01*
X00363163Y00602944D01*
X00362881Y00602958D01*
X00362783D01*
X00362698Y00602944D01*
X00362613Y00602930D01*
X00362501Y00602916D01*
X00362261Y00602860D01*
X00361979Y00602761D01*
X00361683Y00602620D01*
X00361528Y00602536D01*
X00361387Y00602437D01*
X00361246Y00602310D01*
X00361119Y00602169D01*
Y00602155D01*
X00361091Y00602127D01*
X00361063Y00602085D01*
X00361020Y00602014D01*
X00360964Y00601929D01*
X00360908Y00601831D01*
X00360851Y00601704D01*
X00360795Y00601563D01*
X00360724Y00601394D01*
X00360668Y00601211D01*
X00360612Y00600999D01*
X00360555Y00600773D01*
X00360513Y00600520D01*
X00360485Y00600252D01*
X00360471Y00599956D01*
X00360457Y00599632D01*
Y00599618D01*
Y00599547D01*
Y00599448D01*
X00360471Y00599336D01*
Y00599180D01*
X00360499Y00598997D01*
X00360513Y00598814D01*
X00360541Y00598602D01*
X00360626Y00598166D01*
X00360738Y00597729D01*
X00360809Y00597517D01*
X00360908Y00597320D01*
X00361006Y00597136D01*
X00361119Y00596981D01*
X00361133Y00596967D01*
X00361147Y00596953D01*
X00361189Y00596911D01*
X00361246Y00596855D01*
X00361387Y00596742D01*
X00361584Y00596601D01*
X00361824Y00596446D01*
X00362120Y00596333D01*
X00362458Y00596234D01*
X00362641Y00596220D01*
X00362839Y00596206D01*
X00362909D01*
X00362966Y00596220D01*
X00363121Y00596234D01*
X00363304Y00596262D01*
X00363502Y00596333D01*
X00363727Y00596418D01*
X00363953Y00596530D01*
X00364178Y00596699D01*
X00364206Y00596728D01*
X00364277Y00596798D01*
X00364375Y00596911D01*
X00364488Y00597080D01*
X00364629Y00597306D01*
X00364756Y00597573D01*
X00364883Y00597898D01*
X00364996Y00598278D01*
X00366913Y00597686D01*
Y00597672D01*
X00366899Y00597616D01*
X00366871Y00597531D01*
X00366828Y00597418D01*
X00366772Y00597291D01*
X00366716Y00597136D01*
X00366645Y00596967D01*
X00366561Y00596784D01*
X00366363Y00596403D01*
X00366109Y00596009D01*
X00365799Y00595628D01*
X00365630Y00595459D01*
X00365447Y00595304D01*
X00365433Y00595290D01*
X00365405Y00595276D01*
X00365348Y00595233D01*
X00365264Y00595177D01*
X00365165Y00595121D01*
X00365038Y00595064D01*
X00364897Y00594994D01*
X00364742Y00594923D01*
X00364559Y00594839D01*
X00364361Y00594768D01*
X00364150Y00594712D01*
X00363924Y00594655D01*
X00363685Y00594599D01*
X00363417Y00594557D01*
X00363149Y00594543D01*
X00362853Y00594529D01*
X00362768D01*
X00362670Y00594543D01*
X00362529Y00594557D01*
X00362374Y00594571D01*
X00362176Y00594599D01*
X00361965Y00594641D01*
X00361725Y00594698D01*
X00361486Y00594768D01*
X00361232Y00594853D01*
X00360964Y00594966D01*
X00360696Y00595092D01*
X00360428Y00595233D01*
X00360160Y00595417D01*
X00359907Y00595614D01*
X00359667Y00595854D01*
X00359653Y00595868D01*
X00359611Y00595910D01*
X00359554Y00595995D01*
X00359470Y00596093D01*
X00359385Y00596234D01*
X00359272Y00596389D01*
X00359160Y00596587D01*
X00359047Y00596812D01*
X00358934Y00597052D01*
X00358821Y00597320D01*
X00358708Y00597630D01*
X00358624Y00597954D01*
X00358539Y00598292D01*
X00358483Y00598673D01*
X00358441Y00599068D01*
X00358427Y00599491D01*
Y00599505D01*
Y00599519D01*
Y00599603D01*
X00358441Y00599730D01*
Y00599899D01*
X00358469Y00600097D01*
X00358497Y00600336D01*
X00358525Y00600590D01*
X00358582Y00600886D01*
X00358652Y00601182D01*
X00358737Y00601492D01*
X00358835Y00601802D01*
X00358962Y00602127D01*
X00359103Y00602437D01*
X00359272Y00602733D01*
X00359456Y00603015D01*
X00359681Y00603283D01*
X00359695Y00603297D01*
X00359738Y00603339D01*
X00359808Y00603410D01*
X00359907Y00603494D01*
X00360034Y00603593D01*
X00360189Y00603706D01*
X00360358Y00603833D01*
X00360569Y00603959D01*
X00360795Y00604086D01*
X00361035Y00604213D01*
X00361316Y00604326D01*
X00361598Y00604425D01*
X00361923Y00604509D01*
X00362247Y00604580D01*
X00362613Y00604622D01*
X00362980Y00604636D01*
X00363149D01*
X00363276Y00604622D01*
D02*
G37*
G36*
X00353436D02*
X00353591Y00604608D01*
X00353760Y00604580D01*
X00353958Y00604551D01*
X00354169Y00604509D01*
X00354395Y00604453D01*
X00354634Y00604382D01*
X00354874Y00604298D01*
X00355128Y00604185D01*
X00355368Y00604072D01*
X00355593Y00603931D01*
X00355833Y00603762D01*
X00356044Y00603579D01*
X00356058D01*
X00356072Y00603551D01*
X00356115Y00603508D01*
X00356157Y00603466D01*
X00356213Y00603396D01*
X00356270Y00603311D01*
X00356425Y00603114D01*
X00356580Y00602860D01*
X00356749Y00602550D01*
X00356904Y00602197D01*
X00357045Y00601788D01*
X00355100Y00601323D01*
Y00601337D01*
X00355085Y00601351D01*
Y00601394D01*
X00355057Y00601450D01*
X00355015Y00601577D01*
X00354945Y00601746D01*
X00354846Y00601944D01*
X00354719Y00602141D01*
X00354550Y00602338D01*
X00354367Y00602507D01*
X00354338Y00602522D01*
X00354268Y00602578D01*
X00354155Y00602648D01*
X00354000Y00602733D01*
X00353803Y00602817D01*
X00353577Y00602888D01*
X00353323Y00602944D01*
X00353041Y00602958D01*
X00352943D01*
X00352858Y00602944D01*
X00352774Y00602930D01*
X00352661Y00602916D01*
X00352421Y00602860D01*
X00352139Y00602761D01*
X00351843Y00602620D01*
X00351688Y00602536D01*
X00351547Y00602437D01*
X00351406Y00602310D01*
X00351279Y00602169D01*
Y00602155D01*
X00351251Y00602127D01*
X00351223Y00602085D01*
X00351181Y00602014D01*
X00351124Y00601929D01*
X00351068Y00601831D01*
X00351012Y00601704D01*
X00350955Y00601563D01*
X00350885Y00601394D01*
X00350828Y00601211D01*
X00350772Y00600999D01*
X00350715Y00600773D01*
X00350673Y00600520D01*
X00350645Y00600252D01*
X00350631Y00599956D01*
X00350617Y00599632D01*
Y00599618D01*
Y00599547D01*
Y00599448D01*
X00350631Y00599336D01*
Y00599180D01*
X00350659Y00598997D01*
X00350673Y00598814D01*
X00350701Y00598602D01*
X00350786Y00598166D01*
X00350899Y00597729D01*
X00350969Y00597517D01*
X00351068Y00597320D01*
X00351167Y00597136D01*
X00351279Y00596981D01*
X00351293Y00596967D01*
X00351308Y00596953D01*
X00351350Y00596911D01*
X00351406Y00596855D01*
X00351547Y00596742D01*
X00351745Y00596601D01*
X00351984Y00596446D01*
X00352280Y00596333D01*
X00352619Y00596234D01*
X00352802Y00596220D01*
X00352999Y00596206D01*
X00353070D01*
X00353126Y00596220D01*
X00353281Y00596234D01*
X00353464Y00596262D01*
X00353662Y00596333D01*
X00353887Y00596418D01*
X00354113Y00596530D01*
X00354338Y00596699D01*
X00354367Y00596728D01*
X00354437Y00596798D01*
X00354536Y00596911D01*
X00354649Y00597080D01*
X00354790Y00597306D01*
X00354916Y00597573D01*
X00355043Y00597898D01*
X00355156Y00598278D01*
X00357073Y00597686D01*
Y00597672D01*
X00357059Y00597616D01*
X00357031Y00597531D01*
X00356989Y00597418D01*
X00356932Y00597291D01*
X00356876Y00597136D01*
X00356805Y00596967D01*
X00356721Y00596784D01*
X00356523Y00596403D01*
X00356270Y00596009D01*
X00355960Y00595628D01*
X00355790Y00595459D01*
X00355607Y00595304D01*
X00355593Y00595290D01*
X00355565Y00595276D01*
X00355508Y00595233D01*
X00355424Y00595177D01*
X00355325Y00595121D01*
X00355198Y00595064D01*
X00355057Y00594994D01*
X00354902Y00594923D01*
X00354719Y00594839D01*
X00354522Y00594768D01*
X00354310Y00594712D01*
X00354085Y00594655D01*
X00353845Y00594599D01*
X00353577Y00594557D01*
X00353309Y00594543D01*
X00353013Y00594529D01*
X00352929D01*
X00352830Y00594543D01*
X00352689Y00594557D01*
X00352534Y00594571D01*
X00352337Y00594599D01*
X00352125Y00594641D01*
X00351885Y00594698D01*
X00351646Y00594768D01*
X00351392Y00594853D01*
X00351124Y00594966D01*
X00350856Y00595092D01*
X00350589Y00595233D01*
X00350321Y00595417D01*
X00350067Y00595614D01*
X00349827Y00595854D01*
X00349813Y00595868D01*
X00349771Y00595910D01*
X00349715Y00595995D01*
X00349630Y00596093D01*
X00349545Y00596234D01*
X00349433Y00596389D01*
X00349320Y00596587D01*
X00349207Y00596812D01*
X00349094Y00597052D01*
X00348982Y00597320D01*
X00348869Y00597630D01*
X00348784Y00597954D01*
X00348700Y00598292D01*
X00348643Y00598673D01*
X00348601Y00599068D01*
X00348587Y00599491D01*
Y00599505D01*
Y00599519D01*
Y00599603D01*
X00348601Y00599730D01*
Y00599899D01*
X00348629Y00600097D01*
X00348657Y00600336D01*
X00348685Y00600590D01*
X00348742Y00600886D01*
X00348812Y00601182D01*
X00348897Y00601492D01*
X00348996Y00601802D01*
X00349123Y00602127D01*
X00349263Y00602437D01*
X00349433Y00602733D01*
X00349616Y00603015D01*
X00349841Y00603283D01*
X00349856Y00603297D01*
X00349898Y00603339D01*
X00349968Y00603410D01*
X00350067Y00603494D01*
X00350194Y00603593D01*
X00350349Y00603706D01*
X00350518Y00603833D01*
X00350730Y00603959D01*
X00350955Y00604086D01*
X00351195Y00604213D01*
X00351477Y00604326D01*
X00351759Y00604425D01*
X00352083Y00604509D01*
X00352407Y00604580D01*
X00352774Y00604622D01*
X00353140Y00604636D01*
X00353309D01*
X00353436Y00604622D01*
D02*
G37*
G36*
X00431928Y00594698D02*
X00430194D01*
Y00595727D01*
X00430180Y00595699D01*
X00430124Y00595628D01*
X00430025Y00595515D01*
X00429898Y00595388D01*
X00429757Y00595247D01*
X00429574Y00595092D01*
X00429377Y00594951D01*
X00429165Y00594824D01*
X00429137Y00594810D01*
X00429067Y00594782D01*
X00428940Y00594740D01*
X00428799Y00594684D01*
X00428615Y00594627D01*
X00428404Y00594585D01*
X00428193Y00594557D01*
X00427967Y00594543D01*
X00427854D01*
X00427770Y00594557D01*
X00427657Y00594571D01*
X00427544Y00594599D01*
X00427403Y00594627D01*
X00427248Y00594669D01*
X00427093Y00594712D01*
X00426924Y00594782D01*
X00426755Y00594853D01*
X00426571Y00594951D01*
X00426402Y00595064D01*
X00426219Y00595191D01*
X00426050Y00595346D01*
X00425881Y00595515D01*
X00425867Y00595529D01*
X00425838Y00595558D01*
X00425796Y00595614D01*
X00425754Y00595699D01*
X00425683Y00595797D01*
X00425613Y00595924D01*
X00425528Y00596065D01*
X00425458Y00596234D01*
X00425373Y00596418D01*
X00425289Y00596615D01*
X00425218Y00596840D01*
X00425162Y00597080D01*
X00425105Y00597348D01*
X00425063Y00597630D01*
X00425035Y00597926D01*
X00425021Y00598250D01*
Y00598264D01*
Y00598335D01*
Y00598419D01*
X00425035Y00598546D01*
X00425049Y00598701D01*
X00425063Y00598870D01*
X00425091Y00599068D01*
X00425119Y00599265D01*
X00425218Y00599716D01*
X00425289Y00599942D01*
X00425373Y00600167D01*
X00425472Y00600393D01*
X00425585Y00600604D01*
X00425712Y00600802D01*
X00425853Y00600985D01*
X00425867Y00600999D01*
X00425895Y00601027D01*
X00425937Y00601069D01*
X00426008Y00601140D01*
X00426092Y00601211D01*
X00426191Y00601281D01*
X00426304Y00601366D01*
X00426445Y00601464D01*
X00426586Y00601549D01*
X00426755Y00601633D01*
X00427107Y00601788D01*
X00427319Y00601845D01*
X00427530Y00601887D01*
X00427756Y00601915D01*
X00427995Y00601929D01*
X00428108D01*
X00428193Y00601915D01*
X00428291Y00601901D01*
X00428418Y00601873D01*
X00428545Y00601845D01*
X00428700Y00601803D01*
X00428855Y00601760D01*
X00429024Y00601690D01*
X00429193Y00601605D01*
X00429363Y00601521D01*
X00429546Y00601394D01*
X00429715Y00601267D01*
X00429884Y00601112D01*
X00430053Y00600943D01*
Y00604453D01*
X00431928D01*
Y00594698D01*
D02*
G37*
G36*
X00463012Y00601915D02*
X00463167Y00601887D01*
X00463365Y00601845D01*
X00463576Y00601774D01*
X00463787Y00601690D01*
X00464013Y00601563D01*
X00463421Y00599942D01*
X00463407Y00599956D01*
X00463336Y00599984D01*
X00463252Y00600040D01*
X00463139Y00600097D01*
X00462998Y00600153D01*
X00462857Y00600210D01*
X00462702Y00600238D01*
X00462547Y00600252D01*
X00462491D01*
X00462406Y00600238D01*
X00462321Y00600224D01*
X00462223Y00600196D01*
X00462110Y00600153D01*
X00461997Y00600097D01*
X00461884Y00600026D01*
X00461870Y00600012D01*
X00461842Y00599984D01*
X00461786Y00599928D01*
X00461729Y00599843D01*
X00461659Y00599744D01*
X00461588Y00599603D01*
X00461518Y00599434D01*
X00461461Y00599237D01*
Y00599209D01*
X00461447Y00599166D01*
X00461433Y00599124D01*
Y00599054D01*
X00461419Y00598969D01*
X00461405Y00598856D01*
X00461391Y00598729D01*
X00461377Y00598588D01*
X00461363Y00598405D01*
X00461349Y00598222D01*
Y00597996D01*
X00461335Y00597757D01*
X00461320Y00597489D01*
Y00597193D01*
Y00596869D01*
Y00594698D01*
X00459446D01*
Y00601774D01*
X00461180D01*
Y00600774D01*
X00461194Y00600788D01*
X00461250Y00600872D01*
X00461335Y00600999D01*
X00461447Y00601154D01*
X00461560Y00601309D01*
X00461701Y00601464D01*
X00461828Y00601605D01*
X00461969Y00601704D01*
X00461983Y00601718D01*
X00462025Y00601746D01*
X00462110Y00601774D01*
X00462209Y00601817D01*
X00462321Y00601859D01*
X00462462Y00601901D01*
X00462603Y00601915D01*
X00462772Y00601929D01*
X00462885D01*
X00463012Y00601915D01*
D02*
G37*
G36*
X00453920D02*
X00454075Y00601887D01*
X00454272Y00601845D01*
X00454483Y00601774D01*
X00454695Y00601690D01*
X00454921Y00601563D01*
X00454328Y00599942D01*
X00454314Y00599956D01*
X00454244Y00599984D01*
X00454159Y00600040D01*
X00454047Y00600097D01*
X00453905Y00600153D01*
X00453764Y00600210D01*
X00453610Y00600238D01*
X00453454Y00600252D01*
X00453398D01*
X00453313Y00600238D01*
X00453229Y00600224D01*
X00453130Y00600196D01*
X00453017Y00600153D01*
X00452905Y00600097D01*
X00452792Y00600026D01*
X00452778Y00600012D01*
X00452750Y00599984D01*
X00452693Y00599928D01*
X00452637Y00599843D01*
X00452566Y00599744D01*
X00452496Y00599603D01*
X00452425Y00599434D01*
X00452369Y00599237D01*
Y00599209D01*
X00452355Y00599166D01*
X00452341Y00599124D01*
Y00599054D01*
X00452327Y00598969D01*
X00452313Y00598856D01*
X00452299Y00598729D01*
X00452284Y00598588D01*
X00452270Y00598405D01*
X00452256Y00598222D01*
Y00597996D01*
X00452242Y00597757D01*
X00452228Y00597489D01*
Y00597193D01*
Y00596869D01*
Y00594698D01*
X00450353D01*
Y00601774D01*
X00452087D01*
Y00600774D01*
X00452101Y00600788D01*
X00452158Y00600872D01*
X00452242Y00600999D01*
X00452355Y00601154D01*
X00452468Y00601309D01*
X00452609Y00601464D01*
X00452735Y00601605D01*
X00452876Y00601704D01*
X00452891Y00601718D01*
X00452933Y00601746D01*
X00453017Y00601774D01*
X00453116Y00601817D01*
X00453229Y00601859D01*
X00453370Y00601901D01*
X00453511Y00601915D01*
X00453680Y00601929D01*
X00453793D01*
X00453920Y00601915D01*
D02*
G37*
G36*
X00400126Y00601915D02*
X00400280Y00601887D01*
X00400478Y00601845D01*
X00400689Y00601774D01*
X00400901Y00601690D01*
X00401126Y00601563D01*
X00400534Y00599942D01*
X00400520Y00599956D01*
X00400450Y00599984D01*
X00400365Y00600040D01*
X00400252Y00600097D01*
X00400111Y00600153D01*
X00399970Y00600210D01*
X00399815Y00600238D01*
X00399660Y00600252D01*
X00399604D01*
X00399519Y00600238D01*
X00399435Y00600224D01*
X00399336Y00600196D01*
X00399223Y00600153D01*
X00399110Y00600097D01*
X00398998Y00600026D01*
X00398984Y00600012D01*
X00398955Y00599984D01*
X00398899Y00599928D01*
X00398843Y00599843D01*
X00398772Y00599744D01*
X00398702Y00599603D01*
X00398631Y00599434D01*
X00398575Y00599237D01*
Y00599209D01*
X00398561Y00599166D01*
X00398547Y00599124D01*
Y00599054D01*
X00398532Y00598969D01*
X00398518Y00598856D01*
X00398504Y00598729D01*
X00398490Y00598588D01*
X00398476Y00598405D01*
X00398462Y00598222D01*
Y00597996D01*
X00398448Y00597757D01*
X00398434Y00597489D01*
Y00597193D01*
Y00596869D01*
Y00594698D01*
X00396559D01*
Y00601774D01*
X00398293D01*
Y00600773D01*
X00398307Y00600788D01*
X00398363Y00600872D01*
X00398448Y00600999D01*
X00398561Y00601154D01*
X00398674Y00601309D01*
X00398814Y00601464D01*
X00398941Y00601605D01*
X00399082Y00601704D01*
X00399096Y00601718D01*
X00399139Y00601746D01*
X00399223Y00601774D01*
X00399322Y00601817D01*
X00399435Y00601859D01*
X00399576Y00601901D01*
X00399717Y00601915D01*
X00399886Y00601929D01*
X00399999D01*
X00400126Y00601915D01*
D02*
G37*
G36*
X00202373Y00601915D02*
X00202528Y00601887D01*
X00202725Y00601845D01*
X00202937Y00601774D01*
X00203148Y00601690D01*
X00203374Y00601563D01*
X00202782Y00599942D01*
X00202768Y00599956D01*
X00202697Y00599984D01*
X00202612Y00600040D01*
X00202500Y00600097D01*
X00202359Y00600153D01*
X00202218Y00600210D01*
X00202063Y00600238D01*
X00201908Y00600252D01*
X00201851D01*
X00201767Y00600238D01*
X00201682Y00600224D01*
X00201583Y00600195D01*
X00201471Y00600153D01*
X00201358Y00600097D01*
X00201245Y00600026D01*
X00201231Y00600012D01*
X00201203Y00599984D01*
X00201146Y00599928D01*
X00201090Y00599843D01*
X00201019Y00599744D01*
X00200949Y00599603D01*
X00200879Y00599434D01*
X00200822Y00599237D01*
Y00599209D01*
X00200808Y00599166D01*
X00200794Y00599124D01*
Y00599054D01*
X00200780Y00598969D01*
X00200766Y00598856D01*
X00200752Y00598729D01*
X00200737Y00598588D01*
X00200723Y00598405D01*
X00200709Y00598222D01*
Y00597996D01*
X00200695Y00597757D01*
X00200681Y00597489D01*
Y00597193D01*
Y00596869D01*
Y00594698D01*
X00198806D01*
Y00601774D01*
X00200540D01*
Y00600773D01*
X00200554Y00600788D01*
X00200611Y00600872D01*
X00200695Y00600999D01*
X00200808Y00601154D01*
X00200921Y00601309D01*
X00201062Y00601464D01*
X00201189Y00601605D01*
X00201330Y00601704D01*
X00201344Y00601718D01*
X00201386Y00601746D01*
X00201471Y00601774D01*
X00201569Y00601817D01*
X00201682Y00601859D01*
X00201823Y00601901D01*
X00201964Y00601915D01*
X00202133Y00601929D01*
X00202246D01*
X00202373Y00601915D01*
D02*
G37*
G36*
X00392414Y00601915D02*
X00392513Y00601901D01*
X00392640Y00601873D01*
X00392781Y00601845D01*
X00392922Y00601802D01*
X00393091Y00601760D01*
X00393246Y00601690D01*
X00393429Y00601619D01*
X00393599Y00601521D01*
X00393782Y00601408D01*
X00393951Y00601281D01*
X00394120Y00601126D01*
X00394289Y00600957D01*
X00394303Y00600943D01*
X00394332Y00600914D01*
X00394374Y00600858D01*
X00394430Y00600773D01*
X00394487Y00600689D01*
X00394557Y00600562D01*
X00394642Y00600421D01*
X00394726Y00600266D01*
X00394797Y00600083D01*
X00394881Y00599885D01*
X00394952Y00599660D01*
X00395022Y00599420D01*
X00395065Y00599152D01*
X00395107Y00598885D01*
X00395135Y00598574D01*
X00395149Y00598264D01*
Y00598250D01*
Y00598194D01*
Y00598095D01*
X00395135Y00597968D01*
X00395121Y00597827D01*
X00395107Y00597658D01*
X00395079Y00597461D01*
X00395036Y00597263D01*
X00394938Y00596812D01*
X00394867Y00596587D01*
X00394783Y00596361D01*
X00394684Y00596135D01*
X00394557Y00595924D01*
X00394430Y00595713D01*
X00394275Y00595515D01*
X00394261Y00595501D01*
X00394233Y00595473D01*
X00394191Y00595431D01*
X00394120Y00595360D01*
X00394036Y00595290D01*
X00393937Y00595205D01*
X00393824Y00595121D01*
X00393697Y00595036D01*
X00393542Y00594937D01*
X00393387Y00594853D01*
X00393035Y00594698D01*
X00392837Y00594627D01*
X00392626Y00594585D01*
X00392414Y00594557D01*
X00392189Y00594543D01*
X00392090D01*
X00391977Y00594557D01*
X00391836Y00594571D01*
X00391667Y00594599D01*
X00391484Y00594641D01*
X00391301Y00594698D01*
X00391118Y00594768D01*
X00391103Y00594782D01*
X00391033Y00594810D01*
X00390948Y00594881D01*
X00390821Y00594966D01*
X00390666Y00595064D01*
X00390511Y00595205D01*
X00390328Y00595374D01*
X00390131Y00595572D01*
Y00591991D01*
X00388256D01*
Y00601774D01*
X00390004D01*
Y00600731D01*
X00390018Y00600759D01*
X00390060Y00600816D01*
X00390145Y00600914D01*
X00390243Y00601041D01*
X00390370Y00601182D01*
X00390540Y00601323D01*
X00390709Y00601464D01*
X00390920Y00601591D01*
X00390948Y00601605D01*
X00391019Y00601647D01*
X00391146Y00601704D01*
X00391301Y00601760D01*
X00391484Y00601817D01*
X00391710Y00601873D01*
X00391949Y00601915D01*
X00392203Y00601929D01*
X00392316D01*
X00392414Y00601915D01*
D02*
G37*
G36*
X00384083D02*
X00384182Y00601901D01*
X00384309Y00601873D01*
X00384450Y00601845D01*
X00384591Y00601802D01*
X00384760Y00601760D01*
X00384915Y00601690D01*
X00385098Y00601619D01*
X00385267Y00601521D01*
X00385451Y00601408D01*
X00385620Y00601281D01*
X00385789Y00601126D01*
X00385958Y00600957D01*
X00385972Y00600943D01*
X00386000Y00600914D01*
X00386043Y00600858D01*
X00386099Y00600773D01*
X00386155Y00600689D01*
X00386226Y00600562D01*
X00386310Y00600421D01*
X00386395Y00600266D01*
X00386465Y00600083D01*
X00386550Y00599885D01*
X00386620Y00599660D01*
X00386691Y00599420D01*
X00386733Y00599152D01*
X00386776Y00598885D01*
X00386804Y00598574D01*
X00386818Y00598264D01*
Y00598250D01*
Y00598194D01*
Y00598095D01*
X00386804Y00597968D01*
X00386790Y00597827D01*
X00386776Y00597658D01*
X00386747Y00597461D01*
X00386705Y00597263D01*
X00386606Y00596812D01*
X00386536Y00596587D01*
X00386451Y00596361D01*
X00386353Y00596135D01*
X00386226Y00595924D01*
X00386099Y00595713D01*
X00385944Y00595515D01*
X00385930Y00595501D01*
X00385902Y00595473D01*
X00385859Y00595431D01*
X00385789Y00595360D01*
X00385704Y00595290D01*
X00385606Y00595205D01*
X00385493Y00595121D01*
X00385366Y00595036D01*
X00385211Y00594937D01*
X00385056Y00594853D01*
X00384703Y00594698D01*
X00384506Y00594627D01*
X00384295Y00594585D01*
X00384083Y00594557D01*
X00383857Y00594543D01*
X00383759D01*
X00383646Y00594557D01*
X00383505Y00594571D01*
X00383336Y00594599D01*
X00383153Y00594641D01*
X00382969Y00594698D01*
X00382786Y00594768D01*
X00382772Y00594782D01*
X00382702Y00594810D01*
X00382617Y00594881D01*
X00382490Y00594966D01*
X00382335Y00595064D01*
X00382180Y00595205D01*
X00381997Y00595374D01*
X00381799Y00595572D01*
Y00591991D01*
X00379925D01*
Y00601774D01*
X00381673D01*
Y00600731D01*
X00381687Y00600759D01*
X00381729Y00600816D01*
X00381814Y00600914D01*
X00381912Y00601041D01*
X00382039Y00601182D01*
X00382208Y00601323D01*
X00382377Y00601464D01*
X00382589Y00601591D01*
X00382617Y00601605D01*
X00382687Y00601647D01*
X00382814Y00601704D01*
X00382969Y00601760D01*
X00383153Y00601817D01*
X00383378Y00601873D01*
X00383618Y00601915D01*
X00383872Y00601929D01*
X00383984D01*
X00384083Y00601915D01*
D02*
G37*
G36*
X00319857D02*
X00320012Y00601901D01*
X00320181Y00601873D01*
X00320365Y00601831D01*
X00320562Y00601774D01*
X00320759Y00601704D01*
X00320788Y00601690D01*
X00320844Y00601662D01*
X00320943Y00601619D01*
X00321055Y00601549D01*
X00321182Y00601464D01*
X00321309Y00601366D01*
X00321436Y00601253D01*
X00321549Y00601126D01*
X00321563Y00601112D01*
X00321591Y00601069D01*
X00321633Y00600999D01*
X00321690Y00600900D01*
X00321760Y00600788D01*
X00321817Y00600647D01*
X00321873Y00600506D01*
X00321915Y00600336D01*
Y00600322D01*
X00321929Y00600252D01*
X00321958Y00600153D01*
X00321972Y00600012D01*
X00322000Y00599843D01*
X00322014Y00599618D01*
X00322028Y00599378D01*
Y00599082D01*
Y00594698D01*
X00320153D01*
Y00598292D01*
Y00598307D01*
Y00598349D01*
Y00598405D01*
Y00598476D01*
Y00598574D01*
Y00598673D01*
X00320139Y00598913D01*
X00320125Y00599152D01*
X00320097Y00599406D01*
X00320069Y00599618D01*
X00320055Y00599702D01*
X00320026Y00599773D01*
Y00599787D01*
X00319998Y00599829D01*
X00319970Y00599885D01*
X00319928Y00599970D01*
X00319801Y00600139D01*
X00319730Y00600224D01*
X00319632Y00600294D01*
X00319618Y00600308D01*
X00319589Y00600322D01*
X00319533Y00600350D01*
X00319448Y00600393D01*
X00319350Y00600435D01*
X00319251Y00600463D01*
X00319124Y00600477D01*
X00318983Y00600491D01*
X00318899D01*
X00318814Y00600477D01*
X00318701Y00600463D01*
X00318560Y00600421D01*
X00318419Y00600379D01*
X00318264Y00600308D01*
X00318109Y00600224D01*
X00318095Y00600210D01*
X00318053Y00600181D01*
X00317982Y00600111D01*
X00317898Y00600040D01*
X00317813Y00599928D01*
X00317729Y00599815D01*
X00317644Y00599660D01*
X00317588Y00599505D01*
Y00599491D01*
X00317559Y00599420D01*
X00317545Y00599307D01*
X00317517Y00599138D01*
X00317503Y00599039D01*
X00317489Y00598913D01*
X00317475Y00598786D01*
Y00598631D01*
X00317461Y00598476D01*
X00317447Y00598292D01*
Y00598095D01*
Y00597884D01*
Y00594698D01*
X00315572D01*
Y00601774D01*
X00317306D01*
Y00600731D01*
X00317320Y00600745D01*
X00317348Y00600788D01*
X00317404Y00600844D01*
X00317475Y00600914D01*
X00317559Y00601013D01*
X00317672Y00601112D01*
X00317799Y00601225D01*
X00317940Y00601337D01*
X00318095Y00601436D01*
X00318278Y00601549D01*
X00318461Y00601647D01*
X00318673Y00601746D01*
X00318899Y00601817D01*
X00319124Y00601873D01*
X00319378Y00601915D01*
X00319632Y00601929D01*
X00319730D01*
X00319857Y00601915D01*
D02*
G37*
G36*
X00291818D02*
X00291973Y00601901D01*
X00292142Y00601873D01*
X00292326Y00601831D01*
X00292523Y00601774D01*
X00292720Y00601704D01*
X00292749Y00601690D01*
X00292805Y00601662D01*
X00292904Y00601619D01*
X00293016Y00601549D01*
X00293143Y00601464D01*
X00293270Y00601366D01*
X00293397Y00601253D01*
X00293510Y00601126D01*
X00293524Y00601112D01*
X00293552Y00601069D01*
X00293594Y00600999D01*
X00293651Y00600900D01*
X00293721Y00600788D01*
X00293778Y00600647D01*
X00293834Y00600506D01*
X00293876Y00600336D01*
Y00600322D01*
X00293890Y00600252D01*
X00293919Y00600153D01*
X00293933Y00600012D01*
X00293961Y00599843D01*
X00293975Y00599618D01*
X00293989Y00599378D01*
Y00599082D01*
Y00594698D01*
X00292114D01*
Y00598292D01*
Y00598307D01*
Y00598349D01*
Y00598405D01*
Y00598476D01*
Y00598574D01*
Y00598673D01*
X00292100Y00598913D01*
X00292086Y00599152D01*
X00292058Y00599406D01*
X00292030Y00599618D01*
X00292016Y00599702D01*
X00291987Y00599773D01*
Y00599787D01*
X00291959Y00599829D01*
X00291931Y00599885D01*
X00291889Y00599970D01*
X00291762Y00600139D01*
X00291691Y00600224D01*
X00291593Y00600294D01*
X00291579Y00600308D01*
X00291550Y00600322D01*
X00291494Y00600350D01*
X00291409Y00600393D01*
X00291311Y00600435D01*
X00291212Y00600463D01*
X00291085Y00600477D01*
X00290944Y00600491D01*
X00290860D01*
X00290775Y00600477D01*
X00290662Y00600463D01*
X00290521Y00600421D01*
X00290380Y00600379D01*
X00290225Y00600308D01*
X00290070Y00600224D01*
X00290056Y00600210D01*
X00290014Y00600181D01*
X00289943Y00600111D01*
X00289859Y00600040D01*
X00289774Y00599928D01*
X00289690Y00599815D01*
X00289605Y00599660D01*
X00289549Y00599505D01*
Y00599491D01*
X00289520Y00599420D01*
X00289506Y00599307D01*
X00289478Y00599138D01*
X00289464Y00599039D01*
X00289450Y00598913D01*
X00289436Y00598786D01*
Y00598631D01*
X00289422Y00598476D01*
X00289408Y00598292D01*
Y00598095D01*
Y00597884D01*
Y00594698D01*
X00287533D01*
Y00601774D01*
X00289267D01*
Y00600731D01*
X00289281Y00600745D01*
X00289309Y00600788D01*
X00289365Y00600844D01*
X00289436Y00600914D01*
X00289520Y00601013D01*
X00289633Y00601112D01*
X00289760Y00601225D01*
X00289901Y00601337D01*
X00290056Y00601436D01*
X00290239Y00601549D01*
X00290423Y00601647D01*
X00290634Y00601746D01*
X00290860Y00601817D01*
X00291085Y00601873D01*
X00291339Y00601915D01*
X00291593Y00601929D01*
X00291691D01*
X00291818Y00601915D01*
D02*
G37*
G36*
X00271364D02*
X00271518Y00601901D01*
X00271688Y00601873D01*
X00271871Y00601831D01*
X00272068Y00601774D01*
X00272266Y00601704D01*
X00272294Y00601690D01*
X00272350Y00601662D01*
X00272449Y00601619D01*
X00272562Y00601549D01*
X00272689Y00601464D01*
X00272815Y00601366D01*
X00272942Y00601253D01*
X00273055Y00601126D01*
X00273069Y00601112D01*
X00273097Y00601069D01*
X00273140Y00600999D01*
X00273196Y00600900D01*
X00273267Y00600788D01*
X00273323Y00600647D01*
X00273379Y00600506D01*
X00273422Y00600336D01*
Y00600322D01*
X00273436Y00600252D01*
X00273464Y00600153D01*
X00273478Y00600012D01*
X00273506Y00599843D01*
X00273520Y00599618D01*
X00273534Y00599378D01*
Y00599082D01*
Y00594698D01*
X00271660D01*
Y00598292D01*
Y00598307D01*
Y00598349D01*
Y00598405D01*
Y00598476D01*
Y00598574D01*
Y00598673D01*
X00271645Y00598913D01*
X00271631Y00599152D01*
X00271603Y00599406D01*
X00271575Y00599618D01*
X00271561Y00599702D01*
X00271533Y00599773D01*
Y00599787D01*
X00271504Y00599829D01*
X00271476Y00599885D01*
X00271434Y00599970D01*
X00271307Y00600139D01*
X00271237Y00600224D01*
X00271138Y00600294D01*
X00271124Y00600308D01*
X00271096Y00600322D01*
X00271039Y00600350D01*
X00270955Y00600393D01*
X00270856Y00600435D01*
X00270757Y00600463D01*
X00270630Y00600477D01*
X00270490Y00600491D01*
X00270405D01*
X00270320Y00600477D01*
X00270208Y00600463D01*
X00270067Y00600421D01*
X00269926Y00600379D01*
X00269771Y00600308D01*
X00269615Y00600224D01*
X00269601Y00600210D01*
X00269559Y00600181D01*
X00269489Y00600111D01*
X00269404Y00600040D01*
X00269319Y00599928D01*
X00269235Y00599815D01*
X00269150Y00599660D01*
X00269094Y00599505D01*
Y00599491D01*
X00269066Y00599420D01*
X00269052Y00599307D01*
X00269023Y00599138D01*
X00269009Y00599039D01*
X00268995Y00598913D01*
X00268981Y00598786D01*
Y00598631D01*
X00268967Y00598476D01*
X00268953Y00598292D01*
Y00598095D01*
Y00597884D01*
Y00594698D01*
X00267078D01*
Y00601774D01*
X00268812D01*
Y00600731D01*
X00268826Y00600745D01*
X00268854Y00600788D01*
X00268911Y00600844D01*
X00268981Y00600914D01*
X00269066Y00601013D01*
X00269178Y00601112D01*
X00269305Y00601225D01*
X00269446Y00601337D01*
X00269601Y00601436D01*
X00269785Y00601549D01*
X00269968Y00601647D01*
X00270179Y00601746D01*
X00270405Y00601817D01*
X00270630Y00601873D01*
X00270884Y00601915D01*
X00271138Y00601929D01*
X00271237D01*
X00271364Y00601915D01*
D02*
G37*
G36*
X00309440Y00599899D02*
X00307565D01*
Y00601774D01*
X00309440D01*
Y00599899D01*
D02*
G37*
G36*
X00475333Y00601915D02*
X00475474Y00601901D01*
X00475629Y00601887D01*
X00475798Y00601873D01*
X00476151Y00601817D01*
X00476503Y00601732D01*
X00476841Y00601605D01*
X00476996Y00601535D01*
X00477137Y00601450D01*
X00477151D01*
X00477166Y00601422D01*
X00477250Y00601366D01*
X00477377Y00601253D01*
X00477518Y00601098D01*
X00477687Y00600914D01*
X00477842Y00600675D01*
X00477997Y00600393D01*
X00478110Y00600069D01*
X00476348Y00599744D01*
Y00599758D01*
X00476320Y00599815D01*
X00476292Y00599885D01*
X00476249Y00599970D01*
X00476193Y00600083D01*
X00476108Y00600181D01*
X00476024Y00600280D01*
X00475911Y00600365D01*
X00475897Y00600379D01*
X00475854Y00600407D01*
X00475784Y00600435D01*
X00475685Y00600477D01*
X00475559Y00600520D01*
X00475403Y00600562D01*
X00475220Y00600576D01*
X00475009Y00600590D01*
X00474882D01*
X00474755Y00600576D01*
X00474600Y00600562D01*
X00474417Y00600534D01*
X00474248Y00600506D01*
X00474092Y00600449D01*
X00473951Y00600379D01*
X00473937D01*
X00473923Y00600351D01*
X00473853Y00600280D01*
X00473768Y00600153D01*
X00473754Y00600083D01*
X00473740Y00599998D01*
Y00599984D01*
Y00599970D01*
X00473768Y00599885D01*
X00473825Y00599773D01*
X00473867Y00599716D01*
X00473923Y00599660D01*
X00473937Y00599646D01*
X00473994Y00599632D01*
X00474022Y00599603D01*
X00474078Y00599589D01*
X00474149Y00599561D01*
X00474233Y00599519D01*
X00474346Y00599491D01*
X00474459Y00599448D01*
X00474600Y00599406D01*
X00474769Y00599364D01*
X00474952Y00599307D01*
X00475164Y00599251D01*
X00475403Y00599195D01*
X00475671Y00599124D01*
X00475685D01*
X00475742Y00599110D01*
X00475812Y00599096D01*
X00475911Y00599068D01*
X00476038Y00599025D01*
X00476179Y00598997D01*
X00476489Y00598899D01*
X00476841Y00598772D01*
X00477180Y00598631D01*
X00477349Y00598546D01*
X00477504Y00598476D01*
X00477631Y00598377D01*
X00477758Y00598292D01*
X00477786Y00598264D01*
X00477856Y00598208D01*
X00477941Y00598095D01*
X00478054Y00597940D01*
X00478167Y00597743D01*
X00478251Y00597503D01*
X00478321Y00597221D01*
X00478350Y00596911D01*
Y00596897D01*
Y00596869D01*
Y00596812D01*
X00478336Y00596742D01*
X00478321Y00596671D01*
X00478307Y00596573D01*
X00478251Y00596333D01*
X00478152Y00596079D01*
X00478082Y00595938D01*
X00478011Y00595797D01*
X00477913Y00595656D01*
X00477800Y00595515D01*
X00477673Y00595374D01*
X00477532Y00595233D01*
X00477518Y00595219D01*
X00477490Y00595205D01*
X00477448Y00595177D01*
X00477377Y00595121D01*
X00477292Y00595078D01*
X00477194Y00595022D01*
X00477067Y00594951D01*
X00476926Y00594895D01*
X00476771Y00594824D01*
X00476588Y00594768D01*
X00476390Y00594698D01*
X00476179Y00594655D01*
X00475939Y00594613D01*
X00475685Y00594571D01*
X00475418Y00594557D01*
X00475136Y00594543D01*
X00474995D01*
X00474896Y00594557D01*
X00474769D01*
X00474628Y00594571D01*
X00474473Y00594585D01*
X00474304Y00594613D01*
X00473937Y00594684D01*
X00473557Y00594782D01*
X00473176Y00594923D01*
X00473007Y00595022D01*
X00472838Y00595121D01*
X00472824Y00595135D01*
X00472795Y00595149D01*
X00472753Y00595177D01*
X00472711Y00595233D01*
X00472556Y00595360D01*
X00472387Y00595544D01*
X00472203Y00595769D01*
X00472034Y00596037D01*
X00471879Y00596361D01*
X00471752Y00596713D01*
X00473627Y00596996D01*
Y00596967D01*
X00473655Y00596911D01*
X00473684Y00596812D01*
X00473726Y00596685D01*
X00473796Y00596544D01*
X00473881Y00596418D01*
X00473980Y00596277D01*
X00474106Y00596164D01*
X00474121Y00596150D01*
X00474177Y00596121D01*
X00474262Y00596079D01*
X00474374Y00596037D01*
X00474515Y00595980D01*
X00474699Y00595938D01*
X00474896Y00595910D01*
X00475136Y00595896D01*
X00475248D01*
X00475389Y00595910D01*
X00475544Y00595924D01*
X00475714Y00595952D01*
X00475897Y00596009D01*
X00476066Y00596065D01*
X00476221Y00596150D01*
X00476235Y00596164D01*
X00476263Y00596192D01*
X00476306Y00596234D01*
X00476348Y00596291D01*
X00476390Y00596361D01*
X00476432Y00596446D01*
X00476461Y00596544D01*
X00476475Y00596657D01*
Y00596671D01*
Y00596699D01*
X00476461Y00596784D01*
X00476418Y00596897D01*
X00476334Y00597010D01*
X00476306Y00597038D01*
X00476263Y00597052D01*
X00476207Y00597094D01*
X00476122Y00597122D01*
X00476010Y00597165D01*
X00475883Y00597207D01*
X00475714Y00597249D01*
X00475685D01*
X00475615Y00597277D01*
X00475502Y00597306D01*
X00475347Y00597334D01*
X00475164Y00597376D01*
X00474966Y00597433D01*
X00474741Y00597489D01*
X00474501Y00597559D01*
X00474008Y00597700D01*
X00473768Y00597771D01*
X00473543Y00597855D01*
X00473331Y00597926D01*
X00473134Y00598010D01*
X00472965Y00598095D01*
X00472838Y00598166D01*
X00472824Y00598180D01*
X00472795Y00598194D01*
X00472767Y00598222D01*
X00472711Y00598278D01*
X00472570Y00598405D01*
X00472429Y00598588D01*
X00472274Y00598814D01*
X00472133Y00599082D01*
X00472077Y00599237D01*
X00472048Y00599406D01*
X00472020Y00599575D01*
X00472006Y00599758D01*
Y00599773D01*
Y00599801D01*
Y00599843D01*
X00472020Y00599914D01*
X00472034Y00599984D01*
X00472048Y00600083D01*
X00472091Y00600294D01*
X00472175Y00600534D01*
X00472316Y00600788D01*
X00472387Y00600928D01*
X00472485Y00601055D01*
X00472598Y00601182D01*
X00472725Y00601295D01*
X00472739Y00601309D01*
X00472753Y00601323D01*
X00472795Y00601352D01*
X00472866Y00601394D01*
X00472937Y00601436D01*
X00473035Y00601492D01*
X00473148Y00601549D01*
X00473275Y00601619D01*
X00473430Y00601676D01*
X00473599Y00601732D01*
X00473782Y00601788D01*
X00473980Y00601831D01*
X00474205Y00601873D01*
X00474445Y00601901D01*
X00474699Y00601929D01*
X00475220D01*
X00475333Y00601915D01*
D02*
G37*
G36*
X00413884Y00594698D02*
X00412192D01*
X00409345Y00601774D01*
X00411304D01*
X00412644Y00598151D01*
X00413024Y00596953D01*
X00413038Y00596967D01*
X00413052Y00597024D01*
X00413081Y00597108D01*
X00413109Y00597193D01*
X00413179Y00597404D01*
X00413208Y00597489D01*
X00413222Y00597559D01*
Y00597574D01*
X00413236Y00597616D01*
X00413250Y00597672D01*
X00413278Y00597743D01*
X00413334Y00597940D01*
X00413419Y00598151D01*
X00414772Y00601774D01*
X00416689D01*
X00413884Y00594698D01*
D02*
G37*
G36*
X00219176Y00594698D02*
X00217485D01*
X00214637Y00601774D01*
X00216597D01*
X00217936Y00598151D01*
X00218316Y00596953D01*
X00218331Y00596967D01*
X00218345Y00597024D01*
X00218373Y00597108D01*
X00218401Y00597193D01*
X00218472Y00597404D01*
X00218500Y00597489D01*
X00218514Y00597559D01*
Y00597573D01*
X00218528Y00597616D01*
X00218542Y00597672D01*
X00218570Y00597743D01*
X00218627Y00597940D01*
X00218711Y00598151D01*
X00220065Y00601774D01*
X00221982D01*
X00219176Y00594698D01*
D02*
G37*
G36*
X00303561Y00594951D02*
X00303110Y00593739D01*
X00303096Y00593711D01*
X00303068Y00593640D01*
X00303011Y00593528D01*
X00302955Y00593387D01*
X00302884Y00593232D01*
X00302800Y00593077D01*
X00302715Y00592935D01*
X00302631Y00592794D01*
X00302617Y00592780D01*
X00302588Y00592738D01*
X00302546Y00592682D01*
X00302490Y00592597D01*
X00302335Y00592428D01*
X00302123Y00592259D01*
X00302109Y00592245D01*
X00302067Y00592231D01*
X00302010Y00592188D01*
X00301926Y00592146D01*
X00301827Y00592104D01*
X00301714Y00592047D01*
X00301573Y00591991D01*
X00301418Y00591949D01*
X00301404D01*
X00301348Y00591935D01*
X00301263Y00591906D01*
X00301136Y00591892D01*
X00300995Y00591864D01*
X00300840Y00591836D01*
X00300657Y00591822D01*
X00300375D01*
X00300262Y00591836D01*
X00300135D01*
X00299966Y00591850D01*
X00299797Y00591878D01*
X00299417Y00591949D01*
X00299247Y00593415D01*
X00299261D01*
X00299318Y00593401D01*
X00299402Y00593387D01*
X00299515Y00593372D01*
X00299628Y00593344D01*
X00299769Y00593330D01*
X00300037Y00593316D01*
X00300149D01*
X00300262Y00593344D01*
X00300403Y00593372D01*
X00300558Y00593415D01*
X00300713Y00593485D01*
X00300868Y00593584D01*
X00300995Y00593711D01*
X00301010Y00593725D01*
X00301052Y00593781D01*
X00301108Y00593866D01*
X00301179Y00593979D01*
X00301249Y00594120D01*
X00301334Y00594289D01*
X00301404Y00594472D01*
X00301475Y00594683D01*
X00298796Y00601774D01*
X00300784D01*
X00302461Y00596742D01*
X00304125Y00601774D01*
X00306056D01*
X00303561Y00594951D01*
D02*
G37*
G36*
X00240928Y00594698D02*
X00239194D01*
Y00595755D01*
X00239180Y00595727D01*
X00239124Y00595656D01*
X00239039Y00595558D01*
X00238912Y00595431D01*
X00238771Y00595276D01*
X00238588Y00595135D01*
X00238391Y00594980D01*
X00238165Y00594853D01*
X00238137Y00594839D01*
X00238052Y00594810D01*
X00237925Y00594754D01*
X00237756Y00594698D01*
X00237559Y00594641D01*
X00237333Y00594585D01*
X00237094Y00594557D01*
X00236840Y00594543D01*
X00236713D01*
X00236586Y00594557D01*
X00236417Y00594585D01*
X00236206Y00594613D01*
X00235994Y00594669D01*
X00235769Y00594754D01*
X00235557Y00594853D01*
X00235529Y00594867D01*
X00235473Y00594909D01*
X00235360Y00594980D01*
X00235247Y00595078D01*
X00235106Y00595205D01*
X00234979Y00595346D01*
X00234852Y00595529D01*
X00234739Y00595727D01*
X00234725Y00595755D01*
X00234697Y00595825D01*
X00234655Y00595952D01*
X00234613Y00596135D01*
X00234570Y00596361D01*
X00234528Y00596629D01*
X00234500Y00596939D01*
X00234486Y00597291D01*
Y00601774D01*
X00236361D01*
Y00598518D01*
Y00598504D01*
Y00598447D01*
Y00598377D01*
Y00598278D01*
Y00598166D01*
Y00598039D01*
X00236375Y00597743D01*
X00236389Y00597418D01*
X00236403Y00597122D01*
X00236417Y00596995D01*
X00236431Y00596869D01*
X00236445Y00596770D01*
X00236459Y00596699D01*
Y00596685D01*
X00236473Y00596643D01*
X00236502Y00596587D01*
X00236544Y00596502D01*
X00236586Y00596418D01*
X00236657Y00596333D01*
X00236727Y00596248D01*
X00236826Y00596164D01*
X00236840Y00596150D01*
X00236882Y00596135D01*
X00236939Y00596107D01*
X00237023Y00596079D01*
X00237122Y00596037D01*
X00237249Y00596009D01*
X00237376Y00595994D01*
X00237531Y00595980D01*
X00237615D01*
X00237700Y00595994D01*
X00237813Y00596009D01*
X00237954Y00596037D01*
X00238095Y00596093D01*
X00238250Y00596150D01*
X00238391Y00596234D01*
X00238405Y00596248D01*
X00238447Y00596277D01*
X00238517Y00596333D01*
X00238602Y00596418D01*
X00238687Y00596516D01*
X00238771Y00596615D01*
X00238856Y00596742D01*
X00238912Y00596883D01*
Y00596897D01*
X00238940Y00596967D01*
Y00597024D01*
X00238955Y00597094D01*
X00238969Y00597165D01*
X00238983Y00597263D01*
X00238997Y00597390D01*
X00239011Y00597517D01*
X00239025Y00597672D01*
Y00597855D01*
X00239039Y00598053D01*
X00239053Y00598278D01*
Y00598518D01*
Y00598786D01*
Y00601774D01*
X00240928D01*
Y00594698D01*
D02*
G37*
G36*
X00500820Y00594698D02*
X00498945D01*
Y00596573D01*
X00500820D01*
Y00594698D01*
D02*
G37*
G36*
X00489444D02*
X00487569D01*
Y00604453D01*
X00489444D01*
Y00594698D01*
D02*
G37*
G36*
X00483058Y00601915D02*
X00483171D01*
X00483453Y00601887D01*
X00483749Y00601859D01*
X00484059Y00601803D01*
X00484355Y00601718D01*
X00484482Y00601676D01*
X00484609Y00601619D01*
X00484623D01*
X00484637Y00601605D01*
X00484707Y00601563D01*
X00484820Y00601507D01*
X00484947Y00601422D01*
X00485102Y00601309D01*
X00485243Y00601182D01*
X00485370Y00601027D01*
X00485483Y00600872D01*
X00485497Y00600844D01*
X00485525Y00600788D01*
X00485567Y00600661D01*
X00485582Y00600590D01*
X00485610Y00600491D01*
X00485638Y00600393D01*
X00485652Y00600266D01*
X00485680Y00600125D01*
X00485694Y00599970D01*
X00485708Y00599801D01*
X00485722Y00599618D01*
X00485737Y00599420D01*
Y00599195D01*
X00485708Y00597010D01*
Y00596996D01*
Y00596967D01*
Y00596925D01*
Y00596855D01*
Y00596685D01*
X00485722Y00596488D01*
Y00596262D01*
X00485751Y00596037D01*
X00485765Y00595811D01*
X00485793Y00595628D01*
Y00595614D01*
X00485807Y00595558D01*
X00485835Y00595459D01*
X00485863Y00595346D01*
X00485920Y00595205D01*
X00485976Y00595050D01*
X00486047Y00594881D01*
X00486131Y00594698D01*
X00484285D01*
Y00594712D01*
X00484271Y00594726D01*
X00484256Y00594782D01*
X00484228Y00594839D01*
X00484200Y00594909D01*
X00484172Y00595008D01*
X00484144Y00595121D01*
X00484101Y00595247D01*
Y00595261D01*
X00484087Y00595276D01*
X00484073Y00595332D01*
X00484045Y00595402D01*
X00484031Y00595459D01*
X00484003Y00595445D01*
X00483946Y00595388D01*
X00483848Y00595304D01*
X00483721Y00595205D01*
X00483566Y00595092D01*
X00483396Y00594966D01*
X00483199Y00594867D01*
X00483002Y00594768D01*
X00482974Y00594754D01*
X00482903Y00594740D01*
X00482790Y00594698D01*
X00482649Y00594655D01*
X00482480Y00594613D01*
X00482283Y00594585D01*
X00482057Y00594557D01*
X00481832Y00594543D01*
X00481733D01*
X00481648Y00594557D01*
X00481564D01*
X00481451Y00594571D01*
X00481211Y00594613D01*
X00480929Y00594684D01*
X00480648Y00594782D01*
X00480366Y00594923D01*
X00480112Y00595121D01*
Y00595135D01*
X00480084Y00595149D01*
X00480013Y00595233D01*
X00479915Y00595360D01*
X00479802Y00595529D01*
X00479689Y00595741D01*
X00479590Y00595995D01*
X00479520Y00596291D01*
X00479506Y00596446D01*
X00479492Y00596615D01*
Y00596643D01*
Y00596713D01*
X00479506Y00596826D01*
X00479534Y00596967D01*
X00479562Y00597136D01*
X00479604Y00597306D01*
X00479675Y00597489D01*
X00479773Y00597672D01*
X00479788Y00597700D01*
X00479830Y00597757D01*
X00479886Y00597841D01*
X00479985Y00597940D01*
X00480084Y00598053D01*
X00480225Y00598180D01*
X00480380Y00598292D01*
X00480563Y00598391D01*
X00480591Y00598405D01*
X00480662Y00598433D01*
X00480774Y00598476D01*
X00480944Y00598546D01*
X00481155Y00598617D01*
X00481409Y00598687D01*
X00481719Y00598758D01*
X00482057Y00598828D01*
X00482071D01*
X00482114Y00598842D01*
X00482184Y00598856D01*
X00482269Y00598870D01*
X00482382Y00598885D01*
X00482508Y00598913D01*
X00482790Y00598983D01*
X00483086Y00599054D01*
X00483396Y00599124D01*
X00483664Y00599209D01*
X00483791Y00599251D01*
X00483890Y00599293D01*
Y00599477D01*
Y00599505D01*
Y00599561D01*
X00483876Y00599660D01*
X00483862Y00599787D01*
X00483819Y00599914D01*
X00483777Y00600040D01*
X00483707Y00600153D01*
X00483608Y00600252D01*
X00483594Y00600266D01*
X00483551Y00600294D01*
X00483481Y00600322D01*
X00483382Y00600379D01*
X00483241Y00600421D01*
X00483072Y00600449D01*
X00482861Y00600477D01*
X00482607Y00600491D01*
X00482522D01*
X00482438Y00600477D01*
X00482325Y00600463D01*
X00482198Y00600435D01*
X00482057Y00600407D01*
X00481930Y00600351D01*
X00481818Y00600280D01*
X00481804Y00600266D01*
X00481775Y00600238D01*
X00481719Y00600196D01*
X00481662Y00600125D01*
X00481578Y00600026D01*
X00481507Y00599899D01*
X00481437Y00599758D01*
X00481367Y00599589D01*
X00479689Y00599899D01*
Y00599914D01*
X00479703Y00599942D01*
X00479717Y00599998D01*
X00479745Y00600069D01*
X00479773Y00600153D01*
X00479816Y00600252D01*
X00479915Y00600477D01*
X00480056Y00600717D01*
X00480225Y00600971D01*
X00480422Y00601211D01*
X00480662Y00601422D01*
X00480676D01*
X00480690Y00601450D01*
X00480732Y00601464D01*
X00480788Y00601507D01*
X00480873Y00601535D01*
X00480958Y00601577D01*
X00481070Y00601633D01*
X00481183Y00601676D01*
X00481324Y00601718D01*
X00481479Y00601774D01*
X00481648Y00601817D01*
X00481846Y00601845D01*
X00482043Y00601887D01*
X00482269Y00601901D01*
X00482494Y00601929D01*
X00482959D01*
X00483058Y00601915D01*
D02*
G37*
G36*
X00375456Y00601915D02*
X00375569D01*
X00375850Y00601887D01*
X00376147Y00601859D01*
X00376457Y00601802D01*
X00376753Y00601718D01*
X00376880Y00601676D01*
X00377006Y00601619D01*
X00377020D01*
X00377035Y00601605D01*
X00377105Y00601563D01*
X00377218Y00601507D01*
X00377345Y00601422D01*
X00377500Y00601309D01*
X00377641Y00601182D01*
X00377768Y00601027D01*
X00377880Y00600872D01*
X00377895Y00600844D01*
X00377923Y00600788D01*
X00377965Y00600661D01*
X00377979Y00600590D01*
X00378007Y00600491D01*
X00378036Y00600393D01*
X00378050Y00600266D01*
X00378078Y00600125D01*
X00378092Y00599970D01*
X00378106Y00599801D01*
X00378120Y00599618D01*
X00378134Y00599420D01*
Y00599195D01*
X00378106Y00597010D01*
Y00596996D01*
Y00596967D01*
Y00596925D01*
Y00596855D01*
Y00596685D01*
X00378120Y00596488D01*
Y00596262D01*
X00378148Y00596037D01*
X00378162Y00595811D01*
X00378190Y00595628D01*
Y00595614D01*
X00378205Y00595558D01*
X00378233Y00595459D01*
X00378261Y00595346D01*
X00378317Y00595205D01*
X00378374Y00595050D01*
X00378444Y00594881D01*
X00378529Y00594698D01*
X00376682D01*
Y00594712D01*
X00376668Y00594726D01*
X00376654Y00594782D01*
X00376626Y00594839D01*
X00376598Y00594909D01*
X00376569Y00595008D01*
X00376541Y00595121D01*
X00376499Y00595247D01*
Y00595261D01*
X00376485Y00595276D01*
X00376471Y00595332D01*
X00376442Y00595402D01*
X00376428Y00595459D01*
X00376400Y00595445D01*
X00376344Y00595388D01*
X00376245Y00595304D01*
X00376118Y00595205D01*
X00375963Y00595092D01*
X00375794Y00594966D01*
X00375597Y00594867D01*
X00375399Y00594768D01*
X00375371Y00594754D01*
X00375301Y00594740D01*
X00375188Y00594698D01*
X00375047Y00594655D01*
X00374878Y00594613D01*
X00374680Y00594585D01*
X00374455Y00594557D01*
X00374229Y00594543D01*
X00374131D01*
X00374046Y00594557D01*
X00373961D01*
X00373849Y00594571D01*
X00373609Y00594613D01*
X00373327Y00594683D01*
X00373045Y00594782D01*
X00372763Y00594923D01*
X00372509Y00595121D01*
Y00595135D01*
X00372481Y00595149D01*
X00372411Y00595233D01*
X00372312Y00595360D01*
X00372199Y00595529D01*
X00372086Y00595741D01*
X00371988Y00595995D01*
X00371917Y00596291D01*
X00371903Y00596446D01*
X00371889Y00596615D01*
Y00596643D01*
Y00596713D01*
X00371903Y00596826D01*
X00371931Y00596967D01*
X00371960Y00597136D01*
X00372002Y00597306D01*
X00372072Y00597489D01*
X00372171Y00597672D01*
X00372185Y00597700D01*
X00372228Y00597757D01*
X00372284Y00597841D01*
X00372383Y00597940D01*
X00372481Y00598053D01*
X00372622Y00598180D01*
X00372777Y00598292D01*
X00372961Y00598391D01*
X00372989Y00598405D01*
X00373059Y00598433D01*
X00373172Y00598476D01*
X00373341Y00598546D01*
X00373553Y00598617D01*
X00373806Y00598687D01*
X00374117Y00598758D01*
X00374455Y00598828D01*
X00374469D01*
X00374511Y00598842D01*
X00374582Y00598856D01*
X00374666Y00598870D01*
X00374779Y00598885D01*
X00374906Y00598913D01*
X00375188Y00598983D01*
X00375484Y00599054D01*
X00375794Y00599124D01*
X00376062Y00599209D01*
X00376189Y00599251D01*
X00376287Y00599293D01*
Y00599477D01*
Y00599505D01*
Y00599561D01*
X00376273Y00599660D01*
X00376259Y00599787D01*
X00376217Y00599913D01*
X00376175Y00600040D01*
X00376104Y00600153D01*
X00376006Y00600252D01*
X00375991Y00600266D01*
X00375949Y00600294D01*
X00375879Y00600322D01*
X00375780Y00600379D01*
X00375639Y00600421D01*
X00375470Y00600449D01*
X00375258Y00600477D01*
X00375005Y00600491D01*
X00374920D01*
X00374835Y00600477D01*
X00374723Y00600463D01*
X00374596Y00600435D01*
X00374455Y00600407D01*
X00374328Y00600350D01*
X00374215Y00600280D01*
X00374201Y00600266D01*
X00374173Y00600238D01*
X00374117Y00600196D01*
X00374060Y00600125D01*
X00373975Y00600026D01*
X00373905Y00599899D01*
X00373835Y00599758D01*
X00373764Y00599589D01*
X00372086Y00599899D01*
Y00599913D01*
X00372101Y00599942D01*
X00372115Y00599998D01*
X00372143Y00600069D01*
X00372171Y00600153D01*
X00372213Y00600252D01*
X00372312Y00600477D01*
X00372453Y00600717D01*
X00372622Y00600971D01*
X00372820Y00601211D01*
X00373059Y00601422D01*
X00373073D01*
X00373087Y00601450D01*
X00373130Y00601464D01*
X00373186Y00601507D01*
X00373271Y00601535D01*
X00373355Y00601577D01*
X00373468Y00601633D01*
X00373581Y00601676D01*
X00373722Y00601718D01*
X00373877Y00601774D01*
X00374046Y00601817D01*
X00374243Y00601845D01*
X00374441Y00601887D01*
X00374666Y00601901D01*
X00374892Y00601929D01*
X00375357D01*
X00375456Y00601915D01*
D02*
G37*
G36*
X00347304Y00602803D02*
X00342581D01*
Y00600491D01*
X00346656D01*
Y00598842D01*
X00342581D01*
Y00594698D01*
X00340608D01*
Y00604453D01*
X00347304D01*
Y00602803D01*
D02*
G37*
G36*
X00297753Y00594698D02*
X00295878D01*
Y00604453D01*
X00297753D01*
Y00594698D01*
D02*
G37*
G36*
X00256844D02*
X00254969D01*
Y00601774D01*
X00256844D01*
Y00594698D01*
D02*
G37*
G36*
X00245918Y00601915D02*
X00246031D01*
X00246313Y00601887D01*
X00246609Y00601859D01*
X00246919Y00601802D01*
X00247215Y00601718D01*
X00247342Y00601676D01*
X00247469Y00601619D01*
X00247483D01*
X00247497Y00601605D01*
X00247568Y00601563D01*
X00247680Y00601507D01*
X00247807Y00601422D01*
X00247962Y00601309D01*
X00248103Y00601182D01*
X00248230Y00601027D01*
X00248343Y00600872D01*
X00248357Y00600844D01*
X00248385Y00600788D01*
X00248428Y00600661D01*
X00248442Y00600590D01*
X00248470Y00600491D01*
X00248498Y00600393D01*
X00248512Y00600266D01*
X00248540Y00600125D01*
X00248554Y00599970D01*
X00248569Y00599801D01*
X00248583Y00599618D01*
X00248597Y00599420D01*
Y00599195D01*
X00248569Y00597010D01*
Y00596995D01*
Y00596967D01*
Y00596925D01*
Y00596855D01*
Y00596685D01*
X00248583Y00596488D01*
Y00596262D01*
X00248611Y00596037D01*
X00248625Y00595811D01*
X00248653Y00595628D01*
Y00595614D01*
X00248667Y00595558D01*
X00248696Y00595459D01*
X00248724Y00595346D01*
X00248780Y00595205D01*
X00248836Y00595050D01*
X00248907Y00594881D01*
X00248992Y00594698D01*
X00247145D01*
Y00594712D01*
X00247131Y00594726D01*
X00247117Y00594782D01*
X00247088Y00594839D01*
X00247060Y00594909D01*
X00247032Y00595008D01*
X00247004Y00595121D01*
X00246962Y00595247D01*
Y00595261D01*
X00246947Y00595276D01*
X00246933Y00595332D01*
X00246905Y00595402D01*
X00246891Y00595459D01*
X00246863Y00595445D01*
X00246807Y00595388D01*
X00246708Y00595304D01*
X00246581Y00595205D01*
X00246426Y00595092D01*
X00246257Y00594966D01*
X00246059Y00594867D01*
X00245862Y00594768D01*
X00245834Y00594754D01*
X00245763Y00594740D01*
X00245651Y00594698D01*
X00245510Y00594655D01*
X00245340Y00594613D01*
X00245143Y00594585D01*
X00244918Y00594557D01*
X00244692Y00594543D01*
X00244593D01*
X00244509Y00594557D01*
X00244424D01*
X00244311Y00594571D01*
X00244072Y00594613D01*
X00243790Y00594683D01*
X00243508Y00594782D01*
X00243226Y00594923D01*
X00242972Y00595121D01*
Y00595135D01*
X00242944Y00595149D01*
X00242873Y00595233D01*
X00242775Y00595360D01*
X00242662Y00595529D01*
X00242549Y00595741D01*
X00242451Y00595994D01*
X00242380Y00596291D01*
X00242366Y00596446D01*
X00242352Y00596615D01*
Y00596643D01*
Y00596713D01*
X00242366Y00596826D01*
X00242394Y00596967D01*
X00242422Y00597136D01*
X00242465Y00597306D01*
X00242535Y00597489D01*
X00242634Y00597672D01*
X00242648Y00597700D01*
X00242690Y00597757D01*
X00242747Y00597841D01*
X00242845Y00597940D01*
X00242944Y00598053D01*
X00243085Y00598180D01*
X00243240Y00598292D01*
X00243423Y00598391D01*
X00243451Y00598405D01*
X00243522Y00598433D01*
X00243635Y00598476D01*
X00243804Y00598546D01*
X00244015Y00598617D01*
X00244269Y00598687D01*
X00244579Y00598758D01*
X00244918Y00598828D01*
X00244932D01*
X00244974Y00598842D01*
X00245044Y00598856D01*
X00245129Y00598870D01*
X00245242Y00598884D01*
X00245369Y00598913D01*
X00245651Y00598983D01*
X00245947Y00599054D01*
X00246257Y00599124D01*
X00246525Y00599209D01*
X00246651Y00599251D01*
X00246750Y00599293D01*
Y00599477D01*
Y00599505D01*
Y00599561D01*
X00246736Y00599660D01*
X00246722Y00599787D01*
X00246680Y00599913D01*
X00246637Y00600040D01*
X00246567Y00600153D01*
X00246468Y00600252D01*
X00246454Y00600266D01*
X00246412Y00600294D01*
X00246341Y00600322D01*
X00246243Y00600379D01*
X00246102Y00600421D01*
X00245933Y00600449D01*
X00245721Y00600477D01*
X00245467Y00600491D01*
X00245383D01*
X00245298Y00600477D01*
X00245185Y00600463D01*
X00245058Y00600435D01*
X00244918Y00600407D01*
X00244791Y00600350D01*
X00244678Y00600280D01*
X00244664Y00600266D01*
X00244636Y00600238D01*
X00244579Y00600195D01*
X00244523Y00600125D01*
X00244438Y00600026D01*
X00244368Y00599899D01*
X00244297Y00599758D01*
X00244227Y00599589D01*
X00242549Y00599899D01*
Y00599913D01*
X00242563Y00599942D01*
X00242577Y00599998D01*
X00242606Y00600069D01*
X00242634Y00600153D01*
X00242676Y00600252D01*
X00242775Y00600477D01*
X00242916Y00600717D01*
X00243085Y00600971D01*
X00243282Y00601210D01*
X00243522Y00601422D01*
X00243536D01*
X00243550Y00601450D01*
X00243592Y00601464D01*
X00243649Y00601507D01*
X00243733Y00601535D01*
X00243818Y00601577D01*
X00243931Y00601633D01*
X00244044Y00601676D01*
X00244184Y00601718D01*
X00244340Y00601774D01*
X00244509Y00601817D01*
X00244706Y00601845D01*
X00244903Y00601887D01*
X00245129Y00601901D01*
X00245354Y00601929D01*
X00245820D01*
X00245918Y00601915D01*
D02*
G37*
G36*
X00232597Y00594698D02*
X00230722D01*
Y00604453D01*
X00232597D01*
Y00594698D01*
D02*
G37*
G36*
X00226211Y00601915D02*
X00226324D01*
X00226605Y00601887D01*
X00226901Y00601859D01*
X00227212Y00601802D01*
X00227508Y00601718D01*
X00227635Y00601676D01*
X00227761Y00601619D01*
X00227775D01*
X00227790Y00601605D01*
X00227860Y00601563D01*
X00227973Y00601507D01*
X00228100Y00601422D01*
X00228255Y00601309D01*
X00228396Y00601182D01*
X00228523Y00601027D01*
X00228636Y00600872D01*
X00228650Y00600844D01*
X00228678Y00600788D01*
X00228720Y00600661D01*
X00228734Y00600590D01*
X00228762Y00600491D01*
X00228790Y00600393D01*
X00228805Y00600266D01*
X00228833Y00600125D01*
X00228847Y00599970D01*
X00228861Y00599801D01*
X00228875Y00599618D01*
X00228889Y00599420D01*
Y00599195D01*
X00228861Y00597010D01*
Y00596995D01*
Y00596967D01*
Y00596925D01*
Y00596855D01*
Y00596685D01*
X00228875Y00596488D01*
Y00596262D01*
X00228903Y00596037D01*
X00228917Y00595811D01*
X00228946Y00595628D01*
Y00595614D01*
X00228960Y00595558D01*
X00228988Y00595459D01*
X00229016Y00595346D01*
X00229072Y00595205D01*
X00229129Y00595050D01*
X00229199Y00594881D01*
X00229284Y00594698D01*
X00227437D01*
Y00594712D01*
X00227423Y00594726D01*
X00227409Y00594782D01*
X00227381Y00594839D01*
X00227353Y00594909D01*
X00227324Y00595008D01*
X00227296Y00595121D01*
X00227254Y00595247D01*
Y00595261D01*
X00227240Y00595276D01*
X00227226Y00595332D01*
X00227198Y00595402D01*
X00227183Y00595459D01*
X00227155Y00595445D01*
X00227099Y00595388D01*
X00227000Y00595304D01*
X00226873Y00595205D01*
X00226718Y00595092D01*
X00226549Y00594966D01*
X00226352Y00594867D01*
X00226154Y00594768D01*
X00226126Y00594754D01*
X00226056Y00594740D01*
X00225943Y00594698D01*
X00225802Y00594655D01*
X00225633Y00594613D01*
X00225435Y00594585D01*
X00225210Y00594557D01*
X00224984Y00594543D01*
X00224886D01*
X00224801Y00594557D01*
X00224716D01*
X00224604Y00594571D01*
X00224364Y00594613D01*
X00224082Y00594683D01*
X00223800Y00594782D01*
X00223518Y00594923D01*
X00223265Y00595121D01*
Y00595135D01*
X00223236Y00595149D01*
X00223166Y00595233D01*
X00223067Y00595360D01*
X00222954Y00595529D01*
X00222842Y00595741D01*
X00222743Y00595994D01*
X00222672Y00596291D01*
X00222658Y00596446D01*
X00222644Y00596615D01*
Y00596643D01*
Y00596713D01*
X00222658Y00596826D01*
X00222687Y00596967D01*
X00222715Y00597136D01*
X00222757Y00597306D01*
X00222827Y00597489D01*
X00222926Y00597672D01*
X00222940Y00597700D01*
X00222983Y00597757D01*
X00223039Y00597841D01*
X00223138Y00597940D01*
X00223236Y00598053D01*
X00223377Y00598180D01*
X00223532Y00598292D01*
X00223716Y00598391D01*
X00223744Y00598405D01*
X00223814Y00598433D01*
X00223927Y00598476D01*
X00224096Y00598546D01*
X00224308Y00598617D01*
X00224561Y00598687D01*
X00224872Y00598758D01*
X00225210Y00598828D01*
X00225224D01*
X00225266Y00598842D01*
X00225337Y00598856D01*
X00225421Y00598870D01*
X00225534Y00598884D01*
X00225661Y00598913D01*
X00225943Y00598983D01*
X00226239Y00599054D01*
X00226549Y00599124D01*
X00226817Y00599209D01*
X00226944Y00599251D01*
X00227043Y00599293D01*
Y00599477D01*
Y00599505D01*
Y00599561D01*
X00227028Y00599660D01*
X00227014Y00599787D01*
X00226972Y00599913D01*
X00226930Y00600040D01*
X00226859Y00600153D01*
X00226761Y00600252D01*
X00226747Y00600266D01*
X00226704Y00600294D01*
X00226634Y00600322D01*
X00226535Y00600379D01*
X00226394Y00600421D01*
X00226225Y00600449D01*
X00226013Y00600477D01*
X00225760Y00600491D01*
X00225675D01*
X00225590Y00600477D01*
X00225478Y00600463D01*
X00225351Y00600435D01*
X00225210Y00600407D01*
X00225083Y00600350D01*
X00224970Y00600280D01*
X00224956Y00600266D01*
X00224928Y00600238D01*
X00224872Y00600195D01*
X00224815Y00600125D01*
X00224731Y00600026D01*
X00224660Y00599899D01*
X00224590Y00599758D01*
X00224519Y00599589D01*
X00222842Y00599899D01*
Y00599913D01*
X00222856Y00599942D01*
X00222870Y00599998D01*
X00222898Y00600069D01*
X00222926Y00600153D01*
X00222969Y00600252D01*
X00223067Y00600477D01*
X00223208Y00600717D01*
X00223377Y00600971D01*
X00223575Y00601210D01*
X00223814Y00601422D01*
X00223828D01*
X00223843Y00601450D01*
X00223885Y00601464D01*
X00223941Y00601507D01*
X00224026Y00601535D01*
X00224110Y00601577D01*
X00224223Y00601633D01*
X00224336Y00601676D01*
X00224477Y00601718D01*
X00224632Y00601774D01*
X00224801Y00601817D01*
X00224998Y00601845D01*
X00225196Y00601887D01*
X00225421Y00601901D01*
X00225647Y00601929D01*
X00226112D01*
X00226211Y00601915D01*
D02*
G37*
G36*
X00188938Y00602803D02*
X00184216D01*
Y00600491D01*
X00188290D01*
Y00598842D01*
X00184216D01*
Y00594698D01*
X00182242D01*
Y00604453D01*
X00188938D01*
Y00602803D01*
D02*
G37*
G36*
X00494322Y00601915D02*
X00494449Y00601901D01*
X00494604Y00601873D01*
X00494773Y00601845D01*
X00494956Y00601803D01*
X00495153Y00601746D01*
X00495351Y00601676D01*
X00495562Y00601591D01*
X00495774Y00601478D01*
X00495971Y00601366D01*
X00496168Y00601225D01*
X00496366Y00601055D01*
X00496535Y00600872D01*
X00496549Y00600858D01*
X00496577Y00600830D01*
X00496619Y00600759D01*
X00496676Y00600675D01*
X00496746Y00600562D01*
X00496817Y00600435D01*
X00496901Y00600266D01*
X00496986Y00600083D01*
X00497071Y00599871D01*
X00497155Y00599632D01*
X00497226Y00599378D01*
X00497296Y00599082D01*
X00497352Y00598772D01*
X00497395Y00598433D01*
X00497423Y00598081D01*
Y00597686D01*
X00492743D01*
Y00597672D01*
Y00597644D01*
Y00597602D01*
X00492757Y00597545D01*
X00492771Y00597404D01*
X00492799Y00597207D01*
X00492855Y00597010D01*
X00492940Y00596784D01*
X00493039Y00596573D01*
X00493180Y00596389D01*
X00493194Y00596375D01*
X00493264Y00596319D01*
X00493349Y00596248D01*
X00493476Y00596164D01*
X00493631Y00596079D01*
X00493828Y00596009D01*
X00494040Y00595952D01*
X00494265Y00595938D01*
X00494336D01*
X00494420Y00595952D01*
X00494519Y00595966D01*
X00494632Y00595995D01*
X00494759Y00596037D01*
X00494885Y00596093D01*
X00494998Y00596178D01*
X00495012Y00596192D01*
X00495055Y00596220D01*
X00495111Y00596277D01*
X00495167Y00596361D01*
X00495252Y00596474D01*
X00495322Y00596601D01*
X00495393Y00596770D01*
X00495463Y00596953D01*
X00497324Y00596643D01*
Y00596629D01*
X00497310Y00596601D01*
X00497282Y00596544D01*
X00497254Y00596474D01*
X00497211Y00596389D01*
X00497169Y00596291D01*
X00497042Y00596065D01*
X00496887Y00595811D01*
X00496690Y00595544D01*
X00496450Y00595304D01*
X00496182Y00595078D01*
X00496168D01*
X00496154Y00595050D01*
X00496098Y00595036D01*
X00496041Y00594994D01*
X00495971Y00594951D01*
X00495872Y00594909D01*
X00495774Y00594867D01*
X00495647Y00594810D01*
X00495365Y00594712D01*
X00495041Y00594627D01*
X00494660Y00594571D01*
X00494251Y00594543D01*
X00494167D01*
X00494082Y00594557D01*
X00493955D01*
X00493800Y00594585D01*
X00493617Y00594613D01*
X00493419Y00594641D01*
X00493222Y00594698D01*
X00492996Y00594754D01*
X00492771Y00594839D01*
X00492545Y00594937D01*
X00492320Y00595050D01*
X00492094Y00595191D01*
X00491883Y00595346D01*
X00491700Y00595529D01*
X00491516Y00595741D01*
X00491502Y00595755D01*
X00491488Y00595783D01*
X00491460Y00595840D01*
X00491404Y00595910D01*
X00491361Y00596009D01*
X00491305Y00596121D01*
X00491234Y00596248D01*
X00491178Y00596403D01*
X00491107Y00596573D01*
X00491051Y00596756D01*
X00490981Y00596953D01*
X00490938Y00597179D01*
X00490896Y00597404D01*
X00490854Y00597644D01*
X00490840Y00597912D01*
X00490826Y00598180D01*
Y00598194D01*
Y00598250D01*
Y00598349D01*
X00490840Y00598476D01*
X00490854Y00598617D01*
X00490868Y00598786D01*
X00490896Y00598969D01*
X00490938Y00599180D01*
X00491051Y00599618D01*
X00491122Y00599843D01*
X00491206Y00600083D01*
X00491319Y00600308D01*
X00491446Y00600520D01*
X00491587Y00600731D01*
X00491742Y00600928D01*
X00491756Y00600943D01*
X00491784Y00600971D01*
X00491841Y00601027D01*
X00491911Y00601084D01*
X00491996Y00601154D01*
X00492108Y00601239D01*
X00492235Y00601337D01*
X00492376Y00601436D01*
X00492531Y00601521D01*
X00492715Y00601619D01*
X00492898Y00601704D01*
X00493109Y00601774D01*
X00493321Y00601831D01*
X00493560Y00601887D01*
X00493800Y00601915D01*
X00494054Y00601929D01*
X00494209D01*
X00494322Y00601915D01*
D02*
G37*
G36*
X00467777D02*
X00467904Y00601901D01*
X00468059Y00601873D01*
X00468228Y00601845D01*
X00468411Y00601803D01*
X00468609Y00601746D01*
X00468806Y00601676D01*
X00469017Y00601591D01*
X00469229Y00601478D01*
X00469426Y00601366D01*
X00469624Y00601225D01*
X00469821Y00601055D01*
X00469990Y00600872D01*
X00470004Y00600858D01*
X00470033Y00600830D01*
X00470075Y00600759D01*
X00470131Y00600675D01*
X00470202Y00600562D01*
X00470272Y00600435D01*
X00470357Y00600266D01*
X00470441Y00600083D01*
X00470526Y00599871D01*
X00470611Y00599632D01*
X00470681Y00599378D01*
X00470751Y00599082D01*
X00470808Y00598772D01*
X00470850Y00598433D01*
X00470878Y00598081D01*
Y00597686D01*
X00466198D01*
Y00597672D01*
Y00597644D01*
Y00597602D01*
X00466212Y00597545D01*
X00466226Y00597404D01*
X00466255Y00597207D01*
X00466311Y00597010D01*
X00466395Y00596784D01*
X00466494Y00596573D01*
X00466635Y00596389D01*
X00466649Y00596375D01*
X00466720Y00596319D01*
X00466804Y00596248D01*
X00466931Y00596164D01*
X00467086Y00596079D01*
X00467284Y00596009D01*
X00467495Y00595952D01*
X00467721Y00595938D01*
X00467791D01*
X00467876Y00595952D01*
X00467974Y00595966D01*
X00468087Y00595995D01*
X00468214Y00596037D01*
X00468341Y00596093D01*
X00468454Y00596178D01*
X00468468Y00596192D01*
X00468510Y00596220D01*
X00468566Y00596277D01*
X00468623Y00596361D01*
X00468707Y00596474D01*
X00468778Y00596601D01*
X00468848Y00596770D01*
X00468919Y00596953D01*
X00470780Y00596643D01*
Y00596629D01*
X00470765Y00596601D01*
X00470737Y00596544D01*
X00470709Y00596474D01*
X00470667Y00596389D01*
X00470625Y00596291D01*
X00470498Y00596065D01*
X00470343Y00595811D01*
X00470145Y00595544D01*
X00469906Y00595304D01*
X00469638Y00595078D01*
X00469624D01*
X00469610Y00595050D01*
X00469553Y00595036D01*
X00469497Y00594994D01*
X00469426Y00594951D01*
X00469328Y00594909D01*
X00469229Y00594867D01*
X00469102Y00594810D01*
X00468820Y00594712D01*
X00468496Y00594627D01*
X00468115Y00594571D01*
X00467706Y00594543D01*
X00467622D01*
X00467537Y00594557D01*
X00467410D01*
X00467255Y00594585D01*
X00467072Y00594613D01*
X00466875Y00594641D01*
X00466677Y00594698D01*
X00466452Y00594754D01*
X00466226Y00594839D01*
X00466001Y00594937D01*
X00465775Y00595050D01*
X00465550Y00595191D01*
X00465338Y00595346D01*
X00465155Y00595529D01*
X00464972Y00595741D01*
X00464958Y00595755D01*
X00464944Y00595783D01*
X00464915Y00595840D01*
X00464859Y00595910D01*
X00464817Y00596009D01*
X00464760Y00596121D01*
X00464690Y00596248D01*
X00464633Y00596403D01*
X00464563Y00596573D01*
X00464506Y00596756D01*
X00464436Y00596953D01*
X00464394Y00597179D01*
X00464351Y00597404D01*
X00464309Y00597644D01*
X00464295Y00597912D01*
X00464281Y00598180D01*
Y00598194D01*
Y00598250D01*
Y00598349D01*
X00464295Y00598476D01*
X00464309Y00598617D01*
X00464323Y00598786D01*
X00464351Y00598969D01*
X00464394Y00599180D01*
X00464506Y00599618D01*
X00464577Y00599843D01*
X00464661Y00600083D01*
X00464774Y00600308D01*
X00464901Y00600520D01*
X00465042Y00600731D01*
X00465197Y00600928D01*
X00465211Y00600943D01*
X00465239Y00600971D01*
X00465296Y00601027D01*
X00465366Y00601084D01*
X00465451Y00601154D01*
X00465564Y00601239D01*
X00465691Y00601337D01*
X00465832Y00601436D01*
X00465987Y00601521D01*
X00466170Y00601619D01*
X00466353Y00601704D01*
X00466565Y00601774D01*
X00466776Y00601831D01*
X00467016Y00601887D01*
X00467255Y00601915D01*
X00467509Y00601929D01*
X00467664D01*
X00467777Y00601915D01*
D02*
G37*
G36*
X00445574D02*
X00445715Y00601901D01*
X00445870Y00601873D01*
X00446054Y00601845D01*
X00446237Y00601803D01*
X00446448Y00601746D01*
X00446660Y00601676D01*
X00446871Y00601591D01*
X00447097Y00601492D01*
X00447322Y00601366D01*
X00447534Y00601225D01*
X00447745Y00601069D01*
X00447943Y00600886D01*
X00447957Y00600872D01*
X00447985Y00600844D01*
X00448041Y00600774D01*
X00448098Y00600703D01*
X00448182Y00600590D01*
X00448267Y00600477D01*
X00448365Y00600322D01*
X00448464Y00600167D01*
X00448549Y00599984D01*
X00448647Y00599787D01*
X00448732Y00599561D01*
X00448816Y00599336D01*
X00448873Y00599082D01*
X00448929Y00598828D01*
X00448957Y00598546D01*
X00448972Y00598250D01*
Y00598236D01*
Y00598180D01*
Y00598095D01*
X00448957Y00597982D01*
X00448943Y00597841D01*
X00448915Y00597686D01*
X00448887Y00597503D01*
X00448845Y00597320D01*
X00448788Y00597108D01*
X00448718Y00596897D01*
X00448633Y00596671D01*
X00448535Y00596446D01*
X00448408Y00596220D01*
X00448267Y00596009D01*
X00448112Y00595797D01*
X00447928Y00595586D01*
X00447914Y00595572D01*
X00447886Y00595544D01*
X00447830Y00595487D01*
X00447745Y00595417D01*
X00447646Y00595346D01*
X00447520Y00595261D01*
X00447379Y00595163D01*
X00447224Y00595064D01*
X00447040Y00594966D01*
X00446843Y00594867D01*
X00446632Y00594782D01*
X00446392Y00594712D01*
X00446152Y00594641D01*
X00445884Y00594585D01*
X00445616Y00594557D01*
X00445320Y00594543D01*
X00445222D01*
X00445151Y00594557D01*
X00445067D01*
X00444968Y00594571D01*
X00444728Y00594599D01*
X00444432Y00594655D01*
X00444122Y00594726D01*
X00443798Y00594839D01*
X00443460Y00594980D01*
X00443446D01*
X00443417Y00594994D01*
X00443375Y00595022D01*
X00443319Y00595064D01*
X00443164Y00595163D01*
X00442966Y00595304D01*
X00442755Y00595487D01*
X00442529Y00595713D01*
X00442318Y00595966D01*
X00442120Y00596262D01*
Y00596277D01*
X00442106Y00596305D01*
X00442078Y00596347D01*
X00442050Y00596418D01*
X00442022Y00596502D01*
X00441979Y00596601D01*
X00441937Y00596713D01*
X00441895Y00596840D01*
X00441853Y00596981D01*
X00441810Y00597136D01*
X00441740Y00597489D01*
X00441683Y00597898D01*
X00441669Y00598335D01*
Y00598349D01*
Y00598377D01*
Y00598433D01*
X00441683Y00598490D01*
Y00598574D01*
X00441698Y00598673D01*
X00441726Y00598913D01*
X00441782Y00599180D01*
X00441867Y00599477D01*
X00441965Y00599801D01*
X00442120Y00600125D01*
Y00600139D01*
X00442149Y00600167D01*
X00442163Y00600210D01*
X00442205Y00600266D01*
X00442318Y00600421D01*
X00442459Y00600618D01*
X00442642Y00600830D01*
X00442868Y00601055D01*
X00443121Y00601267D01*
X00443417Y00601464D01*
X00443431D01*
X00443460Y00601478D01*
X00443502Y00601507D01*
X00443572Y00601535D01*
X00443643Y00601577D01*
X00443742Y00601605D01*
X00443854Y00601647D01*
X00443967Y00601704D01*
X00444249Y00601788D01*
X00444573Y00601859D01*
X00444926Y00601915D01*
X00445306Y00601929D01*
X00445461D01*
X00445574Y00601915D01*
D02*
G37*
G36*
X00420806D02*
X00420933Y00601901D01*
X00421088Y00601873D01*
X00421257Y00601845D01*
X00421440Y00601803D01*
X00421637Y00601746D01*
X00421835Y00601676D01*
X00422046Y00601591D01*
X00422258Y00601478D01*
X00422455Y00601366D01*
X00422653Y00601225D01*
X00422850Y00601055D01*
X00423019Y00600872D01*
X00423033Y00600858D01*
X00423061Y00600830D01*
X00423104Y00600759D01*
X00423160Y00600675D01*
X00423230Y00600562D01*
X00423301Y00600435D01*
X00423386Y00600266D01*
X00423470Y00600083D01*
X00423555Y00599871D01*
X00423639Y00599632D01*
X00423710Y00599378D01*
X00423780Y00599082D01*
X00423837Y00598772D01*
X00423879Y00598433D01*
X00423907Y00598081D01*
Y00597686D01*
X00419227D01*
Y00597672D01*
Y00597644D01*
Y00597602D01*
X00419241Y00597545D01*
X00419255Y00597404D01*
X00419283Y00597207D01*
X00419340Y00597010D01*
X00419424Y00596784D01*
X00419523Y00596573D01*
X00419664Y00596389D01*
X00419678Y00596375D01*
X00419748Y00596319D01*
X00419833Y00596248D01*
X00419960Y00596164D01*
X00420115Y00596079D01*
X00420312Y00596009D01*
X00420524Y00595952D01*
X00420749Y00595938D01*
X00420820D01*
X00420904Y00595952D01*
X00421003Y00595966D01*
X00421116Y00595995D01*
X00421243Y00596037D01*
X00421370Y00596093D01*
X00421482Y00596178D01*
X00421497Y00596192D01*
X00421539Y00596220D01*
X00421595Y00596277D01*
X00421652Y00596361D01*
X00421736Y00596474D01*
X00421807Y00596601D01*
X00421877Y00596770D01*
X00421948Y00596953D01*
X00423808Y00596643D01*
Y00596629D01*
X00423794Y00596601D01*
X00423766Y00596544D01*
X00423738Y00596474D01*
X00423696Y00596389D01*
X00423653Y00596291D01*
X00423526Y00596065D01*
X00423371Y00595811D01*
X00423174Y00595544D01*
X00422934Y00595304D01*
X00422667Y00595078D01*
X00422653D01*
X00422638Y00595050D01*
X00422582Y00595036D01*
X00422526Y00594994D01*
X00422455Y00594951D01*
X00422356Y00594909D01*
X00422258Y00594867D01*
X00422131Y00594810D01*
X00421849Y00594712D01*
X00421525Y00594627D01*
X00421144Y00594571D01*
X00420735Y00594543D01*
X00420651D01*
X00420566Y00594557D01*
X00420439D01*
X00420284Y00594585D01*
X00420101Y00594613D01*
X00419904Y00594641D01*
X00419706Y00594698D01*
X00419481Y00594754D01*
X00419255Y00594839D01*
X00419030Y00594937D01*
X00418804Y00595050D01*
X00418578Y00595191D01*
X00418367Y00595346D01*
X00418184Y00595529D01*
X00418000Y00595741D01*
X00417986Y00595755D01*
X00417972Y00595783D01*
X00417944Y00595840D01*
X00417888Y00595910D01*
X00417845Y00596009D01*
X00417789Y00596121D01*
X00417719Y00596248D01*
X00417662Y00596403D01*
X00417592Y00596573D01*
X00417535Y00596756D01*
X00417465Y00596953D01*
X00417422Y00597179D01*
X00417380Y00597404D01*
X00417338Y00597644D01*
X00417324Y00597912D01*
X00417310Y00598180D01*
Y00598194D01*
Y00598250D01*
Y00598349D01*
X00417324Y00598476D01*
X00417338Y00598617D01*
X00417352Y00598786D01*
X00417380Y00598969D01*
X00417422Y00599180D01*
X00417535Y00599618D01*
X00417606Y00599843D01*
X00417690Y00600083D01*
X00417803Y00600308D01*
X00417930Y00600520D01*
X00418071Y00600731D01*
X00418226Y00600928D01*
X00418240Y00600943D01*
X00418268Y00600971D01*
X00418325Y00601027D01*
X00418395Y00601084D01*
X00418480Y00601154D01*
X00418592Y00601239D01*
X00418719Y00601337D01*
X00418860Y00601436D01*
X00419015Y00601521D01*
X00419199Y00601619D01*
X00419382Y00601704D01*
X00419593Y00601774D01*
X00419805Y00601831D01*
X00420045Y00601887D01*
X00420284Y00601915D01*
X00420538Y00601929D01*
X00420693D01*
X00420806Y00601915D01*
D02*
G37*
G36*
X00405412D02*
X00405553Y00601901D01*
X00405708Y00601873D01*
X00405891Y00601845D01*
X00406074Y00601803D01*
X00406286Y00601746D01*
X00406497Y00601676D01*
X00406709Y00601591D01*
X00406934Y00601492D01*
X00407160Y00601366D01*
X00407371Y00601225D01*
X00407583Y00601069D01*
X00407780Y00600886D01*
X00407794Y00600872D01*
X00407822Y00600844D01*
X00407879Y00600774D01*
X00407935Y00600703D01*
X00408020Y00600590D01*
X00408104Y00600477D01*
X00408203Y00600322D01*
X00408302Y00600167D01*
X00408386Y00599984D01*
X00408485Y00599787D01*
X00408570Y00599561D01*
X00408654Y00599336D01*
X00408711Y00599082D01*
X00408767Y00598828D01*
X00408795Y00598546D01*
X00408809Y00598250D01*
Y00598236D01*
Y00598180D01*
Y00598095D01*
X00408795Y00597982D01*
X00408781Y00597841D01*
X00408753Y00597686D01*
X00408725Y00597503D01*
X00408682Y00597320D01*
X00408626Y00597108D01*
X00408555Y00596897D01*
X00408471Y00596671D01*
X00408372Y00596446D01*
X00408245Y00596220D01*
X00408104Y00596009D01*
X00407949Y00595797D01*
X00407766Y00595586D01*
X00407752Y00595572D01*
X00407724Y00595544D01*
X00407667Y00595487D01*
X00407583Y00595417D01*
X00407484Y00595346D01*
X00407357Y00595261D01*
X00407216Y00595163D01*
X00407061Y00595064D01*
X00406878Y00594966D01*
X00406681Y00594867D01*
X00406469Y00594782D01*
X00406230Y00594712D01*
X00405990Y00594641D01*
X00405722Y00594585D01*
X00405454Y00594557D01*
X00405158Y00594543D01*
X00405059D01*
X00404989Y00594557D01*
X00404904D01*
X00404806Y00594571D01*
X00404566Y00594599D01*
X00404270Y00594655D01*
X00403960Y00594726D01*
X00403636Y00594839D01*
X00403297Y00594980D01*
X00403283D01*
X00403255Y00594994D01*
X00403213Y00595022D01*
X00403156Y00595064D01*
X00403001Y00595163D01*
X00402804Y00595304D01*
X00402592Y00595487D01*
X00402367Y00595713D01*
X00402155Y00595966D01*
X00401958Y00596262D01*
Y00596277D01*
X00401944Y00596305D01*
X00401916Y00596347D01*
X00401888Y00596418D01*
X00401859Y00596502D01*
X00401817Y00596601D01*
X00401775Y00596713D01*
X00401732Y00596840D01*
X00401690Y00596981D01*
X00401648Y00597136D01*
X00401577Y00597489D01*
X00401521Y00597898D01*
X00401507Y00598335D01*
Y00598349D01*
Y00598377D01*
Y00598433D01*
X00401521Y00598490D01*
Y00598574D01*
X00401535Y00598673D01*
X00401563Y00598913D01*
X00401620Y00599180D01*
X00401704Y00599477D01*
X00401803Y00599801D01*
X00401958Y00600125D01*
Y00600139D01*
X00401986Y00600167D01*
X00402000Y00600210D01*
X00402043Y00600266D01*
X00402155Y00600421D01*
X00402296Y00600618D01*
X00402480Y00600830D01*
X00402705Y00601055D01*
X00402959Y00601267D01*
X00403255Y00601464D01*
X00403269D01*
X00403297Y00601478D01*
X00403340Y00601507D01*
X00403410Y00601535D01*
X00403480Y00601577D01*
X00403579Y00601605D01*
X00403692Y00601647D01*
X00403805Y00601704D01*
X00404087Y00601788D01*
X00404411Y00601859D01*
X00404763Y00601915D01*
X00405144Y00601929D01*
X00405299D01*
X00405412Y00601915D01*
D02*
G37*
G36*
X00334222Y00601774D02*
X00335505D01*
Y00600280D01*
X00334222D01*
Y00597418D01*
Y00597404D01*
Y00597376D01*
Y00597334D01*
Y00597277D01*
Y00597136D01*
Y00596967D01*
X00334236Y00596798D01*
Y00596629D01*
Y00596502D01*
X00334250Y00596446D01*
Y00596418D01*
X00334264Y00596389D01*
X00334292Y00596333D01*
X00334335Y00596262D01*
X00334419Y00596178D01*
X00334448Y00596164D01*
X00334504Y00596135D01*
X00334603Y00596107D01*
X00334729Y00596093D01*
X00334786D01*
X00334842Y00596107D01*
X00334927Y00596121D01*
X00335040Y00596135D01*
X00335167Y00596164D01*
X00335322Y00596206D01*
X00335491Y00596262D01*
X00335660Y00594810D01*
X00335646D01*
X00335632Y00594796D01*
X00335547Y00594768D01*
X00335406Y00594726D01*
X00335223Y00594683D01*
X00335011Y00594627D01*
X00334758Y00594585D01*
X00334476Y00594557D01*
X00334180Y00594543D01*
X00334095D01*
X00333996Y00594557D01*
X00333870Y00594571D01*
X00333729Y00594585D01*
X00333573Y00594613D01*
X00333419Y00594655D01*
X00333263Y00594712D01*
X00333249Y00594726D01*
X00333193Y00594740D01*
X00333122Y00594782D01*
X00333038Y00594824D01*
X00332840Y00594966D01*
X00332742Y00595050D01*
X00332657Y00595149D01*
X00332643Y00595163D01*
X00332629Y00595205D01*
X00332601Y00595261D01*
X00332559Y00595346D01*
X00332516Y00595445D01*
X00332474Y00595572D01*
X00332432Y00595713D01*
X00332403Y00595868D01*
Y00595882D01*
X00332389Y00595938D01*
Y00596023D01*
X00332375Y00596164D01*
X00332361Y00596347D01*
Y00596572D01*
X00332347Y00596699D01*
Y00596855D01*
Y00597010D01*
Y00597193D01*
Y00600280D01*
X00331487D01*
Y00601774D01*
X00332347D01*
Y00603184D01*
X00334222Y00604284D01*
Y00601774D01*
D02*
G37*
G36*
X00327399Y00601915D02*
X00327540Y00601901D01*
X00327695Y00601873D01*
X00327878Y00601845D01*
X00328062Y00601802D01*
X00328273Y00601746D01*
X00328484Y00601676D01*
X00328696Y00601591D01*
X00328922Y00601492D01*
X00329147Y00601366D01*
X00329358Y00601225D01*
X00329570Y00601069D01*
X00329767Y00600886D01*
X00329781Y00600872D01*
X00329810Y00600844D01*
X00329866Y00600773D01*
X00329922Y00600703D01*
X00330007Y00600590D01*
X00330092Y00600477D01*
X00330190Y00600322D01*
X00330289Y00600167D01*
X00330373Y00599984D01*
X00330472Y00599787D01*
X00330557Y00599561D01*
X00330641Y00599336D01*
X00330698Y00599082D01*
X00330754Y00598828D01*
X00330782Y00598546D01*
X00330796Y00598250D01*
Y00598236D01*
Y00598180D01*
Y00598095D01*
X00330782Y00597982D01*
X00330768Y00597841D01*
X00330740Y00597686D01*
X00330712Y00597503D01*
X00330670Y00597320D01*
X00330613Y00597108D01*
X00330543Y00596897D01*
X00330458Y00596671D01*
X00330359Y00596446D01*
X00330233Y00596220D01*
X00330092Y00596009D01*
X00329936Y00595797D01*
X00329753Y00595586D01*
X00329739Y00595572D01*
X00329711Y00595544D01*
X00329655Y00595487D01*
X00329570Y00595417D01*
X00329471Y00595346D01*
X00329344Y00595261D01*
X00329203Y00595163D01*
X00329048Y00595064D01*
X00328865Y00594966D01*
X00328668Y00594867D01*
X00328456Y00594782D01*
X00328217Y00594712D01*
X00327977Y00594641D01*
X00327709Y00594585D01*
X00327441Y00594557D01*
X00327145Y00594543D01*
X00327047D01*
X00326976Y00594557D01*
X00326892D01*
X00326793Y00594571D01*
X00326553Y00594599D01*
X00326257Y00594655D01*
X00325947Y00594726D01*
X00325623Y00594839D01*
X00325285Y00594980D01*
X00325270D01*
X00325242Y00594994D01*
X00325200Y00595022D01*
X00325144Y00595064D01*
X00324989Y00595163D01*
X00324791Y00595304D01*
X00324580Y00595487D01*
X00324354Y00595713D01*
X00324143Y00595966D01*
X00323945Y00596262D01*
Y00596277D01*
X00323931Y00596305D01*
X00323903Y00596347D01*
X00323875Y00596418D01*
X00323847Y00596502D01*
X00323804Y00596601D01*
X00323762Y00596713D01*
X00323720Y00596840D01*
X00323677Y00596981D01*
X00323635Y00597136D01*
X00323565Y00597489D01*
X00323508Y00597898D01*
X00323494Y00598335D01*
Y00598349D01*
Y00598377D01*
Y00598433D01*
X00323508Y00598490D01*
Y00598574D01*
X00323522Y00598673D01*
X00323551Y00598913D01*
X00323607Y00599180D01*
X00323691Y00599477D01*
X00323790Y00599801D01*
X00323945Y00600125D01*
Y00600139D01*
X00323974Y00600167D01*
X00323988Y00600210D01*
X00324030Y00600266D01*
X00324143Y00600421D01*
X00324284Y00600618D01*
X00324467Y00600830D01*
X00324692Y00601055D01*
X00324946Y00601267D01*
X00325242Y00601464D01*
X00325256D01*
X00325285Y00601478D01*
X00325327Y00601507D01*
X00325397Y00601535D01*
X00325468Y00601577D01*
X00325566Y00601605D01*
X00325679Y00601647D01*
X00325792Y00601704D01*
X00326074Y00601788D01*
X00326398Y00601859D01*
X00326751Y00601915D01*
X00327131Y00601929D01*
X00327286D01*
X00327399Y00601915D01*
D02*
G37*
G36*
X00282698D02*
X00282838Y00601901D01*
X00282994Y00601873D01*
X00283177Y00601845D01*
X00283360Y00601802D01*
X00283571Y00601746D01*
X00283783Y00601676D01*
X00283994Y00601591D01*
X00284220Y00601492D01*
X00284445Y00601366D01*
X00284657Y00601225D01*
X00284868Y00601069D01*
X00285066Y00600886D01*
X00285080Y00600872D01*
X00285108Y00600844D01*
X00285164Y00600773D01*
X00285221Y00600703D01*
X00285305Y00600590D01*
X00285390Y00600477D01*
X00285489Y00600322D01*
X00285587Y00600167D01*
X00285672Y00599984D01*
X00285771Y00599787D01*
X00285855Y00599561D01*
X00285940Y00599336D01*
X00285996Y00599082D01*
X00286052Y00598828D01*
X00286081Y00598546D01*
X00286095Y00598250D01*
Y00598236D01*
Y00598180D01*
Y00598095D01*
X00286081Y00597982D01*
X00286067Y00597841D01*
X00286038Y00597686D01*
X00286010Y00597503D01*
X00285968Y00597320D01*
X00285912Y00597108D01*
X00285841Y00596897D01*
X00285756Y00596671D01*
X00285658Y00596446D01*
X00285531Y00596220D01*
X00285390Y00596009D01*
X00285235Y00595797D01*
X00285052Y00595586D01*
X00285038Y00595572D01*
X00285009Y00595544D01*
X00284953Y00595487D01*
X00284868Y00595417D01*
X00284770Y00595346D01*
X00284643Y00595261D01*
X00284502Y00595163D01*
X00284347Y00595064D01*
X00284163Y00594966D01*
X00283966Y00594867D01*
X00283755Y00594782D01*
X00283515Y00594712D01*
X00283275Y00594641D01*
X00283008Y00594585D01*
X00282740Y00594557D01*
X00282444Y00594543D01*
X00282345D01*
X00282274Y00594557D01*
X00282190D01*
X00282091Y00594571D01*
X00281852Y00594599D01*
X00281556Y00594655D01*
X00281245Y00594726D01*
X00280921Y00594839D01*
X00280583Y00594980D01*
X00280569D01*
X00280541Y00594994D01*
X00280498Y00595022D01*
X00280442Y00595064D01*
X00280287Y00595163D01*
X00280089Y00595304D01*
X00279878Y00595487D01*
X00279653Y00595713D01*
X00279441Y00595966D01*
X00279244Y00596262D01*
Y00596277D01*
X00279230Y00596305D01*
X00279201Y00596347D01*
X00279173Y00596418D01*
X00279145Y00596502D01*
X00279103Y00596601D01*
X00279060Y00596713D01*
X00279018Y00596840D01*
X00278976Y00596981D01*
X00278934Y00597136D01*
X00278863Y00597489D01*
X00278807Y00597898D01*
X00278793Y00598335D01*
Y00598349D01*
Y00598377D01*
Y00598433D01*
X00278807Y00598490D01*
Y00598574D01*
X00278821Y00598673D01*
X00278849Y00598913D01*
X00278905Y00599180D01*
X00278990Y00599477D01*
X00279089Y00599801D01*
X00279244Y00600125D01*
Y00600139D01*
X00279272Y00600167D01*
X00279286Y00600210D01*
X00279328Y00600266D01*
X00279441Y00600421D01*
X00279582Y00600618D01*
X00279765Y00600830D01*
X00279991Y00601055D01*
X00280245Y00601267D01*
X00280541Y00601464D01*
X00280555D01*
X00280583Y00601478D01*
X00280625Y00601507D01*
X00280696Y00601535D01*
X00280766Y00601577D01*
X00280865Y00601605D01*
X00280978Y00601647D01*
X00281090Y00601704D01*
X00281372Y00601788D01*
X00281697Y00601859D01*
X00282049Y00601915D01*
X00282430Y00601929D01*
X00282585D01*
X00282698Y00601915D01*
D02*
G37*
G36*
X00262243D02*
X00262384Y00601901D01*
X00262539Y00601873D01*
X00262722Y00601845D01*
X00262905Y00601802D01*
X00263117Y00601746D01*
X00263328Y00601676D01*
X00263540Y00601591D01*
X00263765Y00601492D01*
X00263991Y00601366D01*
X00264202Y00601225D01*
X00264414Y00601069D01*
X00264611Y00600886D01*
X00264625Y00600872D01*
X00264653Y00600844D01*
X00264710Y00600773D01*
X00264766Y00600703D01*
X00264851Y00600590D01*
X00264935Y00600477D01*
X00265034Y00600322D01*
X00265133Y00600167D01*
X00265217Y00599984D01*
X00265316Y00599787D01*
X00265400Y00599561D01*
X00265485Y00599336D01*
X00265541Y00599082D01*
X00265598Y00598828D01*
X00265626Y00598546D01*
X00265640Y00598250D01*
Y00598236D01*
Y00598180D01*
Y00598095D01*
X00265626Y00597982D01*
X00265612Y00597841D01*
X00265584Y00597686D01*
X00265555Y00597503D01*
X00265513Y00597320D01*
X00265457Y00597108D01*
X00265386Y00596897D01*
X00265302Y00596671D01*
X00265203Y00596446D01*
X00265076Y00596220D01*
X00264935Y00596009D01*
X00264780Y00595797D01*
X00264597Y00595586D01*
X00264583Y00595572D01*
X00264555Y00595544D01*
X00264498Y00595487D01*
X00264414Y00595417D01*
X00264315Y00595346D01*
X00264188Y00595261D01*
X00264047Y00595163D01*
X00263892Y00595064D01*
X00263709Y00594966D01*
X00263511Y00594867D01*
X00263300Y00594782D01*
X00263060Y00594712D01*
X00262821Y00594641D01*
X00262553Y00594585D01*
X00262285Y00594557D01*
X00261989Y00594543D01*
X00261890D01*
X00261820Y00594557D01*
X00261735D01*
X00261637Y00594571D01*
X00261397Y00594599D01*
X00261101Y00594655D01*
X00260791Y00594726D01*
X00260466Y00594839D01*
X00260128Y00594980D01*
X00260114D01*
X00260086Y00594994D01*
X00260044Y00595022D01*
X00259987Y00595064D01*
X00259832Y00595163D01*
X00259635Y00595304D01*
X00259423Y00595487D01*
X00259198Y00595713D01*
X00258986Y00595966D01*
X00258789Y00596262D01*
Y00596277D01*
X00258775Y00596305D01*
X00258747Y00596347D01*
X00258718Y00596418D01*
X00258690Y00596502D01*
X00258648Y00596601D01*
X00258606Y00596713D01*
X00258563Y00596840D01*
X00258521Y00596981D01*
X00258479Y00597136D01*
X00258408Y00597489D01*
X00258352Y00597898D01*
X00258338Y00598335D01*
Y00598349D01*
Y00598377D01*
Y00598433D01*
X00258352Y00598490D01*
Y00598574D01*
X00258366Y00598673D01*
X00258394Y00598913D01*
X00258451Y00599180D01*
X00258535Y00599477D01*
X00258634Y00599801D01*
X00258789Y00600125D01*
Y00600139D01*
X00258817Y00600167D01*
X00258831Y00600210D01*
X00258874Y00600266D01*
X00258986Y00600421D01*
X00259127Y00600618D01*
X00259310Y00600830D01*
X00259536Y00601055D01*
X00259790Y00601267D01*
X00260086Y00601464D01*
X00260100D01*
X00260128Y00601478D01*
X00260170Y00601507D01*
X00260241Y00601535D01*
X00260311Y00601577D01*
X00260410Y00601605D01*
X00260523Y00601647D01*
X00260636Y00601704D01*
X00260918Y00601788D01*
X00261242Y00601859D01*
X00261594Y00601915D01*
X00261975Y00601929D01*
X00262130D01*
X00262243Y00601915D01*
D02*
G37*
G36*
X00252403Y00601774D02*
X00253686D01*
Y00600280D01*
X00252403D01*
Y00597418D01*
Y00597404D01*
Y00597376D01*
Y00597334D01*
Y00597277D01*
Y00597136D01*
Y00596967D01*
X00252417Y00596798D01*
Y00596629D01*
Y00596502D01*
X00252431Y00596446D01*
Y00596418D01*
X00252445Y00596389D01*
X00252474Y00596333D01*
X00252516Y00596262D01*
X00252600Y00596178D01*
X00252629Y00596164D01*
X00252685Y00596135D01*
X00252784Y00596107D01*
X00252910Y00596093D01*
X00252967D01*
X00253023Y00596107D01*
X00253108Y00596121D01*
X00253221Y00596135D01*
X00253347Y00596164D01*
X00253503Y00596206D01*
X00253672Y00596262D01*
X00253841Y00594810D01*
X00253827D01*
X00253813Y00594796D01*
X00253728Y00594768D01*
X00253587Y00594726D01*
X00253404Y00594683D01*
X00253192Y00594627D01*
X00252939Y00594585D01*
X00252657Y00594557D01*
X00252361Y00594543D01*
X00252276D01*
X00252177Y00594557D01*
X00252051Y00594571D01*
X00251910Y00594585D01*
X00251754Y00594613D01*
X00251600Y00594655D01*
X00251444Y00594712D01*
X00251430Y00594726D01*
X00251374Y00594740D01*
X00251303Y00594782D01*
X00251219Y00594824D01*
X00251021Y00594966D01*
X00250923Y00595050D01*
X00250838Y00595149D01*
X00250824Y00595163D01*
X00250810Y00595205D01*
X00250782Y00595261D01*
X00250740Y00595346D01*
X00250697Y00595445D01*
X00250655Y00595572D01*
X00250613Y00595713D01*
X00250585Y00595868D01*
Y00595882D01*
X00250570Y00595938D01*
Y00596023D01*
X00250556Y00596164D01*
X00250542Y00596347D01*
Y00596572D01*
X00250528Y00596699D01*
Y00596855D01*
Y00597010D01*
Y00597193D01*
Y00600280D01*
X00249668D01*
Y00601774D01*
X00250528D01*
Y00603184D01*
X00252403Y00604284D01*
Y00601774D01*
D02*
G37*
G36*
X00210930Y00601915D02*
X00211056Y00601901D01*
X00211212Y00601873D01*
X00211381Y00601845D01*
X00211564Y00601802D01*
X00211761Y00601746D01*
X00211959Y00601676D01*
X00212170Y00601591D01*
X00212382Y00601478D01*
X00212579Y00601366D01*
X00212776Y00601225D01*
X00212974Y00601055D01*
X00213143Y00600872D01*
X00213157Y00600858D01*
X00213185Y00600830D01*
X00213227Y00600759D01*
X00213284Y00600675D01*
X00213354Y00600562D01*
X00213425Y00600435D01*
X00213509Y00600266D01*
X00213594Y00600083D01*
X00213678Y00599871D01*
X00213763Y00599632D01*
X00213834Y00599378D01*
X00213904Y00599082D01*
X00213960Y00598772D01*
X00214003Y00598433D01*
X00214031Y00598081D01*
Y00597686D01*
X00209351D01*
Y00597672D01*
Y00597644D01*
Y00597602D01*
X00209365Y00597545D01*
X00209379Y00597404D01*
X00209407Y00597207D01*
X00209464Y00597010D01*
X00209548Y00596784D01*
X00209647Y00596572D01*
X00209788Y00596389D01*
X00209802Y00596375D01*
X00209872Y00596319D01*
X00209957Y00596248D01*
X00210084Y00596164D01*
X00210239Y00596079D01*
X00210436Y00596009D01*
X00210648Y00595952D01*
X00210873Y00595938D01*
X00210944D01*
X00211028Y00595952D01*
X00211127Y00595966D01*
X00211240Y00595994D01*
X00211367Y00596037D01*
X00211493Y00596093D01*
X00211606Y00596178D01*
X00211620Y00596192D01*
X00211663Y00596220D01*
X00211719Y00596277D01*
X00211775Y00596361D01*
X00211860Y00596474D01*
X00211931Y00596601D01*
X00212001Y00596770D01*
X00212071Y00596953D01*
X00213932Y00596643D01*
Y00596629D01*
X00213918Y00596601D01*
X00213890Y00596544D01*
X00213862Y00596474D01*
X00213820Y00596389D01*
X00213777Y00596291D01*
X00213650Y00596065D01*
X00213495Y00595811D01*
X00213298Y00595543D01*
X00213058Y00595304D01*
X00212790Y00595078D01*
X00212776D01*
X00212762Y00595050D01*
X00212706Y00595036D01*
X00212649Y00594994D01*
X00212579Y00594951D01*
X00212480Y00594909D01*
X00212382Y00594867D01*
X00212255Y00594810D01*
X00211973Y00594712D01*
X00211649Y00594627D01*
X00211268Y00594571D01*
X00210859Y00594543D01*
X00210775D01*
X00210690Y00594557D01*
X00210563D01*
X00210408Y00594585D01*
X00210225Y00594613D01*
X00210027Y00594641D01*
X00209830Y00594698D01*
X00209604Y00594754D01*
X00209379Y00594839D01*
X00209153Y00594937D01*
X00208928Y00595050D01*
X00208702Y00595191D01*
X00208491Y00595346D01*
X00208308Y00595529D01*
X00208124Y00595741D01*
X00208110Y00595755D01*
X00208096Y00595783D01*
X00208068Y00595840D01*
X00208011Y00595910D01*
X00207969Y00596009D01*
X00207913Y00596121D01*
X00207842Y00596248D01*
X00207786Y00596403D01*
X00207715Y00596572D01*
X00207659Y00596756D01*
X00207589Y00596953D01*
X00207546Y00597179D01*
X00207504Y00597404D01*
X00207462Y00597644D01*
X00207448Y00597912D01*
X00207434Y00598180D01*
Y00598194D01*
Y00598250D01*
Y00598349D01*
X00207448Y00598476D01*
X00207462Y00598617D01*
X00207476Y00598786D01*
X00207504Y00598969D01*
X00207546Y00599180D01*
X00207659Y00599618D01*
X00207730Y00599843D01*
X00207814Y00600083D01*
X00207927Y00600308D01*
X00208054Y00600520D01*
X00208195Y00600731D01*
X00208350Y00600928D01*
X00208364Y00600943D01*
X00208392Y00600971D01*
X00208449Y00601027D01*
X00208519Y00601084D01*
X00208604Y00601154D01*
X00208716Y00601239D01*
X00208843Y00601337D01*
X00208984Y00601436D01*
X00209139Y00601521D01*
X00209323Y00601619D01*
X00209506Y00601704D01*
X00209717Y00601774D01*
X00209929Y00601831D01*
X00210168Y00601887D01*
X00210408Y00601915D01*
X00210662Y00601929D01*
X00210817D01*
X00210930Y00601915D01*
D02*
G37*
G36*
X00194027D02*
X00194168Y00601901D01*
X00194323Y00601873D01*
X00194507Y00601845D01*
X00194690Y00601802D01*
X00194901Y00601746D01*
X00195113Y00601676D01*
X00195324Y00601591D01*
X00195550Y00601492D01*
X00195775Y00601366D01*
X00195987Y00601225D01*
X00196198Y00601069D01*
X00196396Y00600886D01*
X00196410Y00600872D01*
X00196438Y00600844D01*
X00196494Y00600773D01*
X00196551Y00600703D01*
X00196635Y00600590D01*
X00196720Y00600477D01*
X00196819Y00600322D01*
X00196917Y00600167D01*
X00197002Y00599984D01*
X00197101Y00599787D01*
X00197185Y00599561D01*
X00197270Y00599336D01*
X00197326Y00599082D01*
X00197382Y00598828D01*
X00197411Y00598546D01*
X00197425Y00598250D01*
Y00598236D01*
Y00598180D01*
Y00598095D01*
X00197411Y00597982D01*
X00197397Y00597841D01*
X00197368Y00597686D01*
X00197340Y00597503D01*
X00197298Y00597320D01*
X00197241Y00597108D01*
X00197171Y00596897D01*
X00197086Y00596671D01*
X00196988Y00596446D01*
X00196861Y00596220D01*
X00196720Y00596009D01*
X00196565Y00595797D01*
X00196381Y00595586D01*
X00196367Y00595572D01*
X00196339Y00595543D01*
X00196283Y00595487D01*
X00196198Y00595417D01*
X00196100Y00595346D01*
X00195973Y00595261D01*
X00195832Y00595163D01*
X00195677Y00595064D01*
X00195493Y00594966D01*
X00195296Y00594867D01*
X00195085Y00594782D01*
X00194845Y00594712D01*
X00194605Y00594641D01*
X00194338Y00594585D01*
X00194070Y00594557D01*
X00193774Y00594543D01*
X00193675D01*
X00193604Y00594557D01*
X00193520D01*
X00193421Y00594571D01*
X00193181Y00594599D01*
X00192885Y00594655D01*
X00192575Y00594726D01*
X00192251Y00594839D01*
X00191913Y00594980D01*
X00191899D01*
X00191870Y00594994D01*
X00191828Y00595022D01*
X00191772Y00595064D01*
X00191617Y00595163D01*
X00191419Y00595304D01*
X00191208Y00595487D01*
X00190982Y00595713D01*
X00190771Y00595966D01*
X00190574Y00596262D01*
Y00596277D01*
X00190560Y00596305D01*
X00190531Y00596347D01*
X00190503Y00596418D01*
X00190475Y00596502D01*
X00190433Y00596601D01*
X00190390Y00596713D01*
X00190348Y00596840D01*
X00190306Y00596981D01*
X00190263Y00597136D01*
X00190193Y00597489D01*
X00190137Y00597898D01*
X00190123Y00598335D01*
Y00598349D01*
Y00598377D01*
Y00598433D01*
X00190137Y00598490D01*
Y00598574D01*
X00190151Y00598673D01*
X00190179Y00598913D01*
X00190235Y00599180D01*
X00190320Y00599477D01*
X00190418Y00599801D01*
X00190574Y00600125D01*
Y00600139D01*
X00190602Y00600167D01*
X00190616Y00600210D01*
X00190658Y00600266D01*
X00190771Y00600421D01*
X00190912Y00600618D01*
X00191095Y00600830D01*
X00191321Y00601055D01*
X00191574Y00601267D01*
X00191870Y00601464D01*
X00191885D01*
X00191913Y00601478D01*
X00191955Y00601507D01*
X00192026Y00601535D01*
X00192096Y00601577D01*
X00192195Y00601605D01*
X00192307Y00601647D01*
X00192420Y00601704D01*
X00192702Y00601788D01*
X00193026Y00601859D01*
X00193379Y00601915D01*
X00193759Y00601929D01*
X00193915D01*
X00194027Y00601915D01*
D02*
G37*
G36*
X00309440Y00595233D02*
Y00595219D01*
Y00595205D01*
Y00595163D01*
Y00595107D01*
Y00594951D01*
X00309425Y00594768D01*
X00309411Y00594571D01*
X00309383Y00594359D01*
X00309341Y00594148D01*
X00309298Y00593965D01*
Y00593951D01*
X00309270Y00593880D01*
X00309228Y00593795D01*
X00309186Y00593683D01*
X00309101Y00593542D01*
X00309017Y00593401D01*
X00308904Y00593260D01*
X00308763Y00593119D01*
X00308749Y00593105D01*
X00308692Y00593062D01*
X00308608Y00592992D01*
X00308495Y00592907D01*
X00308354Y00592809D01*
X00308185Y00592710D01*
X00307987Y00592611D01*
X00307776Y00592527D01*
X00307409Y00593302D01*
X00307438Y00593316D01*
X00307508Y00593344D01*
X00307607Y00593387D01*
X00307720Y00593443D01*
X00307861Y00593513D01*
X00307987Y00593612D01*
X00308114Y00593725D01*
X00308213Y00593838D01*
X00308227Y00593852D01*
X00308255Y00593894D01*
X00308298Y00593965D01*
X00308340Y00594063D01*
X00308396Y00594190D01*
X00308439Y00594331D01*
X00308467Y00594514D01*
X00308481Y00594698D01*
X00307565D01*
Y00596572D01*
X00309440D01*
Y00595233D01*
D02*
G37*
G36*
X00220868Y00617136D02*
X00218628D01*
Y00631872D01*
X00213487Y00617136D01*
X00211400D01*
X00206310Y00632127D01*
Y00617136D01*
X00204070D01*
Y00634748D01*
X00207557D01*
X00211731Y00622252D01*
Y00622226D01*
X00211756Y00622175D01*
X00211782Y00622099D01*
X00211833Y00621972D01*
X00211935Y00621666D01*
X00212062Y00621284D01*
X00212189Y00620852D01*
X00212342Y00620419D01*
X00212469Y00620012D01*
X00212571Y00619656D01*
X00212596Y00619706D01*
X00212622Y00619834D01*
X00212698Y00620063D01*
X00212800Y00620368D01*
X00212927Y00620775D01*
X00213105Y00621259D01*
X00213284Y00621819D01*
X00213513Y00622481D01*
X00217738Y00634748D01*
X00220868D01*
Y00617136D01*
D02*
G37*
G36*
X00331324Y00634799D02*
X00331528Y00634773D01*
X00331782Y00634748D01*
X00332062Y00634697D01*
X00332342Y00634646D01*
X00333004Y00634468D01*
X00333666Y00634213D01*
X00333997Y00634061D01*
X00334328Y00633883D01*
X00334633Y00633654D01*
X00334913Y00633399D01*
X00334938Y00633374D01*
X00334989Y00633348D01*
X00335040Y00633246D01*
X00335142Y00633145D01*
X00335269Y00633017D01*
X00335396Y00632839D01*
X00335524Y00632661D01*
X00335676Y00632432D01*
X00335931Y00631948D01*
X00336185Y00631338D01*
X00336287Y00631032D01*
X00336338Y00630676D01*
X00336389Y00630320D01*
X00336415Y00629938D01*
Y00629887D01*
Y00629760D01*
X00336389Y00629556D01*
X00336364Y00629276D01*
X00336313Y00628971D01*
X00336211Y00628614D01*
X00336109Y00628233D01*
X00335956Y00627851D01*
X00335931Y00627800D01*
X00335880Y00627673D01*
X00335778Y00627469D01*
X00335626Y00627189D01*
X00335422Y00626884D01*
X00335168Y00626502D01*
X00334862Y00626120D01*
X00334506Y00625687D01*
X00334455Y00625637D01*
X00334328Y00625484D01*
X00334200Y00625357D01*
X00334073Y00625229D01*
X00333920Y00625077D01*
X00333717Y00624873D01*
X00333513Y00624669D01*
X00333259Y00624440D01*
X00333004Y00624186D01*
X00332699Y00623906D01*
X00332368Y00623626D01*
X00332012Y00623295D01*
X00331604Y00622964D01*
X00331197Y00622608D01*
X00331172Y00622583D01*
X00331121Y00622532D01*
X00331019Y00622455D01*
X00330892Y00622353D01*
X00330739Y00622201D01*
X00330561Y00622048D01*
X00330154Y00621717D01*
X00329721Y00621335D01*
X00329314Y00620954D01*
X00328957Y00620623D01*
X00328805Y00620495D01*
X00328677Y00620368D01*
X00328652Y00620343D01*
X00328576Y00620266D01*
X00328474Y00620165D01*
X00328347Y00620012D01*
X00328219Y00619834D01*
X00328067Y00619656D01*
X00327761Y00619223D01*
X00336440D01*
Y00617136D01*
X00324758D01*
Y00617161D01*
Y00617263D01*
Y00617416D01*
X00324784Y00617620D01*
X00324809Y00617849D01*
X00324860Y00618103D01*
X00324911Y00618358D01*
X00325013Y00618638D01*
Y00618663D01*
X00325038Y00618689D01*
X00325089Y00618841D01*
X00325191Y00619070D01*
X00325344Y00619376D01*
X00325547Y00619732D01*
X00325802Y00620139D01*
X00326082Y00620546D01*
X00326438Y00620979D01*
Y00621004D01*
X00326489Y00621030D01*
X00326616Y00621183D01*
X00326845Y00621412D01*
X00327176Y00621743D01*
X00327558Y00622124D01*
X00328041Y00622583D01*
X00328627Y00623092D01*
X00329263Y00623626D01*
X00329288Y00623651D01*
X00329390Y00623728D01*
X00329543Y00623855D01*
X00329721Y00624008D01*
X00329950Y00624211D01*
X00330230Y00624440D01*
X00330510Y00624695D01*
X00330841Y00624975D01*
X00331477Y00625586D01*
X00332113Y00626197D01*
X00332419Y00626502D01*
X00332699Y00626807D01*
X00332953Y00627087D01*
X00333157Y00627367D01*
Y00627393D01*
X00333208Y00627418D01*
X00333259Y00627495D01*
X00333310Y00627596D01*
X00333488Y00627876D01*
X00333691Y00628207D01*
X00333870Y00628614D01*
X00334048Y00629047D01*
X00334149Y00629530D01*
X00334200Y00629989D01*
Y00630014D01*
Y00630040D01*
X00334175Y00630192D01*
X00334149Y00630447D01*
X00334073Y00630727D01*
X00333971Y00631083D01*
X00333793Y00631439D01*
X00333564Y00631796D01*
X00333259Y00632152D01*
X00333208Y00632203D01*
X00333080Y00632305D01*
X00332902Y00632432D01*
X00332622Y00632610D01*
X00332266Y00632763D01*
X00331859Y00632915D01*
X00331375Y00633017D01*
X00330841Y00633043D01*
X00330688D01*
X00330586Y00633017D01*
X00330281Y00632992D01*
X00329925Y00632915D01*
X00329543Y00632814D01*
X00329110Y00632635D01*
X00328703Y00632407D01*
X00328321Y00632101D01*
X00328270Y00632050D01*
X00328168Y00631923D01*
X00328016Y00631719D01*
X00327863Y00631414D01*
X00327685Y00631058D01*
X00327532Y00630600D01*
X00327430Y00630090D01*
X00327379Y00629505D01*
X00325165Y00629734D01*
Y00629760D01*
X00325191Y00629836D01*
Y00629963D01*
X00325216Y00630141D01*
X00325267Y00630345D01*
X00325318Y00630574D01*
X00325394Y00630854D01*
X00325471Y00631134D01*
X00325674Y00631745D01*
X00325980Y00632356D01*
X00326158Y00632661D01*
X00326387Y00632966D01*
X00326616Y00633246D01*
X00326870Y00633501D01*
X00326896Y00633526D01*
X00326947Y00633552D01*
X00327023Y00633628D01*
X00327150Y00633704D01*
X00327303Y00633806D01*
X00327481Y00633908D01*
X00327685Y00634035D01*
X00327939Y00634163D01*
X00328219Y00634290D01*
X00328525Y00634417D01*
X00328856Y00634519D01*
X00329212Y00634621D01*
X00329594Y00634697D01*
X00330001Y00634773D01*
X00330434Y00634799D01*
X00330892Y00634824D01*
X00331146D01*
X00331324Y00634799D01*
D02*
G37*
G36*
X00322315Y00632661D02*
X00311905D01*
Y00627291D01*
X00321653D01*
Y00625204D01*
X00311905D01*
Y00619223D01*
X00322722D01*
Y00617136D01*
X00309564D01*
Y00634748D01*
X00322315D01*
Y00632661D01*
D02*
G37*
G36*
X00301216Y00634799D02*
X00301420Y00634773D01*
X00301674Y00634748D01*
X00301954Y00634697D01*
X00302234Y00634646D01*
X00302896Y00634468D01*
X00303558Y00634213D01*
X00303888Y00634061D01*
X00304219Y00633883D01*
X00304525Y00633654D01*
X00304805Y00633399D01*
X00304830Y00633374D01*
X00304881Y00633348D01*
X00304932Y00633246D01*
X00305034Y00633145D01*
X00305161Y00633017D01*
X00305288Y00632839D01*
X00305415Y00632661D01*
X00305568Y00632432D01*
X00305823Y00631948D01*
X00306077Y00631338D01*
X00306179Y00631032D01*
X00306230Y00630676D01*
X00306281Y00630320D01*
X00306306Y00629938D01*
Y00629887D01*
Y00629760D01*
X00306281Y00629556D01*
X00306255Y00629276D01*
X00306204Y00628971D01*
X00306103Y00628614D01*
X00306001Y00628233D01*
X00305848Y00627851D01*
X00305823Y00627800D01*
X00305772Y00627673D01*
X00305670Y00627469D01*
X00305517Y00627189D01*
X00305314Y00626884D01*
X00305059Y00626502D01*
X00304754Y00626120D01*
X00304398Y00625687D01*
X00304347Y00625637D01*
X00304219Y00625484D01*
X00304092Y00625357D01*
X00303965Y00625229D01*
X00303812Y00625077D01*
X00303608Y00624873D01*
X00303405Y00624669D01*
X00303150Y00624440D01*
X00302896Y00624186D01*
X00302591Y00623906D01*
X00302260Y00623626D01*
X00301903Y00623295D01*
X00301496Y00622964D01*
X00301089Y00622608D01*
X00301063Y00622583D01*
X00301012Y00622532D01*
X00300911Y00622455D01*
X00300783Y00622353D01*
X00300631Y00622201D01*
X00300453Y00622048D01*
X00300045Y00621717D01*
X00299613Y00621335D01*
X00299205Y00620954D01*
X00298849Y00620623D01*
X00298696Y00620495D01*
X00298569Y00620368D01*
X00298544Y00620343D01*
X00298467Y00620266D01*
X00298366Y00620165D01*
X00298238Y00620012D01*
X00298111Y00619834D01*
X00297958Y00619656D01*
X00297653Y00619223D01*
X00306332D01*
Y00617136D01*
X00294650D01*
Y00617161D01*
Y00617263D01*
Y00617416D01*
X00294675Y00617620D01*
X00294701Y00617849D01*
X00294752Y00618103D01*
X00294802Y00618358D01*
X00294904Y00618638D01*
Y00618663D01*
X00294930Y00618689D01*
X00294981Y00618841D01*
X00295082Y00619070D01*
X00295235Y00619376D01*
X00295439Y00619732D01*
X00295693Y00620139D01*
X00295973Y00620546D01*
X00296330Y00620979D01*
Y00621004D01*
X00296381Y00621030D01*
X00296508Y00621183D01*
X00296737Y00621412D01*
X00297068Y00621743D01*
X00297449Y00622124D01*
X00297933Y00622583D01*
X00298518Y00623092D01*
X00299155Y00623626D01*
X00299180Y00623651D01*
X00299282Y00623728D01*
X00299435Y00623855D01*
X00299613Y00624008D01*
X00299842Y00624211D01*
X00300122Y00624440D01*
X00300402Y00624695D01*
X00300732Y00624975D01*
X00301369Y00625586D01*
X00302005Y00626197D01*
X00302311Y00626502D01*
X00302591Y00626807D01*
X00302845Y00627087D01*
X00303049Y00627367D01*
Y00627393D01*
X00303099Y00627418D01*
X00303150Y00627495D01*
X00303201Y00627596D01*
X00303379Y00627876D01*
X00303583Y00628207D01*
X00303761Y00628614D01*
X00303939Y00629047D01*
X00304041Y00629530D01*
X00304092Y00629989D01*
Y00630014D01*
Y00630040D01*
X00304067Y00630192D01*
X00304041Y00630447D01*
X00303965Y00630727D01*
X00303863Y00631083D01*
X00303685Y00631439D01*
X00303456Y00631796D01*
X00303150Y00632152D01*
X00303099Y00632203D01*
X00302972Y00632305D01*
X00302794Y00632432D01*
X00302514Y00632610D01*
X00302158Y00632763D01*
X00301751Y00632915D01*
X00301267Y00633017D01*
X00300732Y00633043D01*
X00300580D01*
X00300478Y00633017D01*
X00300173Y00632992D01*
X00299816Y00632915D01*
X00299435Y00632814D01*
X00299002Y00632635D01*
X00298595Y00632407D01*
X00298213Y00632101D01*
X00298162Y00632050D01*
X00298060Y00631923D01*
X00297908Y00631719D01*
X00297755Y00631414D01*
X00297577Y00631058D01*
X00297424Y00630600D01*
X00297322Y00630090D01*
X00297271Y00629505D01*
X00295057Y00629734D01*
Y00629760D01*
X00295082Y00629836D01*
Y00629963D01*
X00295108Y00630141D01*
X00295159Y00630345D01*
X00295210Y00630574D01*
X00295286Y00630854D01*
X00295362Y00631134D01*
X00295566Y00631745D01*
X00295871Y00632356D01*
X00296050Y00632661D01*
X00296279Y00632966D01*
X00296508Y00633246D01*
X00296762Y00633501D01*
X00296788Y00633526D01*
X00296839Y00633552D01*
X00296915Y00633628D01*
X00297042Y00633704D01*
X00297195Y00633806D01*
X00297373Y00633908D01*
X00297577Y00634035D01*
X00297831Y00634163D01*
X00298111Y00634290D01*
X00298417Y00634417D01*
X00298747Y00634519D01*
X00299104Y00634621D01*
X00299485Y00634697D01*
X00299893Y00634773D01*
X00300325Y00634799D01*
X00300783Y00634824D01*
X00301038D01*
X00301216Y00634799D01*
D02*
G37*
G36*
X00289407Y00617136D02*
X00287244D01*
Y00630905D01*
X00287218Y00630879D01*
X00287091Y00630778D01*
X00286938Y00630625D01*
X00286684Y00630447D01*
X00286404Y00630218D01*
X00286047Y00629963D01*
X00285640Y00629683D01*
X00285182Y00629403D01*
X00285157D01*
X00285131Y00629378D01*
X00284979Y00629276D01*
X00284724Y00629149D01*
X00284419Y00628996D01*
X00284062Y00628818D01*
X00283680Y00628640D01*
X00283299Y00628462D01*
X00282917Y00628309D01*
Y00630396D01*
X00282942D01*
X00282993Y00630447D01*
X00283095Y00630472D01*
X00283222Y00630549D01*
X00283375Y00630625D01*
X00283553Y00630727D01*
X00283986Y00630981D01*
X00284495Y00631261D01*
X00285004Y00631618D01*
X00285538Y00632025D01*
X00286073Y00632457D01*
X00286098Y00632483D01*
X00286124Y00632508D01*
X00286200Y00632585D01*
X00286302Y00632661D01*
X00286531Y00632915D01*
X00286836Y00633221D01*
X00287142Y00633577D01*
X00287473Y00633984D01*
X00287753Y00634392D01*
X00288007Y00634824D01*
X00289407D01*
Y00617136D01*
D02*
G37*
G36*
X00279125Y00632814D02*
X00279099Y00632788D01*
X00279049Y00632737D01*
X00278947Y00632635D01*
X00278845Y00632483D01*
X00278692Y00632305D01*
X00278489Y00632101D01*
X00278285Y00631847D01*
X00278056Y00631541D01*
X00277827Y00631236D01*
X00277547Y00630879D01*
X00277267Y00630472D01*
X00276987Y00630065D01*
X00276681Y00629607D01*
X00276376Y00629123D01*
X00276071Y00628589D01*
X00275765Y00628054D01*
X00275740Y00628029D01*
X00275689Y00627927D01*
X00275613Y00627774D01*
X00275485Y00627545D01*
X00275358Y00627265D01*
X00275205Y00626960D01*
X00275027Y00626604D01*
X00274849Y00626197D01*
X00274646Y00625738D01*
X00274416Y00625280D01*
X00274213Y00624771D01*
X00274009Y00624237D01*
X00273602Y00623142D01*
X00273220Y00621972D01*
Y00621946D01*
X00273195Y00621870D01*
X00273169Y00621743D01*
X00273118Y00621590D01*
X00273067Y00621386D01*
X00273017Y00621132D01*
X00272940Y00620852D01*
X00272889Y00620546D01*
X00272813Y00620190D01*
X00272737Y00619808D01*
X00272609Y00618994D01*
X00272482Y00618103D01*
X00272406Y00617136D01*
X00270192D01*
Y00617161D01*
Y00617238D01*
Y00617340D01*
X00270217Y00617492D01*
Y00617696D01*
X00270243Y00617950D01*
X00270268Y00618230D01*
X00270293Y00618536D01*
X00270344Y00618892D01*
X00270395Y00619248D01*
X00270471Y00619681D01*
X00270548Y00620114D01*
X00270624Y00620572D01*
X00270726Y00621081D01*
X00270981Y00622124D01*
Y00622150D01*
X00271006Y00622252D01*
X00271057Y00622404D01*
X00271133Y00622633D01*
X00271210Y00622888D01*
X00271311Y00623193D01*
X00271413Y00623550D01*
X00271566Y00623931D01*
X00271719Y00624364D01*
X00271871Y00624797D01*
X00272253Y00625764D01*
X00272711Y00626782D01*
X00273220Y00627800D01*
X00273246Y00627825D01*
X00273297Y00627927D01*
X00273373Y00628054D01*
X00273475Y00628258D01*
X00273602Y00628487D01*
X00273780Y00628767D01*
X00273958Y00629072D01*
X00274162Y00629403D01*
X00274646Y00630141D01*
X00275154Y00630905D01*
X00275740Y00631694D01*
X00276351Y00632432D01*
X00267723D01*
Y00634519D01*
X00279125D01*
Y00632814D01*
D02*
G37*
G36*
X00260138Y00634799D02*
X00260342Y00634773D01*
X00260597Y00634748D01*
X00260877Y00634697D01*
X00261157Y00634646D01*
X00261818Y00634468D01*
X00262480Y00634213D01*
X00262811Y00634061D01*
X00263142Y00633883D01*
X00263447Y00633654D01*
X00263727Y00633399D01*
X00263752Y00633374D01*
X00263803Y00633348D01*
X00263854Y00633246D01*
X00263956Y00633145D01*
X00264083Y00633017D01*
X00264211Y00632839D01*
X00264338Y00632661D01*
X00264491Y00632432D01*
X00264745Y00631948D01*
X00265000Y00631338D01*
X00265101Y00631032D01*
X00265152Y00630676D01*
X00265203Y00630320D01*
X00265229Y00629938D01*
Y00629887D01*
Y00629760D01*
X00265203Y00629556D01*
X00265178Y00629276D01*
X00265127Y00628971D01*
X00265025Y00628614D01*
X00264923Y00628233D01*
X00264771Y00627851D01*
X00264745Y00627800D01*
X00264694Y00627673D01*
X00264592Y00627469D01*
X00264440Y00627189D01*
X00264236Y00626884D01*
X00263982Y00626502D01*
X00263676Y00626120D01*
X00263320Y00625687D01*
X00263269Y00625637D01*
X00263142Y00625484D01*
X00263015Y00625357D01*
X00262887Y00625229D01*
X00262735Y00625077D01*
X00262531Y00624873D01*
X00262327Y00624669D01*
X00262073Y00624440D01*
X00261818Y00624186D01*
X00261513Y00623906D01*
X00261182Y00623626D01*
X00260826Y00623295D01*
X00260418Y00622964D01*
X00260011Y00622608D01*
X00259986Y00622583D01*
X00259935Y00622532D01*
X00259833Y00622455D01*
X00259706Y00622353D01*
X00259553Y00622201D01*
X00259375Y00622048D01*
X00258968Y00621717D01*
X00258535Y00621335D01*
X00258128Y00620954D01*
X00257772Y00620623D01*
X00257619Y00620495D01*
X00257492Y00620368D01*
X00257466Y00620343D01*
X00257390Y00620266D01*
X00257288Y00620165D01*
X00257161Y00620012D01*
X00257034Y00619834D01*
X00256881Y00619656D01*
X00256575Y00619223D01*
X00265254D01*
Y00617136D01*
X00253572D01*
Y00617161D01*
Y00617263D01*
Y00617416D01*
X00253598Y00617620D01*
X00253623Y00617849D01*
X00253674Y00618103D01*
X00253725Y00618358D01*
X00253827Y00618638D01*
Y00618663D01*
X00253852Y00618689D01*
X00253903Y00618841D01*
X00254005Y00619070D01*
X00254158Y00619376D01*
X00254361Y00619732D01*
X00254616Y00620139D01*
X00254896Y00620546D01*
X00255252Y00620979D01*
Y00621004D01*
X00255303Y00621030D01*
X00255430Y00621183D01*
X00255659Y00621412D01*
X00255990Y00621743D01*
X00256372Y00622124D01*
X00256855Y00622583D01*
X00257441Y00623092D01*
X00258077Y00623626D01*
X00258102Y00623651D01*
X00258204Y00623728D01*
X00258357Y00623855D01*
X00258535Y00624008D01*
X00258764Y00624211D01*
X00259044Y00624440D01*
X00259324Y00624695D01*
X00259655Y00624975D01*
X00260291Y00625586D01*
X00260928Y00626197D01*
X00261233Y00626502D01*
X00261513Y00626807D01*
X00261767Y00627087D01*
X00261971Y00627367D01*
Y00627393D01*
X00262022Y00627418D01*
X00262073Y00627495D01*
X00262124Y00627596D01*
X00262302Y00627876D01*
X00262505Y00628207D01*
X00262684Y00628614D01*
X00262862Y00629047D01*
X00262964Y00629530D01*
X00263015Y00629989D01*
Y00630014D01*
Y00630040D01*
X00262989Y00630192D01*
X00262964Y00630447D01*
X00262887Y00630727D01*
X00262785Y00631083D01*
X00262607Y00631439D01*
X00262378Y00631796D01*
X00262073Y00632152D01*
X00262022Y00632203D01*
X00261895Y00632305D01*
X00261716Y00632432D01*
X00261437Y00632610D01*
X00261080Y00632763D01*
X00260673Y00632915D01*
X00260189Y00633017D01*
X00259655Y00633043D01*
X00259502D01*
X00259400Y00633017D01*
X00259095Y00632992D01*
X00258739Y00632915D01*
X00258357Y00632814D01*
X00257924Y00632635D01*
X00257517Y00632407D01*
X00257135Y00632101D01*
X00257084Y00632050D01*
X00256983Y00631923D01*
X00256830Y00631719D01*
X00256677Y00631414D01*
X00256499Y00631058D01*
X00256346Y00630600D01*
X00256245Y00630090D01*
X00256194Y00629505D01*
X00253979Y00629734D01*
Y00629760D01*
X00254005Y00629836D01*
Y00629963D01*
X00254030Y00630141D01*
X00254081Y00630345D01*
X00254132Y00630574D01*
X00254209Y00630854D01*
X00254285Y00631134D01*
X00254488Y00631745D01*
X00254794Y00632356D01*
X00254972Y00632661D01*
X00255201Y00632966D01*
X00255430Y00633246D01*
X00255685Y00633501D01*
X00255710Y00633526D01*
X00255761Y00633552D01*
X00255837Y00633628D01*
X00255965Y00633704D01*
X00256117Y00633806D01*
X00256295Y00633908D01*
X00256499Y00634035D01*
X00256754Y00634163D01*
X00257034Y00634290D01*
X00257339Y00634417D01*
X00257670Y00634519D01*
X00258026Y00634621D01*
X00258408Y00634697D01*
X00258815Y00634773D01*
X00259248Y00634799D01*
X00259706Y00634824D01*
X00259960D01*
X00260138Y00634799D01*
D02*
G37*
G36*
X00246446D02*
X00246650Y00634773D01*
X00246904Y00634748D01*
X00247184Y00634697D01*
X00247464Y00634646D01*
X00248126Y00634468D01*
X00248787Y00634213D01*
X00249118Y00634061D01*
X00249449Y00633883D01*
X00249755Y00633654D01*
X00250035Y00633399D01*
X00250060Y00633374D01*
X00250111Y00633348D01*
X00250162Y00633246D01*
X00250264Y00633145D01*
X00250391Y00633017D01*
X00250518Y00632839D01*
X00250645Y00632661D01*
X00250798Y00632432D01*
X00251053Y00631948D01*
X00251307Y00631338D01*
X00251409Y00631032D01*
X00251460Y00630676D01*
X00251511Y00630320D01*
X00251536Y00629938D01*
Y00629887D01*
Y00629760D01*
X00251511Y00629556D01*
X00251485Y00629276D01*
X00251434Y00628971D01*
X00251332Y00628614D01*
X00251231Y00628233D01*
X00251078Y00627851D01*
X00251053Y00627800D01*
X00251002Y00627673D01*
X00250900Y00627469D01*
X00250747Y00627189D01*
X00250544Y00626884D01*
X00250289Y00626502D01*
X00249984Y00626120D01*
X00249627Y00625687D01*
X00249576Y00625637D01*
X00249449Y00625484D01*
X00249322Y00625357D01*
X00249195Y00625229D01*
X00249042Y00625077D01*
X00248838Y00624873D01*
X00248635Y00624669D01*
X00248380Y00624440D01*
X00248126Y00624186D01*
X00247820Y00623906D01*
X00247489Y00623626D01*
X00247133Y00623295D01*
X00246726Y00622964D01*
X00246319Y00622608D01*
X00246293Y00622583D01*
X00246242Y00622532D01*
X00246141Y00622455D01*
X00246013Y00622353D01*
X00245861Y00622201D01*
X00245683Y00622048D01*
X00245275Y00621717D01*
X00244843Y00621335D01*
X00244435Y00620954D01*
X00244079Y00620623D01*
X00243926Y00620495D01*
X00243799Y00620368D01*
X00243774Y00620343D01*
X00243697Y00620266D01*
X00243596Y00620165D01*
X00243468Y00620012D01*
X00243341Y00619834D01*
X00243188Y00619656D01*
X00242883Y00619223D01*
X00251562D01*
Y00617136D01*
X00239880D01*
Y00617161D01*
Y00617263D01*
Y00617416D01*
X00239905Y00617620D01*
X00239931Y00617849D01*
X00239981Y00618103D01*
X00240032Y00618358D01*
X00240134Y00618638D01*
Y00618663D01*
X00240160Y00618689D01*
X00240210Y00618841D01*
X00240312Y00619070D01*
X00240465Y00619376D01*
X00240669Y00619732D01*
X00240923Y00620139D01*
X00241203Y00620546D01*
X00241559Y00620979D01*
Y00621004D01*
X00241610Y00621030D01*
X00241738Y00621183D01*
X00241967Y00621412D01*
X00242297Y00621743D01*
X00242679Y00622124D01*
X00243163Y00622583D01*
X00243748Y00623092D01*
X00244384Y00623626D01*
X00244410Y00623651D01*
X00244512Y00623728D01*
X00244664Y00623855D01*
X00244843Y00624008D01*
X00245072Y00624211D01*
X00245352Y00624440D01*
X00245632Y00624695D01*
X00245962Y00624975D01*
X00246599Y00625586D01*
X00247235Y00626197D01*
X00247540Y00626502D01*
X00247820Y00626807D01*
X00248075Y00627087D01*
X00248278Y00627367D01*
Y00627393D01*
X00248329Y00627418D01*
X00248380Y00627495D01*
X00248431Y00627596D01*
X00248609Y00627876D01*
X00248813Y00628207D01*
X00248991Y00628614D01*
X00249169Y00629047D01*
X00249271Y00629530D01*
X00249322Y00629989D01*
Y00630014D01*
Y00630040D01*
X00249296Y00630192D01*
X00249271Y00630447D01*
X00249195Y00630727D01*
X00249093Y00631083D01*
X00248915Y00631439D01*
X00248686Y00631796D01*
X00248380Y00632152D01*
X00248329Y00632203D01*
X00248202Y00632305D01*
X00248024Y00632432D01*
X00247744Y00632610D01*
X00247388Y00632763D01*
X00246980Y00632915D01*
X00246497Y00633017D01*
X00245962Y00633043D01*
X00245810D01*
X00245708Y00633017D01*
X00245403Y00632992D01*
X00245046Y00632915D01*
X00244664Y00632814D01*
X00244232Y00632635D01*
X00243825Y00632407D01*
X00243443Y00632101D01*
X00243392Y00632050D01*
X00243290Y00631923D01*
X00243137Y00631719D01*
X00242985Y00631414D01*
X00242806Y00631058D01*
X00242654Y00630600D01*
X00242552Y00630090D01*
X00242501Y00629505D01*
X00240287Y00629734D01*
Y00629760D01*
X00240312Y00629836D01*
Y00629963D01*
X00240338Y00630141D01*
X00240389Y00630345D01*
X00240440Y00630574D01*
X00240516Y00630854D01*
X00240592Y00631134D01*
X00240796Y00631745D01*
X00241101Y00632356D01*
X00241280Y00632661D01*
X00241509Y00632966D01*
X00241738Y00633246D01*
X00241992Y00633501D01*
X00242017Y00633526D01*
X00242069Y00633552D01*
X00242145Y00633628D01*
X00242272Y00633704D01*
X00242425Y00633806D01*
X00242603Y00633908D01*
X00242806Y00634035D01*
X00243061Y00634163D01*
X00243341Y00634290D01*
X00243646Y00634417D01*
X00243977Y00634519D01*
X00244334Y00634621D01*
X00244715Y00634697D01*
X00245123Y00634773D01*
X00245555Y00634799D01*
X00246013Y00634824D01*
X00246268D01*
X00246446Y00634799D01*
D02*
G37*
G36*
X00232270Y00634723D02*
X00232703Y00634697D01*
X00233161Y00634672D01*
X00233593Y00634621D01*
X00233975Y00634570D01*
X00234026D01*
X00234204Y00634519D01*
X00234433Y00634468D01*
X00234739Y00634392D01*
X00235070Y00634264D01*
X00235426Y00634112D01*
X00235808Y00633933D01*
X00236138Y00633730D01*
X00236189Y00633704D01*
X00236291Y00633628D01*
X00236444Y00633475D01*
X00236647Y00633297D01*
X00236877Y00633068D01*
X00237106Y00632763D01*
X00237360Y00632432D01*
X00237564Y00632050D01*
X00237589Y00631999D01*
X00237640Y00631872D01*
X00237742Y00631643D01*
X00237844Y00631338D01*
X00237920Y00630981D01*
X00238022Y00630574D01*
X00238073Y00630116D01*
X00238098Y00629632D01*
Y00629607D01*
Y00629530D01*
Y00629429D01*
X00238073Y00629251D01*
X00238047Y00629072D01*
X00238022Y00628843D01*
X00237971Y00628589D01*
X00237920Y00628309D01*
X00237742Y00627724D01*
X00237640Y00627418D01*
X00237487Y00627087D01*
X00237309Y00626756D01*
X00237131Y00626451D01*
X00236902Y00626146D01*
X00236647Y00625840D01*
X00236622Y00625815D01*
X00236571Y00625764D01*
X00236495Y00625687D01*
X00236367Y00625611D01*
X00236215Y00625484D01*
X00236011Y00625357D01*
X00235757Y00625204D01*
X00235477Y00625077D01*
X00235146Y00624924D01*
X00234764Y00624771D01*
X00234357Y00624644D01*
X00233873Y00624542D01*
X00233364Y00624440D01*
X00232804Y00624364D01*
X00232168Y00624313D01*
X00231506Y00624288D01*
X00227002D01*
Y00617136D01*
X00224660D01*
Y00634748D01*
X00231888D01*
X00232270Y00634723D01*
D02*
G37*
G36*
X00195341D02*
X00195773Y00634697D01*
X00196232Y00634672D01*
X00196664Y00634621D01*
X00197046Y00634570D01*
X00197097D01*
X00197275Y00634519D01*
X00197504Y00634468D01*
X00197810Y00634392D01*
X00198140Y00634264D01*
X00198497Y00634112D01*
X00198878Y00633933D01*
X00199209Y00633730D01*
X00199260Y00633704D01*
X00199362Y00633628D01*
X00199515Y00633475D01*
X00199718Y00633297D01*
X00199947Y00633068D01*
X00200176Y00632763D01*
X00200431Y00632432D01*
X00200634Y00632050D01*
X00200660Y00631999D01*
X00200711Y00631872D01*
X00200813Y00631643D01*
X00200914Y00631338D01*
X00200991Y00630981D01*
X00201093Y00630574D01*
X00201144Y00630116D01*
X00201169Y00629632D01*
Y00629607D01*
Y00629530D01*
Y00629429D01*
X00201144Y00629251D01*
X00201118Y00629072D01*
X00201093Y00628843D01*
X00201042Y00628589D01*
X00200991Y00628309D01*
X00200813Y00627724D01*
X00200711Y00627418D01*
X00200558Y00627087D01*
X00200380Y00626756D01*
X00200202Y00626451D01*
X00199973Y00626146D01*
X00199718Y00625840D01*
X00199693Y00625815D01*
X00199642Y00625764D01*
X00199566Y00625687D01*
X00199438Y00625611D01*
X00199286Y00625484D01*
X00199082Y00625357D01*
X00198827Y00625204D01*
X00198548Y00625077D01*
X00198217Y00624924D01*
X00197835Y00624771D01*
X00197428Y00624644D01*
X00196944Y00624542D01*
X00196435Y00624440D01*
X00195875Y00624364D01*
X00195239Y00624313D01*
X00194577Y00624288D01*
X00190072D01*
Y00617136D01*
X00187731D01*
Y00634748D01*
X00194959D01*
X00195341Y00634723D01*
D02*
G37*
%LPC*%
G36*
X00428489Y00600491D02*
X00428460D01*
X00428376Y00600477D01*
X00428249Y00600463D01*
X00428108Y00600421D01*
X00427925Y00600365D01*
X00427742Y00600266D01*
X00427558Y00600139D01*
X00427375Y00599956D01*
X00427361Y00599928D01*
X00427304Y00599857D01*
X00427234Y00599730D01*
X00427164Y00599561D01*
X00427079Y00599336D01*
X00427008Y00599068D01*
X00426952Y00598744D01*
X00426938Y00598377D01*
Y00598363D01*
Y00598335D01*
Y00598264D01*
Y00598194D01*
X00426952Y00598095D01*
Y00597996D01*
X00426980Y00597757D01*
X00427008Y00597489D01*
X00427065Y00597207D01*
X00427149Y00596953D01*
X00427192Y00596840D01*
X00427248Y00596742D01*
Y00596728D01*
X00427276Y00596713D01*
X00427333Y00596629D01*
X00427431Y00596516D01*
X00427572Y00596389D01*
X00427756Y00596248D01*
X00427967Y00596136D01*
X00428221Y00596051D01*
X00428362Y00596037D01*
X00428503Y00596023D01*
X00428531D01*
X00428615Y00596037D01*
X00428728Y00596051D01*
X00428883Y00596093D01*
X00429053Y00596150D01*
X00429236Y00596248D01*
X00429419Y00596375D01*
X00429602Y00596558D01*
X00429616Y00596587D01*
X00429673Y00596657D01*
X00429743Y00596784D01*
X00429828Y00596967D01*
X00429912Y00597193D01*
X00429983Y00597475D01*
X00430039Y00597813D01*
X00430053Y00598194D01*
Y00598208D01*
Y00598250D01*
Y00598307D01*
Y00598391D01*
X00430039Y00598490D01*
X00430025Y00598617D01*
X00429997Y00598870D01*
X00429941Y00599166D01*
X00429870Y00599448D01*
X00429757Y00599730D01*
X00429687Y00599843D01*
X00429602Y00599956D01*
X00429588Y00599984D01*
X00429518Y00600040D01*
X00429433Y00600125D01*
X00429306Y00600224D01*
X00429137Y00600322D01*
X00428954Y00600407D01*
X00428728Y00600463D01*
X00428489Y00600491D01*
D02*
G37*
G36*
X00391681Y00600449D02*
X00391653D01*
X00391569Y00600435D01*
X00391442Y00600421D01*
X00391287Y00600379D01*
X00391103Y00600322D01*
X00390906Y00600224D01*
X00390723Y00600097D01*
X00390540Y00599913D01*
X00390525Y00599885D01*
X00390469Y00599815D01*
X00390398Y00599688D01*
X00390328Y00599519D01*
X00390243Y00599293D01*
X00390173Y00599025D01*
X00390117Y00598715D01*
X00390103Y00598349D01*
Y00598335D01*
Y00598292D01*
Y00598236D01*
X00390117Y00598151D01*
Y00598053D01*
X00390131Y00597940D01*
X00390159Y00597686D01*
X00390215Y00597390D01*
X00390300Y00597094D01*
X00390413Y00596826D01*
X00390483Y00596699D01*
X00390568Y00596587D01*
X00390596Y00596558D01*
X00390652Y00596502D01*
X00390751Y00596403D01*
X00390892Y00596305D01*
X00391047Y00596206D01*
X00391244Y00596107D01*
X00391470Y00596051D01*
X00391710Y00596023D01*
X00391738D01*
X00391822Y00596037D01*
X00391935Y00596051D01*
X00392090Y00596093D01*
X00392259Y00596150D01*
X00392443Y00596248D01*
X00392626Y00596375D01*
X00392795Y00596544D01*
X00392809Y00596572D01*
X00392865Y00596643D01*
X00392936Y00596770D01*
X00393021Y00596953D01*
X00393049Y00597066D01*
X00393091Y00597193D01*
X00393133Y00597334D01*
X00393162Y00597489D01*
X00393190Y00597658D01*
X00393218Y00597841D01*
X00393232Y00598039D01*
Y00598250D01*
Y00598264D01*
Y00598307D01*
Y00598363D01*
Y00598433D01*
X00393218Y00598532D01*
X00393204Y00598631D01*
X00393176Y00598870D01*
X00393119Y00599138D01*
X00393049Y00599420D01*
X00392936Y00599674D01*
X00392781Y00599899D01*
X00392767Y00599928D01*
X00392696Y00599984D01*
X00392598Y00600069D01*
X00392471Y00600181D01*
X00392316Y00600280D01*
X00392132Y00600365D01*
X00391921Y00600421D01*
X00391681Y00600449D01*
D02*
G37*
G36*
X00383350D02*
X00383322D01*
X00383237Y00600435D01*
X00383110Y00600421D01*
X00382955Y00600379D01*
X00382772Y00600322D01*
X00382575Y00600224D01*
X00382391Y00600097D01*
X00382208Y00599913D01*
X00382194Y00599885D01*
X00382138Y00599815D01*
X00382067Y00599688D01*
X00381997Y00599519D01*
X00381912Y00599293D01*
X00381842Y00599025D01*
X00381785Y00598715D01*
X00381771Y00598349D01*
Y00598335D01*
Y00598292D01*
Y00598236D01*
X00381785Y00598151D01*
Y00598053D01*
X00381799Y00597940D01*
X00381828Y00597686D01*
X00381884Y00597390D01*
X00381968Y00597094D01*
X00382081Y00596826D01*
X00382152Y00596699D01*
X00382236Y00596587D01*
X00382265Y00596558D01*
X00382321Y00596502D01*
X00382420Y00596403D01*
X00382561Y00596305D01*
X00382716Y00596206D01*
X00382913Y00596107D01*
X00383139Y00596051D01*
X00383378Y00596023D01*
X00383406D01*
X00383491Y00596037D01*
X00383604Y00596051D01*
X00383759Y00596093D01*
X00383928Y00596150D01*
X00384111Y00596248D01*
X00384295Y00596375D01*
X00384464Y00596544D01*
X00384478Y00596572D01*
X00384534Y00596643D01*
X00384605Y00596770D01*
X00384689Y00596953D01*
X00384717Y00597066D01*
X00384760Y00597193D01*
X00384802Y00597334D01*
X00384830Y00597489D01*
X00384858Y00597658D01*
X00384887Y00597841D01*
X00384901Y00598039D01*
Y00598250D01*
Y00598264D01*
Y00598307D01*
Y00598363D01*
Y00598433D01*
X00384887Y00598532D01*
X00384873Y00598631D01*
X00384844Y00598870D01*
X00384788Y00599138D01*
X00384717Y00599420D01*
X00384605Y00599674D01*
X00384450Y00599899D01*
X00384436Y00599928D01*
X00384365Y00599984D01*
X00384266Y00600069D01*
X00384140Y00600181D01*
X00383984Y00600280D01*
X00383801Y00600365D01*
X00383590Y00600421D01*
X00383350Y00600449D01*
D02*
G37*
G36*
X00483890Y00598081D02*
X00483876D01*
X00483819Y00598053D01*
X00483735Y00598039D01*
X00483608Y00597996D01*
X00483453Y00597954D01*
X00483241Y00597898D01*
X00483016Y00597841D01*
X00482734Y00597785D01*
X00482706D01*
X00482663Y00597771D01*
X00482607Y00597757D01*
X00482480Y00597729D01*
X00482311Y00597686D01*
X00482142Y00597644D01*
X00481973Y00597588D01*
X00481832Y00597517D01*
X00481719Y00597461D01*
X00481705Y00597447D01*
X00481662Y00597418D01*
X00481606Y00597362D01*
X00481550Y00597291D01*
X00481479Y00597193D01*
X00481423Y00597080D01*
X00481381Y00596953D01*
X00481367Y00596812D01*
Y00596798D01*
Y00596742D01*
X00481381Y00596671D01*
X00481409Y00596587D01*
X00481437Y00596474D01*
X00481479Y00596361D01*
X00481550Y00596248D01*
X00481648Y00596136D01*
X00481662Y00596121D01*
X00481705Y00596093D01*
X00481761Y00596051D01*
X00481860Y00595995D01*
X00481959Y00595938D01*
X00482085Y00595896D01*
X00482240Y00595868D01*
X00482396Y00595854D01*
X00482480D01*
X00482579Y00595868D01*
X00482706Y00595896D01*
X00482861Y00595938D01*
X00483016Y00595995D01*
X00483199Y00596065D01*
X00483368Y00596178D01*
X00483382Y00596192D01*
X00483425Y00596220D01*
X00483481Y00596277D01*
X00483551Y00596347D01*
X00483622Y00596446D01*
X00483693Y00596544D01*
X00483763Y00596671D01*
X00483805Y00596798D01*
Y00596812D01*
X00483819Y00596840D01*
X00483833Y00596911D01*
X00483848Y00596996D01*
X00483862Y00597122D01*
X00483876Y00597277D01*
X00483890Y00597475D01*
Y00597700D01*
Y00598081D01*
D02*
G37*
G36*
X00376287Y00598081D02*
X00376273D01*
X00376217Y00598053D01*
X00376132Y00598039D01*
X00376006Y00597996D01*
X00375850Y00597954D01*
X00375639Y00597898D01*
X00375413Y00597841D01*
X00375131Y00597785D01*
X00375103D01*
X00375061Y00597771D01*
X00375005Y00597757D01*
X00374878Y00597729D01*
X00374709Y00597686D01*
X00374539Y00597644D01*
X00374370Y00597588D01*
X00374229Y00597517D01*
X00374117Y00597461D01*
X00374102Y00597447D01*
X00374060Y00597418D01*
X00374004Y00597362D01*
X00373947Y00597291D01*
X00373877Y00597193D01*
X00373820Y00597080D01*
X00373778Y00596953D01*
X00373764Y00596812D01*
Y00596798D01*
Y00596742D01*
X00373778Y00596671D01*
X00373806Y00596587D01*
X00373835Y00596474D01*
X00373877Y00596361D01*
X00373947Y00596248D01*
X00374046Y00596135D01*
X00374060Y00596121D01*
X00374102Y00596093D01*
X00374159Y00596051D01*
X00374258Y00595995D01*
X00374356Y00595938D01*
X00374483Y00595896D01*
X00374638Y00595868D01*
X00374793Y00595854D01*
X00374878D01*
X00374976Y00595868D01*
X00375103Y00595896D01*
X00375258Y00595938D01*
X00375413Y00595995D01*
X00375597Y00596065D01*
X00375766Y00596178D01*
X00375780Y00596192D01*
X00375822Y00596220D01*
X00375879Y00596277D01*
X00375949Y00596347D01*
X00376020Y00596446D01*
X00376090Y00596544D01*
X00376161Y00596671D01*
X00376203Y00596798D01*
Y00596812D01*
X00376217Y00596840D01*
X00376231Y00596911D01*
X00376245Y00596996D01*
X00376259Y00597122D01*
X00376273Y00597277D01*
X00376287Y00597475D01*
Y00597700D01*
Y00598081D01*
D02*
G37*
G36*
X00246750Y00598081D02*
X00246736D01*
X00246680Y00598053D01*
X00246595Y00598039D01*
X00246468Y00597996D01*
X00246313Y00597954D01*
X00246102Y00597898D01*
X00245876Y00597841D01*
X00245594Y00597785D01*
X00245566D01*
X00245524Y00597771D01*
X00245467Y00597757D01*
X00245340Y00597729D01*
X00245171Y00597686D01*
X00245002Y00597644D01*
X00244833Y00597588D01*
X00244692Y00597517D01*
X00244579Y00597461D01*
X00244565Y00597447D01*
X00244523Y00597418D01*
X00244466Y00597362D01*
X00244410Y00597291D01*
X00244340Y00597193D01*
X00244283Y00597080D01*
X00244241Y00596953D01*
X00244227Y00596812D01*
Y00596798D01*
Y00596742D01*
X00244241Y00596671D01*
X00244269Y00596587D01*
X00244297Y00596474D01*
X00244340Y00596361D01*
X00244410Y00596248D01*
X00244509Y00596135D01*
X00244523Y00596121D01*
X00244565Y00596093D01*
X00244622Y00596051D01*
X00244720Y00595994D01*
X00244819Y00595938D01*
X00244946Y00595896D01*
X00245101Y00595868D01*
X00245256Y00595854D01*
X00245340D01*
X00245439Y00595868D01*
X00245566Y00595896D01*
X00245721Y00595938D01*
X00245876Y00595994D01*
X00246059Y00596065D01*
X00246229Y00596178D01*
X00246243Y00596192D01*
X00246285Y00596220D01*
X00246341Y00596277D01*
X00246412Y00596347D01*
X00246482Y00596446D01*
X00246553Y00596544D01*
X00246623Y00596671D01*
X00246665Y00596798D01*
Y00596812D01*
X00246680Y00596840D01*
X00246694Y00596911D01*
X00246708Y00596995D01*
X00246722Y00597122D01*
X00246736Y00597277D01*
X00246750Y00597475D01*
Y00597700D01*
Y00598081D01*
D02*
G37*
G36*
X00227043D02*
X00227028D01*
X00226972Y00598053D01*
X00226887Y00598039D01*
X00226761Y00597996D01*
X00226605Y00597954D01*
X00226394Y00597898D01*
X00226168Y00597841D01*
X00225886Y00597785D01*
X00225858D01*
X00225816Y00597771D01*
X00225760Y00597757D01*
X00225633Y00597729D01*
X00225464Y00597686D01*
X00225294Y00597644D01*
X00225125Y00597588D01*
X00224984Y00597517D01*
X00224872Y00597461D01*
X00224858Y00597447D01*
X00224815Y00597418D01*
X00224759Y00597362D01*
X00224702Y00597291D01*
X00224632Y00597193D01*
X00224576Y00597080D01*
X00224533Y00596953D01*
X00224519Y00596812D01*
Y00596798D01*
Y00596742D01*
X00224533Y00596671D01*
X00224561Y00596587D01*
X00224590Y00596474D01*
X00224632Y00596361D01*
X00224702Y00596248D01*
X00224801Y00596135D01*
X00224815Y00596121D01*
X00224858Y00596093D01*
X00224914Y00596051D01*
X00225012Y00595994D01*
X00225111Y00595938D01*
X00225238Y00595896D01*
X00225393Y00595868D01*
X00225548Y00595854D01*
X00225633D01*
X00225732Y00595868D01*
X00225858Y00595896D01*
X00226013Y00595938D01*
X00226168Y00595994D01*
X00226352Y00596065D01*
X00226521Y00596178D01*
X00226535Y00596192D01*
X00226577Y00596220D01*
X00226634Y00596277D01*
X00226704Y00596347D01*
X00226775Y00596446D01*
X00226845Y00596544D01*
X00226916Y00596671D01*
X00226958Y00596798D01*
Y00596812D01*
X00226972Y00596840D01*
X00226986Y00596911D01*
X00227000Y00596995D01*
X00227014Y00597122D01*
X00227028Y00597277D01*
X00227043Y00597475D01*
Y00597700D01*
Y00598081D01*
D02*
G37*
G36*
X00494167Y00600491D02*
X00494068D01*
X00493955Y00600463D01*
X00493814Y00600435D01*
X00493659Y00600379D01*
X00493490Y00600308D01*
X00493321Y00600196D01*
X00493166Y00600040D01*
X00493152Y00600026D01*
X00493109Y00599956D01*
X00493039Y00599857D01*
X00492968Y00599716D01*
X00492884Y00599547D01*
X00492827Y00599336D01*
X00492785Y00599096D01*
X00492771Y00598828D01*
X00495562D01*
Y00598842D01*
Y00598870D01*
Y00598899D01*
X00495548Y00598955D01*
X00495534Y00599110D01*
X00495506Y00599279D01*
X00495449Y00599477D01*
X00495379Y00599688D01*
X00495266Y00599885D01*
X00495139Y00600055D01*
X00495125Y00600069D01*
X00495069Y00600125D01*
X00494984Y00600196D01*
X00494871Y00600280D01*
X00494730Y00600351D01*
X00494561Y00600421D01*
X00494378Y00600477D01*
X00494167Y00600491D01*
D02*
G37*
G36*
X00467622D02*
X00467523D01*
X00467410Y00600463D01*
X00467270Y00600435D01*
X00467114Y00600379D01*
X00466945Y00600308D01*
X00466776Y00600196D01*
X00466621Y00600040D01*
X00466607Y00600026D01*
X00466565Y00599956D01*
X00466494Y00599857D01*
X00466424Y00599716D01*
X00466339Y00599547D01*
X00466283Y00599336D01*
X00466240Y00599096D01*
X00466226Y00598828D01*
X00469017D01*
Y00598842D01*
Y00598870D01*
Y00598899D01*
X00469003Y00598955D01*
X00468989Y00599110D01*
X00468961Y00599279D01*
X00468905Y00599477D01*
X00468834Y00599688D01*
X00468722Y00599885D01*
X00468595Y00600055D01*
X00468581Y00600069D01*
X00468524Y00600125D01*
X00468439Y00600196D01*
X00468327Y00600280D01*
X00468186Y00600351D01*
X00468017Y00600421D01*
X00467833Y00600477D01*
X00467622Y00600491D01*
D02*
G37*
G36*
X00445320Y00600407D02*
X00445250D01*
X00445194Y00600393D01*
X00445067Y00600379D01*
X00444897Y00600336D01*
X00444700Y00600266D01*
X00444489Y00600167D01*
X00444277Y00600026D01*
X00444080Y00599843D01*
X00444066Y00599815D01*
X00444009Y00599744D01*
X00443925Y00599603D01*
X00443840Y00599434D01*
X00443742Y00599209D01*
X00443671Y00598927D01*
X00443615Y00598602D01*
X00443587Y00598236D01*
Y00598222D01*
Y00598194D01*
Y00598137D01*
X00443601Y00598067D01*
Y00597968D01*
X00443615Y00597869D01*
X00443643Y00597644D01*
X00443713Y00597376D01*
X00443798Y00597108D01*
X00443911Y00596840D01*
X00444080Y00596615D01*
X00444108Y00596587D01*
X00444165Y00596530D01*
X00444277Y00596446D01*
X00444432Y00596347D01*
X00444602Y00596234D01*
X00444813Y00596150D01*
X00445053Y00596093D01*
X00445320Y00596065D01*
X00445391D01*
X00445447Y00596079D01*
X00445574Y00596093D01*
X00445743Y00596136D01*
X00445941Y00596206D01*
X00446152Y00596291D01*
X00446349Y00596432D01*
X00446547Y00596615D01*
X00446575Y00596643D01*
X00446632Y00596713D01*
X00446702Y00596855D01*
X00446801Y00597024D01*
X00446899Y00597263D01*
X00446970Y00597531D01*
X00447026Y00597869D01*
X00447054Y00598236D01*
Y00598250D01*
Y00598278D01*
Y00598335D01*
X00447040Y00598405D01*
Y00598490D01*
X00447026Y00598602D01*
X00446998Y00598828D01*
X00446927Y00599082D01*
X00446843Y00599350D01*
X00446716Y00599618D01*
X00446547Y00599843D01*
X00446519Y00599871D01*
X00446462Y00599928D01*
X00446349Y00600026D01*
X00446209Y00600125D01*
X00446025Y00600224D01*
X00445828Y00600322D01*
X00445588Y00600379D01*
X00445320Y00600407D01*
D02*
G37*
G36*
X00420651Y00600491D02*
X00420552D01*
X00420439Y00600463D01*
X00420298Y00600435D01*
X00420143Y00600379D01*
X00419974Y00600308D01*
X00419805Y00600196D01*
X00419650Y00600040D01*
X00419636Y00600026D01*
X00419593Y00599956D01*
X00419523Y00599857D01*
X00419453Y00599716D01*
X00419368Y00599547D01*
X00419311Y00599336D01*
X00419269Y00599096D01*
X00419255Y00598828D01*
X00422046D01*
Y00598842D01*
Y00598870D01*
Y00598899D01*
X00422032Y00598955D01*
X00422018Y00599110D01*
X00421990Y00599279D01*
X00421934Y00599477D01*
X00421863Y00599688D01*
X00421750Y00599885D01*
X00421623Y00600055D01*
X00421609Y00600069D01*
X00421553Y00600125D01*
X00421468Y00600196D01*
X00421356Y00600280D01*
X00421215Y00600351D01*
X00421045Y00600421D01*
X00420862Y00600477D01*
X00420651Y00600491D01*
D02*
G37*
G36*
X00405158Y00600407D02*
X00405088D01*
X00405031Y00600393D01*
X00404904Y00600379D01*
X00404735Y00600336D01*
X00404538Y00600266D01*
X00404326Y00600167D01*
X00404115Y00600026D01*
X00403918Y00599843D01*
X00403904Y00599815D01*
X00403847Y00599744D01*
X00403763Y00599603D01*
X00403678Y00599434D01*
X00403579Y00599209D01*
X00403509Y00598927D01*
X00403452Y00598602D01*
X00403424Y00598236D01*
Y00598222D01*
Y00598194D01*
Y00598137D01*
X00403438Y00598067D01*
Y00597968D01*
X00403452Y00597869D01*
X00403480Y00597644D01*
X00403551Y00597376D01*
X00403636Y00597108D01*
X00403748Y00596840D01*
X00403918Y00596615D01*
X00403946Y00596587D01*
X00404002Y00596530D01*
X00404115Y00596446D01*
X00404270Y00596347D01*
X00404439Y00596234D01*
X00404651Y00596150D01*
X00404890Y00596093D01*
X00405158Y00596065D01*
X00405229D01*
X00405285Y00596079D01*
X00405412Y00596093D01*
X00405581Y00596136D01*
X00405778Y00596206D01*
X00405990Y00596291D01*
X00406187Y00596432D01*
X00406385Y00596615D01*
X00406413Y00596643D01*
X00406469Y00596713D01*
X00406540Y00596855D01*
X00406638Y00597024D01*
X00406737Y00597263D01*
X00406807Y00597531D01*
X00406864Y00597869D01*
X00406892Y00598236D01*
Y00598250D01*
Y00598278D01*
Y00598335D01*
X00406878Y00598405D01*
Y00598490D01*
X00406864Y00598602D01*
X00406836Y00598828D01*
X00406765Y00599082D01*
X00406681Y00599350D01*
X00406554Y00599618D01*
X00406385Y00599843D01*
X00406356Y00599871D01*
X00406300Y00599928D01*
X00406187Y00600026D01*
X00406046Y00600125D01*
X00405863Y00600224D01*
X00405666Y00600322D01*
X00405426Y00600379D01*
X00405158Y00600407D01*
D02*
G37*
G36*
X00327145Y00600407D02*
X00327075D01*
X00327018Y00600393D01*
X00326892Y00600379D01*
X00326722Y00600336D01*
X00326525Y00600266D01*
X00326314Y00600167D01*
X00326102Y00600026D01*
X00325905Y00599843D01*
X00325891Y00599815D01*
X00325834Y00599744D01*
X00325750Y00599603D01*
X00325665Y00599434D01*
X00325566Y00599209D01*
X00325496Y00598927D01*
X00325440Y00598602D01*
X00325411Y00598236D01*
Y00598222D01*
Y00598194D01*
Y00598137D01*
X00325425Y00598067D01*
Y00597968D01*
X00325440Y00597869D01*
X00325468Y00597644D01*
X00325538Y00597376D01*
X00325623Y00597108D01*
X00325736Y00596840D01*
X00325905Y00596615D01*
X00325933Y00596587D01*
X00325989Y00596530D01*
X00326102Y00596446D01*
X00326257Y00596347D01*
X00326426Y00596234D01*
X00326638Y00596150D01*
X00326878Y00596093D01*
X00327145Y00596065D01*
X00327216D01*
X00327272Y00596079D01*
X00327399Y00596093D01*
X00327568Y00596135D01*
X00327766Y00596206D01*
X00327977Y00596291D01*
X00328174Y00596432D01*
X00328372Y00596615D01*
X00328400Y00596643D01*
X00328456Y00596713D01*
X00328527Y00596855D01*
X00328625Y00597024D01*
X00328724Y00597263D01*
X00328795Y00597531D01*
X00328851Y00597869D01*
X00328879Y00598236D01*
Y00598250D01*
Y00598278D01*
Y00598335D01*
X00328865Y00598405D01*
Y00598490D01*
X00328851Y00598602D01*
X00328823Y00598828D01*
X00328752Y00599082D01*
X00328668Y00599350D01*
X00328541Y00599618D01*
X00328372Y00599843D01*
X00328344Y00599871D01*
X00328287Y00599928D01*
X00328174Y00600026D01*
X00328033Y00600125D01*
X00327850Y00600224D01*
X00327653Y00600322D01*
X00327413Y00600379D01*
X00327145Y00600407D01*
D02*
G37*
G36*
X00282444D02*
X00282373D01*
X00282317Y00600393D01*
X00282190Y00600379D01*
X00282021Y00600336D01*
X00281823Y00600266D01*
X00281612Y00600167D01*
X00281401Y00600026D01*
X00281203Y00599843D01*
X00281189Y00599815D01*
X00281133Y00599744D01*
X00281048Y00599603D01*
X00280963Y00599434D01*
X00280865Y00599209D01*
X00280794Y00598927D01*
X00280738Y00598602D01*
X00280710Y00598236D01*
Y00598222D01*
Y00598194D01*
Y00598137D01*
X00280724Y00598067D01*
Y00597968D01*
X00280738Y00597869D01*
X00280766Y00597644D01*
X00280837Y00597376D01*
X00280921Y00597108D01*
X00281034Y00596840D01*
X00281203Y00596615D01*
X00281231Y00596587D01*
X00281288Y00596530D01*
X00281401Y00596446D01*
X00281556Y00596347D01*
X00281725Y00596234D01*
X00281936Y00596150D01*
X00282176Y00596093D01*
X00282444Y00596065D01*
X00282514D01*
X00282571Y00596079D01*
X00282698Y00596093D01*
X00282867Y00596135D01*
X00283064Y00596206D01*
X00283275Y00596291D01*
X00283473Y00596432D01*
X00283670Y00596615D01*
X00283698Y00596643D01*
X00283755Y00596713D01*
X00283825Y00596855D01*
X00283924Y00597024D01*
X00284023Y00597263D01*
X00284093Y00597531D01*
X00284149Y00597869D01*
X00284178Y00598236D01*
Y00598250D01*
Y00598278D01*
Y00598335D01*
X00284163Y00598405D01*
Y00598490D01*
X00284149Y00598602D01*
X00284121Y00598828D01*
X00284051Y00599082D01*
X00283966Y00599350D01*
X00283839Y00599618D01*
X00283670Y00599843D01*
X00283642Y00599871D01*
X00283586Y00599928D01*
X00283473Y00600026D01*
X00283332Y00600125D01*
X00283149Y00600224D01*
X00282951Y00600322D01*
X00282712Y00600379D01*
X00282444Y00600407D01*
D02*
G37*
G36*
X00261989D02*
X00261919D01*
X00261862Y00600393D01*
X00261735Y00600379D01*
X00261566Y00600336D01*
X00261369Y00600266D01*
X00261157Y00600167D01*
X00260946Y00600026D01*
X00260748Y00599843D01*
X00260734Y00599815D01*
X00260678Y00599744D01*
X00260593Y00599603D01*
X00260509Y00599434D01*
X00260410Y00599209D01*
X00260340Y00598927D01*
X00260283Y00598602D01*
X00260255Y00598236D01*
Y00598222D01*
Y00598194D01*
Y00598137D01*
X00260269Y00598067D01*
Y00597968D01*
X00260283Y00597869D01*
X00260311Y00597644D01*
X00260382Y00597376D01*
X00260466Y00597108D01*
X00260579Y00596840D01*
X00260748Y00596615D01*
X00260777Y00596587D01*
X00260833Y00596530D01*
X00260946Y00596446D01*
X00261101Y00596347D01*
X00261270Y00596234D01*
X00261481Y00596150D01*
X00261721Y00596093D01*
X00261989Y00596065D01*
X00262059D01*
X00262116Y00596079D01*
X00262243Y00596093D01*
X00262412Y00596135D01*
X00262609Y00596206D01*
X00262821Y00596291D01*
X00263018Y00596432D01*
X00263215Y00596615D01*
X00263244Y00596643D01*
X00263300Y00596713D01*
X00263370Y00596855D01*
X00263469Y00597024D01*
X00263568Y00597263D01*
X00263638Y00597531D01*
X00263695Y00597869D01*
X00263723Y00598236D01*
Y00598250D01*
Y00598278D01*
Y00598335D01*
X00263709Y00598405D01*
Y00598490D01*
X00263695Y00598602D01*
X00263666Y00598828D01*
X00263596Y00599082D01*
X00263511Y00599350D01*
X00263385Y00599618D01*
X00263215Y00599843D01*
X00263187Y00599871D01*
X00263131Y00599928D01*
X00263018Y00600026D01*
X00262877Y00600125D01*
X00262694Y00600224D01*
X00262496Y00600322D01*
X00262257Y00600379D01*
X00261989Y00600407D01*
D02*
G37*
G36*
X00210775Y00600491D02*
X00210676D01*
X00210563Y00600463D01*
X00210422Y00600435D01*
X00210267Y00600379D01*
X00210098Y00600308D01*
X00209929Y00600195D01*
X00209774Y00600040D01*
X00209760Y00600026D01*
X00209717Y00599956D01*
X00209647Y00599857D01*
X00209576Y00599716D01*
X00209492Y00599547D01*
X00209435Y00599336D01*
X00209393Y00599096D01*
X00209379Y00598828D01*
X00212170D01*
Y00598842D01*
Y00598870D01*
Y00598899D01*
X00212156Y00598955D01*
X00212142Y00599110D01*
X00212114Y00599279D01*
X00212057Y00599477D01*
X00211987Y00599688D01*
X00211874Y00599885D01*
X00211747Y00600055D01*
X00211733Y00600069D01*
X00211677Y00600125D01*
X00211592Y00600195D01*
X00211479Y00600280D01*
X00211338Y00600350D01*
X00211169Y00600421D01*
X00210986Y00600477D01*
X00210775Y00600491D01*
D02*
G37*
G36*
X00193774Y00600407D02*
X00193703D01*
X00193647Y00600393D01*
X00193520Y00600379D01*
X00193351Y00600336D01*
X00193153Y00600266D01*
X00192942Y00600167D01*
X00192730Y00600026D01*
X00192533Y00599843D01*
X00192519Y00599815D01*
X00192463Y00599744D01*
X00192378Y00599603D01*
X00192293Y00599434D01*
X00192195Y00599209D01*
X00192124Y00598927D01*
X00192068Y00598602D01*
X00192040Y00598236D01*
Y00598222D01*
Y00598194D01*
Y00598137D01*
X00192054Y00598067D01*
Y00597968D01*
X00192068Y00597869D01*
X00192096Y00597644D01*
X00192167Y00597376D01*
X00192251Y00597108D01*
X00192364Y00596840D01*
X00192533Y00596615D01*
X00192561Y00596587D01*
X00192618Y00596530D01*
X00192730Y00596446D01*
X00192885Y00596347D01*
X00193055Y00596234D01*
X00193266Y00596150D01*
X00193506Y00596093D01*
X00193774Y00596065D01*
X00193844D01*
X00193901Y00596079D01*
X00194027Y00596093D01*
X00194196Y00596135D01*
X00194394Y00596206D01*
X00194605Y00596291D01*
X00194803Y00596432D01*
X00195000Y00596615D01*
X00195028Y00596643D01*
X00195085Y00596713D01*
X00195155Y00596855D01*
X00195254Y00597024D01*
X00195352Y00597263D01*
X00195423Y00597531D01*
X00195479Y00597869D01*
X00195508Y00598236D01*
Y00598250D01*
Y00598278D01*
Y00598335D01*
X00195493Y00598405D01*
Y00598490D01*
X00195479Y00598602D01*
X00195451Y00598828D01*
X00195381Y00599082D01*
X00195296Y00599350D01*
X00195169Y00599618D01*
X00195000Y00599843D01*
X00194972Y00599871D01*
X00194915Y00599928D01*
X00194803Y00600026D01*
X00194662Y00600125D01*
X00194478Y00600224D01*
X00194281Y00600322D01*
X00194041Y00600379D01*
X00193774Y00600407D01*
D02*
G37*
G36*
X00232041Y00632661D02*
X00227002D01*
Y00626375D01*
X00231735D01*
X00231914Y00626400D01*
X00232092D01*
X00232295Y00626426D01*
X00232779Y00626476D01*
X00233313Y00626578D01*
X00233848Y00626731D01*
X00234331Y00626935D01*
X00234561Y00627062D01*
X00234739Y00627215D01*
X00234790Y00627265D01*
X00234891Y00627367D01*
X00235044Y00627571D01*
X00235222Y00627825D01*
X00235400Y00628156D01*
X00235553Y00628563D01*
X00235655Y00629021D01*
X00235706Y00629556D01*
Y00629581D01*
Y00629607D01*
Y00629734D01*
X00235680Y00629963D01*
X00235629Y00630218D01*
X00235578Y00630498D01*
X00235477Y00630829D01*
X00235324Y00631134D01*
X00235146Y00631439D01*
X00235120Y00631465D01*
X00235044Y00631567D01*
X00234917Y00631694D01*
X00234764Y00631872D01*
X00234535Y00632050D01*
X00234280Y00632203D01*
X00234000Y00632356D01*
X00233670Y00632483D01*
X00233644D01*
X00233542Y00632508D01*
X00233390Y00632534D01*
X00233186Y00632585D01*
X00232881Y00632610D01*
X00232499Y00632635D01*
X00232041Y00632661D01*
D02*
G37*
G36*
X00195112D02*
X00190072D01*
Y00626375D01*
X00194806D01*
X00194984Y00626400D01*
X00195163D01*
X00195366Y00626426D01*
X00195850Y00626476D01*
X00196384Y00626578D01*
X00196919Y00626731D01*
X00197402Y00626935D01*
X00197631Y00627062D01*
X00197810Y00627215D01*
X00197860Y00627265D01*
X00197962Y00627367D01*
X00198115Y00627571D01*
X00198293Y00627825D01*
X00198471Y00628156D01*
X00198624Y00628563D01*
X00198726Y00629021D01*
X00198777Y00629556D01*
Y00629581D01*
Y00629607D01*
Y00629734D01*
X00198751Y00629963D01*
X00198700Y00630218D01*
X00198649Y00630498D01*
X00198548Y00630829D01*
X00198395Y00631134D01*
X00198217Y00631439D01*
X00198191Y00631465D01*
X00198115Y00631567D01*
X00197988Y00631694D01*
X00197835Y00631872D01*
X00197606Y00632050D01*
X00197351Y00632203D01*
X00197071Y00632356D01*
X00196741Y00632483D01*
X00196715D01*
X00196613Y00632508D01*
X00196461Y00632534D01*
X00196257Y00632585D01*
X00195952Y00632610D01*
X00195570Y00632635D01*
X00195112Y00632661D01*
D02*
G37*
%LPD*%
G54D10*
X00486518Y00517149D02*
G03*
X00486518Y00517149I-00001250J00000000D01*
G01*
X00210081Y00420136D02*
G03*
X00210081Y00420136I-00001250J00000000D01*
G01*
X00417155Y00420386D02*
G03*
X00417155Y00420386I-00001250J00000000D01*
G01*
X00453096Y00557986D02*
G03*
X00453096Y00557986I-00001250J00000000D01*
G01*
X00435617Y00534236D02*
G03*
X00435617Y00534236I-00001250J00000000D01*
G01*
X00261418Y00555928D02*
G03*
X00261418Y00555928I-00001250J00000000D01*
G01*
G54D11*
X00300768D02*
G03*
X00300768Y00555928I-00002500J00000000D01*
G01*
G54D12*
X00488268Y00496649D02*
Y00500149D01*
X00474268Y00496649D02*
Y00500149D01*
X00213331Y00378686D02*
Y00405386D01*
Y00378686D02*
X00293331D01*
Y00405386D01*
X00213331D02*
X00293331D01*
X00417035Y00548986D02*
X00433157D01*
X00417035Y00566986D02*
X00433157D01*
X00443367Y00499425D02*
Y00515547D01*
X00425367Y00499425D02*
Y00515547D01*
X00284918Y00565278D02*
Y00569128D01*
Y00466528D02*
Y00470378D01*
Y00466528D02*
X00381618D01*
Y00565278D02*
Y00569128D01*
Y00466528D02*
Y00470378D01*
X00284918Y00569128D02*
X00381618D01*
G54D13*
X00453948Y00480427D02*
X00462584D01*
X00453948Y00470267D02*
Y00480427D01*
Y00460107D02*
Y00470267D01*
Y00460107D02*
X00462584D01*
X00482904D02*
X00491540D01*
Y00470267D01*
Y00480427D01*
X00482904D02*
X00491540D01*
X00448233Y00499407D02*
Y00508043D01*
Y00499407D02*
X00458393D01*
X00468553D01*
Y00508043D01*
Y00528363D02*
Y00536999D01*
X00458393D02*
X00468553D01*
X00448233D02*
X00458393D01*
X00448233Y00528363D02*
Y00536999D01*
X00235282Y00511971D02*
X00241882D01*
X00235282D02*
Y00525805D01*
X00241882D01*
X00259154D02*
X00265753D01*
Y00511971D02*
Y00525805D01*
X00259154Y00511971D02*
X00265753D01*
X00193456Y00522708D02*
X00200055D01*
X00193456D02*
Y00536543D01*
X00200055D01*
X00217327D02*
X00223927D01*
Y00522708D02*
Y00536543D01*
X00217327Y00522708D02*
X00223927D01*
X00206653Y00443533D02*
X00203267D01*
X00204960D01*
Y00435069D01*
X00203267Y00433376D01*
X00201574D01*
X00199882Y00435069D01*
X00210038Y00433376D02*
X00213424D01*
X00211731D01*
Y00443533D01*
X00210038Y00441840D01*
X00291236Y00584793D02*
X00298007D01*
X00294622D01*
Y00574636D01*
X00301393D02*
X00304778D01*
X00303085D01*
Y00584793D01*
X00301393Y00583100D01*
X00200518Y00477293D02*
Y00468829D01*
X00202211Y00467136D01*
X00205596D01*
X00207289Y00468829D01*
Y00477293D01*
X00210675Y00467136D02*
X00214060D01*
X00212367D01*
Y00477293D01*
X00210675Y00475600D01*
X00243689Y00570656D02*
Y00577427D01*
X00241996Y00579120D01*
X00238611D01*
X00236918Y00577427D01*
Y00570656D01*
X00238611Y00568964D01*
X00241996D01*
X00240304Y00572349D02*
X00243689Y00568964D01*
X00241996D02*
X00243689Y00570656D01*
X00253846Y00568964D02*
X00247075D01*
X00253846Y00575735D01*
Y00577427D01*
X00252153Y00579120D01*
X00248768D01*
X00247075Y00577427D01*
X00246039Y00463328D02*
Y00470099D01*
X00244346Y00471792D01*
X00240961D01*
X00239268Y00470099D01*
Y00463328D01*
X00240961Y00461635D01*
X00244346D01*
X00242654Y00465021D02*
X00246039Y00461635D01*
X00244346D02*
X00246039Y00463328D01*
X00249425Y00461635D02*
X00252810D01*
X00251117D01*
Y00471792D01*
X00249425Y00470099D01*
X00492519Y00513271D02*
Y00503114D01*
X00499290D01*
X00502676D02*
X00506061D01*
X00504369D01*
Y00513271D01*
X00502676Y00511578D01*
X00402776Y00440633D02*
X00399390D01*
X00401083D01*
Y00432169D01*
X00399390Y00430476D01*
X00397697D01*
X00396005Y00432169D01*
X00412933Y00430476D02*
X00406161D01*
X00412933Y00437247D01*
Y00438940D01*
X00411240Y00440633D01*
X00407854D01*
X00406161Y00438940D01*
X00415442Y00584793D02*
Y00574636D01*
X00420520D01*
X00422213Y00576329D01*
Y00583100D01*
X00420520Y00584793D01*
X00415442D01*
X00432370Y00574636D02*
X00425599D01*
X00432370Y00581407D01*
Y00583100D01*
X00430677Y00584793D01*
X00427291D01*
X00425599Y00583100D01*
X00408155Y00527802D02*
Y00517646D01*
X00413233D01*
X00414926Y00519338D01*
Y00526110D01*
X00413233Y00527802D01*
X00408155D01*
X00418312Y00517646D02*
X00421697D01*
X00420005D01*
Y00527802D01*
X00418312Y00526110D01*
X00277433Y00523100D02*
X00275740Y00524793D01*
X00272355D01*
X00270662Y00523100D01*
Y00516329D01*
X00272355Y00514636D01*
X00275740D01*
X00277433Y00516329D01*
X00285897Y00514636D02*
Y00524793D01*
X00280819Y00519714D01*
X00287590D01*
X00216539Y00548100D02*
X00214846Y00549793D01*
X00211461D01*
X00209768Y00548100D01*
Y00541329D01*
X00211461Y00539636D01*
X00214846D01*
X00216539Y00541329D01*
X00219925Y00548100D02*
X00221618Y00549793D01*
X00225003D01*
X00226696Y00548100D01*
Y00546407D01*
X00225003Y00544714D01*
X00223310D01*
X00225003D01*
X00226696Y00543022D01*
Y00541329D01*
X00225003Y00539636D01*
X00221618D01*
X00219925Y00541329D01*
X00495138Y00456448D02*
X00493445Y00458141D01*
X00490060D01*
X00488367Y00456448D01*
Y00449677D01*
X00490060Y00447984D01*
X00493445D01*
X00495138Y00449677D01*
X00505295Y00447984D02*
X00498524D01*
X00505295Y00454755D01*
Y00456448D01*
X00503602Y00458141D01*
X00500216D01*
X00498524Y00456448D01*
X00462541Y00551847D02*
X00460848Y00550154D01*
Y00546768D01*
X00462541Y00545076D01*
X00469312D01*
X00471005Y00546768D01*
Y00550154D01*
X00469312Y00551847D01*
X00471005Y00555233D02*
Y00558618D01*
Y00556925D01*
X00460848D01*
X00462541Y00555233D01*
G54D14*
X00416405Y00378686D02*
Y00405386D01*
Y00378686D02*
X00471005D01*
Y00405386D01*
X00416405D02*
X00471005D01*
X00210191Y00485294D02*
Y00516294D01*
X00217191Y00485294D02*
Y00516294D01*
X00210191D02*
X00217191D01*
X00210191Y00485294D02*
X00217191D01*
X00250518Y00506294D02*
X00255518D01*
Y00498294D02*
Y00506294D01*
X00250518Y00476294D02*
X00255518D01*
Y00484294D01*
X00250518Y00563168D02*
X00255518D01*
Y00555168D02*
Y00563168D01*
X00250518Y00533168D02*
X00255518D01*
Y00541169D01*
G54D15*
X00322326Y00186814D02*
X00332483D01*
X00327404D01*
Y00171579D01*
X00340100D02*
X00345179D01*
X00347718Y00174118D01*
Y00179196D01*
X00345179Y00181735D01*
X00340100D01*
X00337561Y00179196D01*
Y00174118D01*
X00340100Y00171579D01*
X00352796Y00166500D02*
Y00181735D01*
X00360414D01*
X00362953Y00179196D01*
Y00174118D01*
X00360414Y00171579D01*
X00352796D01*
X00390884Y00186814D02*
X00385806D01*
X00383266Y00184275D01*
Y00174118D01*
X00385806Y00171579D01*
X00390884D01*
X00393423Y00174118D01*
Y00184275D01*
X00390884Y00186814D01*
X00398501Y00181735D02*
X00403580Y00171579D01*
X00408658Y00181735D01*
X00421354Y00171579D02*
X00416276D01*
X00413736Y00174118D01*
Y00179196D01*
X00416276Y00181735D01*
X00421354D01*
X00423893Y00179196D01*
Y00176657D01*
X00413736D01*
X00428971Y00181735D02*
Y00171579D01*
Y00176657D01*
X00431511Y00179196D01*
X00434050Y00181735D01*
X00436589D01*
X00444207Y00171579D02*
X00449285D01*
X00446746D01*
Y00186814D01*
X00444207D01*
X00459442Y00181735D02*
X00464520D01*
X00467059Y00179196D01*
Y00171579D01*
X00459442D01*
X00456903Y00174118D01*
X00459442Y00176657D01*
X00467059D01*
X00472137Y00181735D02*
Y00174118D01*
X00474677Y00171579D01*
X00482294D01*
Y00169039D01*
X00479755Y00166500D01*
X00477216D01*
X00482294Y00171579D02*
Y00181735D01*
X01441196Y00223097D02*
Y00238332D01*
X01451353Y00223097D01*
Y00238332D01*
X01458970Y00223097D02*
X01464049D01*
X01466588Y00225636D01*
Y00230714D01*
X01464049Y00233253D01*
X01458970D01*
X01456431Y00230714D01*
Y00225636D01*
X01458970Y00223097D01*
X01474205Y00235793D02*
Y00233253D01*
X01471666D01*
X01476745D01*
X01474205D01*
Y00225636D01*
X01476745Y00223097D01*
X01499597D02*
X01504675D01*
X01502136D01*
Y00233253D01*
X01499597D01*
X01512293Y00223097D02*
Y00233253D01*
X01519910D01*
X01522450Y00230714D01*
Y00223097D01*
X01542763Y00233253D02*
X01547841Y00223097D01*
X01552920Y00233253D01*
X01565616Y00223097D02*
X01560537D01*
X01557998Y00225636D01*
Y00230714D01*
X01560537Y00233253D01*
X01565616D01*
X01568155Y00230714D01*
Y00228175D01*
X01557998D01*
X01573233Y00233253D02*
Y00223097D01*
Y00228175D01*
X01575773Y00230714D01*
X01578312Y00233253D01*
X01580851D01*
X01588468Y00223097D02*
X01596086D01*
X01598625Y00225636D01*
X01596086Y00228175D01*
X01591008D01*
X01588468Y00230714D01*
X01591008Y00233253D01*
X01598625D01*
X01603703Y00223097D02*
X01608782D01*
X01606243D01*
Y00233253D01*
X01603703D01*
X01618938Y00223097D02*
X01624017D01*
X01626556Y00225636D01*
Y00230714D01*
X01624017Y00233253D01*
X01618938D01*
X01616399Y00230714D01*
Y00225636D01*
X01618938Y00223097D01*
X01631634D02*
Y00233253D01*
X01639252D01*
X01641791Y00230714D01*
Y00223097D01*
X01672261Y00233253D02*
X01664644D01*
X01662104Y00230714D01*
Y00225636D01*
X01664644Y00223097D01*
X01672261D01*
X01679879D02*
X01684957D01*
X01687496Y00225636D01*
Y00230714D01*
X01684957Y00233253D01*
X01679879D01*
X01677340Y00230714D01*
Y00225636D01*
X01679879Y00223097D01*
X01692575D02*
Y00233253D01*
X01700192D01*
X01702731Y00230714D01*
Y00223097D01*
X01710349Y00235793D02*
Y00233253D01*
X01707810D01*
X01712888D01*
X01710349D01*
Y00225636D01*
X01712888Y00223097D01*
X01720506Y00233253D02*
Y00223097D01*
Y00228175D01*
X01723045Y00230714D01*
X01725584Y00233253D01*
X01728123D01*
X01738280Y00223097D02*
X01743358D01*
X01745897Y00225636D01*
Y00230714D01*
X01743358Y00233253D01*
X01738280D01*
X01735741Y00230714D01*
Y00225636D01*
X01738280Y00223097D01*
X01750976D02*
X01756054D01*
X01753515D01*
Y00238332D01*
X01750976D01*
X01322829Y00235793D02*
X01320289Y00238332D01*
X01315211D01*
X01312672Y00235793D01*
Y00233253D01*
X01315211Y00230714D01*
X01320289D01*
X01322829Y00228175D01*
Y00225636D01*
X01320289Y00223097D01*
X01315211D01*
X01312672Y00225636D01*
X01327907Y00238332D02*
Y00228175D01*
X01332985Y00223097D01*
X01338064Y00228175D01*
Y00238332D01*
X01343142Y00223097D02*
Y00238332D01*
X01353299Y00223097D01*
Y00238332D01*
X01373612Y00223097D02*
Y00238332D01*
X01381230D01*
X01383769Y00235793D01*
Y00230714D01*
X01381230Y00228175D01*
X01373612D01*
X01378691D02*
X01383769Y00223097D01*
X01399004Y00238332D02*
X01388847D01*
Y00223097D01*
X01399004D01*
X01388847Y00230714D02*
X01393926D01*
X01404082Y00238332D02*
Y00228175D01*
X01409161Y00223097D01*
X01414239Y00228175D01*
Y00238332D01*
X01419317Y00233253D02*
X01421857D01*
Y00230714D01*
X01419317D01*
Y00233253D01*
Y00225636D02*
X01421857D01*
Y00223097D01*
X01419317D01*
Y00225636D01*
X01099820Y00223097D02*
Y00238332D01*
X01107438D01*
X01109977Y00235793D01*
Y00230714D01*
X01107438Y00228175D01*
X01099820D01*
X01104898D02*
X01109977Y00223097D01*
X01125212Y00238332D02*
X01115055D01*
Y00223097D01*
X01125212D01*
X01115055Y00230714D02*
X01120133D01*
X01130290Y00238332D02*
Y00228175D01*
X01135368Y00223097D01*
X01140447Y00228175D01*
Y00238332D01*
X01145525Y00233253D02*
X01148064D01*
Y00230714D01*
X01145525D01*
Y00233253D01*
Y00225636D02*
X01148064D01*
Y00223097D01*
X01145525D01*
Y00225636D01*
X00322326Y00119295D02*
Y00134530D01*
X00329944D01*
X00332483Y00131991D01*
Y00126912D01*
X00329944Y00124373D01*
X00322326D01*
X00337561Y00119295D02*
Y00134530D01*
X00342639Y00129452D01*
X00347718Y00134530D01*
Y00119295D01*
X00352796D02*
Y00134530D01*
X00360414D01*
X00362953Y00131991D01*
Y00126912D01*
X00360414Y00124373D01*
X00352796D01*
X00378188Y00119295D02*
X00368031D01*
X00378188Y00129452D01*
Y00131991D01*
X00375649Y00134530D01*
X00370570D01*
X00368031Y00131991D01*
X00393423Y00119295D02*
X00383266D01*
X00393423Y00129452D01*
Y00131991D01*
X00390884Y00134530D01*
X00385806D01*
X00383266Y00131991D01*
X00398501Y00134530D02*
X00408658D01*
Y00131991D01*
X00398501Y00121834D01*
Y00119295D01*
X00413736D02*
X00418815D01*
X00416276D01*
Y00134530D01*
X00413736Y00131991D01*
X00436589Y00119295D02*
X00426432D01*
X00436589Y00129452D01*
Y00131991D01*
X00434050Y00134530D01*
X00428971D01*
X00426432Y00131991D01*
X00451824Y00134530D02*
X00441667D01*
Y00119295D01*
X00451824D01*
X00441667Y00126912D02*
X00446746D01*
X00467059Y00119295D02*
X00456903D01*
X00467059Y00129452D01*
Y00131991D01*
X00464520Y00134530D01*
X00459442D01*
X00456903Y00131991D01*
X00472137Y00119295D02*
Y00121834D01*
X00474677D01*
Y00119295D01*
X00472137D01*
X00494990Y00131991D02*
X00492451Y00134530D01*
X00487373D01*
X00484833Y00131991D01*
Y00121834D01*
X00487373Y00119295D01*
X00492451D01*
X00494990Y00121834D01*
Y00126912D01*
X00489912D01*
X00500069Y00134530D02*
X00510225D01*
X00505147D01*
Y00119295D01*
X00522921Y00134530D02*
X00517843D01*
X00515304Y00131991D01*
Y00121834D01*
X00517843Y00119295D01*
X00522921D01*
X00525460Y00121834D01*
Y00131991D01*
X00522921Y00134530D01*
X00968121Y00131991D02*
X00970660Y00134530D01*
X00975739D01*
X00978278Y00131991D01*
Y00129452D01*
X00975739Y00126912D01*
X00978278Y00124373D01*
Y00121834D01*
X00975739Y00119295D01*
X00970660D01*
X00968121Y00121834D01*
Y00124373D01*
X00970660Y00126912D01*
X00968121Y00129452D01*
Y00131991D01*
X00970660Y00126912D02*
X00975739D01*
X00983356Y00119295D02*
X00993513Y00129452D01*
X01008748Y00119295D02*
X00998591D01*
X01008748Y00129452D01*
Y00131991D01*
X01006209Y00134530D01*
X01001130D01*
X00998591Y00131991D01*
X01013826D02*
X01016365Y00134530D01*
X01021444D01*
X01023983Y00131991D01*
Y00121834D01*
X01021444Y00119295D01*
X01016365D01*
X01013826Y00121834D01*
Y00131991D01*
X01029061Y00119295D02*
X01039218Y00129452D01*
X01054453Y00119295D02*
X01044296D01*
X01054453Y00129452D01*
Y00131991D01*
X01051914Y00134530D01*
X01046835D01*
X01044296Y00131991D01*
X01059531D02*
X01062071Y00134530D01*
X01067149D01*
X01069688Y00131991D01*
Y00121834D01*
X01067149Y00119295D01*
X01062071D01*
X01059531Y00121834D01*
Y00131991D01*
X01084923Y00119295D02*
X01074766D01*
X01084923Y00129452D01*
Y00131991D01*
X01082384Y00134530D01*
X01077306D01*
X01074766Y00131991D01*
X01090002Y00119295D02*
X01095080D01*
X01092541D01*
Y00134530D01*
X01090002Y00131991D01*
X00757425D02*
X00754885Y00134530D01*
X00749807D01*
X00747268Y00131991D01*
Y00121834D01*
X00749807Y00119295D01*
X00754885D01*
X00757425Y00121834D01*
Y00126912D01*
X00752346D01*
X00772660Y00134530D02*
X00762503D01*
Y00119295D01*
X00772660D01*
X00762503Y00126912D02*
X00767581D01*
X00777738Y00119295D02*
Y00134530D01*
X00787895Y00119295D01*
Y00134530D01*
X00803130D02*
X00792973D01*
Y00119295D01*
X00803130D01*
X00792973Y00126912D02*
X00798052D01*
X00808208Y00119295D02*
Y00134530D01*
X00815826D01*
X00818365Y00131991D01*
Y00126912D01*
X00815826Y00124373D01*
X00808208D01*
X00813287D02*
X00818365Y00119295D01*
X00823443D02*
Y00129452D01*
X00828522Y00134530D01*
X00833600Y00129452D01*
Y00119295D01*
Y00126912D01*
X00823443D01*
X00838678Y00134530D02*
X00848835D01*
X00843757D01*
Y00119295D01*
X00864070Y00134530D02*
X00853913D01*
Y00119295D01*
X00864070D01*
X00853913Y00126912D02*
X00858992D01*
X00869149Y00134530D02*
Y00119295D01*
X00876766D01*
X00879305Y00121834D01*
Y00131991D01*
X00876766Y00134530D01*
X00869149D01*
X00945324Y00129452D02*
X00947863D01*
Y00126912D01*
X00945324D01*
Y00129452D01*
Y00121834D02*
X00947863D01*
Y00119295D01*
X00945324D01*
Y00121834D01*
X00117729Y00223097D02*
Y00233253D01*
X00122807Y00238332D01*
X00127886Y00233253D01*
Y00223097D01*
Y00230714D01*
X00117729D01*
X00132964Y00238332D02*
Y00223097D01*
X00143121D01*
X00148199Y00238332D02*
Y00223097D01*
X00158356D01*
X00178669D02*
Y00233253D01*
X00183748Y00238332D01*
X00188826Y00233253D01*
Y00223097D01*
Y00230714D01*
X00178669D01*
X00193904Y00223097D02*
Y00238332D01*
X00201522D01*
X00204061Y00235793D01*
Y00230714D01*
X00201522Y00228175D01*
X00193904D01*
X00198983D02*
X00204061Y00223097D01*
X00209139Y00238332D02*
X00219296D01*
X00214218D01*
Y00223097D01*
X00224375Y00238332D02*
Y00223097D01*
X00229453Y00228175D01*
X00234531Y00223097D01*
Y00238332D01*
X00247227D02*
X00242149D01*
X00239610Y00235793D01*
Y00225636D01*
X00242149Y00223097D01*
X00247227D01*
X00249766Y00225636D01*
Y00235793D01*
X00247227Y00238332D01*
X00254845Y00223097D02*
Y00238332D01*
X00262462D01*
X00265001Y00235793D01*
Y00230714D01*
X00262462Y00228175D01*
X00254845D01*
X00259923D02*
X00265001Y00223097D01*
X00270080Y00238332D02*
Y00223097D01*
Y00228175D01*
X00280236Y00238332D01*
X00272619Y00230714D01*
X00280236Y00223097D01*
X00300550Y00238332D02*
Y00228175D01*
X00305628Y00223097D01*
X00310707Y00228175D01*
Y00238332D01*
X00315785D02*
X00320863D01*
X00318324D01*
Y00223097D01*
X00315785D01*
X00320863D01*
X00338638Y00238332D02*
X00328481D01*
Y00223097D01*
X00338638D01*
X00328481Y00230714D02*
X00333559D01*
X00343716Y00238332D02*
Y00223097D01*
X00348794Y00228175D01*
X00353873Y00223097D01*
Y00238332D01*
X00369108D02*
X00358951D01*
Y00223097D01*
X00369108D01*
X00358951Y00230714D02*
X00364029D01*
X00374186Y00238332D02*
Y00223097D01*
X00381804D01*
X00384343Y00225636D01*
Y00235793D01*
X00381804Y00238332D01*
X00374186D01*
X00414813D02*
X00404656D01*
Y00230714D01*
X00409734D01*
X00404656D01*
Y00223097D01*
X00419891D02*
Y00238332D01*
X00427509D01*
X00430048Y00235793D01*
Y00230714D01*
X00427509Y00228175D01*
X00419891D01*
X00424970D02*
X00430048Y00223097D01*
X00442744Y00238332D02*
X00437665D01*
X00435126Y00235793D01*
Y00225636D01*
X00437665Y00223097D01*
X00442744D01*
X00445283Y00225636D01*
Y00235793D01*
X00442744Y00238332D01*
X00450361Y00223097D02*
Y00238332D01*
X00455440Y00233253D01*
X00460518Y00238332D01*
Y00223097D01*
X00480832Y00238332D02*
X00490988D01*
X00485910D01*
Y00223097D01*
X00503684Y00238332D02*
X00498606D01*
X00496067Y00235793D01*
Y00225636D01*
X00498606Y00223097D01*
X00503684D01*
X00506223Y00225636D01*
Y00235793D01*
X00503684Y00238332D01*
X00511302Y00223097D02*
Y00238332D01*
X00518919D01*
X00521458Y00235793D01*
Y00230714D01*
X00518919Y00228175D01*
X00511302D01*
X00551929Y00235793D02*
X00549389Y00238332D01*
X00544311D01*
X00541772Y00235793D01*
Y00233253D01*
X00544311Y00230714D01*
X00549389D01*
X00551929Y00228175D01*
Y00225636D01*
X00549389Y00223097D01*
X00544311D01*
X00541772Y00225636D01*
X00557007Y00238332D02*
X00562085D01*
X00559546D01*
Y00223097D01*
X00557007D01*
X00562085D01*
X00569703Y00238332D02*
Y00223097D01*
X00577320D01*
X00579860Y00225636D01*
Y00235793D01*
X00577320Y00238332D01*
X00569703D01*
X00595095D02*
X00584938D01*
Y00223097D01*
X00595095D01*
X00584938Y00230714D02*
X00590016D01*
X01184018Y00238332D02*
X01173861D01*
Y00223097D01*
X01184018D01*
X01173861Y00230714D02*
X01178939D01*
X01199253Y00223097D02*
X01189096D01*
X01199253Y00233253D01*
Y00235793D01*
X01196714Y00238332D01*
X01191635D01*
X01189096Y00235793D01*
X00885317Y00223097D02*
Y00238332D01*
X00892934D01*
X00895474Y00235793D01*
Y00230714D01*
X00892934Y00228175D01*
X00885317D01*
X00900552Y00223097D02*
Y00238332D01*
X00905630Y00233253D01*
X00910709Y00238332D01*
Y00223097D01*
X00915787D02*
Y00238332D01*
X00923405D01*
X00925944Y00235793D01*
Y00230714D01*
X00923405Y00228175D01*
X00915787D01*
X00941179Y00223097D02*
X00931022D01*
X00941179Y00233253D01*
Y00235793D01*
X00938640Y00238332D01*
X00933561D01*
X00931022Y00235793D01*
X00956414Y00223097D02*
X00946257D01*
X00956414Y00233253D01*
Y00235793D01*
X00953875Y00238332D01*
X00948796D01*
X00946257Y00235793D01*
X00961492Y00238332D02*
X00971649D01*
Y00235793D01*
X00961492Y00225636D01*
Y00223097D01*
X00976727D02*
X00981806D01*
X00979267D01*
Y00238332D01*
X00976727Y00235793D01*
X00999580Y00223097D02*
X00989423D01*
X00999580Y00233253D01*
Y00235793D01*
X00997041Y00238332D01*
X00991963D01*
X00989423Y00235793D01*
X00746760Y00238332D02*
Y00223097D01*
X00754378D01*
X00756917Y00225636D01*
Y00228175D01*
X00754378Y00230714D01*
X00746760D01*
X00754378D01*
X00756917Y00233253D01*
Y00235793D01*
X00754378Y00238332D01*
X00746760D01*
X00769613D02*
X00764534D01*
X00761995Y00235793D01*
Y00225636D01*
X00764534Y00223097D01*
X00769613D01*
X00772152Y00225636D01*
Y00235793D01*
X00769613Y00238332D01*
X00777230Y00223097D02*
Y00233253D01*
X00782309Y00238332D01*
X00787387Y00233253D01*
Y00223097D01*
Y00230714D01*
X00777230D01*
X00792465Y00223097D02*
Y00238332D01*
X00800083D01*
X00802622Y00235793D01*
Y00230714D01*
X00800083Y00228175D01*
X00792465D01*
X00797544D02*
X00802622Y00223097D01*
X00807700Y00238332D02*
Y00223097D01*
X00815318D01*
X00817857Y00225636D01*
Y00235793D01*
X00815318Y00238332D01*
X00807700D01*
X00840710Y00223097D02*
Y00238332D01*
X00845788D02*
Y00223097D01*
X00838170Y00233253D02*
X00845788D01*
X00848327D01*
X00838170Y00228175D02*
X00848327D01*
X00853406Y00233253D02*
X00855945D01*
Y00230714D01*
X00853406D01*
Y00233253D01*
Y00225636D02*
X00855945D01*
Y00223097D01*
X00853406D01*
Y00225636D01*
X00117729Y00186814D02*
Y00171579D01*
X00127886D01*
X00132964D02*
Y00181735D01*
X00138042Y00186814D01*
X00143121Y00181735D01*
Y00171579D01*
Y00179196D01*
X00132964D01*
X00148199Y00186814D02*
Y00184275D01*
X00153278Y00179196D01*
X00158356Y00184275D01*
Y00186814D01*
X00153278Y00179196D02*
Y00171579D01*
X00173591Y00186814D02*
X00163434D01*
Y00171579D01*
X00173591D01*
X00163434Y00179196D02*
X00168513D01*
X00178669Y00171579D02*
Y00186814D01*
X00186287D01*
X00188826Y00184275D01*
Y00179196D01*
X00186287Y00176657D01*
X00178669D01*
X00183748D02*
X00188826Y00171579D01*
X00209139D02*
Y00186814D01*
X00219296Y00171579D01*
Y00186814D01*
X00224375Y00171579D02*
Y00181735D01*
X00229453Y00186814D01*
X00234531Y00181735D01*
Y00171579D01*
Y00179196D01*
X00224375D01*
X00239610Y00171579D02*
Y00186814D01*
X00244688Y00181735D01*
X00249766Y00186814D01*
Y00171579D01*
X00265001Y00186814D02*
X00254845D01*
Y00171579D01*
X00265001D01*
X00254845Y00179196D02*
X00259923D01*
X00285315Y00176657D02*
X00295471D01*
X00285315Y00181735D02*
X00295471D01*
X00117729Y00119295D02*
Y00134530D01*
X00125346D01*
X00127886Y00131991D01*
Y00126912D01*
X00125346Y00124373D01*
X00117729D01*
X00132964Y00134530D02*
Y00119295D01*
X00143121D01*
X00155817Y00134530D02*
X00150738D01*
X00148199Y00131991D01*
Y00121834D01*
X00150738Y00119295D01*
X00155817D01*
X00158356Y00121834D01*
Y00131991D01*
X00155817Y00134530D01*
X00163434D02*
X00173591D01*
X00168513D01*
Y00119295D01*
X00193904D02*
Y00134530D01*
X00204061Y00119295D01*
Y00134530D01*
X00209139Y00119295D02*
Y00129452D01*
X00214218Y00134530D01*
X00219296Y00129452D01*
Y00119295D01*
Y00126912D01*
X00209139D01*
X00224375Y00119295D02*
Y00134530D01*
X00229453Y00129452D01*
X00234531Y00134530D01*
Y00119295D01*
X00249766Y00134530D02*
X00239610D01*
Y00119295D01*
X00249766D01*
X00239610Y00126912D02*
X00244688D01*
X00270080Y00124373D02*
X00280236D01*
X00270080Y00129452D02*
X00280236D01*
X01153287Y00119295D02*
X01158365D01*
X01155826D01*
Y00134530D01*
X01153287Y00131991D01*
X01176140Y00119295D02*
X01165983D01*
X01176140Y00129452D01*
Y00131991D01*
X01173600Y00134530D01*
X01168522D01*
X01165983Y00131991D01*
X01181218Y00129452D02*
X01183757D01*
Y00126912D01*
X01181218D01*
Y00129452D01*
Y00121834D02*
X01183757D01*
Y00119295D01*
X01181218D01*
Y00121834D01*
X01204071Y00119295D02*
X01193914D01*
X01204071Y00129452D01*
Y00131991D01*
X01201531Y00134530D01*
X01196453D01*
X01193914Y00131991D01*
X01209149Y00121834D02*
X01211688Y00119295D01*
X01216767D01*
X01219306Y00121834D01*
Y00131991D01*
X01216767Y00134530D01*
X01211688D01*
X01209149Y00131991D01*
Y00129452D01*
X01211688Y00126912D01*
X01219306D01*
X01224384Y00129452D02*
X01226923D01*
Y00126912D01*
X01224384D01*
Y00129452D01*
Y00121834D02*
X01226923D01*
Y00119295D01*
X01224384D01*
Y00121834D01*
X01244697Y00119295D02*
Y00134530D01*
X01237080Y00126912D01*
X01247237D01*
X01262472Y00119295D02*
X01252315D01*
X01262472Y00129452D01*
Y00131991D01*
X01259932Y00134530D01*
X01254854D01*
X01252315Y00131991D01*
X01282785Y00119295D02*
Y00134530D01*
X01290403D01*
X01292942Y00131991D01*
Y00126912D01*
X01290403Y00124373D01*
X01282785D01*
X01298020Y00119295D02*
Y00134530D01*
X01303098Y00129452D01*
X01308177Y00134530D01*
Y00119295D01*
X01474470Y00134530D02*
X01484627D01*
X01479548D01*
Y00119295D01*
X01499862Y00134530D02*
X01489705D01*
Y00119295D01*
X01499862D01*
X01489705Y00126912D02*
X01494783D01*
X01504940Y00134530D02*
X01515097Y00119295D01*
Y00134530D02*
X01504940Y00119295D01*
X01520175D02*
Y00129452D01*
X01525254Y00134530D01*
X01530332Y00129452D01*
Y00119295D01*
Y00126912D01*
X01520175D01*
X01545567Y00131991D02*
X01543028Y00134530D01*
X01537950D01*
X01535410Y00131991D01*
Y00129452D01*
X01537950Y00126912D01*
X01543028D01*
X01545567Y00124373D01*
Y00121834D01*
X01543028Y00119295D01*
X01537950D01*
X01535410Y00121834D01*
X01565880Y00134530D02*
X01570959D01*
X01568420D01*
Y00119295D01*
X01565880D01*
X01570959D01*
X01578576D02*
Y00134530D01*
X01588733Y00119295D01*
Y00134530D01*
X01603968Y00131991D02*
X01601429Y00134530D01*
X01596351D01*
X01593811Y00131991D01*
Y00129452D01*
X01596351Y00126912D01*
X01601429D01*
X01603968Y00124373D01*
Y00121834D01*
X01601429Y00119295D01*
X01596351D01*
X01593811Y00121834D01*
X01609046Y00134530D02*
X01619203D01*
X01614125D01*
Y00119295D01*
X01624281D02*
Y00134530D01*
X01631899D01*
X01634438Y00131991D01*
Y00126912D01*
X01631899Y00124373D01*
X01624281D01*
X01629360D02*
X01634438Y00119295D01*
X01639517Y00134530D02*
Y00121834D01*
X01642056Y00119295D01*
X01647134D01*
X01649673Y00121834D01*
Y00134530D01*
X01654752Y00119295D02*
Y00134530D01*
X01659830Y00129452D01*
X01664908Y00134530D01*
Y00119295D01*
X01680143Y00134530D02*
X01669987D01*
Y00119295D01*
X01680143D01*
X01669987Y00126912D02*
X01675065D01*
X01685222Y00119295D02*
Y00134530D01*
X01695379Y00119295D01*
Y00134530D01*
X01700457D02*
X01710614D01*
X01705535D01*
Y00119295D01*
X01725849Y00131991D02*
X01723309Y00134530D01*
X01718231D01*
X01715692Y00131991D01*
Y00129452D01*
X01718231Y00126912D01*
X01723309D01*
X01725849Y00124373D01*
Y00121834D01*
X01723309Y00119295D01*
X01718231D01*
X01715692Y00121834D01*
X00746760Y00186685D02*
X00756917D01*
X00751838D01*
Y00171450D01*
X00761995Y00186685D02*
X00767073D01*
X00764534D01*
Y00171450D01*
X00761995D01*
X00767073D01*
X00774691Y00186685D02*
Y00171450D01*
X00782309D01*
X00784848Y00173989D01*
Y00184146D01*
X00782309Y00186685D01*
X00774691D01*
X00807700Y00171450D02*
Y00186685D01*
X00812779D02*
Y00171450D01*
X00805161Y00181607D02*
X00812779D01*
X00815318D01*
X00805161Y00176528D02*
X00815318D01*
X00820396Y00181607D02*
X00822935D01*
Y00179067D01*
X00820396D01*
Y00181607D01*
Y00173989D02*
X00822935D01*
Y00171450D01*
X00820396D01*
Y00173989D01*
X00885317Y00171450D02*
Y00186685D01*
X00895474Y00171450D01*
Y00186685D01*
X00900552Y00171450D02*
X00910709Y00181607D01*
X00915787Y00171450D02*
Y00181607D01*
X00920865Y00186685D01*
X00925944Y00181607D01*
Y00171450D01*
Y00179067D01*
X00915787D01*
G54D16*
X00236393Y00495294D02*
D03*
X00236393Y00552168D02*
D03*
G54D17*
X01262888Y00205020D02*
Y00256667D01*
X01049528Y00205020D02*
Y00256667D01*
X00101600Y00205020D02*
X01778508D01*
X00101600Y00153374D02*
X01778000D01*
X00101600Y00101727D02*
X01118870D01*
X00101727Y00256667D02*
X01778508D01*
X00101727Y00101727D02*
Y00256667D01*
Y00101727D02*
X00501904D01*
X00101600D02*
Y00256667D01*
X00727710Y00101727D02*
Y00256667D01*
X01778508Y00101727D02*
Y00256667D01*
X01118870Y00101727D02*
X01778508D01*
X01420876Y00100076D02*
Y00151596D01*
M02*
